<svg xmlns="http://www.w3.org/2000/svg" id="svg8" width="238.111" height="332.599" version="1.1"><g id="layer1" transform="translate(-600.17 -2.847)"><g id="CLUB-8" transform="matrix(1.07145 0 0 1.07009 -1878.21 1167.5)"><rect id="rect6355-6-85-3-3-4-3" width="222.232" height="310.814" x="2313.109" y="-1088.37" rx="10.63" ry="10.63" style="display:inline;opacity:1;fill:#fff;fill-opacity:1;stroke:none;stroke-width:.996734;stroke-miterlimit:4;stroke-dasharray:none;stroke-opacity:1"/><path id="path147-0-8-1-6-13-2-2-3-8" d="M2475.756-1055.365c-9.774.212-14.157 11.217-6.918 19.764 1.05 1.246 1.158 1.961-.765.764-4.873-3.26-14.219-1.117-14.697 8.847-.592 12.277 16.562 15.815 19.783 2.76.17-1.377 1.29-1.346 1.02.61-.294 5.306-1.951 10.265-4.229 15.102h11.62c-2.277-4.837-3.935-9.796-4.228-15.103-.27-1.955.85-1.986 1.02-.609 3.22 13.055 20.374 9.517 19.783-2.76-.478-9.964-9.824-12.106-14.698-8.847-1.923 1.197-1.814.482-.764-.764 7.239-8.546 2.856-19.551-6.919-19.764h-.01z" style="display:inline;opacity:1"/><path id="path147-0-8-1-6-75-2-83-9-8-9" d="M2372.686-1055.365c-9.775.212-14.158 11.217-6.919 19.764 1.05 1.246 1.158 1.961-.764.764-4.874-3.26-14.22-1.117-14.698 8.847-.591 12.277 16.563 15.815 19.783 2.76.17-1.377 1.29-1.346 1.02.61-.294 5.306-1.95 10.265-4.229 15.102h11.62c-2.277-4.837-3.934-9.796-4.228-15.103-.27-1.955.85-1.986 1.02-.609 3.22 13.055 20.374 9.517 19.783-2.76-.478-9.964-9.824-12.106-14.698-8.847-1.923 1.197-1.814.482-.764-.764 7.239-8.546 2.856-19.551-6.919-19.764h-.01z" style="display:inline;opacity:1"/><path id="path147-0-8-1-6-7-5-5-7-62-3-0" d="M2475.756-809.732c-9.774-.212-14.157-11.217-6.918-19.763 1.05-1.246 1.158-1.962-.765-.764-4.873 3.259-14.219 1.116-14.697-8.848-.592-12.277 16.562-15.814 19.783-2.76.17 1.378 1.29 1.346 1.02-.609-.294-5.306-1.951-10.266-4.229-15.102h11.62c-2.277 4.836-3.935 9.796-4.228 15.102-.27 1.955.85 1.987 1.02.61 3.22-13.055 20.374-9.518 19.783 2.76-.478 9.963-9.824 12.106-14.698 8.847-1.923-1.198-1.814-.482-.764.764 7.239 8.546 2.856 19.551-6.919 19.763h-.01z" style="display:inline;opacity:1"/><path id="path147-0-8-1-6-75-6-1-2-41-4-5" d="M2372.686-809.732c-9.775-.212-14.158-11.217-6.919-19.763 1.05-1.246 1.158-1.962-.764-.764-4.874 3.259-14.22 1.116-14.698-8.848-.591-12.277 16.563-15.814 19.783-2.76.17 1.378 1.29 1.346 1.02-.609-.294-5.306-1.95-10.266-4.229-15.102h11.62c-2.277 4.836-3.934 9.796-4.228 15.102-.27 1.955.85 1.987 1.02.61 3.22-13.055 20.374-9.518 19.783 2.76-.478 9.963-9.824 12.106-14.698 8.847-1.923-1.198-1.814-.482-.764.764 7.239 8.546 2.856 19.551-6.919 19.763h-.01z" style="display:inline;opacity:1"/><path id="path147-0-8-1-6-2-00-7-5-5-3" d="M2424.221-1005.918c-9.774.212-14.157 11.217-6.918 19.763 1.05 1.247 1.158 1.962-.765.765-4.874-3.26-14.219-1.117-14.698 8.847-.59 12.277 16.563 15.814 19.784 2.76.17-1.378 1.29-1.346 1.02.609-.294 5.306-1.951 10.266-4.23 15.103h11.621c-2.278-4.837-3.935-9.797-4.228-15.103-.27-1.955.849-1.987 1.019-.61 3.22 13.055 20.375 9.518 19.784-2.759-.479-9.964-9.824-12.106-14.698-8.847-1.923 1.197-1.814.482-.765-.765 7.24-8.546 2.856-19.55-6.918-19.763h-.01z" style="display:inline;opacity:1"/><path id="path147-0-8-1-6-7-5-7-3-0-4-4-6" d="M2475.756-956.471c-9.774.212-14.157 11.217-6.918 19.763 1.05 1.246 1.158 1.962-.765.764-4.873-3.259-14.219-1.116-14.697 8.848-.592 12.277 16.562 15.814 19.783 2.76.17-1.378 1.29-1.347 1.02.608-.294 5.307-1.951 10.267-4.229 15.103h11.62c-2.277-4.836-3.935-9.796-4.228-15.103-.27-1.955.85-1.986 1.02-.609 3.22 13.055 20.374 9.518 19.783-2.76-.478-9.963-9.824-12.106-14.698-8.847-1.923 1.198-1.814.482-.764-.764 7.239-8.546 2.856-19.551-6.919-19.763h-.01z" style="display:inline;opacity:1"/><path id="path147-0-8-1-6-75-6-6-5-3-2-4-8" d="M2372.686-956.471c-9.775.212-14.158 11.217-6.919 19.763 1.05 1.246 1.158 1.962-.764.764-4.874-3.259-14.22-1.116-14.698 8.848-.591 12.277 16.563 15.814 19.783 2.76.17-1.378 1.29-1.347 1.02.608-.294 5.307-1.95 10.267-4.229 15.103h11.62c-2.277-4.836-3.934-9.796-4.228-15.103-.27-1.955.85-1.986 1.02-.609 3.22 13.055 20.374 9.518 19.783-2.76-.478-9.963-9.824-12.106-14.698-8.847-1.923 1.198-1.814.482-.764-.764 7.239-8.546 2.856-19.551-6.919-19.763h-.01z" style="display:inline;opacity:1"/><path id="path147-0-8-1-6-2-0-8-6-42-9-6" d="M2424.221-859.178c-9.774-.213-14.157-11.218-6.918-19.764 1.05-1.246 1.158-1.961-.765-.764-4.874 3.26-14.22 1.116-14.698-8.847-.59-12.277 16.563-15.815 19.784-2.76.17 1.377 1.29 1.346 1.02-.61-.294-5.306-1.951-10.265-4.229-15.102h11.62c-2.278 4.837-3.935 9.796-4.228 15.103-.27 1.955.849 1.986 1.019.609 3.22-13.055 20.375-9.517 19.784 2.76-.479 9.963-9.824 12.106-14.698 8.847-1.923-1.197-1.814-.482-.765.764 7.24 8.546 2.857 19.551-6.918 19.764h-.01z" style="display:inline;opacity:1"/><path id="path147-6-9-8-7-0-5-6-1-6-9" d="M2518.203-827.37c3.91-.088 5.663-4.673 2.767-8.234-.42-.52-.463-.817.306-.318 1.95 1.358 5.688.465 5.88-3.687.236-5.115-6.626-6.59-7.914-1.15-.068.574-.516.561-.408-.253.118-2.211.78-4.278 1.691-6.293h-4.647c.91 2.015 1.574 4.082 1.691 6.293.108.814-.34.827-.408.253-1.288-5.44-8.15-3.965-7.913 1.15.191 4.152 3.93 5.045 5.879 3.687.769-.5.726-.201.306.318-2.896 3.561-1.143 8.146 2.767 8.235z" style="display:inline;opacity:1"/><path id="path147-6-9-8-7-4-5-62-4-0-0" d="M2330.248-1038.556c-3.91.088-5.663 4.674-2.767 8.235.42.519.463.817-.306.318-1.95-1.358-5.688-.465-5.88 3.686-.236 5.116 6.626 6.59 7.914 1.15.068-.574.516-.56.408.254-.118 2.211-.78 4.278-1.692 6.293h4.648c-.91-2.015-1.574-4.082-1.691-6.293-.108-.814.34-.828.408-.254 1.288 5.44 8.15 3.966 7.913-1.15-.191-4.151-3.93-5.044-5.879-3.686-.769.499-.726.201-.306-.318 2.896-3.561 1.143-8.147-2.767-8.235z" style="display:inline;opacity:1"/><path id="path27-3-3-2" d="M2319.576-1051.317c.156-4.416 1.751-6.072 4.89-8.383-2.504-1.809-3.56-4.476-3.345-6.746.516-5.496 4.755-8.244 9.38-8.126 4.63.122 8.615 3.797 8.926 7.791.27 3.472-.76 5.148-3.22 6.974 2.919 2.469 4.784 4.09 4.715 8.44-.07 4.349-3.765 9.524-10.205 9.682s-11.3-5.216-11.14-9.632m17.98.016c.275-3.998-3.255-6.695-7.24-6.734-3.88-.042-7.35 3.274-7.35 6.863 0 3.855 4.515 5.95 7.43 5.96 3.545.015 6.92-2.647 7.16-6.089m-1.275-14.302c.076-3.364-3.025-5.777-6.225-5.68-2.845.086-5.854 2.259-5.86 5.073 0 3.523 3.426 5.282 6.35 5.35 2.655.06 5.675-2.2 5.735-4.743m0 0" style="opacity:1"/><path id="path27-0-0-5-0" d="M2507.528-814.608c.156 4.416 1.751 6.072 4.89 8.382-2.504 1.81-3.56 4.476-3.345 6.746.516 5.497 4.755 8.245 9.38 8.127 4.63-.123 8.615-3.797 8.926-7.791.27-3.472-.76-5.148-3.22-6.975 2.92-2.468 4.784-4.09 4.715-8.438-.07-4.35-3.764-9.525-10.205-9.683-6.44-.158-11.3 5.216-11.14 9.632m17.98-.016c.275 3.998-3.255 6.695-7.24 6.734-3.88.042-7.35-3.274-7.35-6.863 0-3.855 4.515-5.95 7.43-5.96 3.545-.015 6.92 2.647 7.16 6.089m-1.275 14.302c.076 3.364-3.025 5.777-6.225 5.68-2.845-.087-5.854-2.259-5.86-5.073 0-3.523 3.426-5.283 6.35-5.35 2.655-.06 5.675 2.199 5.735 4.743m0 0" style="opacity:1"/></g></g><g id="g862" transform="translate(-341.277 144.762)"><rect id="rect22845-2" width="1659.913" height="794.398" x="-356.473" y="-1029.682" rx="144.482" ry="124.682" style="opacity:1;vector-effect:none;fill:#006614;fill-opacity:1;stroke:none;stroke-width:1.74801;stroke-linecap:butt;stroke-linejoin:miter;stroke-miterlimit:4;stroke-dasharray:none;stroke-dashoffset:0;stroke-opacity:1"/><text xml:space="preserve" id="text5630-0" x="472.194" y="-935.813" style="font-style:normal;font-variant:normal;font-weight:400;font-stretch:normal;font-size:42.6667px;line-height:125%;font-family:Carlito;-inkscape-font-specification:&quot;Carlito, Normal&quot;;text-align:center;letter-spacing:0;word-spacing:0;writing-mode:lr-tb;text-anchor:middle;fill:#fff;fill-opacity:1;stroke:none;stroke-width:1.06667px;stroke-linecap:butt;stroke-linejoin:miter;stroke-opacity:1"><tspan id="tspan4923" x="472.194" y="-935.813" style="font-style:normal;font-variant:normal;font-weight:400;font-stretch:normal;font-size:48px;line-height:125%;font-family:Carlito;-inkscape-font-specification:&quot;Carlito, Normal&quot;;text-align:center;writing-mode:lr-tb;text-anchor:middle;fill:#fff;fill-opacity:1;stroke-width:1.06667px">Single Playing Card from:</tspan><tspan id="tspan5035" x="472.194" y="-875.813" style="font-style:normal;font-variant:normal;font-weight:400;font-stretch:normal;font-size:48px;line-height:125%;font-family:Carlito;-inkscape-font-specification:&quot;Carlito, Normal&quot;;text-align:center;writing-mode:lr-tb;text-anchor:middle;fill:#fff;fill-opacity:1;stroke-width:1.06667px">Standard Edition - Color Set - Bordered </tspan><tspan id="tspan4927" x="472.194" y="-762.48" style="font-style:normal;font-variant:normal;font-weight:400;font-stretch:normal;font-size:48px;line-height:125%;font-family:Carlito;-inkscape-font-specification:&quot;Carlito, Normal&quot;;text-align:center;writing-mode:lr-tb;text-anchor:middle;fill:#faa;fill-opacity:1;stroke-width:1.06667px">Copyright 2011, 2020 - Chris Aguilar - conjurenation@gmail.com</tspan><tspan id="tspan4931" x="472.194" y="-649.147" style="font-style:normal;font-variant:normal;font-weight:400;font-stretch:normal;font-size:48px;line-height:125%;font-family:Carlito;-inkscape-font-specification:&quot;Carlito, Normal&quot;;text-align:center;writing-mode:lr-tb;text-anchor:middle;fill:#fff;fill-opacity:1;stroke-width:1.06667px">https://totalnonsense.com/open-source-vector-playing-cards/</tspan><tspan id="tspan4919" x="472.194" y="-535.813" style="font-style:normal;font-variant:normal;font-weight:400;font-stretch:normal;font-size:48px;line-height:125%;font-family:Carlito;-inkscape-font-specification:&quot;Carlito, Normal&quot;;text-align:center;writing-mode:lr-tb;text-anchor:middle;fill:#faa;fill-opacity:1;stroke-width:1.06667px">Licensed under:</tspan><tspan id="tspan1594-5" x="472.194" y="-475.813" style="font-style:normal;font-variant:normal;font-weight:400;font-stretch:normal;font-size:48px;line-height:125%;font-family:Carlito;-inkscape-font-specification:&quot;Carlito, Normal&quot;;text-align:center;writing-mode:lr-tb;text-anchor:middle;fill:#faa;fill-opacity:1;stroke-width:1.06667px">LGPL 3.0</tspan><tspan id="tspan12253-3" x="472.194" y="-415.813" style="font-style:normal;font-variant:normal;font-weight:400;font-stretch:normal;font-size:48px;line-height:125%;font-family:Carlito;-inkscape-font-specification:&quot;Carlito, Normal&quot;;text-align:center;writing-mode:lr-tb;text-anchor:middle;fill:#faa;fill-opacity:1;stroke-width:1.06667px">https://www.gnu.org/licenses/lgpl-3.0.html</tspan><tspan id="tspan5033" x="472.194" y="-302.48" style="font-style:normal;font-variant:normal;font-weight:400;font-stretch:normal;font-size:48px;line-height:125%;font-family:Carlito;-inkscape-font-specification:&quot;Carlito, Normal&quot;;text-align:center;writing-mode:lr-tb;text-anchor:middle;fill:#fff;fill-opacity:1;stroke-width:1.06667px">Each Card Measures (63mm x 88mm)</tspan></text></g></svg>