<svg xmlns="http://www.w3.org/2000/svg" id="svg8" width="238.111" height="332.599" version="1.1"><g id="layer1" transform="translate(-888.284 -2.847)"><g id="CLUB-9" transform="matrix(1.07145 0 0 1.07009 -1873.2 1167.5)"><rect id="rect6355-6-85-3-78-4-6" width="222.232" height="310.814" x="2577.334" y="-1088.37" rx="10.63" ry="10.63" style="display:inline;opacity:1;fill:#fff;fill-opacity:1;stroke:none;stroke-width:.996734;stroke-miterlimit:4;stroke-dasharray:none;stroke-opacity:1"/><path id="path147-0-8-1-6-13-2-9-8-8" d="M2739.981-1055.365c-9.774.212-14.157 11.217-6.918 19.763 1.05 1.247 1.158 1.962-.765.765-4.873-3.26-14.219-1.117-14.697 8.847-.591 12.277 16.563 15.815 19.783 2.76.17-1.377 1.29-1.346 1.02.61-.294 5.306-1.951 10.265-4.229 15.102h11.62c-2.277-4.837-3.935-9.796-4.228-15.103-.27-1.955.85-1.986 1.02-.609 3.22 13.055 20.374 9.517 19.783-2.76-.478-9.964-9.824-12.106-14.698-8.847-1.923 1.197-1.814.482-.764-.765 7.239-8.545 2.856-19.55-6.919-19.763h-.01z" style="display:inline;opacity:1"/><path id="path147-0-8-1-6-75-2-83-3-5-0" d="M2636.91-1055.365c-9.774.212-14.157 11.217-6.918 19.763 1.05 1.247 1.158 1.962-.764.765-4.874-3.26-14.22-1.117-14.698 8.847-.591 12.277 16.563 15.815 19.784 2.76.17-1.377 1.289-1.346 1.02.61-.295 5.306-1.952 10.265-4.23 15.102h11.62c-2.277-4.837-3.934-9.796-4.228-15.103-.27-1.955.85-1.986 1.02-.609 3.22 13.055 20.374 9.517 19.783-2.76-.478-9.964-9.824-12.106-14.698-8.847-1.922 1.197-1.814.482-.764-.765 7.239-8.545 2.856-19.55-6.918-19.763h-.01z" style="display:inline;opacity:1"/><path id="path147-0-8-1-6-7-5-5-7-63-0-4" d="M2739.981-809.732c-9.774-.212-14.157-11.217-6.918-19.763 1.05-1.247 1.158-1.962-.765-.765-4.873 3.26-14.219 1.117-14.697-8.847-.591-12.277 16.563-15.814 19.783-2.76.17 1.378 1.29 1.346 1.02-.609-.294-5.306-1.951-10.266-4.229-15.102h11.62c-2.277 4.836-3.935 9.796-4.228 15.102-.27 1.955.85 1.987 1.02.61 3.22-13.055 20.374-9.518 19.783 2.76-.478 9.963-9.824 12.106-14.698 8.847-1.923-1.198-1.814-.483-.764.764 7.239 8.546 2.856 19.551-6.919 19.763h-.01z" style="display:inline;opacity:1"/><path id="path147-0-8-1-6-75-6-1-2-46-5-0" d="M2636.91-809.732c-9.774-.212-14.157-11.217-6.918-19.763 1.05-1.247 1.158-1.962-.764-.765-4.874 3.26-14.22 1.117-14.698-8.847-.591-12.277 16.563-15.814 19.784-2.76.17 1.378 1.289 1.346 1.02-.609-.295-5.306-1.952-10.266-4.23-15.102h11.62c-2.277 4.836-3.934 9.796-4.228 15.102-.27 1.955.85 1.987 1.02.61 3.22-13.055 20.374-9.518 19.783 2.76-.478 9.963-9.824 12.106-14.698 8.847-1.922-1.198-1.814-.483-.764.764 7.239 8.546 2.856 19.551-6.918 19.763h-.01z" style="display:inline;opacity:1"/><path id="path147-0-8-1-6-1-1-0-5-61-2-0" d="M2688.446-956.471c-9.774.212-14.157 11.217-6.918 19.763 1.05 1.246 1.158 1.962-.765.764-4.874-3.259-14.22-1.116-14.698 8.848-.59 12.277 16.563 15.814 19.784 2.76.17-1.378 1.29-1.347 1.02.608-.294 5.307-1.951 10.267-4.23 15.103h11.621c-2.278-4.836-3.935-9.796-4.229-15.103-.27-1.955.85-1.986 1.02-.609 3.22 13.055 20.375 9.518 19.784-2.76-.479-9.963-9.824-12.106-14.698-8.847-1.923 1.198-1.815.482-.765-.764 7.24-8.546 2.856-19.551-6.918-19.763h-.01z" style="display:inline;opacity:1"/><path id="path147-6-9-8-7-0-5-6-5-2-8" d="M2782.428-827.37c3.91-.088 5.663-4.673 2.767-8.234-.42-.52-.463-.817.306-.318 1.95 1.358 5.688.465 5.88-3.687.236-5.115-6.626-6.59-7.914-1.15-.068.574-.516.561-.408-.253.118-2.211.78-4.278 1.691-6.293h-4.647c.91 2.015 1.574 4.082 1.691 6.293.108.814-.34.827-.408.253-1.288-5.44-8.15-3.965-7.913 1.15.191 4.152 3.93 5.045 5.879 3.687.77-.5.726-.201.306.318-2.896 3.561-1.143 8.146 2.767 8.235z" style="display:inline;opacity:1"/><path id="path147-0-8-1-6-75-2-9-77-4-4-2" d="M2636.91-989.436c-9.774.212-14.157 11.217-6.918 19.763 1.05 1.247 1.158 1.962-.764.765-4.874-3.26-14.22-1.117-14.698 8.847-.591 12.277 16.563 15.814 19.784 2.76.17-1.377 1.289-1.346 1.02.609-.294 5.306-1.952 10.266-4.23 15.103h11.62c-2.277-4.837-3.934-9.797-4.228-15.103-.27-1.955.85-1.986 1.02-.61 3.22 13.055 20.374 9.518 19.783-2.759-.478-9.964-9.824-12.106-14.698-8.847-1.922 1.197-1.814.482-.764-.765 7.239-8.546 2.856-19.55-6.918-19.763h-.01z" style="display:inline;opacity:1"/><path id="path147-0-8-1-6-75-2-8-0-6-4-4" d="M2636.91-875.66c-9.774-.213-14.157-11.218-6.918-19.764 1.05-1.246 1.158-1.962-.764-.764-4.874 3.259-14.22 1.116-14.698-8.848-.591-12.277 16.563-15.814 19.784-2.76.17 1.378 1.289 1.347 1.02-.608-.295-5.307-1.952-10.267-4.23-15.103h11.62c-2.277 4.836-3.934 9.796-4.228 15.103-.27 1.955.85 1.986 1.02.609 3.22-13.055 20.374-9.518 19.783 2.76-.478 9.963-9.824 12.106-14.698 8.847-1.922-1.198-1.814-.482-.764.764 7.239 8.546 2.856 19.551-6.918 19.763h-.01z" style="display:inline;opacity:1"/><path id="path147-0-8-1-6-75-2-9-7-1-36-2-4" d="M2739.981-989.436c-9.774.212-14.157 11.217-6.918 19.763 1.05 1.247 1.158 1.962-.765.765-4.873-3.26-14.219-1.117-14.697 8.847-.591 12.277 16.563 15.814 19.783 2.76.17-1.377 1.29-1.346 1.02.609-.294 5.306-1.951 10.266-4.229 15.103h11.62c-2.277-4.837-3.935-9.797-4.228-15.103-.27-1.955.85-1.986 1.02-.61 3.22 13.055 20.374 9.518 19.783-2.759-.478-9.964-9.824-12.106-14.698-8.847-1.923 1.197-1.814.482-.764-.765 7.239-8.546 2.856-19.55-6.919-19.763h-.01z" style="display:inline;opacity:1"/><path id="path147-0-8-1-6-75-2-8-5-1-55-5-4" d="M2739.981-875.66c-9.774-.213-14.157-11.218-6.918-19.764 1.05-1.246 1.158-1.962-.765-.764-4.873 3.259-14.219 1.116-14.697-8.848-.591-12.277 16.563-15.814 19.783-2.76.17 1.378 1.29 1.347 1.02-.608-.294-5.307-1.951-10.267-4.229-15.103h11.62c-2.277 4.836-3.935 9.796-4.228 15.103-.27 1.955.85 1.986 1.02.609 3.22-13.055 20.374-9.518 19.783 2.76-.478 9.963-9.824 12.106-14.698 8.847-1.923-1.198-1.814-.482-.764.764 7.239 8.546 2.856 19.551-6.919 19.763h-.01z" style="display:inline;opacity:1"/><path id="path147-6-9-8-7-4-5-62-7-8-4" d="M2594.473-1038.556c-3.91.088-5.663 4.674-2.767 8.235.42.519.463.817-.306.318-1.95-1.358-5.688-.465-5.88 3.686-.236 5.116 6.626 6.59 7.914 1.15.068-.574.516-.56.408.254-.117 2.211-.78 4.278-1.691 6.293h4.648c-.912-2.015-1.575-4.082-1.692-6.293-.108-.814.34-.828.408-.254 1.288 5.44 8.15 3.966 7.913-1.15-.191-4.151-3.93-5.044-5.879-3.686-.769.499-.726.201-.306-.318 2.896-3.561 1.143-8.147-2.767-8.235z" style="display:inline;opacity:1"/><path id="path29-2-3-4" d="m2585.296-1048.023 3.005-.954c1.136 3.034 3.425 3.932 5.85 3.737 4.349-.347 5.794-5.216 6.12-9.519-1.696 1.8-4.241 2.714-6.41 2.621-6.936-.372-8.71-5.93-8.775-11.747-.19-4.905 1.836-8.458 5.31-10.09 1.84-.826 6.053-.826 7.904.153 4.25 2.245 5.825 6.123 5.54 15.382 0 7.618-1.615 16.49-9.77 16.682-4.709.653-8.289-3.017-8.774-6.265m11.805-8.347c1.414-.896 2.21-1.738 2.845-2.998.52-1.035.7-1.575.55-3.716-.385-5.522-3.275-8.657-7.47-8.036-2.339.353-3.619 1.663-4.353 4.1-1.356 4.507.364 9.779 3.585 10.992 1.448.551 3.688.393 4.843-.342m0 0" style="opacity:1"/><path id="path29-6-1-3-7" d="m2791.602-817.903-3.005.955c-1.135-3.034-3.425-3.932-5.85-3.737-4.349.347-5.794 5.215-6.119 9.519 1.695-1.8 4.24-2.714 6.41-2.621 6.935.372 8.71 5.93 8.774 11.747.19 4.905-1.835 8.457-5.31 10.089-1.84.826-6.053.826-7.904-.153-4.25-2.245-5.825-6.122-5.54-15.382 0-7.617 1.616-16.488 9.77-16.682 4.709-.652 8.29 3.018 8.774 6.265m-11.805 8.347c-1.414.897-2.21 1.739-2.845 2.998-.52 1.035-.7 1.576-.55 3.716.385 5.523 3.275 8.658 7.47 8.036 2.34-.352 3.619-1.662 4.354-4.1 1.355-4.506-.365-9.778-3.586-10.992-1.448-.55-3.688-.393-4.843.342m0 0" style="opacity:1"/></g></g><g id="g862" transform="translate(-322.146 60.813)"><rect id="rect22845-2" width="1659.913" height="794.398" x="-356.473" y="-1029.682" rx="144.482" ry="124.682" style="opacity:1;vector-effect:none;fill:#006614;fill-opacity:1;stroke:none;stroke-width:1.74801;stroke-linecap:butt;stroke-linejoin:miter;stroke-miterlimit:4;stroke-dasharray:none;stroke-dashoffset:0;stroke-opacity:1"/><text xml:space="preserve" id="text5630-0" x="472.194" y="-935.813" style="font-style:normal;font-variant:normal;font-weight:400;font-stretch:normal;font-size:42.6667px;line-height:125%;font-family:Carlito;-inkscape-font-specification:&quot;Carlito, Normal&quot;;text-align:center;letter-spacing:0;word-spacing:0;writing-mode:lr-tb;text-anchor:middle;fill:#fff;fill-opacity:1;stroke:none;stroke-width:1.06667px;stroke-linecap:butt;stroke-linejoin:miter;stroke-opacity:1"><tspan id="tspan4923" x="472.194" y="-935.813" style="font-style:normal;font-variant:normal;font-weight:400;font-stretch:normal;font-size:48px;line-height:125%;font-family:Carlito;-inkscape-font-specification:&quot;Carlito, Normal&quot;;text-align:center;writing-mode:lr-tb;text-anchor:middle;fill:#fff;fill-opacity:1;stroke-width:1.06667px">Single Playing Card from:</tspan><tspan id="tspan5035" x="472.194" y="-875.813" style="font-style:normal;font-variant:normal;font-weight:400;font-stretch:normal;font-size:48px;line-height:125%;font-family:Carlito;-inkscape-font-specification:&quot;Carlito, Normal&quot;;text-align:center;writing-mode:lr-tb;text-anchor:middle;fill:#fff;fill-opacity:1;stroke-width:1.06667px">Standard Edition - Color Set - Bordered </tspan><tspan id="tspan4927" x="472.194" y="-762.48" style="font-style:normal;font-variant:normal;font-weight:400;font-stretch:normal;font-size:48px;line-height:125%;font-family:Carlito;-inkscape-font-specification:&quot;Carlito, Normal&quot;;text-align:center;writing-mode:lr-tb;text-anchor:middle;fill:#faa;fill-opacity:1;stroke-width:1.06667px">Copyright 2011, 2020 - Chris Aguilar - conjurenation@gmail.com</tspan><tspan id="tspan4931" x="472.194" y="-649.147" style="font-style:normal;font-variant:normal;font-weight:400;font-stretch:normal;font-size:48px;line-height:125%;font-family:Carlito;-inkscape-font-specification:&quot;Carlito, Normal&quot;;text-align:center;writing-mode:lr-tb;text-anchor:middle;fill:#fff;fill-opacity:1;stroke-width:1.06667px">https://totalnonsense.com/open-source-vector-playing-cards/</tspan><tspan id="tspan4919" x="472.194" y="-535.813" style="font-style:normal;font-variant:normal;font-weight:400;font-stretch:normal;font-size:48px;line-height:125%;font-family:Carlito;-inkscape-font-specification:&quot;Carlito, Normal&quot;;text-align:center;writing-mode:lr-tb;text-anchor:middle;fill:#faa;fill-opacity:1;stroke-width:1.06667px">Licensed under:</tspan><tspan id="tspan1594-5" x="472.194" y="-475.813" style="font-style:normal;font-variant:normal;font-weight:400;font-stretch:normal;font-size:48px;line-height:125%;font-family:Carlito;-inkscape-font-specification:&quot;Carlito, Normal&quot;;text-align:center;writing-mode:lr-tb;text-anchor:middle;fill:#faa;fill-opacity:1;stroke-width:1.06667px">LGPL 3.0</tspan><tspan id="tspan12253-3" x="472.194" y="-415.813" style="font-style:normal;font-variant:normal;font-weight:400;font-stretch:normal;font-size:48px;line-height:125%;font-family:Carlito;-inkscape-font-specification:&quot;Carlito, Normal&quot;;text-align:center;writing-mode:lr-tb;text-anchor:middle;fill:#faa;fill-opacity:1;stroke-width:1.06667px">https://www.gnu.org/licenses/lgpl-3.0.html</tspan><tspan id="tspan5033" x="472.194" y="-302.48" style="font-style:normal;font-variant:normal;font-weight:400;font-stretch:normal;font-size:48px;line-height:125%;font-family:Carlito;-inkscape-font-specification:&quot;Carlito, Normal&quot;;text-align:center;writing-mode:lr-tb;text-anchor:middle;fill:#fff;fill-opacity:1;stroke-width:1.06667px">Each Card Measures (63mm x 88mm)</tspan></text></g></svg>