<svg xmlns="http://www.w3.org/2000/svg" id="svg8" width="238.111" height="332.599" version="1.1"><g id="layer1" transform="translate(-1176.389 -2.847)"><g id="CLUB-10" transform="matrix(1.07145 0 0 1.07009 -1868.2 1167.5)"><rect id="rect6355-6-85-3-6-8-7" width="222.232" height="310.814" x="2841.559" y="-1088.37" rx="10.63" ry="10.63" style="display:inline;opacity:1;fill:#fff;fill-opacity:1;stroke:none;stroke-width:.996734;stroke-miterlimit:4;stroke-dasharray:none;stroke-opacity:1"/><path id="path147-0-8-1-6-13-2-22-1-5" d="M3004.207-1055.365c-9.775.212-14.158 11.217-6.919 19.763 1.05 1.247 1.158 1.962-.764.765-4.874-3.26-14.22-1.117-14.698 8.847-.591 12.277 16.563 15.815 19.784 2.76.17-1.377 1.289-1.346 1.02.61-.295 5.306-1.952 10.265-4.23 15.102h11.62c-2.277-4.837-3.934-9.796-4.228-15.103-.27-1.955.85-1.986 1.02-.609 3.22 13.055 20.374 9.517 19.783-2.76-.478-9.964-9.824-12.106-14.698-8.847-1.922 1.197-1.814.482-.764-.765 7.239-8.545 2.856-19.55-6.918-19.763h-.01z" style="display:inline;opacity:1"/><path id="path147-0-8-1-6-75-2-83-21-1-8" d="M2901.136-1055.365c-9.775.212-14.158 11.217-6.919 19.763 1.05 1.247 1.159 1.962-.764.765-4.874-3.26-14.22-1.117-14.698 8.847-.591 12.277 16.563 15.815 19.784 2.76.17-1.377 1.29-1.346 1.02.61-.294 5.306-1.952 10.265-4.23 15.102h11.62c-2.277-4.837-3.934-9.796-4.228-15.103-.27-1.955.85-1.986 1.02-.609 3.22 13.055 20.375 9.517 19.783-2.76-.478-9.964-9.824-12.106-14.697-8.847-1.923 1.197-1.815.482-.765-.765 7.24-8.545 2.856-19.55-6.918-19.763h-.01z" style="display:inline;opacity:1"/><path id="path147-0-8-1-6-7-5-5-7-3-5-5" d="M3004.207-809.732c-9.775-.212-14.158-11.217-6.919-19.763 1.05-1.247 1.158-1.962-.764-.765-4.874 3.26-14.22 1.117-14.698-8.847-.591-12.277 16.563-15.814 19.784-2.76.17 1.378 1.289 1.346 1.02-.609-.295-5.306-1.952-10.266-4.23-15.102h11.62c-2.277 4.836-3.934 9.796-4.228 15.102-.27 1.955.85 1.987 1.02.61 3.22-13.055 20.374-9.518 19.783 2.76-.478 9.963-9.824 12.106-14.698 8.846-1.922-1.197-1.814-.482-.764.765 7.239 8.546 2.856 19.551-6.918 19.763h-.01z" style="display:inline;opacity:1"/><path id="path147-0-8-1-6-75-6-1-2-7-9-3" d="M2901.136-809.732c-9.775-.212-14.158-11.217-6.919-19.763 1.05-1.247 1.159-1.962-.764-.765-4.874 3.26-14.22 1.117-14.698-8.847-.591-12.277 16.563-15.814 19.784-2.76.17 1.378 1.29 1.346 1.02-.609-.294-5.306-1.952-10.266-4.23-15.102h11.62c-2.277 4.836-3.934 9.796-4.228 15.102-.27 1.955.85 1.987 1.02.61 3.22-13.055 20.375-9.518 19.783 2.76-.478 9.963-9.824 12.106-14.697 8.846-1.923-1.197-1.815-.482-.765.765 7.24 8.546 2.856 19.551-6.918 19.763h-.01z" style="display:inline;opacity:1"/><path id="path147-0-8-1-6-2-00-7-1-1-4" d="M2952.671-1022.4c-9.774.212-14.157 11.217-6.918 19.763 1.05 1.247 1.158 1.962-.765.765-4.874-3.26-14.22-1.117-14.698 8.847-.59 12.277 16.563 15.814 19.784 2.76.17-1.378 1.29-1.346 1.02.609-.294 5.306-1.951 10.266-4.229 15.102h11.62c-2.278-4.836-3.935-9.796-4.229-15.102-.27-1.955.85-1.987 1.02-.61 3.22 13.055 20.375 9.518 19.784-2.759-.479-9.964-9.824-12.107-14.698-8.847-1.923 1.197-1.815.482-.765-.765 7.24-8.546 2.856-19.55-6.918-19.763h-.01z" style="display:inline;opacity:1"/><path id="path147-0-8-1-6-2-0-8-6-8-1-8" d="M2952.671-842.696c-9.774-.212-14.157-11.217-6.918-19.763 1.05-1.247 1.158-1.962-.765-.765-4.874 3.26-14.219 1.117-14.698-8.847-.59-12.277 16.563-15.814 19.784-2.76.17 1.377 1.29 1.346 1.02-.609-.294-5.306-1.951-10.266-4.229-15.103h11.62c-2.278 4.837-3.935 9.797-4.228 15.103-.27 1.955.85 1.986 1.02.61 3.22-13.055 20.374-9.518 19.783 2.759-.479 9.964-9.824 12.106-14.698 8.847-1.923-1.197-1.814-.482-.765.765 7.24 8.546 2.857 19.55-6.918 19.763h-.01z" style="display:inline;opacity:1"/><path id="path147-6-9-8-7-0-5-6-83-3-7" d="M3046.653-827.37c3.91-.088 5.663-4.673 2.768-8.234-.42-.52-.464-.817.305-.318 1.95 1.358 5.688.465 5.88-3.687.236-5.115-6.626-6.59-7.914-1.15-.068.574-.516.561-.408-.253.118-2.211.78-4.278 1.692-6.293h-4.648c.91 2.015 1.574 4.082 1.691 6.293.108.814-.34.827-.408.253-1.288-5.44-8.15-3.965-7.913 1.15.191 4.152 3.93 5.045 5.879 3.687.77-.5.726-.201.306.318-2.896 3.561-1.142 8.146 2.767 8.235z" style="display:inline;opacity:1"/><path id="path147-0-8-1-6-75-2-9-77-44-0-7" d="M2901.136-989.436c-9.775.212-14.158 11.217-6.919 19.763 1.05 1.247 1.159 1.962-.764.765-4.874-3.26-14.22-1.117-14.698 8.847-.591 12.277 16.563 15.814 19.784 2.76.17-1.377 1.29-1.346 1.02.609-.294 5.306-1.952 10.266-4.23 15.103h11.62c-2.277-4.837-3.934-9.797-4.228-15.103-.27-1.955.85-1.986 1.02-.61 3.22 13.055 20.375 9.518 19.783-2.759-.478-9.964-9.824-12.106-14.697-8.847-1.923 1.197-1.815.482-.765-.765 7.24-8.546 2.856-19.55-6.918-19.763h-.01z" style="display:inline;opacity:1"/><path id="path147-0-8-1-6-75-2-8-0-3-9-3" d="M2901.136-875.66c-9.775-.213-14.158-11.218-6.919-19.764 1.05-1.246 1.159-1.962-.764-.764-4.874 3.259-14.22 1.116-14.698-8.848-.591-12.277 16.563-15.814 19.784-2.76.17 1.378 1.29 1.347 1.02-.608-.294-5.307-1.952-10.267-4.23-15.103h11.62c-2.277 4.836-3.934 9.796-4.228 15.102-.27 1.956.85 1.987 1.02.61 3.22-13.055 20.375-9.518 19.783 2.76-.478 9.963-9.824 12.106-14.697 8.847-1.923-1.198-1.815-.482-.765.764 7.24 8.546 2.856 19.551-6.918 19.763h-.01z" style="display:inline;opacity:1"/><path id="path147-0-8-1-6-75-2-9-7-1-9-7-9" d="M3004.207-989.436c-9.775.212-14.158 11.217-6.919 19.763 1.05 1.247 1.158 1.962-.764.765-4.874-3.26-14.22-1.117-14.698 8.847-.591 12.277 16.563 15.814 19.784 2.76.17-1.377 1.289-1.346 1.02.609-.295 5.306-1.952 10.266-4.23 15.103h11.62c-2.277-4.837-3.934-9.797-4.228-15.103-.27-1.955.85-1.986 1.02-.61 3.22 13.055 20.374 9.518 19.783-2.759-.478-9.964-9.824-12.106-14.698-8.847-1.922 1.197-1.814.482-.764-.765 7.239-8.546 2.856-19.55-6.918-19.763h-.01z" style="display:inline;opacity:1"/><path id="path147-0-8-1-6-75-2-8-5-1-52-2-8" d="M3004.207-875.66c-9.775-.213-14.158-11.218-6.919-19.764 1.05-1.246 1.158-1.962-.764-.764-4.874 3.259-14.22 1.116-14.698-8.848-.591-12.277 16.563-15.814 19.784-2.76.17 1.378 1.289 1.347 1.02-.608-.295-5.307-1.952-10.267-4.23-15.103h11.62c-2.277 4.836-3.934 9.796-4.228 15.102-.27 1.956.85 1.987 1.02.61 3.22-13.055 20.374-9.518 19.783 2.76-.478 9.963-9.824 12.106-14.698 8.847-1.922-1.198-1.814-.482-.764.764 7.239 8.546 2.856 19.551-6.918 19.763h-.01z" style="display:inline;opacity:1"/><path id="path147-6-9-8-7-4-5-62-52-8-0" d="M2858.698-1038.556c-3.91.088-5.663 4.674-2.767 8.235.42.519.463.817-.306.318-1.95-1.358-5.688-.465-5.88 3.686-.236 5.116 6.626 6.59 7.914 1.15.068-.574.516-.56.408.254-.117 2.211-.78 4.278-1.691 6.293h4.648c-.912-2.015-1.574-4.082-1.692-6.293-.108-.814.34-.828.408-.254 1.288 5.44 8.15 3.966 7.913-1.15-.191-4.151-3.93-5.044-5.879-3.686-.769.499-.726.201-.306-.318 2.896-3.561 1.143-8.147-2.767-8.235z" style="display:inline;opacity:1"/><path id="path31-6-7-6" d="M2848.724-1041.682v-32.893h3.185v32.893zm0 0" style="opacity:1"/><path id="path33-9-3-6" d="M2861.348-1074.576c-3.065 0-5.53 2.804-5.53 6.286v20.323c0 3.483 2.466 6.285 5.53 6.285h1.79c3.065 0 5.534-2.802 5.534-6.285v-20.323c0-3.482-2.47-6.286-5.534-6.286zm.926 3.11c1.81 0 3.265 1.39 3.265 3.129v20.592c0 1.739-1.455 3.142-3.265 3.142s-3.27-1.403-3.27-3.142v-20.592c0-1.737 1.46-3.129 3.27-3.129m0 0" style="opacity:1"/><path id="path31-1-4-0-7" d="M3056.624-824.244v32.894h-3.184v-32.894zm0 0" style="opacity:1"/><path id="path33-5-7-4-0" d="M3044-791.35c3.066 0 5.53-2.803 5.53-6.285v-20.323c0-3.483-2.466-6.285-5.53-6.285h-1.79c-3.065 0-5.534 2.802-5.534 6.285v20.323c0 3.482 2.47 6.286 5.535 6.286zm-.925-3.11c-1.81 0-3.265-1.39-3.265-3.128v-20.592c0-1.739 1.455-3.142 3.265-3.142s3.27 1.403 3.27 3.142v20.592c0 1.737-1.46 3.128-3.27 3.128m0 0" style="opacity:1"/></g></g><g id="g862" transform="translate(-377.575 138.093)"><rect id="rect22845-2" width="1659.913" height="794.398" x="-356.473" y="-1029.682" rx="144.482" ry="124.682" style="opacity:1;vector-effect:none;fill:#006614;fill-opacity:1;stroke:none;stroke-width:1.74801;stroke-linecap:butt;stroke-linejoin:miter;stroke-miterlimit:4;stroke-dasharray:none;stroke-dashoffset:0;stroke-opacity:1"/><text xml:space="preserve" id="text5630-0" x="472.194" y="-935.813" style="font-style:normal;font-variant:normal;font-weight:400;font-stretch:normal;font-size:42.6667px;line-height:125%;font-family:Carlito;-inkscape-font-specification:&quot;Carlito, Normal&quot;;text-align:center;letter-spacing:0;word-spacing:0;writing-mode:lr-tb;text-anchor:middle;fill:#fff;fill-opacity:1;stroke:none;stroke-width:1.06667px;stroke-linecap:butt;stroke-linejoin:miter;stroke-opacity:1"><tspan id="tspan4923" x="472.194" y="-935.813" style="font-style:normal;font-variant:normal;font-weight:400;font-stretch:normal;font-size:48px;line-height:125%;font-family:Carlito;-inkscape-font-specification:&quot;Carlito, Normal&quot;;text-align:center;writing-mode:lr-tb;text-anchor:middle;fill:#fff;fill-opacity:1;stroke-width:1.06667px">Single Playing Card from:</tspan><tspan id="tspan5035" x="472.194" y="-875.813" style="font-style:normal;font-variant:normal;font-weight:400;font-stretch:normal;font-size:48px;line-height:125%;font-family:Carlito;-inkscape-font-specification:&quot;Carlito, Normal&quot;;text-align:center;writing-mode:lr-tb;text-anchor:middle;fill:#fff;fill-opacity:1;stroke-width:1.06667px">Standard Edition - Color Set - Bordered </tspan><tspan id="tspan4927" x="472.194" y="-762.48" style="font-style:normal;font-variant:normal;font-weight:400;font-stretch:normal;font-size:48px;line-height:125%;font-family:Carlito;-inkscape-font-specification:&quot;Carlito, Normal&quot;;text-align:center;writing-mode:lr-tb;text-anchor:middle;fill:#faa;fill-opacity:1;stroke-width:1.06667px">Copyright 2011, 2020 - Chris Aguilar - conjurenation@gmail.com</tspan><tspan id="tspan4931" x="472.194" y="-649.147" style="font-style:normal;font-variant:normal;font-weight:400;font-stretch:normal;font-size:48px;line-height:125%;font-family:Carlito;-inkscape-font-specification:&quot;Carlito, Normal&quot;;text-align:center;writing-mode:lr-tb;text-anchor:middle;fill:#fff;fill-opacity:1;stroke-width:1.06667px">https://totalnonsense.com/open-source-vector-playing-cards/</tspan><tspan id="tspan4919" x="472.194" y="-535.813" style="font-style:normal;font-variant:normal;font-weight:400;font-stretch:normal;font-size:48px;line-height:125%;font-family:Carlito;-inkscape-font-specification:&quot;Carlito, Normal&quot;;text-align:center;writing-mode:lr-tb;text-anchor:middle;fill:#faa;fill-opacity:1;stroke-width:1.06667px">Licensed under:</tspan><tspan id="tspan1594-5" x="472.194" y="-475.813" style="font-style:normal;font-variant:normal;font-weight:400;font-stretch:normal;font-size:48px;line-height:125%;font-family:Carlito;-inkscape-font-specification:&quot;Carlito, Normal&quot;;text-align:center;writing-mode:lr-tb;text-anchor:middle;fill:#faa;fill-opacity:1;stroke-width:1.06667px">LGPL 3.0</tspan><tspan id="tspan12253-3" x="472.194" y="-415.813" style="font-style:normal;font-variant:normal;font-weight:400;font-stretch:normal;font-size:48px;line-height:125%;font-family:Carlito;-inkscape-font-specification:&quot;Carlito, Normal&quot;;text-align:center;writing-mode:lr-tb;text-anchor:middle;fill:#faa;fill-opacity:1;stroke-width:1.06667px">https://www.gnu.org/licenses/lgpl-3.0.html</tspan><tspan id="tspan5033" x="472.194" y="-302.48" style="font-style:normal;font-variant:normal;font-weight:400;font-stretch:normal;font-size:48px;line-height:125%;font-family:Carlito;-inkscape-font-specification:&quot;Carlito, Normal&quot;;text-align:center;writing-mode:lr-tb;text-anchor:middle;fill:#fff;fill-opacity:1;stroke-width:1.06667px">Each Card Measures (63mm x 88mm)</tspan></text></g></svg>