<svg xmlns="http://www.w3.org/2000/svg" id="svg8" width="238.111" height="332.598" version="1.1"><g id="layer1" transform="translate(840.389 -2.847)"><g id="CLUB-3" transform="matrix(1.07145 0 0 1.07009 -1903.25 1167.5)"><g id="layer1-33-1-4-5-7" transform="matrix(.99554 0 0 .9968 732.713 -1457.46)"><rect id="rect6355-6-85-2-7-5" width="223.228" height="311.811" x="260.433" y="370.276" rx="10.678" ry="10.664" style="display:inline;fill:#fff;fill-opacity:1;stroke:none;stroke-width:1.00057;stroke-miterlimit:4;stroke-dasharray:none;stroke-opacity:1"/></g><path id="path147-0-8-1-6-7-2-5-9-2" d="M1103.096-1055.365c-9.775.213-14.158 11.218-6.919 19.764 1.05 1.246 1.158 1.962-.764.764-4.874-3.26-14.22-1.117-14.698 8.847-.591 12.277 16.563 15.815 19.784 2.76.17-1.377 1.289-1.346 1.02.61-.295 5.306-1.952 10.265-4.23 15.102h11.62c-2.277-4.837-3.934-9.796-4.228-15.103-.27-1.955.85-1.986 1.02-.609 3.22 13.055 20.374 9.517 19.783-2.76-.478-9.964-9.824-12.106-14.698-8.847-1.922 1.197-1.814.482-.764-.764 7.239-8.546 2.856-19.551-6.918-19.764h-.01z" style="display:inline;opacity:1"/><path id="path147-0-8-1-6-1-4-3-4-3" d="M1103.096-809.732c-9.775-.212-14.158-11.217-6.919-19.763 1.05-1.246 1.158-1.962-.764-.764-4.874 3.259-14.22 1.116-14.698-8.848-.591-12.277 16.563-15.814 19.784-2.76.17 1.378 1.289 1.347 1.02-.609-.295-5.306-1.952-10.266-4.23-15.102h11.62c-2.277 4.836-3.934 9.796-4.228 15.102-.27 1.956.85 1.987 1.02.61 3.22-13.055 20.374-9.518 19.783 2.76-.478 9.963-9.824 12.106-14.698 8.847-1.922-1.198-1.814-.482-.764.764 7.239 8.546 2.856 19.551-6.918 19.763h-.01z" style="display:inline;opacity:1"/><path id="path147-0-8-1-6-1-1-0-4-8-8" d="M1103.096-956.471c-9.775.212-14.158 11.217-6.919 19.763 1.05 1.246 1.158 1.962-.764.764-4.874-3.259-14.22-1.116-14.698 8.848-.591 12.277 16.563 15.814 19.784 2.76.17-1.378 1.289-1.347 1.02.609-.295 5.306-1.952 10.266-4.23 15.102h11.62c-2.277-4.836-3.934-9.796-4.228-15.102-.27-1.956.85-1.987 1.02-.61 3.22 13.055 20.374 9.518 19.783-2.76-.478-9.963-9.824-12.106-14.698-8.847-1.922 1.198-1.814.482-.764-.764 7.239-8.546 2.856-19.551-6.918-19.763h-.01z" style="display:inline;opacity:1"/><path id="path147-6-9-8-7-0-5-5-1-4" d="M1197.078-827.37c3.91-.088 5.663-4.673 2.767-8.234-.42-.52-.463-.817.306-.318 1.95 1.358 5.688.465 5.879-3.687.236-5.115-6.625-6.589-7.914-1.15-.068.574-.515.561-.407-.253.117-2.211.78-4.278 1.691-6.293h-4.648c.911 2.015 1.574 4.082 1.692 6.293.108.814-.34.827-.408.253-1.288-5.439-8.15-3.965-7.914 1.15.192 4.152 3.93 5.045 5.88 3.687.769-.5.725-.201.305.318-2.895 3.561-1.142 8.146 2.768 8.235z" style="display:inline;opacity:1"/><path id="path147-6-9-8-7-4-5-8-2-3" d="M1009.123-1038.556c-3.91.088-5.663 4.674-2.768 8.235.42.519.464.817-.306.318-1.95-1.358-5.687-.465-5.879 3.686-.236 5.116 6.625 6.59 7.914 1.15.068-.574.516-.56.408.254-.118 2.211-.78 4.278-1.692 6.293h4.648c-.911-2.015-1.574-4.082-1.691-6.293-.108-.814.34-.828.407-.254 1.289 5.44 8.15 3.966 7.914-1.15-.192-4.151-3.93-5.044-5.88-3.686-.768.5-.725.201-.305-.318 2.896-3.561 1.142-8.147-2.767-8.235z" style="display:inline;opacity:1"/><path id="path17-9-7-6-4" d="m998.461-1048.892 2.53-1.863c2.194 3.58 4.65 5.936 8.405 5.532 5.634-.388 7.969-6.302 6.79-10.758-1.14-3.998-5.806-5.945-9.515-3.813-.876.505-1.72.917-1.886.917-.389 0-1.27-1.754-1.149-2.29 2.49-3.64 8.535-10.017 8.535-10.017h-9.445v4.27H999.1v-7.662h18.46v2.6s-4.946 5.136-6.58 7.949c4.025.147 7.27 2.702 8.434 6.74.68 2.126.375 6.99-.514 9.085-1.486 3.494-5.545 6.33-9.256 6.492-6.23.42-9.534-3.95-11.184-7.182m0 0" style="opacity:1"/><path id="path17-5-0-1-5-7" d="m1207.737-817.033-2.53 1.862c-2.194-3.578-4.65-5.936-8.405-5.531-5.634.388-7.969 6.301-6.79 10.757 1.14 3.998 5.806 5.946 9.515 3.814.876-.505 1.72-.917 1.886-.917.389 0 1.27 1.754 1.149 2.289-2.49 3.64-8.535 10.018-8.535 10.018h9.445v-4.271h3.625v7.663h-18.46v-2.6s4.946-5.136 6.58-7.949c-4.025-.147-7.27-2.702-8.434-6.74-.68-2.126-.375-6.99.514-9.086 1.486-3.494 5.545-6.329 9.256-6.492 6.23-.419 9.534 3.951 11.184 7.183m0 0" style="opacity:1"/></g></g><g id="g862" transform="translate(-346.275 88.31)"><rect id="rect22845-2" width="1659.913" height="794.398" x="-356.473" y="-1029.682" rx="144.482" ry="124.682" style="opacity:1;vector-effect:none;fill:#006614;fill-opacity:1;stroke:none;stroke-width:1.74801;stroke-linecap:butt;stroke-linejoin:miter;stroke-miterlimit:4;stroke-dasharray:none;stroke-dashoffset:0;stroke-opacity:1"/><text xml:space="preserve" id="text5630-0" x="472.194" y="-935.813" style="font-style:normal;font-variant:normal;font-weight:400;font-stretch:normal;font-size:42.6667px;line-height:125%;font-family:Carlito;-inkscape-font-specification:&quot;Carlito, Normal&quot;;text-align:center;letter-spacing:0;word-spacing:0;writing-mode:lr-tb;text-anchor:middle;fill:#fff;fill-opacity:1;stroke:none;stroke-width:1.06667px;stroke-linecap:butt;stroke-linejoin:miter;stroke-opacity:1"><tspan id="tspan4923" x="472.194" y="-935.813" style="font-style:normal;font-variant:normal;font-weight:400;font-stretch:normal;font-size:48px;line-height:125%;font-family:Carlito;-inkscape-font-specification:&quot;Carlito, Normal&quot;;text-align:center;writing-mode:lr-tb;text-anchor:middle;fill:#fff;fill-opacity:1;stroke-width:1.06667px">Single Playing Card from:</tspan><tspan id="tspan5035" x="472.194" y="-875.813" style="font-style:normal;font-variant:normal;font-weight:400;font-stretch:normal;font-size:48px;line-height:125%;font-family:Carlito;-inkscape-font-specification:&quot;Carlito, Normal&quot;;text-align:center;writing-mode:lr-tb;text-anchor:middle;fill:#fff;fill-opacity:1;stroke-width:1.06667px">Standard Edition - Color Set - Bordered </tspan><tspan id="tspan4927" x="472.194" y="-762.48" style="font-style:normal;font-variant:normal;font-weight:400;font-stretch:normal;font-size:48px;line-height:125%;font-family:Carlito;-inkscape-font-specification:&quot;Carlito, Normal&quot;;text-align:center;writing-mode:lr-tb;text-anchor:middle;fill:#faa;fill-opacity:1;stroke-width:1.06667px">Copyright 2011, 2020 - Chris Aguilar - conjurenation@gmail.com</tspan><tspan id="tspan4931" x="472.194" y="-649.147" style="font-style:normal;font-variant:normal;font-weight:400;font-stretch:normal;font-size:48px;line-height:125%;font-family:Carlito;-inkscape-font-specification:&quot;Carlito, Normal&quot;;text-align:center;writing-mode:lr-tb;text-anchor:middle;fill:#fff;fill-opacity:1;stroke-width:1.06667px">https://totalnonsense.com/open-source-vector-playing-cards/</tspan><tspan id="tspan4919" x="472.194" y="-535.813" style="font-style:normal;font-variant:normal;font-weight:400;font-stretch:normal;font-size:48px;line-height:125%;font-family:Carlito;-inkscape-font-specification:&quot;Carlito, Normal&quot;;text-align:center;writing-mode:lr-tb;text-anchor:middle;fill:#faa;fill-opacity:1;stroke-width:1.06667px">Licensed under:</tspan><tspan id="tspan1594-5" x="472.194" y="-475.813" style="font-style:normal;font-variant:normal;font-weight:400;font-stretch:normal;font-size:48px;line-height:125%;font-family:Carlito;-inkscape-font-specification:&quot;Carlito, Normal&quot;;text-align:center;writing-mode:lr-tb;text-anchor:middle;fill:#faa;fill-opacity:1;stroke-width:1.06667px">LGPL 3.0</tspan><tspan id="tspan12253-3" x="472.194" y="-415.813" style="font-style:normal;font-variant:normal;font-weight:400;font-stretch:normal;font-size:48px;line-height:125%;font-family:Carlito;-inkscape-font-specification:&quot;Carlito, Normal&quot;;text-align:center;writing-mode:lr-tb;text-anchor:middle;fill:#faa;fill-opacity:1;stroke-width:1.06667px">https://www.gnu.org/licenses/lgpl-3.0.html</tspan><tspan id="tspan5033" x="472.194" y="-302.48" style="font-style:normal;font-variant:normal;font-weight:400;font-stretch:normal;font-size:48px;line-height:125%;font-family:Carlito;-inkscape-font-specification:&quot;Carlito, Normal&quot;;text-align:center;writing-mode:lr-tb;text-anchor:middle;fill:#fff;fill-opacity:1;stroke-width:1.06667px">Each Card Measures (63mm x 88mm)</tspan></text></g></svg>