<svg xmlns="http://www.w3.org/2000/svg" id="svg8" width="238.11" height="332.597" version="1.1"><g id="layer1" transform="translate(-1464.5 -2.847)"><g id="CLUB-11-JACK" transform="matrix(1.00448 0 0 1.00321 66.564 -.543)"><g id="g11322-4-2" transform="matrix(1.06191 0 0 1.06325 -1433.24 881.154)"><rect id="rect6355-6-85-3-39-1-8" width="223.228" height="311.811" x="2660.244" y="-825.559" rx="10.678" ry="10.664" style="display:inline;opacity:1;fill:#fff;fill-opacity:1;stroke:none;stroke-width:1.00057;stroke-miterlimit:4;stroke-dasharray:none;stroke-opacity:1"/><path id="path147-6-9-8-7-0-5-6-79-2-4" d="M2866.258-563.72c3.927-.09 5.688-4.69 2.78-8.262-.422-.521-.466-.82.307-.32 1.958 1.363 5.713.467 5.905-3.698.238-5.132-6.655-6.61-7.949-1.153-.068.575-.518.562-.41-.255.119-2.218.784-4.291 1.7-6.313h-4.67c.916 2.022 1.582 4.095 1.7 6.313.108.817-.341.83-.41.255-1.294-5.457-8.186-3.979-7.949 1.153.193 4.165 3.948 5.06 5.906 3.698.772-.5.729-.201.307.32-2.909 3.572-1.147 8.172 2.78 8.261z" style="display:inline;opacity:1"/><path id="path147-6-9-8-7-4-5-62-3-3-7" d="M2677.46-775.585c-3.927.088-5.688 4.688-2.78 8.26.422.522.466.82-.307.32-1.958-1.362-5.713-.466-5.905 3.698-.238 5.132 6.655 6.61 7.949 1.154.068-.576.518-.563.41.255-.119 2.218-.784 4.29-1.7 6.313h4.67c-.916-2.022-1.582-4.095-1.7-6.313-.108-.818.341-.83.41-.255 1.294 5.457 8.186 3.978 7.949-1.154-.193-4.164-3.948-5.06-5.906-3.698-.773.5-.729.202-.307-.32 2.909-3.572 1.147-8.172-2.78-8.26z" style="display:inline;opacity:1"/><path id="path35-5-6-2" d="M2677.354-811.72v3.453h3.354s.08 3.33.11 10.393c.026 6.859.166 10.26-.27 12.214-1.176 4.502-7.7 4.527-8.995 1.29-.754-1.883-.553-3.347-.588-5.243h-3.606s.02.955.026 2.123c.02 5.062 1.697 7.483 5.62 8.438 4.032 1.089 8.748-.573 10.425-4.019.999-1.964.884-2.099.909-13.975.015-7.924.135-11.22.135-11.22h3.088v-3.455zm0 0" style="opacity:1"/><path id="path35-6-4-1-2" d="M2866.362-527.585v-3.455h-3.355s-.08-3.33-.11-10.392c-.026-6.86-.166-10.26.271-12.214 1.175-4.502 7.699-4.527 8.995-1.29.753 1.883.553 3.347.587 5.243h3.607s-.021-.955-.026-2.123c-.021-5.062-1.697-7.483-5.62-8.438-4.033-1.09-8.75.572-10.426 4.019-.999 1.964-.884 2.099-.909 13.975-.015 7.923-.135 11.22-.135 11.22h-3.088v3.455zm0 0" style="opacity:1"/></g><g id="g4210" transform="translate(-227.782 432.623)"><g id="g4164" transform="translate(227.783 -432.623)"><g id="g5275-8-4-5" transform="matrix(-1.08457 0 0 -1.0906 1913.61 743.415)"><g id="layer1-1-8-4-5" style="display:inline"><g id="g3799-8-1-3" style="display:inline" transform="matrix(.15171 0 0 .15171 623.249 453.897)"><path id="path3306-4-9-5" d="M-1979.103 1288.47c-5.507 7.867-29.37-47.033-44.688-88.644-7.525-20.442-17.585-37.293-13.433-42.668 10.91-11.031 39.163-1.16 59.703 14.595 21.954 16.84 37.452 41.602 37.452 41.602zm-192.558-40.699-.871-32.284c18.91-17.008 42.395-37.873 69.882-69.62l-70.16.132c-4.865-398.827-4.406-1192.495-3.808-1192.41 0 0 81.564 82.51 79.58 82.809-.094.014 2.322 480.401 2.632 803.56.642 1.525-42.652 1.603-45.4 22.748-1.817 13.972 45.395 12.042 46.14 12.974-.096 145.26.434 247.801.434 247.801l43.37 1.423zm254.813-149.55c-6.307-12.539-16.342-60.742-24.024-59.59-35.267 11.678-46.631-40.303-10.137-42.98 13.82-1.013 29.25 16.972 37.906 39.349 4.158 11.723-.123 67.913-3.745 63.22m7.95-72.293c-10.405-16.964-20.358-78.952-39.314-75.44-17.303 3.934-28.38-11.207-26.692-24.47 8.877-37.252 72.28-1.86 88.92 6.723-8.243 18.707-19.892 65.347-22.913 93.187m-133.808-174.768c14.514-32.78 10.611-59.708-1.697-92.681 37.648-16.1 71.275-33.777 108.386-53.097 1.156-3.723 7.113 126.14-6.957 186.616-4.23 8.975-19.483 1.811-28.29-2.566-23.832-11.23-49.44-23.865-71.442-38.272m668.256-593.388c-7.682-61.041 9.334-199.216 9.334-199.216s90.907 50.252 97.215 54.173c-17.19 31.796 6.309 105.687 3.746 92.454-6.053 4.226-108.285 58.757-110.295 52.59m-37.493-253.33c1.637-3.915 8.162-49.608 10.18-49.783 6.625-.572 16.333 44.747 33.216 59.701 31.873-3.674 35.608 17.893 29.373 28.317 1.545 4.577-10.29 14.524-21.343 13.57-27.48-10.719-64.54-20.204-51.426-51.805m-365.688-78.008s23.956-134.336 24.064-134.166c59.205-8.545 116.274-18.327 169.051-12.353-10.416 139.63-26.808 260.38-71.79 281.329l93.195 74.839s103.487-64.41 97.576-63.45c-2.552.69-4.569 54.793-6.082 142.281 2.625 228.337 134.285 459.5 139.397 457.177 2.789 1.86-112.16 10.828-194.794-24.699l-3.712 302.362s40.953 20.406 48.538 29.844c15.123 52.603-25.65 66.046-50.092 52.892-11.429 39.978-28.808 138.814-29.437 138.777-55.19 9.11-112.268 16.178-168.703 12.964 9.468-46.508 15.461-81.898 18.51-128.667 7.126-69.752 21.443-135.822 58.203-151.525-6.542 2.591-91.394-72.132-91.394-72.132l-104.263 63.973c33.516-217.599-23.776-428.93-122.653-599.884 49.824-5.736 106.243-3.012 194.286 23.272 0 0-4.948-302.95-4.983-301.266-97.401-38.323-44.242-112.922 5.083-91.568m378.802-27.12c.362-3.08 1.78-37.298 1.78-37.298 13.784 16.15 24.895 63.502 27.637 62.702 0 0 17.7-2.778 23.206 3.078 17.957 19.1.3 41.65-17.64 37.432-17.85-4.582-37.474-35.093-34.983-65.914m183.082 1027.127s-3.818-537.262-3.724-806.548c68.09 1.06 54.724-36.708-.901-32.731l-.186-248.282-36.884-1.285s69.425-72.37 113.439-118.583l1.009 23.502-66.986 72.16 69.36-.118.24 1191.342zm-115.828-1247.863c16.804-3.656 34.323 73.718 63.459 120.671-33.112 19.82-85.343-17.875-97.082-48.12 7.65-25.628 34.106-72.277 33.624-72.55" style="fill:#ffcd00;fill-opacity:1"/><path id="path3304-4-6-6" d="M1423.143-277.727v280.7h174.152v-280.7Zm57.308 1.086 83.844.067c-1.174 2.374-2.287 5.441-2.287 5.441 2.561 1.033 4.549 4.883 5.78 8.131 1.079 2.85 2.947 9.81 5.407 13.201-4.303 2.454-15.122-3.022-16.664-10.48l-3.627 6.195c-24.556-4.781-51.124-1.31-59.256-.178-3.987-7.655-9.669-14.484-13.197-22.377m106.147.887c3.097.005 5.946.018 8.04.043v9.893l-21.945 22.601 8.694.371-.301 38.965c-3.179.666-6.914 4.002-6.914 4.002l-14.74-7.91s3.822-1.61 3.716-4.178c-.151-2.872-1.863-5.22-5.26-4.34-.779.114-1.134-.21-1.886-1.974-1.438-3.376-2.86-7.084-2.305-6.969 1.809 1.452 1.538 1.532 3.666 2.492 3.97 1.1 6.387-2.615 5.133-5.62-1.169-2.774-3.115-2.933-5.064-2.65-.286-.065-.528-.38-.721-.743-.62-1.263-1.558-3.51-2.293-6.965-1.133-5.329-1.387-11.998-.56-13.676 1.142-2.32 2.72-5.46 2.72-5.46 3.074 5.894 9.775 11.057 17.303 9.23.254-.16.304-.991-.037-1.48-2.775-4.436-3.244-8.25-5.004-12.728-1.853-4.687-3.242-6.821-5.414-8.552l2.365-4.309s11.515-.057 20.807-.043m-160.737.205h52.994l13.653 23.131c.27.457.664.295.963.734l-4.047 21.733c-6.372-2.95-11.732 4.68-8.254 10.863-19.64 7.212-42.242 25.233-42.242 25.233l-.149-17.885-12.918-13.45zm169.467 10.785c-.786 22.038.32-2.61-.29 70.315l.429 139.072c.771 2.326 1.095 3.233.797 5.578l-13.606-14.447-.018-40.426s-12.872-19.115-15.836-27.943c-7.847-19.545-9.904-30.902-10.855-46.944l1.426-2.275-1.59-2.047-.01-5.46 2.119-2.167-1.94-2.47.54-5.1 1.511-1.354c-1.346-1.497-.888-3.62-.658-5.103.384-1.163 1.013-1 1.945-.774 4.845 1.314 9.739 4.822 14.211 7.538-.195 2.654-3.463 8.705 1.086 15.38 1.682 1.267 6.565.803 6.992.995l-.037 20.558-3.435.2 2.58-2.919-3.506.266 2.379-2.484-3.65-.149 2.683-2.789-3.588.072 2.653-2.693-3.385-.098 2.236-2.464-3.722.287 2.716-2.948-3.988.073 3.023-2.75-3.978.027 1.193-1.367-1.058-.535c-1.083.506-7.53 3.925-7.53 3.925.056.561 5.46-1.459 5.704-1.359 1.627 7.216 8.643 23.174 13.271 27.828l.324-45.098c.708-.659 1.838-.332 2.559-.625 2.347.123 6.267-3.82 4.219-4.603-1.072-.238-7.003-1.258-7.02-1.555.31-12.84.452-26.213-.092-40.166-1.659-.247-7.08-.558-7.08-.558s19.885-20.864 20.275-20.444zm-76.799 10.455c2.733.001 4.432.267 4.043.971-.101.358.643-.744.643-.744 0-.477 19.548.49 29.19 2.338.16 1.331-.177 1.95-.07 4.41-5.893-.984-10.189.95-11.483 5.107-.786 2.254-.418 4.284.781 10.311 1.165 5.853 1.177 5.223 1.04 6.014-.163.928-1.16 1.964-2.593 3.132-.707.577-.869 1.793-.869 1.793s.474-.246.737-.595c.637-.848 1.463-.76 2.404-1.254 2.214-1.162 2.14-2.287.834-7.094-.472-1.934-1.14-3.823-1.37-5.803 0 0 .76.597 1.663 1.221 1.411.879 2.555 1.843 4.184 2.11-1.583-1.69-3.195-2.398-4.434-4.133 3.082 1.07 6.618.638 8.46-.221 0 0-.375 2.427-.523 5.693-.374 8.26-2.309 17.063-7.773 22.15-7.822 7.283-20.676 2.343-27.809-4.404l-.771 1.178c4.788 4.04 13.087 9.083 21.17 8.104-3.38 2.834-10.834 7.527-10.834 7.527-5.113-3.728-8.884-7.446-14.496-11.482l-.977.65 15.436 12.307 16.629-11.026s-.692 10.577-.952 14.444l7.215-6.413-5.564-8.283 5.898-6.101s-.998.14.092-1.743c3.304-8.953 3.77-17.6 4.61-26.738.545 3.414 1.188 5.207 2.445 8.305 1.154 2.985 1.607 2.963 2.908 2.527 7.056-.595 3.86 13.09-4.476 4.139-.367-.38-.968-.845-.996-.756-.174.55 2.211 7.756 3.134 9.418.976 1.756.985 2.004 2.434 1.854 2.711-.281 3.63.69 3.904 3.56-.36 5.426-6.2 3.134-9.941 1.467-.339-.26 1.755 1.916 2.504 2.683 1.018 1.043 1.183 1.711 1.183 1.711l-.22 2.88-5.725 5.253 4.705 6.987-.195 2.496-5.03 6.066 5.36 5.848.066 2.084-4.356 5.826 5.836 4.705.283 1.877s-3.747 6.969-3.646 7.223c.085.212 6.326 4.544 6.326 4.544l.627 2.934-2.71 7.44 6.484 3.722 1.187 3.361-1.824 6.893 6.724 3.123 1.918 3.883-1.248 7.244 7.537 2.244 2 3.186-.261 6.369 1.924.191v1.844l-2.16-.287-.327 8.787 2.487.215v1.65h-3.127l-1.276-1.304.602-9.881-9.64-1.617-.917-1.243 1.615-9.156-9.05-2.633-1.22-2.217 2.567-9.525-9.12-4.033-.602-1.768 3.87-8.455-8.38-4.094-.526-2.027 4.655-8.717-8.305-6.076.244 1.543 6.703 4.813-3.882 7.44c.04 3.136 2.673 10.3 3.753 13.644l-12.793 8.65c5.481 3.319 12.4 3.209 18.749 4.453 0 0 .278.889.755 1.686 1.848 2.979 3.51 6.767 5.57 10.675-1.518.72-3.806.948-3.806.948-4.51 13.644-.738 32.512-8.477 43.029 0 0-.163.067-.267.098-.725.249-1.234-.961-1.234-1.778 0-.92.65-1.69 1.513-1.865v-.957a2.844 2.844 0 0 0-2.469 2.822c0 .862.383 1.633.983 2.157-.351.1-1.365.576-1.365.576l-2.368-2.604 5.227-5.181.01-1.737c-2.225 2.326-6.687 6.918-6.687 6.918l2.847 3.01-1.408.66-2.309-2.553-5.18 5.352-1.325-.91c1.744-2.304 2.88-3.054 5.492-5.776-1.34-1.592-6.357-6.458-6.545-6.64l-.014 1.738 5.135 5.006-5.205 5.145s-3.17-1.004-4.43-1.471c1.709 1.414 4.778 2.627 6.445 3.85 7.556 4.48.38 13.749-6.59 11.447-.198-.747-3.816 21.916-3.816 21.916s-22.985 2.272-27.951 2.318c.686-3.277 1.906-15.125 1.906-15.125 1.355-11.526 2.4-26.01 9.965-30.799 0 0-1.159-1.24-2.158-1.873-.024.017.89.946.92 1.055 0 .335-.194.546-.416.723-1.603 1.306-3.557 4.014-3.487 4.085-6.242-5.45-16.012-10.144-21.9-8.195-2.323.49-3.354 2.74-4.586.914 4.158-25.692-1.661-53.307-8.442-72.953 2.137-.758 13.1-8.15 13.1-8.15-5.673-3.478-17.443-2.742-19.416-4.086a2.54 2.54 0 0 0-1.295 2.219 2.522 2.522 0 0 0 3.264 2.42 438 438 0 0 1 1.215 3.029l-7.385-3.233 2.406-8.123-.806-1.802-2.936 10.578 9.424 4.058.638 1.877-3.908 8.026 8.428 5.02.355 1.597-4.535 8.615 8.16 6.303-5.97 7.756 7.347 6.205-.082 1.029-6.087 7.047 6.292 6.504.176 2.633-6.86 6.13 5.925 8.65c-2.47 1.668-3.85 3.572-5.467 5.468l-1.445-.637 5.261-4.008-5.62-8.164-5.929 5.383 3.213 5.27-1.959-.895-1.795-2.824.293-2.885 5.858-5.361-5.035-7.332-.041-1.344s3.13-3.619 5.41-6.309l-6.381-7.078 5.219-6.697-6.567-5.62.186 1.686 4.844 4.11-3.72 4.529c-.265 2.73.325 7.414-1.062 9.47 2.242 2.206 1.07 7.52-.03 9.243 2.14 2.548.916 8.143-.45 8.379 1.635 2.06.983 6.237-.383 7.595-.437.235 5.836 2.51 9.793 5.243-3.292 6.16-2.524 11.957-3.562 14.046-1.425-4.133-3.25-8.53-4.824-11.695-.167-.328-.515-.254-1.038-.264-6.543-.585-5.92-6.009-1.013-7.398-4.885-2.404-11.24-7.583-14.881-8.963.718-1.492 1.131-4.073 1.238-6.344.364-3.378-1.26-8.562-1.26-8.562l2.073-1.287c.412-1.784 2.729-1.821 2.953-3.092-.49-5.46-11.092-26.364-13.33-28.727-.848 14.918.771 31.11-.04 45.998-9.994-.034-12.13 5.334-.052 6.188-.227 13.508-.012 40.644-.012 40.644l7.136.051s-17.638 18.467-19.3 20.024c-1.507-64.345-1.44-213.065-1.44-213.065l13.477 13.557.148 42.242c4.511 4.595 7.097 11.296 9.781 15.637l7.37 3.601-1.733 5.953.742 1.694 2.301-8.424-8.062-3.852-.854-1.744 1.357-7.935-7.63-2.633-1.323-1.824.479-7.752-1.602-.485v-1.537l1.592.135.566-8.701-2.158-.637v-2.998c1.647.929 2.903 1.862 4.131 3.375l-.76 9.664 9.672 1.95.72 1.023-1.778 9.66 10.154 3.123c-1.042-2.578-2.424-4.991-3.574-7.53 1.395-.405 2.852-.496 4.264-.8.38-13.049-.06-26.626.343-38.899 3.629-1.022 5.414-3.405 7.895-4.085a1.682 1.682 0 0 1 .254 3.345v.85a2.52 2.52 0 0 0 2.263-2.508c0-.894-.46-1.68-1.156-2.13l1.408-.509 2.465 2.803-4.98 4.803v1.451l6.254-6.289-2.766-3.211 1.646-.86 2.524 2.674s5.434-5.59 5.096-5.693c-4.752-6.078-.086-13.53 7.117-10.707 1.622-7.729 3.17-14.703 4.445-22.709-1.698-.204 15.797-2.598 23.994-2.596zm13.334 6.008c-3.237-.06-7.347 1.582-9.896 2.844-2.344 1.047-1.895 1.681-.428 1.23 2.125-.564 4.381-1.132 6.443-1.53 2.21-.436 5.43-.036 7.112.796 1.242.615 1.676.252 1.13-.941-.79-1.713-2.418-2.362-4.36-2.399m16.451 2.576c1.44.044 2.877.648 3.944 2.079l-.06 1.32c-2.574-2.27-6.936-1.49-9.386-.18.703-1.806 3.104-3.29 5.502-3.219zm-20.353 1.366c-2.17.018-4.245.411-5.846 2.027 3.128-1.277 7.706-1.399 11.041-.09.672.242 1.795 1.106 1.795 1.106l-.451.295s-.968-.032-1.812-.33c-3.039-1.075-6.786-1.264-10.186.279-.87.39-1.581.898-2.463 1.197l.02 1.045c1.3.021 2.519.696 3.395 1.191 2.98 1.653 4.433 1.486 7.27 1.47.659-.005 1.497-.216 1.497-.216s-1.127.877-1.947 1.149c-2.125.93-3.625 1.05-5.613 2.181 3.016-.242 7.367-1.453 9.904-3.293 1.741-1.364 2.218-1.704 1.48-2.248-.675-.497-1.194-.515-.267-1.468.33-.34.892-1.052.89-1.19-.01-.683-4.129-2.877-6.52-3.03a31 31 0 0 0-2.187-.075zm19.553 1.45c1.627-.064 3.146.394 4.543 1.997l-.072.746c-3.142-2.449-6.846-1.516-9.725-.52.786-1.036 2.424-1.75 3.592-2.005.565-.116 1.12-.196 1.662-.217zm-21.239 2.835.69.015c.638 3.417 3.25 2.642 3.836.205l.812.235c-.677 1.765-1.656 2.48-2.592 2.517-1.366.056-2.638-1.33-2.746-2.972m-.877.011c.17.943.92 2.335 1.159 2.553-.121-.028-1.51-.355-1.957-.549-1.762-.762-1.946-1.063-1.045-1.54.61-.325 1.19-.438 1.843-.464m20.43.606c.2.013.358.055.414.092.45 2.762 2.535 2.188 3.043.35.24-.023.54.014.947.16-.743 1.47-1.786 2.187-2.74 2.187-1.08 0-2.047-.923-2.324-2.715.222-.073.461-.087.66-.074m-13.55.02s1.128.486 1.386.888c.176.398-.234.708-1.11.986-.4.128-1.566.157-1.566.157.67-.658.827-1.102 1.29-2.032m11.835.085a.8.8 0 0 1 .242.022c.301 1.691.772 1.929 1.18 2.584-1.251.094-3.3-.875-3.394-1.344l.01-.316c.218-.41 1.318-.921 1.96-.946zm6.785.764.915.473-.124.691c-.722.335-1.48.56-2.287.643.488-.34.997-1.108 1.496-1.807m-16.34 8.955c-.588.036-1.539.7-2.19 1.588-2.578 3.513.257 7.061 3.83 5.033.804-.457 1.927-.594 2.743-1.135 1.727-1.197.11-2.192-1.09-1.943-.49.113-1.058.358-1.687.777-2.161 1.443-3.36 1.231-3.564-.515-.221-1.888 2.672-2.738 2.402-3.615-.091-.143-.247-.202-.443-.19m-4.11 10.131c-.292.088-.575 1.092-1.196 2.74-.426 1.05-.558 1.926-.133 1.92.142-.002.348-.103.623-.326.797-.532 2.042-1.244 5.049-.414 1.653.546 3.506.069 4.586-.236.842-.238 2.048-.471 3.014-.028.943.456 1.976 1.147 1.785.434-.048-.181-.106-1.226-.12-1.846-.03-1.458-.13-2.673-1.177-1.53-.453.496-1 .5-2.025.093-.732-.29-1.245-.486-1.811-.114-.802.528-1.495.661-2.977.157-.702-.24-1.44-.262-2.33.289-1.478.914-2.415.025-2.982-.91-.112-.186-.21-.258-.307-.229m-45.688 1.934-5.807 5.972 5.58 5.858v-1.403l-4.176-4.398 3.996-4.084c.583-.802 2.071-.629 2.54-.684-.324-.998-1.217-.875-2.133-1.261m-.227 3.56a2.521 2.521 0 0 0 0 5.021v-.849a1.677 1.677 0 0 1 0-3.324zm47.557.121q-.178-.014-.25.047c-.397.343 1.001 1.688 2.34 1.94 1.026.193 2.351.034 2.351.195-.56.139-1.22.433-1.51.637-.061.42.247.854.612.914.392.064.7-.35.998-.47.25-.094.596-.036.869-.036.875-.002 1.962.62 2.201.508.274-.13.322-.777.168-.965-.53-.42-1.2-.59-1.877-.77 0 0 .786-.17 1.088-.242.444-.105.802-.133 1.084-.537.176-.252.191-.69-.11-.686-1.745.026-3.962.748-6.052.043-.896-.322-1.557-.552-1.912-.578m17.767 2.307-5.734 4.933 4.906 7.186 6.262-5.057-4.031-6.215zm-72.209 1.164-5.917 6.297 6.164 6.22 5.98-6.013zm72.05 3.267c.869 0 1.573.714 1.573 1.588s-.704 1.582-1.574 1.582a1.585 1.585 0 0 1 0-3.17m-71.91 1.604a1.584 1.584 0 0 1 0 3.168c-.87 0-1.575-.708-1.575-1.582a1.58 1.58 0 0 1 1.574-1.586m64.552 1.096 4.334 6.375-5.24 4.52c.084-1.061.142-1.918.195-2.7a2.86 2.86 0 0 0 .387-5.332c.078-.819.18-1.724.324-2.863m-72.12 1.158v1.701l4.815 4.984-4.812 5.047.098 1.618 6.412-6.577zm14.313.377-5.974 6.334 5.974 6.232v-2.01l-4.094-4.326 4.094-4.226zm97.637.459c.914-.03 1.908.065 3.043.275-.521 2.064 1.66 3.176 1.974 2.719.04-.007.208-.368 0-.393-1.564-.192-1.44-2.068-1.255-2.076 1.729.054 2.852.025 3.029.8.109.476-.168 1.213-1.176 2.042-1.183.953-6.633.932-6.633.932-.02-.008.012 1.557-.535 2.455-.48.788-1.147 1.665-.69 2.027.787.366 1.318 1.253 1.43 2.275.213 2.144-.123 7.303-.047 7.358-.917.087-1.969.187-2.982.185-1.689-.002-3.264-.292-3.906-1.421-2.587-3.483-1.843-10.638-.053-13.098 3.018-2.755 5.053-3.989 7.797-4.08zm-26.473.988-.113 1.453a2.855 2.855 0 0 0-2.184 2.781c0 1.197.731 2.218 1.768 2.643l-.158 2.043-3.625-5.113zm-13.775.932a1.897 1.897 0 0 1-.215 3.22c.078-1.213.134-2.21.215-3.22m-57.389 1.418c-1.189.227-2.098 1.232-2.098 2.486s.91 2.283 2.098 2.484v-.863a1.68 1.68 0 0 1 0-3.248zm-14.248.095c-.04.336.013.612 0 .85.926 0 1.676.759 1.676 1.69s-.75 1.681-1.676 1.681c-.028.353.022.695 0 .848 1.391 0 2.52-1.13 2.52-2.53s-1.129-2.539-2.52-2.539m85.223.038-.262 3.365a1.9 1.9 0 0 1-.894-1.614 1.9 1.9 0 0 1 1.156-1.751m-6.73 2.476-6.208 6.215 6.006 6.654 5.492-5.96zm-71.094.625-5.924 6.356 6.053 6.22 6.134-6.138zm70.851 4.262a1.586 1.586 0 0 1 0 3.17c-.87 0-1.574-.708-1.574-1.582s.704-1.588 1.574-1.588m-70.713.619c.87 0 1.575.71 1.575 1.584s-.705 1.582-1.575 1.582a1.58 1.58 0 0 1-1.578-1.582c0-.875.708-1.584 1.578-1.584m63.032 1.484.02 1.582 5.296 5.584-4.963 5.819.114 1.705 6.351-7.612zm-70.518.565c-.09.519-.09 1.042-.115 1.564l4.99 5.065-4.711 4.89-.184 1.909 6.536-6.64zm14.197.824-5.738 5.95 5.738 5.816v-1.797l-3.959-4.051 3.96-4.064zm70.239 1.687.03 1.403a2.86 2.86 0 0 0-1.716 2.627c0 1.219.758 2.252 1.826 2.662l.029 1.443-3.795-4.013zm-110.793.663 1.851 2.25c-.315.423-.504.95-.504 1.52 0 1.398 1.128 2.528 2.52 2.528.397 0 .77-.095 1.105-.26l2.252 2.737-7.697-1.463zm26.242.712v.848a1.68 1.68 0 0 1 1.648 1.682 1.68 1.68 0 0 1-1.648 1.681v.848a2.524 2.524 0 0 0 2.49-2.53 2.524 2.524 0 0 0-2.49-2.529m70.652.178v.998a1.897 1.897 0 0 1 0 3.572v.999a2.856 2.856 0 0 0 2.207-2.782 2.86 2.86 0 0 0-2.207-2.787m-56.34.301a2.53 2.53 0 0 0-1.949 2.465c0 1.202.833 2.206 1.95 2.465v-.885a1.68 1.68 0 0 1-1.106-1.58c0-.73.461-1.346 1.105-1.58zm70.291.623.066 3.139a1.89 1.89 0 0 1-.853-1.586c0-.638.309-1.207.787-1.553zm-108.43 1.117 1.997 2.432a1.68 1.68 0 0 1-1.996-2.432m102.624 1.66-5.702 6.723 6.356 4.932 4.916-6.282zm-71.196.114-6.088 6.242 4.325 4.752-2.14-.203c-.901-1.034-1.894-2.679-3.552-3.557l.164 1.24c.085-.059 2.012 1.824 1.707 2.131l-1.7-.125c-.138.037-.067.63-.067.63 4.557.44 9.223 1.335 14.074 3.01l-.127-.87-.76-.334s.477-.578.876-1.024v-1.568l-2.022 2.303-.976-.362 2.998-3.062v-1.158l-3.971 3.92-1.938-.537 5.282-5.229zm71.088 4.324c.87 0 1.574.707 1.574 1.582a1.58 1.58 0 0 1-1.574 1.586 1.58 1.58 0 0 1-1.572-1.586c0-.875.703-1.582 1.572-1.582m-71.252.453a1.582 1.582 0 0 1 0 3.166c-.87 0-1.574-.707-1.574-1.582a1.58 1.58 0 0 1 1.574-1.584m-35.566.307-.639 7.9 7.879 2.647 1.31-8.713zm-3.192.496.604.135-.22 4.218-.384-.068zm102.319 1.472.117 1.686 5.543 3.982-4.217 5.647.36 1.996 5.78-7.658zm-87.569.788 1.78 2.972a2.53 2.53 0 0 0-.787 1.836c0 1.4 1.122 2.533 2.513 2.533.282 0 .556-.048.809-.134l1.619 2.705-7.549-2.385zm101.625.267.166 1.236a2.87 2.87 0 0 0-1.209 2.342c0 1.237.784 2.283 1.877 2.68l.139 1.055-4.037-3zm-109.076.424c.87 0 1.574.71 1.574 1.584s-.704 1.582-1.574 1.582-1.572-.708-1.572-1.582.703-1.584 1.572-1.584m109.397 1.97.36 2.71c-1.047-.927-.985-1.659-.36-2.71m-13.936.256.123.97a1.896 1.896 0 0 1 1.637 1.876c0 .795-.49 1.466-1.18 1.748l.123.977a2.86 2.86 0 0 0 2.008-2.725 2.85 2.85 0 0 0-2.71-2.846m-85.777.805 1.629 2.73a1.7 1.7 0 0 1-.356.042c-.925 0-1.67-.755-1.67-1.686 0-.415.15-.792.397-1.086m94.076 2.088-4.627 7.059 6.514 4.55 4.037-7.052zm-107.514 2.285 5.256 1.893-.838 5-1.029-1.602c.32-.424.516-.951.516-1.525a2.533 2.533 0 0 0-3.077-2.477zm8.295 1.614-1.605 8.304 7.797 3.541 2.19-8.773zm99.899.234c.87 0 1.578.707 1.578 1.582a1.58 1.58 0 0 1-1.578 1.582c-.87 0-1.574-.708-1.574-1.582s.704-1.582 1.574-1.582m-106.862.232h.047c1.468.028 2.088 1.242 1.506 2.424zm137.795 1.744-.022 1.852-2.2.387zm-24.26 1.084.344 1.614a2.85 2.85 0 0 0-1.218 2.342c0 1.398.995 2.56 2.314 2.806l.355 1.672-4.447-3.088s1.437-3.485 2.652-5.346m-103.199 1.008a1.586 1.586 0 0 1 0 3.17c-.87 0-1.574-.713-1.574-1.588 0-.874.705-1.582 1.574-1.582m127.485.834s-.01 1.289 0 1.854l-1.254-.364zm-23.715.83.642 3.026a1.9 1.9 0 0 1-1.134-1.742c0-.495.185-.945.492-1.284m-13.693 2.125c-.103 0-.197.027-.295.04.115.395.207.63.295.917a1.9 1.9 0 0 1 1.892 1.903c0 .778-.476 1.425-1.142 1.718l.22.958a2.85 2.85 0 0 0 1.873-2.676 2.854 2.854 0 0 0-2.843-2.86m-80.137.38c.368.832.874 1.655 1.332 2.775-.136.035-.177.062-.324.062a1.67 1.67 0 0 1-1.672-1.68c0-.61.182-.861.664-1.158m88.41 1.67-3.682 8.251 7.354 4.348 3.398-7.916zm-101.168 3.06q-.465.004-.836.091c-.726.978.303 4.727 2.232 4.682.705-.454 1.124-1.337 1.124-2.24 0-1.4-1.129-2.542-2.52-2.533m6.828.558-2.092 7.983 7.575 4.246 2.894-7.803zm-6.828.29c.924.043 1.676.754 1.676 1.685 0 .53-.243 1.003-.623 1.312-1.447 1.092-1.66-3.14-1.426-2.921a.7.7 0 0 1 .373-.077m102.727.982c.87 0 1.573.713 1.574 1.588 0 .874-.705 1.582-1.574 1.582s-1.573-.708-1.573-1.582a1.58 1.58 0 0 1 1.573-1.588m6.673 2.658.63 2.021c-.43.501-.69 1.15-.69 1.862 0 1.332.907 2.446 2.133 2.761l.55 1.768-4.777-2.807zm-99.716.6c.87 0 1.572.707 1.572 1.582 0 .874-.703 1.582-1.572 1.582s-1.575-.708-1.575-1.582.705-1.582 1.575-1.582m8.144 1.199.92 3.082a2.53 2.53 0 0 0-1.105 2.094 2.527 2.527 0 0 0 2.488 2.533l.771 2.576-6.175-3.559zm92.58 1.431.69 2.21a1.9 1.9 0 0 1-.69-2.21m-13.94.706 6.284 3.312c-.88 2.38-1.634 4.028-2.92 6.38-.48-.87-.84-1.78-1.168-2.714a2.85 2.85 0 0 0 1.25-2.361 2.856 2.856 0 0 0-2.674-2.856c-.056-.003-.318-.04-.318-.04zm-93.056 1.101.602 1.56 5.916 3.434-2.537 6.192.537 1.81 3.486-8.556zm15.598.713.86 2.879a1.676 1.676 0 0 1-1.384-1.654c0-.484.2-.917.524-1.225m78.338.926c.998.05 1.615.86 1.615 1.877 0 .562-.246 1.063-.633 1.41zm8.238.77-3.332 8.226 8.336 3.77 2.297-8.176zm-100.172 1.4c-2.529.058-1.24 5.089 0 5.068a2.526 2.526 0 0 0 2.52-2.533c0-1.4-1.13-2.587-2.52-2.535m0 .85c.926 0 1.678.754 1.678 1.685 0 .93-.752 1.685-1.678 1.685-.735-.309-.932-3.276 0-3.37m7.318.79-3.496 7.905 6.983 4.927 4.113-8.174zm94.926 1.53c.87 0 1.572.707 1.572 1.582 0 .874-.702 1.582-1.572 1.582s-1.574-.708-1.574-1.582.704-1.582 1.574-1.582m6.967 2.73.57 1.19a2.851 2.851 0 0 0 2.094 4.36l.7 1.452-4.684-2.14zm-99.76.568c.87 0 1.574.708 1.574 1.582s-.704 1.588-1.574 1.588a1.586 1.586 0 0 1 0-3.17m7.565 1.682s.352 1.374.797 3.22a2.54 2.54 0 0 0-1.446 2.292 2.526 2.526 0 0 0 2.52 2.533h.03c.237 1.108.446 2.176.596 3.076l-6.003-4.316zm93.316.082.992 2.068c-.612-.313-1.056-.952-1.033-1.691.01-.212.024-.216.041-.377m-14.156 1.127 7.388 3.252-2.101 7.385-1.691-2.963a2.85 2.85 0 0 0 1.15-2.291 2.854 2.854 0 0 0-2.844-2.86c-.235 0-.46.034-.678.088zm-93.29 1.19.499 1.726 5.187 3.826-3.017 5.56.32 2.063 4.266-8.082zm15.132 1.675c.232.981.477 2.05.71 3.112a1.676 1.676 0 0 1-1.517-1.674c0-.61.325-1.141.807-1.438m80.06.615a1.9 1.9 0 0 1 1.276 3.303l-1.538-3.283a2 2 0 0 1 .262-.02m8.192.088-1.938 9.172 8.176 2.73 1.723-8.68zm-102.041 1.975c-1.903.463-.881 4.86 0 5.066.662.155 1.294-.269 1.748-.709.474-.46.771-1.108.771-1.824 0-1.399-1.128-2.533-2.52-2.533m.334.842c.758.088 1.341.877 1.341 1.691 0 .93-.75 1.686-1.675 1.686-1.044-.32-.69-3.263 0-3.371q.17-.026.334-.006zm6.55 1.097-4.021 6.909 6.443 4.972 4.678-6.312zm-28.963.006.868.649-.873.974zm126.825.786c.87 0 1.574.707 1.574 1.582 0 .874-.705 1.588-1.574 1.588s-1.575-.714-1.575-1.588.705-1.582 1.575-1.582m7.08 1.52c.084.317.38.892.777 1.577a2.85 2.85 0 0 0-.36 1.385 2.844 2.844 0 0 0 3.065 2.844c.472.699.813 1.195.813 1.195l-5.291-1.557zm-133.905.316 1.678.835-1.719 1.42zm30.479 2.128a1.582 1.582 0 0 1 0 3.166c-.87 0-1.572-.709-1.572-1.584 0-.874.702-1.582 1.572-1.582m104.83.172c.455.735.95 1.499 1.408 2.192a1.895 1.895 0 0 1-1.408-2.192zm-135.34.963 2.356.385-1.994 2.539 3.513-.16-2.412 2.63 3.889.09-3.033 2.588 4.091.05-3.04 2.546 4.48-.205-3.21 2.772 4.428-.02-3.302 2.787 4.332.059-2.815 2.504 3.782.045-4.274 3.017c-1.826-.802-4.275-1.257-6.738-1.31zm38.125 1.162.29 2.285a2.53 2.53 0 0 0-1.667 2.383c0 1.317 1 2.397 2.278 2.52l.334 2.672-5.538-4.534zm83.877 1.018 7.055 2.08-1.373 7.295s-.828-1.337-1.774-2.813a2.84 2.84 0 0 0 .822-2.005 2.853 2.853 0 0 0-2.843-2.86q-.434.002-.828.123a41 41 0 0 0-1.059-1.82m9.729 1.95-1.024 8.314 8.617 1.609s.41-5.206.639-7.711zm-93.21.19.397 3.155a1.68 1.68 0 0 1-1.326-1.645c0-.66.38-1.233.93-1.51m85.368.512a1.901 1.901 0 0 1 1.486 3.078 79 79 0 0 1-1.836-3.047q.17-.03.35-.03m-27.627.203v.524l1.451.375-1.469 1.767-.014 1.676 2.784-2.998 1.029.238-3.822 3.963-.014 1.672 5.11-5.258 1.538.352-5.373 5.512 5.95 6.214 6.37-6.503-4.5-4.702 2.488.276 3.346 3.43v-1.348l-1.627-1.871 1.631.056v-.42l.051.008c-5.238-1.308-11.152-2.354-14.93-2.962zm-71.89.323c-.468.19-.562 4.414.097 5.086a2.53 2.53 0 0 0 2.526-2.53c0-1.399-1.135-2.539-2.526-2.539q-.051-.037-.098-.017m.04.867q.025-.016.057 0a1.69 1.69 0 0 1 1.682 1.69c0 .93-.756 1.68-1.682 1.68-.14-.706-.308-3.207-.057-3.37m110.748 1.55c.87 0 1.578.712 1.578 1.587 0 .874-.708 1.584-1.578 1.584a1.58 1.58 0 0 1-1.574-1.584 1.58 1.58 0 0 1 1.574-1.586m-103.894.083-4.524 5.636 5.711 6.334 5.194-6.277zm111.037 1.257.771 1.196v3.463l-.962-.157zm-38.664 2.227c.87 0 1.574.707 1.574 1.582a1.58 1.58 0 0 1-1.574 1.584c-.87 0-1.572-.71-1.572-1.584s.702-1.582 1.572-1.582m-71.447.822c.87 0 1.578.708 1.578 1.582a1.58 1.58 0 0 1-1.578 1.582c-.87 0-1.573-.707-1.573-1.582 0-.874.703-1.582 1.573-1.582m78.935 1.123-6.705 6.975 6.664 6.838v-1.67l-5.156-5.143 5.187-5.246zm-14.941.567-.014 1.687 4.82 4.875-4.9 5.043-.012 1.52 6.273-6.52zm34.197 1.418 7.559 1.22-.426 7.834s-1.606-1.721-2.15-2.425c.425-.5.689-1.141.689-1.85a2.854 2.854 0 0 0-2.844-2.86c-.452 0-.875.11-1.254.3-.291-.436-1.574-2.22-1.574-2.22m-90.775.011v2.787a2.54 2.54 0 0 0-1.698 2.399c0 1.111.714 2.048 1.703 2.389v2.601l-4.806-4.808zm-13.463 1.479 3.804 4.219-3.584 4.23-.05-1.965a2.533 2.533 0 0 0-.13-4.927zm84.97.652c-1.346.195-2.38 1.39-2.38 2.807a2.83 2.83 0 0 0 2.363 2.787v-.965a1.88 1.88 0 0 1-1.414-1.822c0-.887.607-1.621 1.424-1.83zm-14.959.098-.01.96a1.9 1.9 0 0 1-.029 3.716l-.01.959a2.843 2.843 0 0 0 .049-5.635zm37.055.635a1.9 1.9 0 0 1 1.559 2.978l-2.211-2.86c.203-.075.422-.118.652-.118m-93.6.851.01 2.94a1.692 1.692 0 0 1-.01-2.94zm-13.404.2a1.69 1.69 0 0 1 1.147 1.601c0 .712-.438 1.322-1.059 1.568zm77.572 2.382-5.996 6.365 5.666 5.766 6.012-6.226zm-71.535.182-5.152 6.297 5.074 6.845 6.268-6.28zm-32.144.146s4.678.021 6.304 1.204c1.704 3.124 2.863 9.863.362 13.562-.874 1.109-2.156 1.638-3.631 2.813-1.137.905-2.704 1.347-4.068 1.35-1.366.001-2.532-.45-2.89-1.347-.279-.503-.429-.938-.837-1.127-.796-.366-1.878-.113-1.93.157-.094.001 1.27.132 1.502.342 1.066.965.887 1.571-.627 1.45-.487-.021-1.85-.041-1.88-.577-.303-1.848 2.142-3.201 5.269-2.954 2.23.371 2.24-.492 2.396-1.689.098-.393.44-1.029.72-1.531.788-1.422 1.05-1.224.5-1.774-.534-.699-1.226-1.567-1.216-2.383zm103.38 4.135c.87 0 1.573.712 1.573 1.586s-.702 1.584-1.572 1.584-1.578-.71-1.578-1.584.708-1.586 1.578-1.586m-70.826.858c.87 0 1.575.707 1.575 1.582 0 .874-.705 1.587-1.575 1.587a1.58 1.58 0 0 1-1.572-1.587c0-.875.703-1.582 1.572-1.582m78.43.882-6.633 7.102 6.621 6.883.01-1.653-5.254-5.23 5.254-5.484zm31.99.157v2.363l-2.32-2.342zm-47.002.082-.016 1.863 4.924 5.12-5.006 4.997-.016 1.725 6.49-6.698zm-69.84 3.037 3.471 5.01-4.18 3.923.169-2.166a2.53 2.53 0 0 0 .392-4.886zm13.555.515-.273 2.99a2.53 2.53 0 0 0-2.067 2.497c0 1.08.673 2 1.62 2.363l-.262 2.85-4.35-5.891zm56.252.397-.01.955c.967.084 1.73.893 1.73 1.887 0 1.003-.778 1.813-1.76 1.882l-.01.958a2.84 2.84 0 0 0 2.72-2.84 2.847 2.847 0 0 0-2.67-2.842zm46.953.017v18.512l13.358 14.14V.544h-52.51l-15.393-25.877c.925-6.779 3.323-19.9 3.323-19.9 1.413.343 6.18.794 8.754-2.918 1.228-1.771 1.885-4.185.228-7.99-.236-.453-.623-1.104-.623-1.104s.42-.11.713-.303c20.182-7.506 41.773-24.228 42.15-24.72m-31.922.086a2.85 2.85 0 0 0-2.355 2.811 2.85 2.85 0 0 0 2.348 2.803v-.98a1.894 1.894 0 0 1-1.399-1.823c0-.88.596-1.615 1.403-1.832zm-85.058 1.75c.552.277.93.849.93 1.51 0 .756-.495 1.395-1.178 1.608zm13.42 1.635-.283 3.07a1.68 1.68 0 0 1-.858-1.468c0-.745.475-1.378 1.14-1.602m63.982.604-5.97 6.205 5.857 6.039 6.072-6.174zm-96.644 2.507 12.994 7.229.935.48s-.358.103-1.12.606c-1.47.969-2.03 3.351-1.362 5.14 1.092 2.926 3.345 2.398 5.223 2.405 1.56 1.211 2.895 5.263 3.99 7.967.506 1.174.991 2.074 1.117 2.756.116.63.111 1.18.111 1.18s-.252-.079-.62-.839c-2.07-4.384-6.908-6.503-9.477-2.357-1.302 2.542-.403 5.444 1.785 6.256.67.248 2.945-.016 2.945-.016.133-.08 1.651 2.153 3.795 9.488.88 3.03 1.11 9.602.272 10.547-1.42 1.733-1.785 4.168-2.987 5.916-.146.295-.44.81-.44.81-2.329-4.936-9.096-9.205-13.675-8.83-3.325.274-4.362 1.289-3.574 2.255 1.829 1.878 3.025 4.516 3.625 6.826 1.397 5.375 2.879 10.17 6.635 14.348l-2.157 4.246-27.724-.182v-10.29l21.365-22.839-8.238-.103.088-39.176c2.258-.944 4.411-2.408 6.494-3.823zm96.582 2.05c.87 0 1.574.707 1.574 1.581a1.58 1.58 0 0 1-1.574 1.586 1.58 1.58 0 0 1-1.574-1.586c0-.874.704-1.582 1.574-1.582m-71.977 2.072a1.585 1.585 0 0 1 0 3.17c-.87 0-1.574-.714-1.574-1.588s.704-1.582 1.574-1.582m15.805.628c5.745-.125 11.89 3.146 18.44 8.239-4.343 12.095-4.818 24.895-4.975 25.367 0 0-2.325-.29-3.057-.703-1.622-.928-3.468-1.486-5.24-1.582a66 66 0 0 0-1.916-.092c2.208-1.485 4.798-1.703 6.705-2.604 0 0-.703-.349-1.926-.238-2.624.239-5.158 1.287-7.846 3.084-1.861 1.244-1.93 1.246-1.43 2.807.121.376.374.94-.513 1.267-.92.34-.79.718-.268 1.137.129.103.46.127.592.233.166.13-.01.717-.01.796 3.179 2.704 8.634 2.932 13.352.508.311-.16 1.115-.482 1.115-.482l-.111 1.164c-2.75 1.819-6.519 2.33-9.373 2.369-1.712.028-2.047-.19-4.624-.982-1.06-.326-1.651-.412-1.748-.25-.219.368.162 1.465.977 2.052 2.752 1.983 6.759 1.827 12.229-.355.648-.259 2.421-1.178 2.421-1.178-.093 1.896-.487 3.829-.746 5.418-.262 1.612-.634 3.192-.634 3.192-.589.336-26.24-.928-29.735-3.098-.35-.333-.073-.776-.01-1.703.102-1.491.211-2.426.211-2.426s.853.419 1.348.637c2.583 1.139 6.235.142 8.437-2.26 2.777-3.03 2.866-6.147 1.131-12.305-1.98-6.925-1.932-7.84.443-9.256 1.642-1.116 2.557-3.672 2.344-3.779-.965 1.063-1.96 1.697-2.91 2.275-2.758 1.898-3.622 2.866-2.355 6.37 1.25 3.457 2.259 6.837 1.738 7.046-.25.1-1.2-1.023-1.79-1.363-1.205-.696-4.231-1.943-4.231-1.943s.198.275 1.439 1.094c3.32 2.192 4.68 4.177 1.476 2.921-2.49-.87-4.612-.057-6.45.811 0 0-.115-1.485-.122-2.023-.053-2.876.312-5.6.557-8.104.606-6.23 1.662-11.48 4.385-14.861 3.985-4.95 8.211-7.102 12.68-7.2zm48.742 3.178-.01.955c.9.147 1.592.928 1.592 1.873a1.89 1.89 0 0 1-1.621 1.87l-.01.957a2.84 2.84 0 0 0 2.58-2.827c0-1.47-1.111-2.67-2.532-2.828zm-49.156 1.873c-.286-.028-.792.142-1.149.448-.841.72-3.126.533-4.416-.057-.566-.26-.63.818.045 1.055.654.23 1.618.507 1.618.507s-1.04.368-2.178.74c-.67.22-.714 1.354.053 1.092 1.729-.59 4.105-1.38 6.781-.591 2.103.645 1.6-.944-.683-1.143a81 81 0 0 1-1.95-.209s1.037-.463 1.707-1.094c.522-.49.458-.72.172-.748zm-1.752 4.877c-.876-.01-1.849.23-2.934.705-1.522.666-3.025.877-4.484-.357-.85-.719-.804-.173-.586 1.314.244 1.664.415 2.571.875 2.518.18-.02.404-.19.693-.518.305-.345.794-.25 2.031-.175 1.326.08 1.663.044 2.536-.274.995-.362 1.016-.361 1.707-.066 1.079.461 1.755.515 2.746.232 1.217-.347 1.984-.252 2.734.12.76.375 1.001.298 1.266-.395.11-.291.65-1.419.9-1.803.812-1.248.615-1.458-1.086-.932-1.168.362-3.322.59-4.925-.078a3.9 3.9 0 0 0-1.473-.29m2.322 7.444c-1.794-.032-3.203 1.216-5.168 1.761-.97.255-.744 1.514-.123 2.06.798.703 2.024.265 3.666-1 3.223-2.48 3.997 2.289 1.059 3.132-.455.13-.246 1.187.71.918 1.843-.519 2.699-2.119 2.583-3.905-.094-1.444-.84-2.62-1.93-2.869a4 4 0 0 0-.797-.097m-24.965 1.24c1.547-.092 3.184.892 4.473 3.013 1.638 2.696 2.09 4.329 2.143 6.04-.149 3.591.053 5.513-.182 9.123-2.277-3.529-2.68-8.704-5.102-11.506-4.481.838-6.603-3.4-2.832-6.221.48-.268.985-.418 1.5-.45m10.93 13.347c1.087-.107 2.177.863 2.717 2.625l-.787-.058c-.825-2.246-2.753-2.18-3.496-.233l-.706.006c.581-1.52 1.426-2.256 2.272-2.34m2.332.387s1.694.1 2.32.342c.426.165.798.41.852.691.054.284-.24.646-.695.78-.412.12-.845.184-1.254.289-.202-.752-.702-1.558-1.223-2.102m16.924.168c.988.018 1.965.876 2.486 2.654l-.992.077c-.72-2.456-2.334-2.8-3.3-.227l-.753-.125c.57-1.577 1.57-2.397 2.559-2.379m-21.338.063c-.34.352-.766 1.086-.963 1.582l-.621-.172.07-.953c.485-.291 1.126-.457 1.514-.457zm18.361.13q.267-.011.58.01c-.162-.016-1.053 1.26-1.088 2.016 0 0-.804-.205-1.017-.45-.343-.427-.432-.776.02-1.064.545-.344.97-.486 1.505-.511zm5.367.254c1.341.253 2.136.827 3.073 1.825l-1.783.31c-.542-.73-.652-1.369-1.29-2.135m5.506 2.602-.133 1.225c-2.82 1.434-9.253 2.914-13.468.464-.35-.394-.13-.955-.13-.955 5.95 2.145 9.748.987 13.731-.734m-30.836.258c2.682 1.715 6.092.982 9.397.017-3.084 2.974-7.39 2.088-9.514 1.21zm9.037 1.699c-2.228 3.567-5.533 3.939-9.265 2.191l.055-1.576c3.132 1.696 6.572 1.052 9.21-.615zm-28.443 7.74q.484-.015.967.014c5.58.339 11.008 5.158 12.924 10.514l4.08-7.036c18.244 2.447 33.944 3.593 59.76-.365L1540.035.977l-85.187.548c.886-1.739 1.782-3.15 2.455-5.181 0 0-4.789-5.015-6.54-11.608-.976-3.678-2.38-7.121-4.841-9.57-.038-.087.087-.198.236-.3a9.6 9.6 0 0 1 2.881-.544" style="fill:#004c97;fill-opacity:1;stroke-width:.165" transform="matrix(-6.07743 0 0 -6.04382 7521.75 -351.302)"/><path id="path3302-0-9-2" d="m-1479.92 1316.47-504.691.01 65.76-131.44c122.685 18.573 243.63 16.255 363.192-2.66l75.738 134.092zm-689.96-106.516-1.058-63.014 65.37 1.444zm551.806-423.71.715-191.248c26.07 18.394 52.131 36.826 78.958 51.433l-1.035 197.886zm-219.992-41.842c-4.632-108.15-20.387-150.369-30.603-205.193l93.59-60.49.27 222.01zm-255.862-189.712.53-266.354c86.032 123.729 140.382 249.406 155.375 419.063-23.392 9.432-46.21 19.846-70.196 28.26-24.512-66.877-53.746-126.749-85.709-180.969m874.673 111.19c-79.5-101-130.447-237.091-155.472-402.873l72.778-35.33c24.157 58.528 52.75 128.309 83.307 176.883zm-314.201-180.158.295-222.718 62.137-40.345c3.87 78.297 16.286 151.448 30.644 205.685zm-163.542-117.281c-22.986-17.29-46.918-33.199-73.456-45.298l3.878-197.594 70.142 54.007zm493.018-556.731s43.747-44.429 59.977-58.854l.358 60.322zm-550.878-28.765-81.57-139.195 511.3-4.291-70.798 143.97c-135.406-24.757-246.153-17.383-358.932-.484" style="fill:#c8102e;fill-opacity:1"/><path id="path3300-3-9-0" d="m1452.982-276.723 13.729 24.094c18.265-4.055 40.07-3.342 59.76-.101 1.054-1.425 2.21-4.325 3.318-6.422 2.748 7.435 11.537 12.234 17.2 10.168 0 0 .054-.355-.895-2.028-2.76-4.824-3.398-9.945-5.838-15.115-1.215-2.83-3.95-5.022-4.56-5.184l3.038-5.412zm2.452 1.274h2.812l10.463 17.414 14.117-1.604-4.65-15.81h4.195l4.166 15.443c7.88-.32 15.4-.41 21.953.12l2.22-15.563h4.005l-2.535 15.539 13.246 1.703 7.185-17.242h4.139c-2.671 4.53-9.342 19.033-10.588 20.474-31.55-4.077-44.393-2.022-58.877-.082zm5.646 0h14.414l4.842 14.437-10.283 1.227zm23.563 0h24.043l-1.983 13.386c-6.31-.38-12.476-.03-18.672.167zm32.976 0h12.772l-6.407 15.205c-3.64-.515-5.818-1.049-8.986-1.129zm18.719 5.496s.538.043.906.43c1.589 1.668 3.134 4.738 4.518 9.039 1.018 3.163 2.23 6.506 3.566 9.28.721 1.468.654 1.543-1.46 1.573-4.532.066-8.309-2.103-11.663-6.697-1.067-1.464-1.48-2.123-1.477-2.738.113-.711 1.518-2.985 1.518-2.985s.814 2.258 1.008 3.35c1.218-4.512 1.703.717 2.172 2.096 1.487-4.359 2.288 1.631 2.213 3.248 2.022-2.795 1.892 1.795 2.879 2.648.024-2.422 1.441-.765 3.277-.248-.96-1.354-2.83-2.264-.443-2.563-2.381-1.653-3.573-1.4-1.262-2.312-1.78-.988-4.712-2.176-1.47-2.826-1.982-1.256-5.168-1.783-1.743-2.983-2.587-1.591-6.03-1.477-1.186-2.755-1.755-1.033-4.848-1.418-1.386-2.315-.535-.24-1.463-.867-1.463-.867zm32.82 4.05-22.033 22.401 8.3.246v40.48s.913.232 1.792.284c4.175.245 5.306.587 5.32 1.594.018 1.246-1.875 2.79-3.445 2.812-.356.005-.95.36-.95.36l.505 132.556 9.857 10.38-.041 3.298-12.147-12.928-.457-132.486-.46.215-.034 44.494c-6.225-9.361-9.717-18.64-13.18-27.916 0 0-1.225.423-1.275.449-.01.01.438.156.438.156 3.532 11.857 8.002 20.454 13.799 29.428l-.084 43.121c-14.843-21.083-22.019-40.045-25-67.373l7.511-3.772.729-.98 5.674-2.852.545.91 3.44-2.394c-2.658-4.662-2.56-11.363-.393-14.912l-.932-.584c-.064-.257-3.566 7.257.35 14.898l-2.563 1.586c-3.697-7.685-1.98-15.962-.238-18.095-3.565-2.199-7.557-4.605-11.055-5.762-1.544-.631-2.525.11-2.52.127l-.75 4.29 1.192 1.636-1.389 1.125-.633 6.568 1.493 1.516-1.534 1.707-.209 6.26 1.682 1.31-1.299 2.172.09 5.545.39.27c3.239 39.694 22.564 63.15 25.589 68.47l.426.693c.207 13.47.141 26.998 0 40.696l14.236 15.226-.082-5.572-.697-.506V-80.12l.591-.033s.182-6.821.135-11.506l-.846-.024.053-17.431.72-.086-.042-11.293-.783.002s-.18-11.841.102-17.6l.582-.035-.04-11.226-.658-.051-.047-16.055.815-.125-.22-10.598-.667-.039c-.24-6.548-.125-17.869-.125-17.869l.762-.035-.188-10.523-.548-.036.162-18.474.496-.059-.192-10.912-.533-.049.092-9.074.37-.062.091-3.395-.392-.898-.025-12.09.299-.133zm-1.135 2.061.06 3.844-12.944 12.78 13.043.198-.031 2.602-19.01-.19zm-.11 5.858.085 9.873-10.203-.164zm-75.554 3.539c-8.894.012-17.837 1.026-24.761 2.564 0 0-3.34 15.944-4.532 22.713-1.125-.649-2.125-.932-3.138-.91-7.834.856-7.163 11.658-3.125 11.96.54-.007.775.085 1.13.456.496.516 1.09.862 1.405.816.425-.061.62.016.623.244 0 .187-.186.217-.885.155-.425-.038-1.322.636-1.322.636l-.01 48.645c-3.803-1.586-9.489-2.498-13.857-3.02l-.293-43.357s-6.41 3.376-8.737 4.725l-.084 38.81-4.539.498 7.17 14.65c1.007-.778 15.117.547 18.64 2.852l-12.876 8.08c1.308 4.011 2.498 7.844 3.592 11.907.034.124.27.111.304.236.265.99.455 1.438.703 2.435.046.187-.03.49.023.674 2.774 9.61 4.669 22.343 5.053 33.742-.04.108-.451.016-.451.016l.082 6.965.457-.307-.045 3.153-.465.46c-.01.611-.053 1.764-.053 1.764l.596.375-.309 5.281-.613.09-.336 8.36 16.307-10.614s10.642 7.663 15.297 11.637c-5.122 3.502-6.481 10.328-7.75 15.994-1.298 5.607-1.725 10.236-2.092 14.928-.405 5.17-1.381 11.99-2.063 15.248 5.536.23 18.256-.218 28.54-2.459.865-7.544 2.19-14.395 3.753-21.705 0 0 .175.613 2.725.576 7.463-.108 10.077-8.449 3.836-12.14-.589-.352-1.59-1.024-2.576-1.545-.284-.148-3.862-2.26-3.862-2.26l4.288 1.94.31-50.046s8.941 2.701 14.836 2.955l-.062 43.393 8.232-4.467.375-38.797 4.51-.29s-1.708-3.656-2.088-4.425c-.762-1.538-2.68-4.957-3.99-7.119a199 199 0 0 0-1.549-2.466c-6.009-.16-12.158-1.068-17.746-3.565l12.934-8.463c-5.402-15.305-12.139-37.7-8.385-73.847l-.906.578-.248 3.894-16.102 11.143-19.861-16.084s1.442.039 1.765.053c5.066.18 8.632-5.032 9.856-9.381 2.157-7.668 2.44-9.56 3.433-21.717.393-4.808 1.34-9.446 2.305-14.027.509-2.303.434-2.534.434-2.534-1.262-.04-2.533-.058-3.803-.056zm.717.375 1.942.047c-2.825 14.059-2.839 26.092-5.854 37.175-1.492 5.495-5.3 9.405-8.996 9.393-8.205-1.021-6.032-9.676-2.572-11.475 4.708-2.205 8.48 2.238 5.472 6.739-2.206 3.302-6.403 1.117-4.78-2.502.912-2.039 2.806-1.8 2.788.261-.676 1.96-.056 1.262.473.57 1.66-2.17-1.69-4.474-3.41-2.331-1.057 1.315-1.278 2.877-.916 4.125.617 2.13 3.064 3.376 5.832 1.404 3.307-3.988 5.074-9.148 6.05-14.92 2.08-12.284 2.186-25.209 3.971-28.486m-1.258.039c-.855.574-1.95 17.67-3.658 28.633-.136.889-2.024 9.632-3.076 9.103-.166-.173-1.156-2.544-1.28-3.033 2.048-2.962 2.627-7.822 2.944-11.504 1.155-10.435 2.357-23.035 2.88-23.15zm-3.296.138c-1.091 3.7-1.594 14.035-2.674 22.692-.63 4.382-1.318 10.406-2.924 11.289l-1.365-.88c1.473-4.416 2.016-9.624 2.619-14.665.728-6.097 1.37-12.373 2.254-18.36zm-3.143.172c-.476 3.445-1.379 11.117-2.148 18.174-.894 8.195-2.298 14.393-2.676 14.194l-1.752-1.02c.618-2.464 1.35-5.164 1.713-7.748.804-5.745 1.12-12.716 2.97-23.44zm-2.852.147c-1.004 4.666-2.155 15.628-3.058 23.357-.525 4.487-1.612 7.654-1.877 7.567 0 0-1.505-.854-1.695-.953 1.136-4.528 1.691-8.734 2.251-12.838.756-5.536 1.317-10.92 2.36-17.004zm-3 .23c-.61 4.258-1.448 10.987-2.326 16.938-.994 6.742-1.922 12.488-2.242 12.523l-2.441-1.135c.3.053.875-1.639 1.437-4.279 1.712-8.043 3.41-23.896 3.688-23.89zm-3.177.422c.152-.224-1.746 15.315-3.313 23.164-.535 2.682-1.323 4.422-1.472 4.332l-1.856-1.12c.161.117.832-1.88 1.158-3.27 1.672-8.023 2.426-15.058 3.46-22.84zm-3.13.326c-.845 7.911-2.047 16.408-3.77 24.15-.239 1.04-.758 1.603-.78 1.626l-1.988-.99c2.163-6.157 2.363-12.046 4.437-24.403zm-3.056.48c-1.177 6.541-1.787 14.104-3.373 20.065-.336 1.264-.524 2.684-.965 3.783l-2.238-.902 4.685-22.594zm56.07 8.212s-1.106 10.9-1.441 15.248c-.637 6.664-1.543 10.981-4.107 16.265 2.138 1.24 4.427 2.213 6.73 3.106.915.354 1.876.36 2.783.955a3.5 3.5 0 0 0 2.063.59c2.163-.043 4.36-1.845 4.191-4.147-.205-2.794-1.851-4.038-4.56-3.757-1.45.15-1.411.171-2.387-1.584-.878-1.58-3.194-8.326-3.21-9.348 1.113 1.484 3.713 4.242 6.11 4.127 2.575-.189 4.741-2.643 2.795-6.117-1.035-1.705-2.876-2.037-4.748-1.475-2.8-4.382-3.328-8.77-4.219-13.863m31.9 1.043-.109 39.529-2.252-.477-.01-39.048zm5.247.37a1.584 1.584 0 0 1 0 3.168 1.58 1.58 0 0 1-1.572-1.585c0-.875.702-1.582 1.572-1.582m-37.016 2.741c.266-.153 1.09 7.021 3.973 10.266 3.51-1.68 6.54 2.262 4.146 4.972-4.672 4.04-8.766-4.589-8.767-7.351-.026-3.093.648-7.887.648-7.887m38.98.91c.87 0 1.573.711 1.573 1.586s-.703 1.582-1.572 1.582a1.584 1.584 0 0 1 0-3.168m-4.097.098c.87 0 1.572.707 1.572 1.582a1.58 1.58 0 0 1-1.572 1.588c-.87 0-1.58-.713-1.58-1.588s.71-1.582 1.58-1.582m2.057 3.717c.87 0 1.572.707 1.572 1.582a1.576 1.576 0 1 1-3.152 0c0-.875.71-1.582 1.58-1.582m4.797 1.754v3.777l-8.743 8.416v-4.1zm-108.5 3.754q.351-.028.718.002.42.033.858.148c-.193-.061-2.794 1.708-4.143 4.314-1.457 2.88-.139 5.709-.572 5.72-2.685-.807-2.068-6.055-.979-7.548 1.078-1.477 2.475-2.509 4.118-2.636m3.502.908c.414-.008.725.14 1.068.476.432.423.844.566-.258.957-3.087.81-5.265 3.708-4.744 7.075.062.818.827 2.983-.533 1.957-3.003-2.044-1.4-8.421 2.775-9.998.758-.293 1.277-.46 1.692-.467m104.998.379v4.08l-8.743 8.396v-4.18zm-102.479 1.246c.532-.05.992.03 1.393.203.893.387.585.446-1.096 1.33-2.678 1.408-4.26 4.334-3.855 7.568.152 1.213.639 1.537.292 1.54-.89-.013-1.578-.698-1.892-1.405-1.198-4.393.222-7.962 5.158-9.236m59.531.246c.18-.042.487.82.948 2.285 2.55 8.11 3.223 9.663 4.996 9.258 1.009-.23 2.06-.27 2.748.111 2.246 1.246 2.452 5.424-.828 6.223-2.593.567-4.262-1.75-5.188-3.264-1.62-2.65-3.202-6.471-3.342-8.879-.055-1.593.26-3.55.528-5.379.033-.226.079-.341.138-.355m-127.783 1.181V-9.27s14.724-15.125 21.637-22.63l-7.225-.102v-40.957c-2.353-.318-6.273-.006-7.818-1.582-.96-1.427 2.754-4.232 4.844-3.643 1.393.38 2.974.079 2.974.079v-45.64c.071-.294 8.089 12.412 12.799 28.034-1.43 1-2.9 1.77-3.144 1.94 1.896 4.599 3.208 11.831.56 18.134l-1.826-1.093c1.474-4.052 1.844-9.551-.356-14.791l-.503.529c1.819 4.086 2.41 8.944.02 14.8 5.37 2.189 9.376 5.576 14.007 7.866.331.094.788.533.788.533-1.803 1.01-3.522 2.324-3.512 4.1.06 2.683 1.488 3.729 4.607 3.552.628-.035 1.11.018 1.11.018 1.94 4.046 3.673 8.204 5.261 12.375 1.106-5.306 1.873-10.567 4.088-15.06-.143-.128-2.626-1.287-3.789-1.768-4.536-1.877-6.599-3.035-5.898-3.315.487-.194.664-.535.787-1.505.228-1.789.14-3.782.14-3.782l-.761-1.636 1.175-.95s.152-.73.27-2.199c.202-2.521.066-4.125.066-4.125l-1.13-1.457 1.15-1.44.263-6.603-1.553-1.183 1.452-1.44-.518-6.021s.19-.558.441-.834c-2.456-25.47-11.774-51.136-25.994-68.63v-41.84zm71.461.036c1.243-.066 1.39.576-.154 1.482-2.958 1.735-4.494 5.127-3.639 7.82.41 1.288.8 1.823.399 1.85-.754-.065-1.337-.732-1.696-1.297-1.866-2.694-.315-8.364 3.504-9.539.636-.196 1.172-.295 1.586-.316m2.787 1.19c.387.031.836.148 1.47.439.427.014-.19.418-.991.882-2.843 1.65-4.729 4.594-4.235 7.358.306 1.71.823 2.66.453 2.67-.193.005-.627.07-1.037-.33-1.57-1.534-1.818-5.835-.31-7.961.707-.997 2.904-2.81 3.558-2.992.382-.048.706-.1 1.092-.067m-72.447.968 11.758 12.248v132.328l-2.461.11V-210.2l-9.291-9.885zm75.518.431c.688.039 1.095.444.902.954-2.6 1.085-5.052 3.891-4.795 7.73.099 1.347.545 2.08.281 2.12-.18.027-.808-.244-1.222-.747-2.43-2.943-.456-7.955 3.36-9.674.547-.297 1.06-.406 1.474-.383m3.076 1.583c.828.036 1.481.312 1.488.785.01.367-.076.467-.438.472-2.887-.022-5.957 4.013-5.107 8.31.105.647.3 1.504.076 1.536q-.259.036-.812-.486c-2.578-2.552-1.179-8.303 2.253-9.96.707-.488 1.71-.694 2.54-.657zm46.117 2.765c.368.147.875 1.581 1.89 4.047.231.798 2.56 4.413 2.116 4.43-3.27-1.295-5.358-3.248-4.762-6.424.262-1.195.438-2.18.756-2.053m39.756 3.772c.87 0 1.578.711 1.578 1.586 0 .874-.709 1.584-1.578 1.584s-1.574-.71-1.574-1.584a1.58 1.58 0 0 1 1.574-1.586m-41.612.959c.17.46.169.638.52 1.19l-.883-.423zm-55.587 1.548c2.133-.03 2.837.642 3.234 3.102.276 1.707.448 1.796 3.285 1.717 3.618-.101 3.903.118 4.295 3.293.335 2.726.792 3.007 3.902 2.416 2.263-.43 3.46.572 3.754 3.133.33 2.873.457 2.977 3.666 3.091 3.216.115 4.111.684 4.139 2.627.043 3.012.42 3.284 4.375 3.164 1.92-.058 3.884-.023 5.014.094 2.395.25 2.383.261 2.623-2.053.357-3.457.862-3.776 5.41-3.44 1.9.142 2.034.054 2.164-1.4.163-1.82.833-2.94 1.347-2.253.27.358.272.39 0 3.054-.301 2.98-.336 3.004-4.2 2.705-2.619-.202-2.492-.298-2.772 2.094-.34 2.91-.29 3.58-3.719 3.613-3.242-.02-5.723-.198-9.07-.2-2.444.066-3.241-.769-3.285-3.423-.04-2.36-.031-2.353-3.102-2.482-3.702-.156-4.68-1.111-4.73-4.627-.02-1.369-1.12-1.908-3.276-1.6-3.398.486-4.059.018-4.453-3.158-.328-2.65-.15-2.514-3.264-2.492-3.348.023-4.096-.54-4.134-3.133-.022-1.504-.388-1.957-1.682-2.074-1.383-.125-1.978-.838-1.295-1.545.124-.129.764-.208 1.774-.223m-64.258.426c.147-.008.447 1.13.552 1.233.111.108 1.29.416 1.297.57.01.147-1.131.447-1.234.553-.108.11-.416 1.288-.57 1.297-.148.008-.446-1.132-.551-1.235-.11-.108-1.288-.416-1.297-.57-.01-.147 1.13-.445 1.232-.55.108-.111.416-1.29.57-1.298m163.369 1.188c.87 0 1.574.707 1.574 1.582a1.58 1.58 0 0 1-1.574 1.586 1.58 1.58 0 0 1-1.574-1.586c0-.875.704-1.582 1.574-1.582m-4.303.113c.87 0 1.572.707 1.572 1.582a1.58 1.58 0 0 1-1.572 1.588c-.87 0-1.58-.713-1.58-1.588s.71-1.582 1.58-1.582m-161.002 2.063c.147-.008.447 1.129.553 1.232.11.108 1.286.416 1.295.57.01.147-1.13.447-1.233.553-.108.11-.416 1.288-.57 1.297-.147.008-.447-1.132-.553-1.235-.11-.107-1.288-.416-1.297-.57-.01-.147 1.132-.445 1.235-.55.108-.111.416-1.289.57-1.297m4.28 0c.147-.008.447 1.129.552 1.232.11.108 1.288.416 1.297.57.01.147-1.131.447-1.234.553-.108.11-.416 1.288-.57 1.297-.148.008-.446-1.132-.551-1.235-.111-.107-1.289-.416-1.297-.57-.01-.147 1.13-.445 1.232-.55.108-.111.416-1.289.57-1.297m59.956 1.138 34.278 26.488 14.555-10.332-.13 3.76-14.572 10.17-34.271-26.562zm99.223.76c.87 0 1.574.707 1.574 1.582s-.704 1.582-1.574 1.582-1.574-.707-1.574-1.582.704-1.582 1.574-1.582m-31.373.297c1.565.311 3.157 1.36 4.598 2.09l2.97 5.68-3.416 2.952 3.467 4.045-3.635 4.33 3.645 2.573-3.977 6.148-4.498 2.084 4.965-7.469-3.912-2.636 3.705-5.008-3.855-4.662 3.88-3.348zm-.87.248 3.26 6.365-3.859 3.414 3.955 4.85-3.736 5.064 3.879 2.74-5.41 7.915-.104-3.946 1.93-2.94-2.158-1.872h-.01l-.01-4.649 2.252-2.45-1.955-2.684.635-4.993 1.658-1.257-1.176-2.374.377-2.916zm-129.28 1.53c.147-.009.447 1.13.552 1.234.111.107 1.29.416 1.297.57.01.147-1.131.447-1.234.553-.108.11-.416 1.286-.57 1.295-.148.008-.446-1.13-.551-1.233-.11-.108-1.288-.416-1.297-.57-.01-.147 1.13-.447 1.232-.553.108-.11.416-1.288.57-1.297m166.158.648v3.447l-8.98 8.478v-3.638zm-161.207 1.265v4.164l-7.756 7.39v-4.23zm161.207 3.334v3.717l-8.98 8.504v-3.836zm-161.207 2.012v3.375l-7.756 7.611v-3.496zm57.557.215 12.197 9.136-.027 30.657c-3.87-2.656-7.613-5.364-12.059-7.787zm13.197 9.994 2.422 1.906.066 31.225-2.243-2.008zm85.834.555c.87 0 1.572.707 1.572 1.582a1.58 1.58 0 0 1-1.572 1.588c-.87 0-1.574-.714-1.574-1.588s.704-1.582 1.574-1.582m-160.883 1.752c.87 0 1.574.707 1.574 1.582 0 .874-.704 1.587-1.574 1.587a1.58 1.58 0 0 1-1.572-1.587c0-.875.702-1.582 1.572-1.582m78.459 1.332 6.379 6.603-6.426 6.479-.178-3.135 3.67-3.152-3.353-3.538zm84.32.763c.87 0 1.574.708 1.574 1.582s-.704 1.582-1.574 1.582a1.58 1.58 0 0 1-1.578-1.582 1.58 1.58 0 0 1 1.578-1.582m-4.242.016c.87 0 1.574.707 1.574 1.582a1.58 1.58 0 0 1-1.574 1.586 1.584 1.584 0 0 1 0-3.168m-76.092 1.57 3.739 2.744-.815.924s-2.453-2.723-3.285-3.6zm-80.13.295c.87 0 1.574.708 1.574 1.582s-.704 1.582-1.575 1.582c-.87 0-1.574-.707-1.574-1.582 0-.874.705-1.582 1.574-1.582m107.943.084c-.178-.094 1.19 21.51 4.894 33.031l-14.572 9.69-.01-35.801zm-112.139.129c.87 0 1.572.707 1.572 1.582s-.702 1.582-1.572 1.582-1.574-.707-1.574-1.582.704-1.582 1.574-1.582m162.748 1.959c.87 0 1.574.713 1.574 1.588 0 .874-.704 1.582-1.574 1.582s-1.574-.708-1.574-1.582.704-1.588 1.574-1.588m-73.967.965 5.965 4.656-.01 3.207-6.728-6.947zm-86.9.953c.87 0 1.574.707 1.574 1.582s-.704 1.582-1.574 1.582-1.572-.707-1.572-1.582.702-1.582 1.572-1.582m85.492.527 6.787 7.172-6.914 7.078-6.787-7.072zm51.23.758-6.913 3.408c3.307 26.993 11.002 41.961 19.035 55.04l-.05-33.042c-4.713-8.105-9.553-16.284-12.072-25.406zm28.78.125v3.418l-8.852 8.611v-3.69zm-161.207 1.346v3.695l-7.756 7.752v-3.852zm81.09.566-4.416 4.305 4.379 4.494 4.408-4.387zm8.35 1.223 1.792 1.248-.134 36.406-1.475.719zm-9.893 1.709h2.88v2.879h-2.88zm81.66.033v3.307l-8.852 8.67v-3.784zm-130.71.979c15.134-.206 29.35 5.83 38.349 13.283 4.69 3.877 8.499 8.61 13.138 15.502 8.93 14.004 24.658 20.766 39.305 20.924l1.213 1.898-2.447-.082s-.247 1.76-.28 4.754c-.036 3.37-.017 3.963.246 4.06 1.774.208 7.124.097 6.967-.13l1.1 1.978c-17.461 1.81-34.644-4.301-45.52-14.117-8.457-7.359-14.954-18.528-22.09-24.772-2.885-2.514-9.942-6.441-13.75-7.648-4.329-1.372-7.696-1.934-12.04-2.012-3.431-.06-3.446-.08-3.446-.08l-1.453-2.598 2.4.034.159-9.164c-2.544-.124-5.035.016-7.493.322l-.886-1.668a54 54 0 0 1 6.529-.484m-30.497.335v3.749l-7.756 7.984v-3.924zm88.517 1.002.043 3.487-3.744 3.408 3.813 4.008-.078 2.695c-2.44-2.007-4.522-4.478-6.72-6.756zm-52.615.594c-.683 0-1.135.106-1.17.38-.171 1.854-.28 6.22-.304 7.704-.06.498.056.968.55 1.028 3.106.373 6.56 1.192 8.211 1.25.609-.019.614-.667 1.08-2.772.101-.456.425-1.68.715-2.719.88-3.151.992-3.21-1.726-3.752-1.18-.177-5.307-1.12-7.356-1.119m38.322.067 6.047 6.189-6.062 5.908.012-2.744 2.91-2.967-2.92-3.195zm-69.574.011c14.034 20.08 22.244 43.55 24.68 65.793 0 0-7.419 3.3-11.076 5.442-3.928-9.222-2.481-10.47-13.604-29.18zm36.248 1.75 1.176 1.242 1.44.028-.528 1.963.93.894-1.352.668-.11 1.752-1.444-.871-1.29 1.27-.703-1.518-1.48.496.01-1.814-1.32-.838 1.591-.737.141-2.207 1.613.5zm-13.529.125 1.332.655 1.46-.543-.222 1.804 1.13.903-1.143 1.054.053 1.327-1.342-.458-1.984-3.376zm21.432.897c-.441.032-.559.344-.674.797-.082.32-.448 1.537-.854 2.863-1.42 4.642-1.847 4.424.268 5.129.728.242 3.017 1.017 4.459 1.685 1.428.663 2.074 1.25 2.533 1.24 1.014-.73 3.766-5.975 4.238-7.128 0-.278-1.327-1.123-2.986-1.903-1.414-.664-6.001-2.514-6.424-2.617a1.9 1.9 0 0 0-.56-.066m1.771 2.254 1.55.927 1.179-.513.857 1.607 1.836.074-1.002 1.746.943 1.38-1.33.087-1.033 1.875-1.348-1.13-1.128.681-.65-1.164-1.622-.227.727-1.779-.953-1.373 1.582-.295zm30.582 1.87 7.074 7.505-6.54 6.193-7.348-7.088zm-19.537 1.739c-.23-.01-.394.109-.557.354-4.634 6.961-4.83 6.725-2.996 8.084 1.865 1.433 4.043 3.568 5.532 4.302.627.31.736.117 1.382-.443 1.512-1.299 4.736-5.046 4.73-5.664-.01-.617-4.465-4.492-7.148-6.213-.42-.27-.713-.41-.943-.42m95.145.338c.87 0 1.58.711 1.58 1.586a1.576 1.576 0 1 1-3.152 0 1.58 1.58 0 0 1 1.572-1.586m-75.563.789-4.004 3.861 4.244 4.506 4.11-3.89zm-73.11.182v32.185c4.549 7.239 7.993 15.957 11.481 24.617l6.584-2.714c-2.519-22.946-9.254-40.145-18.064-54.088m-12.261.533c.87 0 1.574.713 1.574 1.588 0 .874-.704 1.582-1.574 1.582a1.586 1.586 0 0 1 0-3.17m66.662.805 1.453 1.472 1.668-.14-.094 1.642 1.475.717-.936 1.08.586 1.477-1.764-.28-1.007 1.383-1.237-1.105-1.474.386-.332-1.464-1.422-.528.763-1.49-.105-1.877 1.432.268zm17.404 1.156h2.88v2.879h-2.88zm74.395.64c.87 0 1.574.708 1.574 1.582a1.58 1.58 0 0 1-1.574 1.586 1.58 1.58 0 0 1-1.574-1.586c0-.874.704-1.582 1.574-1.582m4.613.016c.87 0 1.572.707 1.572 1.582s-.702 1.586-1.572 1.586a1.58 1.58 0 0 1-1.574-1.586c0-.875.705-1.582 1.574-1.582m-160.955 1.648c.87 0 1.574.714 1.574 1.588s-.704 1.582-1.574 1.582-1.574-.707-1.574-1.582c0-.874.704-1.588 1.574-1.588m-4.34.067a1.583 1.583 0 0 1 0 3.166c-.87 0-1.574-.708-1.574-1.582a1.58 1.58 0 0 1 1.574-1.584m95.09.646-.043 2.825-3.59 3.439 3.489 3.584.014 2.092-6.176-5.994zm-39.379.479 2.559 1.338-14.371 9.19-.877-2.67zm107.414.959c.87 0 1.573.707 1.573 1.582 0 .874-.703 1.584-1.573 1.584a1.58 1.58 0 0 1-1.574-1.584c0-.875.704-1.582 1.574-1.582m-80.267.006 4.459 4.488-.56.61zm-4.657.41q-.074-.006-.152.014c-.252.064-.55.329-1.037.818-1.031 1.178-4.812 4.403-4.703 5.266.208.987 1.507 2.11 4.734 6.498.43.552.682.807.97.812.226.004.47-.142.825-.424.323-.254 1.11-.805 1.752-1.224 2.362-1.543 4.365-2.991 4.453-3.205.182-.442-2.186-3.55-5.476-7.278-.707-.8-1.018-1.249-1.366-1.277m-76.107 1.57c.87 0 1.572.714 1.572 1.588a1.576 1.576 0 1 1-3.152 0c0-.874.71-1.588 1.58-1.588m165.506.336v3.696l-8.68 8.304v-3.656zm-88.695.967.88 1.697 1.852-.029-.26 1.633 1.291 1.09-1.408.838-.197 1.488-1.215-.106-1.264 1.385-.947-1.781-1.436.244.188-1.637-1.217-.96 1.197-1.665-.158-1.183 1.408.32zm38.843 1.32.621 1.735-19.638 12.752-1.56-1.182zm-111.355.203v4.069l-7.756 7.31v-3.89zm81.726.495 6.332 6.283-1.857 1.834-5.162-7.426zm-21.89.168 1.713 1.978-20.535 13.25-.784-2.4zm101.37 1.763v4.086l-8.679 8.281v-3.955zm-98.183.89-.127 38.368-1.617-.78-.066-36.726zm.602 1.417.865.756-.705.709zm-63.625.603v4.354l-7.756 7.69v-4.758zm65.332.86 5.707 7.648-.25.21-6.729-6.497zm14.83.05c-.56.069-1.452.667-3.438 2.1-3.858 2.785-3.84 2.372-.292 6.975 2.04 2.65 3.014 4.276 3.851 4.217.652-.046 1.318-.822 2.582-2.172 1.24-1.326 2.703-2.882 3.016-3.104.978-.692.93-.86-.772-2.781a63 63 0 0 1-2.17-2.652c-.676-.877-1.754-1.974-1.968-2.2-.26-.273-.474-.423-.81-.382m-24.186 1.362-.134 36.463-9.625 6.271c-1.107-12.59-1.875-21.304-5.11-33.175zm32.48.775.062 2.668-1.46-1.29zm-24.782.203 6.564 6.582-6.67 6.586-.059-2.793 3.752-3.523-3.7-3.879zm16.279.34 1.074 1.268 1.268-.149-.043 1.543 1.293.739-.914 1.004-.027 1.728-1.883.07-.912.86-.953-1.319-1.616.104.239-1.553-.86-.63.838-1.176.068-1.485 1.334.319zm34.754 1.405.855 2.351-12.556 8.27-2.387-1.225zm-42.738 4.64 2.316 3.02-2.545-2.746zm84.937.43c.87 0 1.578.707 1.578 1.582a1.58 1.58 0 0 1-1.578 1.582c-.87 0-1.574-.708-1.574-1.582s.704-1.582 1.574-1.582m-68.516.166c-.581.046-1.25.904-3.2 2.865-2.036 2.047-3.292 2.62-2.499 3.7 1.929 1.662 3.51 2.877 5.602 4.466 1.382 1.036 2.093 1.528 2.57 1.522.422-.006.664-.397 1.03-1.149a47 47 0 0 1 1.88-3.308c1.87-2.943 1.87-2.793.01-3.946-.791-.489-2.614-1.995-4.18-3.418-.543-.493-.86-.76-1.208-.732zm-17.587.373 7.265 7.185-6.615 6.647-7.27-7.162zm-74.975 1.385c.87 0 1.574.707 1.574 1.582a1.58 1.58 0 0 1-1.574 1.586c-.87 0-1.572-.712-1.572-1.586s.702-1.582 1.572-1.582m92.863.453.965.931 1.88-.126.302 1.613.814.642-.633 1.069.463 1.422-1.611.11-.979 1.108-1.195-.89-1.404.605-.102-1.662-1.277-.633.805-1.177-.487-1.55 1.383-.044zm-18.123.914-4.006 4.139 4.551 4.488 4.287-4.225zm84.076.877c.87 0 1.573.707 1.573 1.582 0 .874-.703 1.586-1.573 1.586a1.58 1.58 0 0 1-1.574-1.586c0-.875.705-1.582 1.574-1.582m4.53.05c.87 0 1.574.708 1.574 1.583 0 .874-.705 1.582-1.574 1.582s-1.573-.708-1.573-1.582.703-1.582 1.573-1.582m-161.252 1.66c.87 0 1.574.708 1.574 1.583 0 .874-.705 1.582-1.574 1.582a1.58 1.58 0 0 1-1.578-1.582 1.58 1.58 0 0 1 1.578-1.582m-4.227.161c.87 0 1.572.707 1.572 1.582s-.702 1.582-1.572 1.582a1.58 1.58 0 0 1-1.578-1.582 1.58 1.58 0 0 1 1.578-1.582m75.695.04h2.881v2.88h-2.88zm28.006.892c-.46.057-.712.486-1.209 1.34-.44.757-1.276 2.615-1.861 3.58-1.46 2.406-1.5 2.29 1.182 3.587 1.577.765 2.533 1.078 5.85 2.43.921.376 1.51.632 1.949.625.835-.014.944-1.567 1.85-4.506 1.262-4.1 1.35-3.721-1.071-4.576-1.079-.38-3.141-1.08-4.233-1.596-1.33-.628-1.997-.942-2.457-.884m59.463 1.14c.87 0 1.574.71 1.574 1.584s-.704 1.582-1.574 1.582-1.572-.707-1.572-1.582c0-.874.703-1.584 1.572-1.584m-77.176.131 2.227 2.047.129 31.209-2.313-1.787zm-1.027.11.115 3.199c-1.25 1.118-2.742 2.393-3.841 3.656l3.822 3.922.01 2.451-6.586-6.607zm-15.133.04 7.278 6.788-7.342 7.277.215-3.365 3.879-3.858-4.127-4.029zm34.85.676 1.336.942 1.416-.514.392 1.059 1.45.705-.526 1.166.723 1.574-1.658.127-.854 1.687-1.162-.732-1.305.547-.261-1.412-1.428-.557.406-1.389-.629-1.04 1.217-.237zm-102.75.832c.87 0 1.574.71 1.574 1.584s-.704 1.582-1.574 1.582-1.574-.707-1.574-1.582c0-.874.703-1.584 1.574-1.584m113.748 1.192c-1.067-.033-.85.509-1.266 1.693-.516 1.48-.797 2.792-1.44 4.904-.587 1.935-.318 1.997 3.474 2.71 2.62.492 5.341.86 6.464.86.375 0 .6-.032.643-.103.096-.162.042-1.608.36-6.84.116-1.917.249-1.925-1.35-2.119-1.343-.046-4.346-.82-6.344-1.056a5 5 0 0 0-.541-.05m51.654.203v3.77l-8.135 7.712v-3.765zm-77.85.213c4.577 3.46 8.25 5.523 11.723 7.277l-.468 32.408-11.301-8.845zm29.145 1 .914 1.166 1.33.045-.072 1.658.864.732-1.032.93.133 1.469-1.638-.276-1.036 1.205-.707-1.168-1.697-.28.297-1.19-.863-1.227 1.062-.8-.037-1.48 1.328.048zm-112.32.199v3.969l-7.756 7.888v-4.164zm123.193 1.623 2.389 4.701-1.555-.633-1.187.793-.364-1.744-1.046-.691 1.064-.737.047-1.132zm-51.879 1.578 7.06 6.73-7.392 7.24-6.826-6.786zm89.711.006v4.082l-8.135 7.658v-3.84zm-161.025 2.086v3.594l-7.756 7.572v-3.607zm70.959.65-4.217 4.26 4.246 4.272 4.352-4.272zm-1.371 2.82h2.879v2.88h-2.88zm9.084 2.397.057 3.127-3.951 3.83 3.97 4.14-.285 2.157-6.892-6.48zm-15.033.32 6.53 6.319-1.058 1.05-5.46-4.19zm93.205 4.055c.87 0 1.574.712 1.574 1.586s-.705 1.582-1.574 1.582-1.573-.707-1.573-1.582a1.58 1.58 0 0 1 1.573-1.586m-161.227 1.7c.87 0 1.574.709 1.574 1.583a1.58 1.58 0 0 1-1.574 1.586 1.58 1.58 0 0 1-1.572-1.586c0-.874.702-1.584 1.572-1.584m32.428.978-5.414 7.152 4.48 3.094-4.25 4.604 3.813 5.025-3.948 3.102 4.272 7.043-.28.34-4.085-2.165-3.883-6.345 3.875-2.829-3.527-4.535 3.804-3.92-4.181-2.671 3.91-5.477zm42.947.266 4.848 5.365-5.748-4.268zm-41.562.173.055 3.516-1.903 2.305 2.182 1.51.01 4.84-2.219 2.349 2.033 2.064-.363 5.293-1.935 1.541 1.597 2.204-.574 3.19c-.12-.217-.508-.298-.695-.589a1000 1000 0 0 0-3.584-5.508l4.045-3.226-3.715-4.905 4.64-4.74-4.74-3.244s2.942-4.526 5.166-6.6zm129.76.987c.869 0 1.574.71 1.574 1.584a1.58 1.58 0 0 1-1.575 1.586 1.58 1.58 0 0 1-1.574-1.586 1.58 1.58 0 0 1 1.574-1.584m-98.604.023c.526-.041 1.046.239 1.437.537 10.683 8.508 21.616 16.759 32.446 25.094l-.062 2.516-28.766-21.639s-2.656-2.01-3.418-2.496c-1.615-1.03-1.937-.616-3.549.496-3.634 2.17-12.431 8.19-12.431 8.19l.07-3.118s8.85-6.658 13.748-9.42c.173-.096.35-.146.525-.16zm93.99.06c.87 0 1.574.708 1.574 1.583 0 .874-.704 1.582-1.574 1.582s-1.572-.708-1.572-1.582.702-1.582 1.572-1.582m-156.387 1.376c.87 0 1.573.707 1.573 1.582 0 .874-.703 1.582-1.573 1.582s-1.574-.708-1.574-1.582.705-1.582 1.574-1.582m-4.484.191c.87 0 1.574.714 1.574 1.588s-.704 1.582-1.574 1.582-1.572-.707-1.572-1.582a1.58 1.58 0 0 1 1.572-1.588m163.201 2.244a1.586 1.586 0 0 1 0 3.17c-.87 0-1.574-.707-1.574-1.582 0-.874.704-1.588 1.574-1.588m4.53 3.377v4.309l-8.546 8.107v-4.578zm-161.436 1.055v4.006l-7.756 7.6v-4.046zm54.969.316c.926-.04 2.315.144 2.97.33.332.095 2.402.145 4.854.12 5.906-.063 5.967-.076 5.963 4.095 0 1.756.381 2.133 3.472 2.04 3.879-.118 3.675-.222 4.334 4.46.23 1.623.359 1.685 3.569 1.639 3.498-.05 4.294-.102 4.088 2.863-.188 2.695.466 3.402 3.384 2.719 3.109-.727 3.703.6 4.006 3.01.28 2.232.47 1.673 1.953 1.789 1.645.128 1.453 1.99-.293 2.162-.298.03-.567.067-.812.076-1.72.06-2.252-.755-2.541-3.38-.198-1.803-.583-1.971-3.402-1.495-2.977.503-3.973-.31-4.186-3.408-.168-2.458-.148-2.438-3.533-2.461-3.332-.023-3.69-.361-4.072-3.795-.285-2.551-.19-2.48-3.467-2.436-3.63.05-3.956-.22-4.201-3.449-.2-2.616-.37-2.785-2.663-2.595-2.245.185-6.389.207-7.164.037-1.931-.424-2.01-.344-2.425 2.275-.547 3.448-1.227 3.88-5.442 3.453-2.072-.21-2.312-.167-2.605 1.666-.392 2.445-.88 3.16-.881 1.043 0-5.35.368-5.598 3.918-4.646 2.666.715 2.709.166 2.988-2.416.246-2.276.628-3.209 1.461-3.573.162-.07.418-.11.727-.123m106.466 3.953v3.936l-8.545 8.074v-4.074zm-100.529.483s13.094 10.194 19.422 15.117l-3.033.83-16.371-12.283-15.496 10.428.094-3.805zm-60.906.459v3.379l-7.756 7.896V-77Zm157.137 9.988c.147-.008.447 1.13.552 1.233.11.108 1.289.416 1.297.57.01.147-1.131.447-1.234.553-.108.11-.416 1.288-.57 1.297-.148.008-.448-1.132-.553-1.235-.11-.108-1.286-.416-1.295-.57-.01-.147 1.13-.445 1.232-.551.108-.11.416-1.288.57-1.297m-155.801 2.094 2.537.088v39.695h-2.537zm-5.518.053c.87 0 1.574.71 1.574 1.584a1.58 1.58 0 0 1-1.574 1.586 1.58 1.58 0 0 1-1.572-1.586c0-.875.703-1.584 1.572-1.584m159.383 1.216c.147-.008.445 1.13.55 1.233.111.108 1.289.416 1.298.57.01.147-1.13.447-1.233.553-.108.11-.416 1.288-.57 1.297-.147.008-.447-1.132-.553-1.235-.11-.108-1.288-.416-1.297-.57-.01-.147 1.132-.447 1.235-.553.108-.11.416-1.286.57-1.295m4.28 0c.147-.008.447 1.13.552 1.233.11.108 1.288.416 1.297.57.01.147-1.131.447-1.234.553-.108.11-.416 1.288-.57 1.297-.148.008-.446-1.132-.552-1.235-.11-.108-1.288-.416-1.296-.57-.01-.147 1.129-.447 1.232-.553.108-.11.416-1.286.57-1.295m-79.505 2.452c4.278-.068 7.272 5.411 4.198 9.58-2.777 3.765-7.124 3.716-8.444-.094-1.09-3.148 2.413-7.1 5.21-5.873 1.942.854 1.446 4.373-.737 5.201-.904.343-1.67-.81-1.223-1.846.352-.814.39-1.324-.088-.978-1.973 1.399-.487 4.733 1.963 3.486 3.268-1.663 2.718-6.552-.574-6.765-4.167-.412-7.381 4.748-9.44 14.546-2.257 10.967-1.696 20.785-3.86 29.395l-1.919.033c.26-5.254 1.355-8.928 1.69-15.14.414-7.588 1.71-17.036 5.105-24.872 1.144-2.639 3.257-5.116 6.22-6.285a5.4 5.4 0 0 1 1.9-.388m-81.95.537c.869 0 1.572.707 1.572 1.582a1.58 1.58 0 0 1-1.573 1.588c-.87 0-1.574-.714-1.574-1.588s.705-1.582 1.574-1.582m-4.434.092c.87 0 1.574.709 1.574 1.584 0 .874-.705 1.582-1.574 1.582s-1.573-.708-1.573-1.582.703-1.584 1.573-1.584m33.963.876c1.762.037 3.442 1.663 5.023 4.874 2.485 5.045 3.166 8.793 1.965 10.812q-.075.126-.18.12c-.376-.028-1.046-1.367-2.098-4.169-1.013-2.701-2.65-6.108-2.998-6.236-.107-.04-.568.123-1.023.363-3.452 1.822-5.881-3.347-2.479-5.27q.909-.512 1.79-.494m129.582.016c.147-.008.447 1.132.552 1.234.11.108 1.289.417 1.297.57.01.148-1.131.448-1.234.554-.108.11-.416 1.286-.57 1.294-.148.009-.448-1.129-.553-1.232-.11-.108-1.286-.416-1.295-.57-.01-.147 1.13-.448 1.232-.553.108-.11.416-1.288.57-1.297m-70.577 1.647c.404.089 1.187.904 1.737 1.99 1.223 2.415-1.033 7.086-4.114 8.512a5.1 5.1 0 0 1-1.974.449c-1.355.03-2.248-.526-.951-1.215 4.126-2.192 5.86-5.34 5.07-9.213-.062-.303-.024-.467.084-.516a.24.24 0 0 1 .148-.007m-53.4.851c.666.055 1.862.558 2.344 1.078.993 1.072 1.309 3.47.638 4.84-.196.4-.339.63-.494.62-.915-2.224-1.858-4.4-2.931-6.427.058-.097.221-.13.443-.11m-37.137.447c.87 0 1.575.712 1.575 1.586s-.704 1.584-1.575 1.584c-.868 0-1.572-.71-1.572-1.584a1.58 1.58 0 0 1 1.572-1.586m93.752.25q.45-.084 1.35 1.264c2.071 3.1-2.082 9.805-5.47 9.955a2.33 2.33 0 0 1-1.2-.26c-.894-.465-.763-.808.607-1.617 1.413-.833 1.97-1.356 2.782-2.592 1.266-1.926 1.48-2.668 1.482-5.15q0-1.516.45-1.6m2.836 1.823c.106-.035.263.049.488.222 3.025 2.322-.217 10.424-4.314 10.782a5 5 0 0 1-.324.02c-1.534.037-1.747-.742-.375-1.706 2.617-1.838 4.366-5.076 4.324-8.02-.012-.854.025-1.241.201-1.298m2.541.756c.167.025.457.289.94.79 2.071 2.156.61 8.007-3.405 10.196-.545.289-1.075.409-1.5.404-.934-.01-1.355-.612-.263-1.303 2.663-1.683 4.265-4.895 4.109-8.248-.094-1.265-.16-1.882.12-1.84m2.737 1.341c.215.02.585.215 1.19.653 1.705 1.422 1.364 5.118-.444 7.654-1.115 1.565-3.425 2.96-4.807 2.977a1.4 1.4 0 0 1-.662-.13c-.727-.364-.46-.417.873-1.372 2.365-1.695 3.534-4.188 3.809-6.971.132-1.34-.606-2.868.04-2.81m-23.57.223q.03-.008.034.057c.25 1.126.958 2.038 1.5 2.93-2.257 6.175-3.168 11.794-3.748 17.085-.677 6.183-.868 11.917-1.719 17.57l-2.189.067c.174-.814.206-1.682.355-2.678.864-5.752 1.375-14.15 2.26-20.732 1.17-8.706 3.209-14.212 3.506-14.299m-74.32.123v3.945l-7.755 7.766v-3.854zm101.03 1.356c.08-.008.171.01.24.013.569.095.918.697 1.082 1.207 1.886 3.787-1.6 9.537-5.3 9.678a3.3 3.3 0 0 1-1.143-.156c-.926-.293-.586-.314.975-1.356 2.974-1.985 3.88-3.93 4.011-7.906.038-.599-.086-1.095-.035-1.346.021-.095.09-.127.17-.134zm2.942 2.212c.134.012.38.23.826.637 3.036 4.272-1.339 9.463-4.86 9.438-1.572-.021-2.326-.489-1.285-.905 3.454-1.38 4.988-3.577 5.178-7.42.01-1.214-.083-1.77.14-1.75m-27.301.157 1.781 1.084c-2.95 9.735-3.734 22.265-5.02 32.629l-1.845.078c.072-1.862.806-10.458 1.683-17.985.99-8.486 3.013-15.806 3.4-15.806m-76.67 1.113v3.273l-7.756 8.137v-3.385zm79.557.488 1.74.606c-1.164-.367-4.03 22.39-4.543 31.232l-2.088.205c.31-4.45 1.057-11.446 1.894-17.756 1.012-7.628 2.336-14.387 2.997-14.287m2.708 1.285c.316.014.835.462 1.907 1.06-1.864-.264-3.36 20.934-4.422 29.317l-1.922.098c.749-12.311 2.543-23.473 3.604-28.264.327-1.444.436-2.069.708-2.19a.3.3 0 0 1 .125-.02m-54.917.62c-2.261.14-4.476 2.38-3.409 5.306.684 1.876 2.42 2.155 4.621 1.781 0 0 .95.678 2.065 4.077 1.32 4.023 3.392 8.164 3.392 8.164.132-5.047 1.312-10.302-.894-14.43-1.63-3-2.88-4.1-4.316-4.674a3.3 3.3 0 0 0-1.008-.224q-.225-.015-.451 0m.343.41c3.266.196 6.407 6.01 6.053 12.21a26 26 0 0 1-.432 3.483c-1.461-3.046-1.77-5.338-3.187-8.098-.62-1.204-1.176-2.238-1.176-2.238-4.628 2.188-6.41-3.323-2.656-5.082a2.86 2.86 0 0 1 1.398-.275m57.338.392 1.953.914c-.534-.175-1.924 5.664-2.394 12.27-.41 5.75-1.441 12.006-1.746 15.472l-2.13.258c1.364-9.32 1.494-20.211 4.317-28.914m2.906 1.436 1.995 1.017c-1.047-.316-2.874 18.958-3.985 25.803l-2.012.317c.777-3.292.777-8.142 1.36-12.188.72-5.009 1.49-15.183 2.642-14.95m3.01 1.394 1.899 1.012c-.74 3.082-2.617 13.563-3.657 23.914l-2.025.277c.975-7.525 2.74-25.072 3.783-25.203m2.881 1.551 2.078.943s-1.441 7.074-2.125 12.043c-.675 4.905-.78 5.605-.994 6.883-.474 2.819-.605 2.924-.605 2.924l-1.733.29c.84-8.273 1.625-16.65 3.379-23.083m-97.885 3.639c.87 0 1.574.713 1.574 1.588 0 .874-.703 1.582-1.574 1.582-.87 0-1.572-.708-1.572-1.582a1.58 1.58 0 0 1 1.572-1.588m2.073 3.732c.87 0 1.58.714 1.58 1.588s-.71 1.582-1.58 1.582-1.573-.707-1.573-1.582a1.58 1.58 0 0 1 1.573-1.588m-4.319.069c.87 0 1.572.707 1.572 1.582 0 .874-.702 1.582-1.572 1.582a1.58 1.58 0 0 1-1.578-1.582 1.58 1.58 0 0 1 1.578-1.582m2.328 3.681c.87 0 1.575.712 1.575 1.586s-.704 1.582-1.575 1.582a1.576 1.576 0 0 1-1.572-1.582 1.58 1.58 0 0 1 1.572-1.586m-3.779 5.074h18.014l-18.014 19.08v-3.296l11.682-13.024h-11.682zm0 4.237h8.846l-8.846 9.246zm23.639.73a7.7 7.7 0 0 0-3.106.707c-.414.174-.737.393-.74.612 2.275 2.084 3.471 5.656 4.246 8.587 1.738 4.62 3.03 10.193 7.024 12.649l-2.758 5.523h86.78l-14.444-25.42c-16.449 3.215-39.632 4.883-59.475-.209 0 0-3.413 6.373-4.27 8.077 0 0-.5-1.564-1.035-2.65-2.324-4.404-7.548-7.992-12.222-7.876m-.18.483q.38-.015.773.011c4.542.308 10.284 4.717 11.897 8.82-.25.489-1.352 2.54-1.352 2.54-.575-1.13-.143-2.244-.521-3.258-.093-.432-1.035 2.92-1.035 2.92s-.91-1.488-1.022-4.35c-.017-.441-1.183 1.92-1.183 1.92-1.467-1.986-1.385-5.43-1.385-5.43-1.653 2.018-.622 3.174-3.176-1.968-.295.535-.15 1.101-.537.95-1.122-.436-2.7-1.226-3.273-1.067.748.943 2.2 1.441 2.6 2.693 0 0-1.152-.098-1.227-.041 1.305.714 2.559 1.33 3.539 2.701-.292.108-1.473-.094-1.422.031 1.767 1.605 4.419 2.902.584 2.54 2.493 1.762 5.271 2.98.941 2.849 3.089 1.467 3.921 2.372 3.346 2.621-.324.14-1.249-.418-2.72.055 2.481 1.017 3.504 1.483 3.603 1.818.119.406-1.06.63-1.868 1.51 0 0 1-.23 1.436.236 0 0-.484 1.406-.857 2.217-3.16-2.883-4.404-6.965-5.223-9.592-.412-1.359-.832-2.691-.932-2.963-1.514-4.126-2.136-5.49-3.125-6.861-.163-.227-.213-.2.025-.395.641-.315 1.355-.476 2.114-.507zm76.492 3.982L1511.824.51h-2.615l-9.867-17.657-14.656 1.469 4.05 16.187h-3.873l-4.006-15.767-22.683.12c-.734 5.283-2.158 15.647-2.158 15.647h-4.19l2.791-16.04-13.398-1.692-7.742 17.732h-3.635l11.166-21.887c21.536 3.369 32.927 3.788 58.32-.232m-56.76 6.424 9.282 1.248-2.534 14.447h-13.119zm55.053.236 8.352 15.46h-14.303l-4.107-14.524zm-18.603 1.867 3 13.592h-23.086l1.322-13.445z" style="fill:#000;stroke-width:.165" transform="matrix(-6.07743 0 0 -6.04382 7359.69 -351.303)"/></g></g></g><path id="path147-0-8-1-3-6-4-3-4" d="M1565.193 300.147c10.426-.227 15.1-11.965 7.38-21.081-1.12-1.33-1.236-2.093.815-.816 5.199 3.477 15.167 1.191 15.677-9.437.631-13.095-17.667-16.868-21.102-2.943-.182 1.469-1.375 1.435-1.088-.65.313-5.66 2.081-10.95 4.51-16.11h-12.394c2.43 5.16 4.197 10.45 4.51 16.11.288 2.085-.906 2.119-1.087.65-3.436-13.925-21.733-10.152-21.103 2.943.51 10.628 10.48 12.914 15.678 9.437 2.051-1.277 1.935-.514.816.816-7.722 9.116-3.047 20.854 7.38 21.08h.01z" style="opacity:1;fill:#000;stroke-width:1.06667"/><path id="path147-0-8-1-0-3-83-9-4-0" d="M1455.25 38.138c10.426.227 15.102 11.965 7.38 21.081-1.12 1.33-1.235 2.093.816.815 5.198-3.476 15.167-1.19 15.677 9.438.63 13.095-17.667 16.868-21.102 2.943-.182-1.469-1.376-1.435-1.088.65.313 5.66 2.081 10.95 4.51 16.11h-12.394c2.43-5.16 4.197-10.45 4.51-16.11.288-2.085-.906-2.119-1.087-.65-3.436 13.925-21.733 10.152-21.103-2.943.51-10.629 10.48-12.914 15.678-9.438 2.05 1.278 1.935.515.815-.815-7.721-9.116-3.046-20.854 7.38-21.08h.01z" style="opacity:1;fill:#000;stroke-width:1.06667;stroke-miterlimit:4;stroke-dasharray:none"/></g><path id="path147-6-9-8-7-0-5-6-79-2-4-7" d="M1838.243-150.847c4.17-.095 6.04-4.986 2.952-8.784-.448-.554-.494-.872.326-.34 2.08 1.449 6.067.497 6.271-3.932.252-5.456-7.067-7.028-8.44-1.226-.073.612-.551.598-.436-.271.126-2.358.833-4.563 1.804-6.712h-4.957c.972 2.15 1.679 4.354 1.804 6.712.115.869-.362.883-.435.27-1.374-5.801-8.693-4.23-8.441 1.227.204 4.429 4.191 5.38 6.27 3.932.821-.532.775-.214.327.34-3.089 3.798-1.218 8.69 2.952 8.784z" style="display:inline;opacity:1;stroke-width:1.06258"/><path id="path147-6-9-8-7-4-5-62-3-3-7-5" d="M1637.758-376.113c-4.17.094-6.04 4.985-2.952 8.783.448.554.494.872-.326.34-2.08-1.448-6.067-.496-6.271 3.932-.253 5.457 7.067 7.029 8.44 1.227.073-.612.55-.598.436.27-.126 2.359-.833 4.563-1.805 6.713h4.958c-.972-2.15-1.679-4.354-1.804-6.712-.115-.87.363-.883.435-.271 1.374 5.802 8.693 4.23 8.441-1.227-.204-4.428-4.192-5.38-6.271-3.932-.82.532-.774.214-.326-.34 3.089-3.798 1.218-8.689-2.952-8.783z" style="display:inline;opacity:1;stroke-width:1.06258"/><path id="path35-5-6-2-3" d="M1637.644-414.535v3.673h3.562s.087 3.54.118 11.05c.028 7.293.176 10.91-.288 12.987-1.248 4.787-8.176 4.813-9.552 1.372-.8-2.003-.587-3.56-.624-5.575h-3.83s.023 1.015.029 2.257c.022 5.382 1.802 7.956 5.967 8.971 4.283 1.159 9.291-.608 11.071-4.272 1.061-2.089.94-2.232.966-14.86.016-8.424.143-11.93.143-11.93h3.28v-3.673zm0 0" style="opacity:1;stroke-width:1.06258"/><path id="path35-6-4-1-2-4" d="M1838.353-112.426v-3.673h-3.562s-.086-3.54-.117-11.05c-.028-7.292-.176-10.91.288-12.987 1.248-4.786 8.175-4.813 9.552-1.371.8 2.002.587 3.558.624 5.575h3.83s-.023-1.015-.029-2.257c-.022-5.383-1.802-7.957-5.967-8.972-4.283-1.158-9.291.609-11.071 4.273-1.061 2.088-.94 2.232-.966 14.86-.016 8.424-.143 11.93-.143 11.93h-3.28v3.672zm0 0" style="opacity:1;stroke-width:1.06258"/></g></g></g><g id="g862" transform="translate(-328.564 142.755)"><rect id="rect22845-2" width="1659.913" height="794.398" x="-356.473" y="-1029.682" rx="144.482" ry="124.682" style="opacity:1;vector-effect:none;fill:#006614;fill-opacity:1;stroke:none;stroke-width:1.74801;stroke-linecap:butt;stroke-linejoin:miter;stroke-miterlimit:4;stroke-dasharray:none;stroke-dashoffset:0;stroke-opacity:1"/><text xml:space="preserve" id="text5630-0" x="472.194" y="-935.813" style="font-style:normal;font-variant:normal;font-weight:400;font-stretch:normal;font-size:42.6667px;line-height:125%;font-family:Carlito;-inkscape-font-specification:&quot;Carlito, Normal&quot;;text-align:center;letter-spacing:0;word-spacing:0;writing-mode:lr-tb;text-anchor:middle;fill:#fff;fill-opacity:1;stroke:none;stroke-width:1.06667px;stroke-linecap:butt;stroke-linejoin:miter;stroke-opacity:1"><tspan id="tspan4923" x="472.194" y="-935.813" style="font-style:normal;font-variant:normal;font-weight:400;font-stretch:normal;font-size:48px;line-height:125%;font-family:Carlito;-inkscape-font-specification:&quot;Carlito, Normal&quot;;text-align:center;writing-mode:lr-tb;text-anchor:middle;fill:#fff;fill-opacity:1;stroke-width:1.06667px">Single Playing Card from:</tspan><tspan id="tspan5035" x="472.194" y="-875.813" style="font-style:normal;font-variant:normal;font-weight:400;font-stretch:normal;font-size:48px;line-height:125%;font-family:Carlito;-inkscape-font-specification:&quot;Carlito, Normal&quot;;text-align:center;writing-mode:lr-tb;text-anchor:middle;fill:#fff;fill-opacity:1;stroke-width:1.06667px">Standard Edition - Color Set - Bordered </tspan><tspan id="tspan4927" x="472.194" y="-762.48" style="font-style:normal;font-variant:normal;font-weight:400;font-stretch:normal;font-size:48px;line-height:125%;font-family:Carlito;-inkscape-font-specification:&quot;Carlito, Normal&quot;;text-align:center;writing-mode:lr-tb;text-anchor:middle;fill:#faa;fill-opacity:1;stroke-width:1.06667px">Copyright 2011, 2020 - Chris Aguilar - conjurenation@gmail.com</tspan><tspan id="tspan4931" x="472.194" y="-649.147" style="font-style:normal;font-variant:normal;font-weight:400;font-stretch:normal;font-size:48px;line-height:125%;font-family:Carlito;-inkscape-font-specification:&quot;Carlito, Normal&quot;;text-align:center;writing-mode:lr-tb;text-anchor:middle;fill:#fff;fill-opacity:1;stroke-width:1.06667px">https://totalnonsense.com/open-source-vector-playing-cards/</tspan><tspan id="tspan4919" x="472.194" y="-535.813" style="font-style:normal;font-variant:normal;font-weight:400;font-stretch:normal;font-size:48px;line-height:125%;font-family:Carlito;-inkscape-font-specification:&quot;Carlito, Normal&quot;;text-align:center;writing-mode:lr-tb;text-anchor:middle;fill:#faa;fill-opacity:1;stroke-width:1.06667px">Licensed under:</tspan><tspan id="tspan1594-5" x="472.194" y="-475.813" style="font-style:normal;font-variant:normal;font-weight:400;font-stretch:normal;font-size:48px;line-height:125%;font-family:Carlito;-inkscape-font-specification:&quot;Carlito, Normal&quot;;text-align:center;writing-mode:lr-tb;text-anchor:middle;fill:#faa;fill-opacity:1;stroke-width:1.06667px">LGPL 3.0</tspan><tspan id="tspan12253-3" x="472.194" y="-415.813" style="font-style:normal;font-variant:normal;font-weight:400;font-stretch:normal;font-size:48px;line-height:125%;font-family:Carlito;-inkscape-font-specification:&quot;Carlito, Normal&quot;;text-align:center;writing-mode:lr-tb;text-anchor:middle;fill:#faa;fill-opacity:1;stroke-width:1.06667px">https://www.gnu.org/licenses/lgpl-3.0.html</tspan><tspan id="tspan5033" x="472.194" y="-302.48" style="font-style:normal;font-variant:normal;font-weight:400;font-stretch:normal;font-size:48px;line-height:125%;font-family:Carlito;-inkscape-font-specification:&quot;Carlito, Normal&quot;;text-align:center;writing-mode:lr-tb;text-anchor:middle;fill:#fff;fill-opacity:1;stroke-width:1.06667px">Each Card Measures (63mm x 88mm)</tspan></text></g></svg>