<svg xmlns="http://www.w3.org/2000/svg" id="svg8" width="238.111" height="332.598" version="1.1"><g id="layer1" transform="translate(264.164 -2.847)"><g id="CLUB-5" transform="matrix(1.07145 0 0 1.07009 -1893.23 1167.5)"><g id="layer1-33-1-41-1-2-6" style="display:inline;opacity:1" transform="matrix(.99554 0 0 .9968 1261.16 -1457.46)"><rect id="rect6355-6-85-3-7-9-4" width="223.228" height="311.811" x="260.433" y="370.276" rx="10.678" ry="10.664" style="display:inline;fill:#fff;fill-opacity:1;stroke:none;stroke-width:1.00057;stroke-miterlimit:4;stroke-dasharray:none;stroke-opacity:1"/></g><path id="path147-0-8-1-6-13-2-8-2-5" d="M1683.081-1055.365c-9.774.212-14.157 11.217-6.918 19.763 1.05 1.247 1.158 1.962-.765.765-4.874-3.26-14.219-1.117-14.698 8.847-.59 12.277 16.563 15.815 19.784 2.76.17-1.377 1.29-1.346 1.02.61-.294 5.305-1.951 10.265-4.229 15.102h11.62c-2.277-4.837-3.935-9.797-4.228-15.103-.27-1.955.85-1.986 1.02-.609 3.22 13.055 20.374 9.517 19.783-2.76-.479-9.964-9.824-12.106-14.698-8.847-1.923 1.197-1.814.482-.764-.764 7.239-8.546 2.856-19.551-6.919-19.764h-.01z" style="display:inline;opacity:1"/><path id="path147-0-8-1-6-75-2-83-7-6-4" d="M1580.01-1055.365c-9.774.212-14.157 11.217-6.918 19.763 1.05 1.247 1.158 1.962-.765.765-4.873-3.26-14.219-1.117-14.697 8.847-.592 12.277 16.562 15.815 19.783 2.76.17-1.377 1.29-1.346 1.02.61-.294 5.305-1.951 10.265-4.229 15.102h11.62c-2.277-4.837-3.934-9.797-4.228-15.103-.27-1.955.85-1.986 1.02-.609 3.22 13.055 20.374 9.517 19.783-2.76-.478-9.964-9.824-12.106-14.698-8.847-1.923 1.197-1.814.482-.764-.764 7.239-8.546 2.856-19.551-6.919-19.764h-.01z" style="display:inline;opacity:1"/><path id="path147-0-8-1-6-7-5-5-7-6-8-5" d="M1683.081-809.732c-9.774-.212-14.157-11.217-6.918-19.763 1.05-1.247 1.158-1.962-.765-.765-4.874 3.26-14.219 1.117-14.698-8.847-.59-12.277 16.563-15.814 19.784-2.76.17 1.378 1.29 1.346 1.02-.609-.294-5.306-1.951-10.266-4.229-15.102h11.62c-2.277 4.836-3.935 9.796-4.228 15.102-.27 1.955.85 1.987 1.02.61 3.22-13.055 20.374-9.518 19.783 2.76-.479 9.963-9.824 12.106-14.698 8.846-1.923-1.197-1.814-.482-.764.765 7.239 8.546 2.856 19.551-6.919 19.763h-.01z" style="display:inline;opacity:1"/><path id="path147-0-8-1-6-75-6-1-2-4-9-5" d="M1580.01-809.732c-9.774-.212-14.157-11.217-6.918-19.763 1.05-1.247 1.158-1.962-.765-.765-4.873 3.26-14.219 1.117-14.697-8.847-.592-12.277 16.562-15.814 19.783-2.76.17 1.378 1.29 1.346 1.02-.609-.294-5.306-1.951-10.266-4.229-15.102h11.62c-2.277 4.836-3.934 9.796-4.228 15.102-.27 1.955.85 1.987 1.02.61 3.22-13.055 20.374-9.518 19.783 2.76-.478 9.963-9.824 12.106-14.698 8.846-1.923-1.197-1.814-.482-.764.765 7.239 8.546 2.856 19.551-6.919 19.763h-.01z" style="display:inline;opacity:1"/><path id="path147-0-8-1-6-1-1-0-5-6-4-0" d="M1631.546-956.471c-9.775.212-14.158 11.217-6.919 19.763 1.05 1.246 1.159 1.962-.764.764-4.874-3.259-14.22-1.116-14.698 8.848-.591 12.277 16.563 15.814 19.784 2.76.17-1.378 1.29-1.347 1.02.608-.294 5.307-1.952 10.266-4.23 15.103h11.62c-2.277-4.837-3.934-9.796-4.228-15.103-.27-1.955.85-1.986 1.02-.609 3.22 13.055 20.375 9.518 19.783-2.76-.478-9.963-9.823-12.106-14.697-8.847-1.923 1.198-1.815.482-.765-.764 7.24-8.546 2.856-19.551-6.918-19.764h-.01z" style="display:inline;opacity:1"/><path id="path147-6-9-8-7-0-5-6-7-4-6" d="M1725.528-827.37c3.91-.088 5.663-4.673 2.767-8.234-.42-.52-.463-.817.306-.318 1.95 1.358 5.688.465 5.88-3.687.236-5.115-6.626-6.59-7.914-1.15-.068.574-.516.561-.408-.254.117-2.21.78-4.277 1.691-6.292h-4.648c.912 2.015 1.574 4.081 1.692 6.292.108.815-.34.828-.408.254-1.288-5.44-8.15-3.965-7.913 1.15.19 4.152 3.93 5.045 5.879 3.687.769-.5.726-.201.306.318-2.896 3.56-1.143 8.146 2.767 8.235z" style="display:inline;opacity:1"/><path id="path147-6-9-8-7-4-5-62-2-3-8" d="M1537.573-1038.556c-3.91.088-5.663 4.674-2.768 8.235.42.519.464.817-.305.318-1.95-1.358-5.688-.465-5.88 3.686-.236 5.116 6.626 6.59 7.914 1.15.068-.574.516-.56.408.254-.118 2.211-.78 4.278-1.692 6.293h4.648c-.91-2.015-1.574-4.082-1.691-6.293-.108-.815.34-.828.407-.254 1.289 5.44 8.15 3.966 7.914-1.15-.191-4.151-3.93-5.044-5.88-3.686-.768.499-.725.2-.305-.319 2.896-3.56 1.142-8.146-2.767-8.234z" style="display:inline;opacity:1"/><path id="path21-39-8-1" d="m1527.218-1050.197 3.22-.031c.614 1.985 1.974 4.003 3.82 4.563 5.214 1.25 8.569-1.723 9.673-5.15 1.34-4.156-.03-9.992-3.62-12.063-2.974-1.718-7.394-.27-9.424 3.405l-2.255-1.407 1.21-13.696h14.734v3.237h-11.939l-.19 5.706c2.57-1.84 6.52-1.82 9.09-.53 4.865 2.367 7.125 7.748 6.18 14.089-1.31 6.308-4.2 9.882-10.72 10.392-7.25.067-9.81-5.018-9.78-8.515zm0 0" style="opacity:1"/><path id="path21-3-4-1-8" d="m1735.88-815.728-3.22.031c-.615-1.985-1.974-4.003-3.82-4.563-5.214-1.25-8.57 1.723-9.674 5.15-1.34 4.156.03 9.992 3.62 12.063 2.975 1.718 7.394.27 9.424-3.405l2.255 1.407-1.21 13.696h-14.734v-3.238h11.94l.189-5.705c-2.57 1.84-6.52 1.82-9.089.53-4.865-2.367-7.125-7.748-6.18-14.089 1.31-6.308 4.2-9.882 10.719-10.392 7.25-.067 9.81 5.018 9.78 8.515zm0 0" style="opacity:1"/></g></g><g id="g862" transform="translate(-349.808 137.781)"><rect id="rect22845-2" width="1659.913" height="794.398" x="-356.473" y="-1029.682" rx="144.482" ry="124.682" style="opacity:1;vector-effect:none;fill:#006614;fill-opacity:1;stroke:none;stroke-width:1.74801;stroke-linecap:butt;stroke-linejoin:miter;stroke-miterlimit:4;stroke-dasharray:none;stroke-dashoffset:0;stroke-opacity:1"/><text xml:space="preserve" id="text5630-0" x="472.194" y="-935.813" style="font-style:normal;font-variant:normal;font-weight:400;font-stretch:normal;font-size:42.6667px;line-height:125%;font-family:Carlito;-inkscape-font-specification:&quot;Carlito, Normal&quot;;text-align:center;letter-spacing:0;word-spacing:0;writing-mode:lr-tb;text-anchor:middle;fill:#fff;fill-opacity:1;stroke:none;stroke-width:1.06667px;stroke-linecap:butt;stroke-linejoin:miter;stroke-opacity:1"><tspan id="tspan4923" x="472.194" y="-935.813" style="font-style:normal;font-variant:normal;font-weight:400;font-stretch:normal;font-size:48px;line-height:125%;font-family:Carlito;-inkscape-font-specification:&quot;Carlito, Normal&quot;;text-align:center;writing-mode:lr-tb;text-anchor:middle;fill:#fff;fill-opacity:1;stroke-width:1.06667px">Single Playing Card from:</tspan><tspan id="tspan5035" x="472.194" y="-875.813" style="font-style:normal;font-variant:normal;font-weight:400;font-stretch:normal;font-size:48px;line-height:125%;font-family:Carlito;-inkscape-font-specification:&quot;Carlito, Normal&quot;;text-align:center;writing-mode:lr-tb;text-anchor:middle;fill:#fff;fill-opacity:1;stroke-width:1.06667px">Standard Edition - Color Set - Bordered </tspan><tspan id="tspan4927" x="472.194" y="-762.48" style="font-style:normal;font-variant:normal;font-weight:400;font-stretch:normal;font-size:48px;line-height:125%;font-family:Carlito;-inkscape-font-specification:&quot;Carlito, Normal&quot;;text-align:center;writing-mode:lr-tb;text-anchor:middle;fill:#faa;fill-opacity:1;stroke-width:1.06667px">Copyright 2011, 2020 - Chris Aguilar - conjurenation@gmail.com</tspan><tspan id="tspan4931" x="472.194" y="-649.147" style="font-style:normal;font-variant:normal;font-weight:400;font-stretch:normal;font-size:48px;line-height:125%;font-family:Carlito;-inkscape-font-specification:&quot;Carlito, Normal&quot;;text-align:center;writing-mode:lr-tb;text-anchor:middle;fill:#fff;fill-opacity:1;stroke-width:1.06667px">https://totalnonsense.com/open-source-vector-playing-cards/</tspan><tspan id="tspan4919" x="472.194" y="-535.813" style="font-style:normal;font-variant:normal;font-weight:400;font-stretch:normal;font-size:48px;line-height:125%;font-family:Carlito;-inkscape-font-specification:&quot;Carlito, Normal&quot;;text-align:center;writing-mode:lr-tb;text-anchor:middle;fill:#faa;fill-opacity:1;stroke-width:1.06667px">Licensed under:</tspan><tspan id="tspan1594-5" x="472.194" y="-475.813" style="font-style:normal;font-variant:normal;font-weight:400;font-stretch:normal;font-size:48px;line-height:125%;font-family:Carlito;-inkscape-font-specification:&quot;Carlito, Normal&quot;;text-align:center;writing-mode:lr-tb;text-anchor:middle;fill:#faa;fill-opacity:1;stroke-width:1.06667px">LGPL 3.0</tspan><tspan id="tspan12253-3" x="472.194" y="-415.813" style="font-style:normal;font-variant:normal;font-weight:400;font-stretch:normal;font-size:48px;line-height:125%;font-family:Carlito;-inkscape-font-specification:&quot;Carlito, Normal&quot;;text-align:center;writing-mode:lr-tb;text-anchor:middle;fill:#faa;fill-opacity:1;stroke-width:1.06667px">https://www.gnu.org/licenses/lgpl-3.0.html</tspan><tspan id="tspan5033" x="472.194" y="-302.48" style="font-style:normal;font-variant:normal;font-weight:400;font-stretch:normal;font-size:48px;line-height:125%;font-family:Carlito;-inkscape-font-specification:&quot;Carlito, Normal&quot;;text-align:center;writing-mode:lr-tb;text-anchor:middle;fill:#fff;fill-opacity:1;stroke-width:1.06667px">Each Card Measures (63mm x 88mm)</tspan></text></g></svg>