<svg xmlns="http://www.w3.org/2000/svg" width="238.111" height="332.599"><g transform="matrix(1.07145 0 0 1.07009 -3610.796 1164.653)"><rect width="222.232" height="310.814" x="3370.009" y="-1088.37" rx="10.63" ry="10.63" style="display:inline;opacity:1;fill:#fff;fill-opacity:1;stroke:none;stroke-width:.996734;stroke-miterlimit:4;stroke-dasharray:none;stroke-opacity:1"/><path d="M3575.103-827.37c3.91-.088 5.663-4.673 2.768-8.234-.42-.52-.464-.817.306-.318 1.95 1.358 5.687.465 5.879-3.687.236-5.115-6.626-6.59-7.914-1.15-.068.574-.516.561-.408-.254.118-2.21.78-4.277 1.692-6.292h-4.648c.911 2.015 1.574 4.081 1.691 6.292.108.815-.34.828-.407.254-1.289-5.44-8.15-3.965-7.914 1.15.191 4.152 3.93 5.044 5.88 3.686.768-.498.725-.2.305.32-2.896 3.56-1.142 8.145 2.767 8.234zM3387.148-1038.556c-3.91.088-5.663 4.674-2.767 8.235.42.519.463.817-.306.318-1.95-1.358-5.688-.465-5.879 3.686-.236 5.116 6.625 6.59 7.913 1.15.068-.574.516-.56.408.254-.117 2.211-.78 4.278-1.691 6.293h4.648c-.911-2.015-1.574-4.082-1.692-6.293-.108-.815.34-.828.408-.254 1.288 5.44 8.15 3.966 7.913-1.15-.19-4.151-3.93-5.044-5.879-3.686-.769.499-.725.2-.306-.319 2.896-3.56 1.143-8.146-2.767-8.234z" style="display:inline;opacity:1"/><path d="M3379.912-1052.566h-2.745v-3.748h2.745s.021-2.02.1-5.581c.17-7.593.36-8.772 2.555-10.862 4.335-4.13 11.595-.765 11.51 5.446-.126 8.765-.036 17.121-.291 18.305-.455 2.085-.5 2.202-.315 2.584.38.764 3.66 1.096 3.66.882v3.691c-2.506.195-3.546-.04-5.55-1.473-1.251 1.208-5.06 2.422-8.09.994-2.304-1.086-4.05-3.89-3.579-10.239zm9.28 6.542c-1.36-1.969-3.65-4.655-5.805-5.61-.134 2.264.061 4.162.855 5.183 1.265 1.625 3.309 1.997 4.95.427zm1.129-21.65c-1.01-2.864-3.605-3.835-5.5-2.043-1.185 1.115-1.375 2.288-1.4 8.662-.015 3.932-.015 5.584-.015 5.584 3.69 1.199 7.14 5.506 7.11 5.45l.09-11.89a33.373 33.373 0 0 0-.284-5.763zM3582.337-813.359h2.745v3.748h-2.745s-.021 2.019-.1 5.581c-.17 7.593-.36 8.772-2.555 10.862-4.335 4.13-11.595.764-11.51-5.446.126-8.765.036-17.122.291-18.306.455-2.084.5-2.202.315-2.583-.38-.765-3.66-1.096-3.66-.882v-3.692c2.506-.194 3.546.041 5.55 1.474 1.251-1.209 5.06-2.423 8.09-.995 2.304 1.086 4.05 3.891 3.579 10.239zm-9.28-6.542c1.36 1.968 3.65 4.655 5.805 5.609.134-2.264-.061-4.162-.855-5.182-1.265-1.625-3.31-1.997-4.95-.427zm-1.129 21.65c1.01 2.863 3.604 3.835 5.5 2.042 1.185-1.114 1.375-2.288 1.4-8.661.015-3.932.015-5.585.015-5.585-3.69-1.198-7.14-5.505-7.11-5.45l-.09 11.89c-.072 1.93.024 3.862.284 5.764zm0 0" style="opacity:1"/><g style="display:inline"><path d="M376.567 1111.814c4.138-52.339 1.713-108.606 4.576-151.206-1.59-3.025 4.341-11.23 4.649-11.228-3.397-6.373-4.384-22.611.158-36.956 35.737-130.242 98.956-231.204 163.96-325.289 50.26 157.243-114.257 265.337-150.12 401.845-11.98 47.276-10.635 80.393-15.504 123.165zm-271.513-1.029L-85.863 808.536l42.414-20.063 196.115 321.792ZM362.512 557.67c1.62 8.634 8.344 13.336 15.582 9.474 7.09-3.781 7.906-4.033 3.446 2.711-9.848 14.891 9.599 29.625 22.327 16.897 4.523-4.524 5.354-11.96 1.334-15.785-4.54-4.32-5.512-6.543 1.218-3.215 16.922 7.07 26.559-17.413 10.18-25.865-4.22-2.179-12.513-.38-15.662 2.83-3.804 3.878-4.318 2.495-3.282-.534.613-1.792 1.066-4.707 2.521-8.171 1.141-2.718 1.98-6.43 1.98-6.43l-17.368-.01s1.36 3.994 2.743 7.358c1.302 3.166 1.782 5.529 2.417 6.845 2.289 4.745-.504 2.968-5.155-.574-6.576-5.007-14.905-3.715-19.706 2.722-1.785 3.794-3.29 7.748-2.575 11.747zm27.797-243.86 37.353-.693c10.305 39.652 22.355 78.288 39.804 113.778-33.474 54.197-43.023 115.642-5.475 178.445l-118.423-1.13c33.061-94.437 44.462-195.154 46.74-290.4zm37.403 147.883c5.062-4.425 5.794-12.544 1.287-18.014-5.667-6.878-4.346-7.211 3.307-2.675 11.042 6.545 21.83-7.226 15.408-19.58-4.08-7.847-17.532-9.723-22.759-2.846-4.357 5.734-3.82.446-.433-7.2 1.246-2.812 3.047-8.097 3.047-8.097l-18.1.17s2.28 5.149 3.488 8.454c3.206 8.767 3.309 11.532-1.718 5.862-10.943-9.406-23.97-2.824-24.24 10.504 0 10.248 9.213 16.93 17.399 12.23 4.974-2.855 7.199-3.527 1.559 3.094-3.911 6.327-2.624 14.46 2.402 18.326 6.895 4.274 14.33 4.12 19.353-.228zM177.16 494.219c1.465-1.054 1.995-.345 1.087 1.089-.773 1.222-2.74 2.95-4.428 4.785-8.55 9.3 2.245 21.36 15.88 19.665 9.28-1.154 14.881-15.669 8.097-21.5-2.2-1.507-3.937-1.808-5.596-3.854-.125-.812.26-1.355 1.077-1.026 1.203.518 3.648 2.54 4.89 2.892 8.585 2.435 15.126-1.052 17.38-7.108 1.461-7.014.213-14.58-5.488-18.592-5.299-3.643-13.207-2.704-17.878 3.358-4.781 6.203-5.365.243-1.415-8.347 1.48-3.22 2.523-7.813 2.523-7.813l-16.644.698s.845 3.59 2.263 7.722c3.592 9.437 6.21 12.161 1.543 7.253-20.19-12.195-27.12 4.006-27.526 10.475-.765 12.179 16.9 19.287 24.235 10.303zm83.402-182.884 30.019.438c-23.978 120.096-71.484 220.392-150.297 288.9l-146.862-2.087-70.218-50.27 27.726-35.19c186.236 21.286 266.668-70.272 309.632-201.791ZM122.334 588.824c8.83-3.778 12.598-13.688 6.859-20.43-5.188-6.097-5.704-7.988 2.317-3.195 10.733 6.413 21.315-6.032 16.155-18.382-3.212-7.687-13.574-10.168-21.11-5.053-6.627 4.832-6.477 2.641-2.957-5.063 1.743-3.813 3.119-9.939 3.119-9.939l-18.405.053s1.281 4.387 2.588 7.406c2.993 6.918 4.07 10.092 2.643 10.092-.689 0-2.94-2.125-4.257-3.362-3.627-3.407-13.635-4.155-17.393-.644-11.132 10.383-5.134 28.83 8.916 25.596 9.071-2.089 11.18-5.505 3.59 2.92-9.356 10.385 4.787 25.627 17.935 20.001zM6.302 583.881c7.65-3.502 10.292-12.248 6.095-17.96-4.225-5.751-6.303-9.45 1.268-4.227 10.08 5.212 19.015-1.463 19.015-12.995 0-12.077-13.499-17.861-23.555-10.7-1.7 1.21-3.785 2.293-4.156 2.293-1.218 0 1.068-6.508 3.54-10.757 1.074-1.845 2.97-5.604 2.97-5.604l-18.396-.909s.974 5.026 2.374 8.898c2.845 7.867 3.534 10.486-1.555 5.98-13.694-13.087-28.64 3.22-22.973 17.504 2.994 8.04 12.438 8.143 18.056 4.204 5.1-3.863 2.457 1.306-1.056 5.403-9.58 11.173 4.124 25.34 18.373 18.87zm843.727-292.385.72 22.272L610.74 509.291l-9.802-15.385zm-884.93 31.827c34.51-23.98 73.08-67.299 110.925-89.676C102.781 297.07 37.678 358.23-34.9 323.323Zm625.282-4.628C567.672 184.998 710.712 214.4 703.021 226.22Zm-768.89-90.186L59.035 39.217 69.55 55.47l-250.61 200.682Zm647.017-186.41c.641 2.013 7.677 9.74 7.682 10.435-2.017-1.54-14.032-8.449-20.011-1.93-2.089 2.388-4.774 8.123-4.559 14.097 2.354 10.717 14.481 14.624 23.206 7.401 2.512-2.08 4.677-4.611 5.173-3.706.43.787-.97 4.446-2.11 7.342-1.31 2.975-6.122 9.201-2.681 9.233l16.716.156s-.573-3.924-2.525-8.278c-3.647-8.138-3.442-12.534 1.003-6.65 8.656 11.456 25.784 2.175 24.157-11.462-1.175-9.846-11.066-15.58-18.44-10.975-.807.504-3.18 2.806-3.516 2.818-.896.03 1.597-3.693 3.255-6.787 5.51-10.28-2.436-19.942-14.768-19.05-3.983.289-8.368 2.748-8.395 3.103-4.67 3.682-5.503 10.121-4.187 14.253zm204.315-94.012C696.135-29.987 719.511-13.845 742.91.288L720.294 35.13c-150.476-15.622-260.68 42.712-308.185 203.653l-23.31-.763c10.463-100.61 43.75-194.842 144.615-291.326Zm-144.626 22.49c-.014 4.776 8.692 10.553 6.727 11.845-.902.468-6.073-4.135-8.47-4.416-17.37-2.042-21.276 24.959-4.076 28.185 3.383.635 10.405-1.393 12.5-3.076 2.785-2.235 4.718-4.077 5.283-3.865 1.052.395-1.408 5.192-3.339 8.742-1.794 3.299-4.323 10.185-4.323 10.185l19.77.31s-1.723-6.082-3.454-10.407c-2.213-5.528-2.655-9.023-1.13-8.636.656.166 1.38 1.894 2.752 3.099 8.483 7.448 21.084 4.446 24.514-7.002 3.225-10.763-9.576-22.024-18.643-16.082-3.168 2.075-3.155.49.035-4.21 2.914-4.294 2.284-10.853-.27-14.775-9.34-10.134-28.158-3.172-27.876 10.104zm141.61 33.605c-.446-2.413.158-1.72 2.661.945 7.836 8.34 21.503 7.213 25.1-3.687 3.59-10.877-6.867-23.485-16.15-19.299-4.83 2.178-4.904 1.387-2.118-2.156 7.186-9.134-.488-21.364-12.64-21.364-11.103 0-17.768 10.616-12.466 19.854 2.172 3.784 1.443 4.578-2.428 2.647-11.297-5.635-22.092 12.22-13.89 22.975 4.82 6.32 16.134 7.105 22.679.956 3.482-3.271 3.436-1.688.857 5.135-2.246 5.942-4.717 10.742-4.717 10.742l19.65.392s-5.137-10.033-6.537-17.14zM246.252 240.997c5.74-1.42-19.259-83.753-37.827-120.563 21.59-48.502 49.971-89.508 3.432-176.502l120.895 1.01c-36.515 97.716-50.215 296.182-50.222 296.128Zm11.663-94.92s-5.877-8.277-6.168-14.932c-.671-4.274.432-4.523 2.603-.149 10.637 12.022 25.34.693 25.524-9.847 1.344-9.63-9.845-18.022-17.143-13.289-5.115 3.317-6.484 2.335-1.886-3.896 6.475-8.776-.345-20.367-11.751-20.367-14.839 0-20.674 13.8-10.15 23.81 7.774 7.396.5 2.997-5.71.314-12.091-5.225-20.195 7.056-14.884 19.603 3.665 8.66 14.683 11.029 21.237 4.124 3.59-3.782 6.894-5.985 4.906-.229-1.059 4.66-6.597 14.505-6.597 14.505zM278.08 16.135S271.02 7.082 269.86.318c-.392-2.49 1.362-1.84 5.388 1.694 12.883 11.311 30.974-8.509 18.99-20.873-4.118-4.25-8.34-5.515-13.234-3.028-6.106 3.103-5.603 1.57-2.536-1.676 4.495-4.759 4.264-13.537-.471-17.852-13.094-11.931-34.216 5.395-22.066 18.128 5.289 5.542 2.76 4.802-3.088 1.214-11.065-6.788-23.597 11.331-15.35 22.144 9.823 8.493 17.3 4.451 24.216-.739 1.497-.77 2.79-1.112 2.79-.464 0 1.21-7.043 17.29-7.043 17.29zM119.536-35.16c-33.794-113.752 58.261-222.544 114.738-306.55 59.514-83.319 53.785-222.872 56.212-217.284l8.299 1.06s-7.34 81.69-4.116 118.672c3.42 32.523 2.567 34.534.206 37.728-.648 3.021.163 11.884-.53 14.917-16.99 70.217-80.342 239.44-174.809 351.457zm605.217-204.45L530.418-555.823l47.565-1.675c17.333 28.149 186.221 296.596 186.221 296.596z" style="fill:#c8102e;fill-opacity:1" transform="matrix(.1547 -.00173 .00172 .15532 3428.779 -975.374)"/><path d="M-105 1114.013c23.415-82.22-35.397-274.708-73.207-300.192 44.69-1.395 98.428-1.677 96.76-4.183 0 0 186.626 300.88 185.06 302.446-1.48 1.48-208.612 1.93-208.612 1.93zM670.098 654.69c-45.962-7.053-27.382-45.063 2.26-48.7-3.86.6 3.383-18.964 27.343-26.64 5.53-9.77 9.97-26.512 15.019-34.252-14.361 4.491-31.884 16.387-96.785 6.132 6.005-30.74 68.245-35.301 90.616-30.289 12.915 3.153 25.482 22.588 29.414 23.038 39.987-6.205 90.362 30.468 74.593 66.95-2.439 5.2-8.382-6.3-21.765-11.321-43.252-16.23-46.031-39.765-55.9-50.4-3.623-.722-23.25 37.068-23.25 37.068l5.71 25.879c10.426-.838 56.397 28.28-1.445 47.015-16.544 54.741-46.125 15.649-45.81-4.48zm111.815-244.015c-2.433-2.528 2.157-19.576 8.11-29.346 3.217-5.276 10.55-8.76 14.819-7.962 7.606 1.422 6.293 12.487-4.165 44.81-.474 4.676-10.783 5.052-18.764-7.502zM-132.29 173.337c-12.633-.184-.921-34.41 6.97-45.23 2.589-3.356 12.59 3.97 13.055 8.953.83 8.924-13.21 39.893-20.025 36.277zm-6.363-233.674c15.377 3.892 39.54 19.682 51.075 28.329C-73.237-21.056-77.42.089-65.872 2.098c7.858-3.777 22.575-38.315 22.575-38.315s3.795-17.786-6.336-23.39c-25.207-13.94-24.592-28.692-22.965-29.986 7.739-19.41 22.671-15.775 30.774-16.77.292-10.672.189-33.205 22.253-30.636 19.3 2.041 20.896 29.665 12.768 29.83-.15-.47 36.594-4.859 35.965 19.34-.34 13.121-22.29 29.665-28.998 23.492 0 0 3.34 26.198-29.637 34.796-7.766 7.732-14.408 40.912-14.375 37.96C-23.825-9.253 7.269-13.103 56.18-6.133 25.206 49.787-58.403 22.524-64.842 11.566c-42.074-13.206-81.487-30.231-73.812-71.903Zm362.92-130.811 133.51-.182c-.546 4.522 41.724 24.24 78.668 3.757 7.13-3.954 149.23-.123 149.23-.123 31.72 47.996 89.34 135.23 89.34 135.23L540.79-50.844C425.886 40.229 410.265 143.41 381.618 245.002l49.589 1.058C513.49 18.275 710.225 21.412 832.91 120.393L704.413 222.6c-98.093-50.863-141.991 95.339-112.066 96.042l258.765-206.758s4.198 17.16 3.752 17.732c-18.543 23.76-327.022 268.505-327.022 268.505l-13.257-14.976-17.586 14.542s6.834 12.83 12.93 19.26c-61.103 47.926-64.099 137.072-19.996 186.245l-21.9 1.515c-8.203 10.19-62.443-104.672.669-177.49-24.612-49.62-39.366-116.92-42.483-120.068.584 7.916-39.775 4.838-39.775 4.838-4.199 100.23-15.757 198.434-40.905 292.9l185.491 6.059-80.507 136.187s-88.603-3.203-126.756-6.298c-39.607-23.64-62.787-6.261-100.297 1.91-53.261.97-131.605-2.379-131.613-1.655-25.995-53.086-54.13-92.223-92.45-137.906-4.842-8.274 157.634-1.387 157.634-1.387s82.61-121.993 97.797-156.54c11.852-26.96 38.859-125.299 38.859-125.299 1.14 5.154-14.468-25.81-51.63-25.528C209.07 498.316-34.382 564.408-178.95 431.339l-1.096-23.766L144.67 150.131l14.115 16.686c-3.048-2.494-199.335 157.179-196.092 156.191 57.306 30.81 124.275 7.134 117.62-91.987 46.036-32.506 86.904-70.515 127.101-109.33.87-1.525 43.275 98.113 41.993 117.182 25.119-8.126 39.741 9.66 39.302 6.644-8.36-57.44 44.276-274.29 45.51-299.276-27.865-2.556-64.858-1.94-122.83-4.887 45.58 90.689 28.717 151.592-37.019 206.415l-13.43-17.263c5.496 3.14 95.948-73.39 25.103-190.022-3.305.24-37.985-3.562-37.985-3.562zm349.926-368.813s203.158-2.618 203.158 3.336c-7.698 109.045 16.626 208.864 76.983 301.605 0 0-89.923-4.19-88.293-3.042z" style="fill:#ffcd00;fill-opacity:1" transform="matrix(.1547 -.00173 .00172 .15532 3428.779 -975.374)"/><path d="M1674.584-277.729V2.973h174.152V-277.73Zm157.78 1.221c-.015-.015-2.248 29.708 13.198 49.174-9.435-1.435-14.836.015-20.33 3.912l.752.777c7.567-4.667 13.986-3.44 20.555-2.712v38.238c-.047 1.856-7.865 1.029-12.69-2.613-3.205-2.119-5.456-4.759-7.513-7.778-.443-.512-3.195-5.66-8.246-15.404-2.568-4.955-5.964-11.713-8.72-16.951-1.786-3.392-5.104-9.798-5.339-10.309-.488-1.065-4.101-8.143-5.508-10.719-3.715-6.802-9.713-18.671-11.853-22.925-.473-1.104-1.193-1.726.096-1.69.286.007.572-.04.736 0 .227.114.502-.215.502-.215zm-79.755.66 1.579.184c-.065 3.17-.545 5.533-.667 9.752-.19 4.52-.115 7.959.364 12.373.235 2.17.376 3.575.014 3.857-.173.142-.33.892-.172 1.168-.025.602-.104 1.805-.104 1.805-2.431 11.952-15.472 42.598-27.496 57.541-.203.075-.426.153-.67.23-1.301-5.822-.559-13.602.975-19.45 2.234-8.12 6.407-14.632 11.05-21.176 10.617-14.945 15.318-26.21 15.128-46.284zm-75.62.252h74.566c.417 10.275-.825 19.028-4.5 28.182-4.355 9.86-11.114 17.189-16.286 26.264-6.244 10.956-8.241 22.322-6.115 33.754-6.38 8.383-11.754 12.407-16.857 16.302 0 0-3.824-4.037-5.95-6.297 0 0 .897-.074 1.946-.117 4.847-.546 10.093-1.237 12.12-6.303.288-.563.166-.812-.177-.89-3.795.528-7.093-.006-9.246.146-5.263.374-7.486 2.203-7.486 2.203.803-1.725 1.623-3.644 2.154-5.21 2.393.025 3.57-.875 4.418-1.96 1.212-.033 2.14-.028 3.791-.076-.054-1.639.022-3.959.022-3.959 1.674-1.73 2.81-3.729.215-6.787 0 0-.105-1.424-.143-3.855-1.196-.192-3.877-.069-3.877-.069-2.167-3.062-6.011-2.29-7.177-.002 0 0-1.729.097-2.914.102-.024.648-.229 3.517-.229 3.517s-5.053 3.46.19 7.538l-.07 3.425c.98.08 1.685.014 2.964.26 0 0-2.005 4.676-3.324 6.895-.45.119-.343-.141-.888-1.692-.656-1.827-2.14-3.825-3.399-4.808-1.706-1.321-4.04-1.732-5.668-2.88-1.57-1.106-2.677-2.534-3.176-2.269-.162.556-.344 3.75.246 5.801.833 3.374 5.669 5.524 9.707 7.139.311.201.587.507.588.617.01.558-.532.386-1.857.254-2.002-.2-2.83.348-3.533 2.064-.21.424-.708 1.154-1.114 1.637-.404.483-.827.955-.886 1.16-.06.205-.474 1.247-.887 2.117-.254.536-.676 1.099-.707 1.89-.094 2.42-.13 5.668.232 7.716.267 1.504 2.16 2.368 2.811 2.49 1 .188 1.182 1.205 1.025 2.04-.77 4.11-3.128 6.627-3.882 5.276-.199-.355-.41-2.034-.465-2.013-.036.013-.395 1.428-.258 2.004.147.619.936 1.073 1.713.79 1.152-.419 2.06-1.565 2.775-4.173.293-1.067.569-1.661 1.067-1.738.91.063 2.332 1.945 2.332 1.945-4.73 3.956-13.809 11.14-13.809 11.14zm157.083 0h12.467v47.301c-9.174-12.947-13.919-27.819-12.467-47.3zm-58.732.031c.3.008.593.032.863.043 1.957 3.695 6.735 7.263 6.717 7.247 0 0 .12 1.606-.055 1.89-.1.496-7.587-5.717-8.42-9.137a5.12 5.12 0 0 1 .894-.043zm-19.975.002c.492.007 1.37-.01 1.612 0 .323.513-.963 3.784-1.758 4.311-.753.499-.808-.082-.264-2.973.086-.457.136-1.166.41-1.338zm3.48 0c.653.026.762-.01 1.413 0 .315.798-1.481 4.585-3.71 7.444-1.155 1.482-1.736 1.912-2.097 1.558-.304-.674-.297-1.46.768-2.693.877-1.016 2.37-3.392 2.986-4.723.165-.483.334-1.345.64-1.586zm3.061 0c.59.013.912-.011 1.262 0 .5 2.035-4.124 10.397-7.5 12.643-1.2.798-1.278.588-1.182-.752.064-.9.151-.827 1.383-2.008 1.758-1.685 3.678-4.286 4.734-6.591 1.086-2.369 1.107-3.121 1.303-3.291zm15.787 0c.726.003 1.187-.004 1.71 0 .922.942 2.43 2.29 2.757 3.364.201.659.346 1.416.205 1.771-.806.506-4.826-4.589-4.672-5.134zm6.494 0c.115.002.218.007.313 0 1.662 1.96 2.746 5.236 4.168 7.682.18.311 1.477 2.346.418 1.58-.435-.358-1.224-1.26-2.48-2.693-2.973-3.389-3.063-3.179-3.004-4.022.024-.886-.483-2.27.21-2.525.136-.022.261-.023.375-.022zm-19.726.041c.595-.02 1.14 0 1.732 0 .154.267-.052 1.18-.195 1.713-1.525 4.333-5.315 10.568-9.768 14.11-1.73 1.34-2.026 1.33-2.152-.053-.073-.804.296-1.04 1.11-1.605 3.777-2.63 7.17-7.192 8.607-11.852.28-.908.174-2.036.666-2.312zm4.02 0c.338-.012 1.008.02 1.326 0 1.758 3.243 5.385 10.871 13.91 13.844.613.134 1.266 1.885.797 2.367-4.675-1.36-13.154-6.267-16.033-16.21zm3.025 0h1.525c2.143 4.389 6.179 8.69 10.309 10.805.602.343.319 1.204.521 1.809-4.639-.692-10.727-7.797-12.355-12.613zm-3.988.682c-.277.048 4.044 12.737 16.322 16.461 1.063.335 1.689.796 1.62 1.428-.084.796-.06.896-1.243.3-3.355-1.759-8.137-2.582-12.131-.544-.623.318-1.256 1.184-.754 1.73.286.278.992.072 1.89-.28 4.65-1.816 11.765-.747 13.022 2.108.893 2.027 1.044 3.521.557 3.77-.372.19-1.004-.492-2.115-1.47-3.538-3.117-7.767-3.983-11.13-.99-.727.649-1.447.535-1.7.802-.247.258.045.842.251 1.41.217.594.227.756.012 1.258-.294.687-.305 1.566-.273 2.22.079 1.596 1.13 2.97 4.156 5.074 1.674 1.165 2.887 1.47 2.887 1.47s-.726-.565-1.557-1.241c-4.95-4.027-5.85-5.667-2.64-4.271 3.204 1.292 7.648-.004 10.795-2.415 1.07-.018 1.707-.205 2.271.207 2.347 5.532 4.265 12.892 7.385 20.028-3.725 4.226-16.697 14.576-25.945 14.207-7.986-.319-10.805-13.441-12.57-20.694-.595-3.068-1.274-6.192-1.192-10.527 0 0 .144-.117.35-.078 1.339.254 3.643.43 4.812.156 2.125-.498 2.551-.878 2.676-.564.146.37-.737 1.205-2.283 2.267-.673.463-2.668 1.635-2.668 1.635 1.917-.656 3.397-1.199 4.918-2.289 0 0-.698 3.152-.829 3.477-1.262 3.145-1.141 3.43 1.32 5.369.857.674 1.64 1.346 1.827 1.64.202.476.481.883.738 1.32 0 0-.12-.946-.32-2.1-.287-1.059-1.32-2.109-2.053-2.62-1.343-.938-1.134-1.86-.022-5.055 3.282-9.423 2.446-13.624-1.168-15.671-1.629-.924-6.19-.678-7.629.529-.708.594-.61-.573-.498-.65 8.666-5.98 10.7-11.905 12.91-17.407zm16.728 4.832c2.46 2.452 5.523 5.781 7.367 8.149 1.013 1.262 1.546 2.556 2.352 3.882.153.24.304.516.195.627-.04.048-.393-.157-.588-.304-1.803-1.365-9.246-9.875-9.246-9.875-.344-1.398-.583-1.875-.08-2.479zm.938 5.479c.155-.031.407.2.535.299 0 0 6.448 7.07 10.142 10.546.727 1.532 2.12 3.74 2.084 4.112-.015.164-.789-.436-.789-.436-4.083-3.776-7.854-8.02-11.773-12.043.037.022-.31-1.665-.315-2.345.022-.084.063-.123.116-.133zm1.275 5.306c.715.28 1.185 1.06 1.646 1.557 2.28 2.45 6.622 6.66 11.604 11.557.868 1.417 1.5 2.688 1.918 3.521.689 1.32.46 1.359-.149.871-4.614-3.792-8.479-8.41-12.826-12.64-.564-.584-1.691-1.88-1.691-1.88.04.048-1.416-3.048-.502-2.986zm-27.006 3.01c1.903-.057 3.777.436 4.723 1.608.86 1.066 1.21 2.754.732 3.244-.298.306-1.355-.557-1.355-.557-4.482-2.525-6.025-1.31-8.457-.568-.347.105-.716-.833-.272-1.762.893-1.544 3.154-1.92 4.63-1.965zm28.203 2.389c4.795 4.826 9.666 10.187 14.854 14.338.727.622 1.225 1.022 1.556 1.357.685 1.363 2.262 4.607 2.262 4.607-5.56-3.902-18.083-17.357-17.945-17.267.125.063-1.05-2.463-.727-3.035zm-9.383.8c.876-.007 1.835.267 2.592.569 2.416.962 3.936 1.986 1.434 1.644-3.482-.475-4.67-.5-5.946-.294-2.367.381-2.552.646-2.76.269-.543-.991 2.054-2.162 4.68-2.187zm-19.763.284a6.797 6.797 0 0 1 2.748.594c2.953 1.296 3.473 2.14.959 1.734-1.305-.21-3.698-.19-5.41.254-.543.14-1.143.459-1.284.504-.607.194-.775-.261-.515-1.026.449-1.32 1.836-2.05 3.502-2.06zm21.379 3.781.609.045c-.761 4.33-5.069 3.909-6.229.19l.61-.014c2.269 3.556 3.965 1.464 5.01-.221zm2.4.225c1.99-.023 1.86 1.179-.213 1.984-1.589.617-1.768.505-1.185-.69.559-1.148.503-1.284 1.398-1.294zm-21.086.156h.576c.194 3.901-5.22 4.616-5.552.361l.513-.023c1.775 3.345 3.823 1.324 4.463-.338zm2.62.38c.125.02.246.069.364.153.613.42.232.998-1.1 1.813-1.2.75-1.508-.157-.519-1.414.465-.39.878-.608 1.254-.551zm9.755.147c.237-.075.799.98.32 1.233-.284.15-.706-.281-.754-.6-.037-.252.122-.534.434-.633zm16.213.244c3.613 3.997 7.252 8.01 17.89 16.71 0 0 1.505 2.683 1.833 3.732-.259.32-.395.283-1.141-.088-6.938-5.378-13.389-11.919-18.441-17.998-.24-.859-.777-1.686-.141-2.356zm-34.398.383c.083.013.146.072.164.08.381.186.723.935.457 1.397-.264.208-.674-.116-.852-.37-.177-.25-.18-.717-.06-.915.103-.172.207-.205.29-.192zm-.903.653c1.61 13.307 3.951 33.056 15.293 33.835 3.72.256 8.025-2.301 8.727-1.878l23.562-.188c4.833 9.837 10.025 16.174 16.172 22.902 8.538 5.141 20.627 8.48 27.951 6.48-4.66 3.693-10.04 2.646-15.963 1.065-.33-.088-.679-.191-1.025-.314l-4.47 6.754c-9.955-2.369-41.914-.692-50.339 34.193 0 0 .867.444.664.203 6.692-30.279 34.954-36.314 48.428-33.299l-1.158 1.776c-22.357-2.746-40.56 11.294-44.895 31.203l.43.393c8.39-30.1 43.658-41.237 65.524-20.374l4.011-2.851-.13 3.86-53.758 45.22-2.149-2.232a24.497 24.497 0 0 0-2.617 2.314s2.16 2.526 2.227 2.69c-8.917 7.294-11.77 21.382-3.274 31.212.921 1.066.773 1.325.6.149-7.6-8.304-6.636-22.99 2.84-29.95l1.91 2.514c-4.095 9.197-6.246 23.541 4.572 24.783 3.93 10.575-.591 23.105-5.639 31.504-5.349 9.676-11.831 17.717-15.879 28.256-1.966 4.398-5.094 17.441-4.93 27.408l-1.179-.011.518-25.733s.69-1.023.72-1.129c-.716-1.334-.696-2.605-.215-3.98-2.36-8.295-2.552-23.203-10.17-30.05-3.735-3.221-8.697-3.352-15.122-.71-14.18.026-12.077.758-23.528.102-4.737-8.708-10.483-17.19-16.699-23.479-2.905-3.253-6.96-5.015-10.758-7.373 1.524-2.901 3.266-5.04 5.154-6.418.393-.56.66-1.167 1.166-1.642 38.612 3.724 46.986-33.818 45.223-32.864l-.342.297c-10.556 38.682-48.295 37.194-67.18 20.47-2.136 2.145-2.69-.246-2.77-2.257l54.105-44.277 2.447 2.45 2.371-2.19-1.94-3.49c14.18-14.74 7.784-21.323 3.233-31.423.127-.532-6.047-.326-6.047-.326 3.835-5.739 7.098-11.643 10.303-17.562 4.971-8.96 11.864-24.656 14.025-36.033zm36.813 4.898c-.028-.14 16.804 16.99 18.963 16.662 1.005.594 3.507 5.463 3.507 5.463.072.154.06.44-.345.238-2.846-1.413-14.743-11.325-20.825-18.703-.444-1.074-.984-2.44-1.3-3.66zm-19.612 1.572c-1.231.111-.922.705-.396.944 2.935 1.423 1.672 4.343-1.426 2.486-2.441-1.49-4.376-1.624-4.361-.336.01.545.67 1.243 1.314 1.236 1.207.078 2.3.521 3.487.782 1.85.398 3.234-.094 3.697-1.221.786-1.913-1.083-4.002-2.315-3.89zm22.477 5.506c.124 0 .253.066.37.12-.207-.181 8.368 9.252 20.06 17.044.453.526 1.583 3.247 1.763 3.613-.047.257-.304.006-.304.006-5.905-3.427-13.699-10.222-21.082-17.935 0 0-.71-1.71-.928-2.822a.285.285 0 0 1 .121-.026zm-19.11 3.516c-.266.037-.622.44-1.062.683-.9.497-1.185.629-3.394-.037-1.2-.36-1.394-.335-2.11.197-.626.465-.972.543-1.67.229-1.256-.565-1.839-.154-3.002.254-1.108.402-1.487-.089-2.484-.317-.132.001-.188 4.04-.057 4.168.046.045 1.036-.609 1.598-.896.966-.494.827-.416 2.238-.357 2.082.36 4.144.239 5.539-.311 1.736-.493 3.092-.4 4.29.586.729.599 1.694.5 1.13-.602-.195-.38-.635-1.78-.582-2.302.079-.78-.094-1.28-.383-1.295-.017-.001-.033-.002-.051 0zm21.651 2.888c.18-.049.464.187.586.26 3.947 3.8 8.815 9.6 20.264 16.32.596 1.05 1.401 2.444 1.912 3.532.047.301-.026.569-.319.465-7.074-4.503-11.008-6.69-20.814-16.393-.61-.984-1.259-2.659-1.764-4.023.027-.097.075-.144.135-.16zm-1.08 1.71 4.379 8.253-14.744-.03c3.747-2.243 7.322-5.232 10.365-8.224zm-24.127.095c-.083.012-.187.04-.313.09-2.42.966-2.786 1.167-5.187.58-1.399-.342-1.015.474-.299.81 1.812.852 4.435.25 5.408-.423.562-.364.97-1.137.391-1.057zm-2.797 2.639c-2.535.035-4.927.923-5.105 1.957-.034.2.172.424.566.185 1.718-1.038 5.984-1.377 9.211-.207.523.19.614-.135.072-.584-1.207-1-3.01-1.376-4.744-1.351zm31.826 3.295c.12.032.278.17.354.23 4.772 4.422 9.378 8.49 19.65 14.41.74 1.62 1.81 3.558 1.998 3.727-9.626-4.691-20.119-13.95-20.119-13.95s-1.65-2.953-2.03-4.218c-.01-.107.01-.164.046-.19.026-.019.062-.02.101-.01zm3.64 7.119s8.789 7.462 18.807 12.527c.406.391 1.414 2.793 1.743 3.05.332.26-.398.259-1.12-.114-5.242-2.425-16.486-10.184-16.486-10.184-1.079-1.774-2.623-3.622-2.943-5.28zm4.475 7.707c1.539 1.189 14.582 9.38 16.989 9.564 0 0 1.152 1.3 2.103 2.48.887 1.102 1.212 1.274 1.315 1.497.101.22-.334.21-.407.201-5.867-2.56-11.836-5.255-16.91-9.512-.685-.583-.838-.85-1.176-1.295-.447-.594-1.774-2.714-1.914-2.935zm-106.6.23c1.82.182 3.674 2.057 3.665 4.836 8.174.691 4.31 8.28-.438 7.12 1.884 4.312-3.773 5.93-4.568 5.197-.32 1.393-2.473 5.88-2.932 7.214 6.057-4.31 15.802-2.397 17.213-2.673-3.519 7.388-15.022 5.59-15.404 5.28 0 0-6.091-2.905-6.543-2.987-7.882-2.533-10.212-4.018-10.746-11.412.039-.271.146-.261.412-.067.684.473 3.337 2.21 4.316 2.688 4.488 2.121 5.777 4.418 7.131 8.025.324.351.587.32.992.01 1.734-2.252 2.544-4.128 3.346-6.545.104-.27.33-.546.197-.935-.316-1.068-1.093-2.448-.298-3.493-2.535.117-4.96-1.742-4.65-3.605.674-3.451 2.132-2.83 4.864-3.332-.157-3.99 1.625-5.502 3.444-5.32zm110.923 6.377c5.965 3.366 11.035 6.628 16.47 8.383.776.292 1.173.312 1.559.586.386.274 2.042 1.3 2.434 1.531 2.48 1.46 2.734 1.392 2.119 1.637-.681.271-5.036-1.006-8.715-2.371-6.527-2.423-8.837-3.797-11.197-5.934-.532-.552-3.012-3.53-2.67-3.832zm-81.576 6.926 4.08.068c6.364 7.775 8.1 21.51-3.014 30.227-1.515-1.761-2.903-3.613-4.262-5.494 8.98-7.509 6.253-15.017-.226-22.526zm-37.348 11.844c.503-.012 1.308.302 2.146.947.897.69 3.097 2.136 4.006 2.527.465.2.612.252.612.252l5.865 6.686-15.104 12.326s-1.225-1.259-1.615-1.68c-.369-.397-.263-.73.197-1.181.37-.362.396-1.148.334-1.533-.092-.572-.077-1.217.645-1.75.582-.43.672-1.184.644-1.393-.022-.167.316-.716.82-1.086 1.06-.776 1.38-1.722 1.022-2.834-.15-.466-.23-.587.377-.994 1.379-.873 1.52-1.678 1.371-2.936-.212-1.121.774-.837 1.584.57.442.768.568 2.027.79 3.46.26 1.689.439 2.148.53 1.91.524-1.363-.095-6.481-1.646-7.176-2.267-1.015-4.162-3.086-3.594-3.898.197-.282.23-.186 1.614.455.809.375 1.56.68 1.672.683 1.6.051.628-.636.107-.709-.626-.087-2.497-1.232-2.717-1.633-.365-.666-.164-1.002.34-1.013zm-3.863.88c1.475-.016 1.76.38 1.775 1.657.01.753.29 1.332 1.465 2.832.48.611.799 1.08.767 1.32-.052.396-.194-.014-1.82-.207-.577-.068-.87-.078-1.072.223-.56.834-1.747-.035-2.477-1.264-1.74-2.929-1.126-4.533 1.362-4.56zm28.12 1.766 16.057 19.729-1.812 1.412-16.117-19.461zm-2.685 1.211 1.72 2.916s-4.976 4.268-6.284 5.473c-10.57 8.594-34.432 28.103-34.432 28.103l-.322-3.923zm-28.982.528c.313.008.67.406 1.18 1.185.44.676 1.386 2.031 2.394 2.963 1.957 1.81 2.145 1.644.557 1.816-.632.069-.838-.006-1.223.96-1.166 1.459-4.607-3.77-3.8-5.77.314-.781.578-1.162.892-1.154zm5.726 2.835c.364.033.702.233.992.354.853.35.91.556.77 1.373-.134.782-.727.984-1.893-.047-.778-.736-.757-1.46-.24-1.648.126-.036.25-.042.371-.032zm25.502.47 1.887 2.445-42.762 34.767v-4c1.044.135 28.453-23.823 40.875-33.213zm-33.209.398c.115-.024.293.368.768 1.086.967 1.46 1.855 2.423 2.867 3.189.957.724 1.065 1.13.408 1.135-.28.002-.665.298-.867.646-.405.7-.44.535-1.066.166-.896-.526-1.845-1.303-2.15-2.361-.388-1.343-.441-2.84.04-3.861zm6.762 2.775c1.091-.038 1.876 1.236 1.154 2.268-.4.392-.763.58-1.562.107-1.055-.624-1.245-1.583-.381-2.121a1.59 1.59 0 0 1 .789-.254zm-7.025 2.76c.23-.01.643.321 1.336 1.035.531.548 1.456 1.015 1.826 1.223.83.464.869.625.418.998-.192.159-.825.17-.996.673-.491 1.442-2.572-.234-2.77-2.294-.1-1.046-.11-1.622.186-1.635zm5.23.17c1.366.057 2.01 1.656.922 2.443-.593.429-2.088-.328-2.238-1.113-.097-.506.797-1.352 1.316-1.33zm31.932 1.19c.792 0 1.433.643 1.433 1.439 0 .795-.641 1.44-1.433 1.44a1.436 1.436 0 0 1-1.434-1.44c0-.796.642-1.44 1.434-1.44zm-4.285.595c.792 0 1.433.644 1.433 1.44 0 .795-.641 1.439-1.433 1.439a1.438 1.438 0 0 1-1.436-1.44c0-.795.643-1.44 1.436-1.44zm-28.448 1.922c1.317.01 1.386 1.323.604 2-.468.404-.89.53-1.494.045-.827-.664-.788-1.467-.143-1.84.366-.242.666-.208 1.033-.205zm28.957 2.02-2.302 5.827-6.21.842 2.303-5.828zm2.682.085c.792 0 1.433.644 1.434 1.44a1.436 1.436 0 1 1-2.874 0c0-.796.648-1.44 1.44-1.44zm125.904.086v3.639l-50.6 42.287-1.712-2.246zm-118.635.102 1.616 2.086-52.356 42.853v-3.006zm89.002 3.466c-12.716-.105-26.106 9.811-19.502 31.844l6.663-5.363c-2.869-14.53 8.58-20.31 19.453-16.09l6.765-5.789c-3.53-2.985-8.403-4.56-13.379-4.602zm-109.638 3.446c.792 0 1.433.644 1.433 1.44 0 .795-.641 1.439-1.433 1.439a1.436 1.436 0 0 1-1.434-1.44c0-.795.642-1.44 1.434-1.44zm-4.354.353c.792 0 1.389.598 1.389 1.393s-.597 1.49-1.389 1.49a1.44 1.44 0 0 1-1.433-1.443c0-.796.641-1.44 1.433-1.44zm23.166 2.922-6.605 5.309c1.707 13.911-5.033 20.995-19.524 16.226l-7.007 5.582c18.934 13.076 43.71-3.778 33.136-27.117zm-20.328 1.256c.792 0 1.434.644 1.434 1.44 0 .795-.642 1.439-1.434 1.439a1.436 1.436 0 0 1-1.433-1.44c0-.795.641-1.439 1.433-1.439zm-2.46.344-2.302 5.828-6.209.844 2.301-5.828zm141.413.021c.792 0 1.44.644 1.44 1.44a1.436 1.436 0 1 1-2.873 0c0-.796.641-1.44 1.433-1.44zm-1.11 3.147-2.3 5.828-6.209.844 2.3-5.828zm-150.886 4.172a1.44 1.44 0 0 1 0 2.879 1.436 1.436 0 0 1-1.433-1.44c0-.795.641-1.44 1.433-1.44zm-4.127.16a1.44 1.44 0 0 1 0 2.879 1.436 1.436 0 0 1-1.433-1.44c0-.795.641-1.44 1.433-1.44zm143.467.855c.792 0 1.434.644 1.434 1.44 0 .795-.642 1.44-1.434 1.44a1.436 1.436 0 0 1-1.434-1.44c0-.796.642-1.44 1.434-1.44zm14.666.223v3.197l-41.092 34.301-1.728-2.229zm-155.26 3.117c.793 0 1.434.644 1.434 1.44 0 .795-.641 1.445-1.434 1.445-.792 0-1.433-.65-1.433-1.445 0-.796.641-1.44 1.433-1.44zm143.528.346c.792 0 1.433.644 1.433 1.44 0 .795-.641 1.445-1.433 1.445-.793 0-1.434-.65-1.434-1.446 0-.795.641-1.44 1.434-1.44zm-146.045.154-2.301 5.828-6.209.842 2.3-5.828zm141.986.106c.792 0 1.434.644 1.434 1.439s-.642 1.445-1.434 1.445c-.792 0-1.437-.65-1.438-1.445 0-.795.646-1.44 1.438-1.44zm16.027.51-.12 4.068c-12.802 10.957-38.986 32.723-38.895 32.736l-1.979-2.742s28.704-24.824 40.994-34.063zm-17.58 2.626-2.302 5.828-6.21.844 2.303-5.828zm17.344 2.569V.832l-74.223.033c-.93-8.157 1.513-18.95 5.559-29.76 2.5-6.68 6.092-11.638 10.143-17.619 7.764-11.404 13.637-22.98 11.373-37.66-.296-2.178-.595-3.222-.493-3.808.944-1.778 4.688-7.168 7.424-9.413 4.016-3.293 9.605-8.213 10.053-7.921 1.333 2.582 2.912 4.673 5.002 6.25.368.4.378.752-.47.931-5.544-.05-11.251 1.172-13.102 6.096-.247.932-.253.922.867.809.566-.058 2.844-.054 4.433.01 2.923.228 7.524.25 9.832-1.516.447-.428.692-.4.776-.166.197 1.14-2.043 4.892-2.043 4.892l-3.7 2.053s-1.514.07-3.39.025l-.033 3.342c-1.47.873-3.993 4.612.061 7.479l-.133 3.638 3.574.067c2.372 2.279 4.302 2.267 6.479.12l4.121.005-.016-3.93c2.031-1.639 2.319-4.422.242-6.644l-.05-3.989-3.17.022s-.656-.511-.674-.916c0-.262 2.314-4.745 2.757-5.385.577-.832.42-.356 1.342 1.564 1.32 2.75 2.625 3.872 5.969 5.495 2.983 1.448 4.049 2.123 4.914 2.953.689.66 1.095.452 1.361-.534.576-2.191.4-4.386-.802-6.392-2.538-4.235-6.96-4.43-7.663-5.41-.092-.234.808-.504 1.776-.938 1.674-1.02 4.123-4.108 4.437-5.347-.057-.598.336-2.478.625-2.895.334-.74.37-1.085.356-3.07-.3-1.133-.027-2.609.113-3.117.152-1.03-.393-2.245-1.168-3.735-.29-1.384-.222-1.024.67-4.142.145-.504 1.148-4.847-.135-5.145.727 3.384-.206 6.159-1.486 8.074-.865-.264-1.598-.946-2.336-1.51 0 0-.019-1.633.324-3.255-.202.55-.337 1.97-.974 2.302-.342.08-.813-.225-1.702-.994-.339-.293-1.066-.804-1.066-.804s10.335-8.892 14.246-11.84zm-167.889 1.41c.792 0 1.434.644 1.434 1.44 0 .795-.642 1.439-1.434 1.439a1.436 1.436 0 0 1-1.433-1.44c0-.795.641-1.44 1.433-1.44zm139.043.326c.793 0 1.436.644 1.436 1.44 0 .795-.643 1.439-1.436 1.439a1.436 1.436 0 0 1-1.433-1.44c0-.795.641-1.439 1.433-1.439zm3.125 3.947c.793 0 1.434.644 1.434 1.44 0 .795-.641 1.44-1.434 1.44a1.436 1.436 0 0 1-1.433-1.44c0-.796.641-1.44 1.433-1.44zm-4.64.614c.792 0 1.433.644 1.433 1.439 0 .796-.641 1.44-1.433 1.44a1.436 1.436 0 0 1-1.434-1.44c0-.795.642-1.44 1.434-1.44zm-1.772 3.222-2.303 5.828-6.209.844 2.303-5.828zm-23.111 2.31 15.508 19.725-1.98 1.725-15.384-19.943zm39.994 1.026s2.232 1.155 2.654 1.68c.15.577-.252.755-.845 1.293-.273.35-.444.687-.46 1.445-.016.817.253 1.183-.075 1.543-.55-.029-.989.691-.965 1.273.018.445-.561.939-.9 1.274-.603.594-.78.718-1.167 2.732-.039.202-.025.725-.308.996-.842.076-1.452 2.146-1.836 2.278-.615-.04-1.59-.794-1.828-1.908-.155-.724-.113-2.13.059-3.036.203-1.078.294-2.055.226-2.314-.157-.6-.552-.231-.547.611 0 .343-.127 1.368-.343 2.334-.217.97-.806 2.258-.541 3.022.395 1.14 1.848 1.621 2.504 2.224 1.723 1.587 2.098 2.361 2.294 2.713 1.38 2.53 1.383 2.96 1.038 4.864-.2 1.095-1.263.91-1.903.464 0 0-4.095-2.99-5.877-4.476-2.7-2.25-4.593-4.551-5.738-7.11zm-28.346 1.049c.793 0 1.434.642 1.434 1.437 0 .796-.641 1.44-1.434 1.44a1.436 1.436 0 0 1-1.433-1.44c0-.795.641-1.437 1.433-1.437zm31.701 1.973c.218.03.415.13.612.26 1.318.874 0 2.339-1.194 1.8-1.033-.438-.955-1.492-.14-1.914.268-.14.505-.177.722-.146zm2.27 1.189c1.28.02 2.693 3.065 2.434 3.959-.381 1.041-.73 1.078-2.536-.455-1.783-1.515-1.808-1.577-1.087-2.397.4-.465.59-1.078 1.19-1.107zm-30.428.555c.793 0 1.434.644 1.434 1.44 0 .795-.641 1.444-1.434 1.445-.792 0-1.433-.65-1.433-1.446 0-.795.641-1.44 1.433-1.44zm-4.445.554c.792 0 1.434.644 1.434 1.44 0 .795-.642 1.44-1.434 1.44a1.436 1.436 0 0 1-1.434-1.44c0-.796.641-1.44 1.434-1.44zm31.492 1.026c1.415.21 1.786 1.284 1.135 2.082-.885 1.08-2.869.099-2.399-1.186.214-.583.731-.885 1.264-.896zm2.537 1.62c.554-.047 1.39.722 2.303 1.997 1.026 1.433 1.11 1.897.818 2.771-.424 1.275-.688 1.508-1.609.266-.348-.468-1.155-1.567-1.73-2.172-1.229-1.292-1.42-.964-.688-1.95.34-.458.574-.883.906-.911zm-4.53 1.175c.1-.01.204-.01.312.002.287.029.595.134.892.33 1.271.659 1.394 1.516.643 2.123-.884.485-2.444-.09-2.746-.969-.291-.843.194-1.415.898-1.486zm3.358 2.23c.719-.045 1.312.7 2.192 2.125 1.497 2.427 1.58 3.244.303 4.844-.919 1.151-1.012 1.214-1.91-.621-.735-1.5-2.133-3.256-3.426-4.309-.54-.44-.73-1.056-.34-1.097a29.54 29.54 0 0 1 1.062-.051c.691-.025.942-.12 1.32-.492.25-.247.518-.381.8-.399zm-5.16 1.895c.67-.033 1.533.331 2.176 1.082.73.77.643 1.474-.789 1.615-.645.254-2.4-.902-2.408-1.678-.01-.65.431-.99 1.021-1.02zm3.477 2.814c.6-.03.912.612 1.588 1.973 1.037 2.09.738 3.227-1.055 4.152-1.216.628-2.144.815-2.3.098-.087-1.454-.493-3.015-1.147-4.026-1.096-1.657-1.29-2.246-.088-1.757.636.258 1.33.229 2.058-.155.293-.2.638-.27.944-.285zm-6.184 3.362c-.417-.01-.685.247-.572.931.378.187.976.013 1.428.176.608.22.985 1.213 1.634 1.05.068-.837-1.571-2.138-2.49-2.157zm-4.777.64c1.562.635 5.627 3.596 5.627 3.596l-3.703 7.734c.674 1.212.945 4.22.945 4.22 4.684-.36 7.22 7.567-.074 6.835.832 4.9-7.027 8.74-6.813-.041-8.187.638-5.44-8.675-.394-6.928-.151-3.946 2.47-4.456 4.318-5.426 1.516-1.72 2.446-5.617 2.446-5.617l-.37-1.19c-1.553 2.724-8.164 3.506-15.43 2.061 1.968-4.679 7.935-4.546 13.448-5.244zm8.476 4.03c.178-.01.368-.005.569.013 2.675.243 7.193 2.872 8.174 4.342 1.883 2.828 1.765 5.917.976 6.39-.83-.469-1.552-1.285-2.412-1.658-4.328-1.874-7.784-3.411-8.402-6.168-.774-2.046-.148-2.849 1.095-2.92zm-146.882 1.656c7.043-.068 14.372 2.776 19.601 7.722 1.575 1.577.718 1.124-.54.522-3.352-1.603-11.655-5.313-15.655-5.367-7.417-2.09-7.665-1.14-10.266-1.809 2.196-.7 4.512-1.046 6.86-1.068zm-5.467 2.234c6.906-.14 12.968 3.422 15.822 7.594 6.817 9.023 11.44 20.496 17.47 30.998 7.877 13.719 15.22 29.193 27.538 52.107l-1.184.371-46.972.086c2.244-24.42-10.352-47.722-12.073-48.488 10.533.147 17.53-1.624 20.69-4.674l-1.016-1.562c-6.192 5.365-15.479 5.611-21.668 3.953.14-13.19-.409-27.12 0-40.307.467-.043.932-.069 1.393-.078zm11.75 2.047c1.884-.145 12.166 4.101 16.765 7.273 1.278 1.327 3.144 3.632 3.147 3.858.01.613-.9-.142-5.342-2.686-3.362-1.899-6.852-3.413-10.248-4.869l-.465-.201s-.252-.29-.683-.625c-1.21-.94-3.56-2.606-3.174-2.75zm4.998 4.809c-.102-.02 10.197 3.727 18.392 10.279 1.09.871 2.428 4.12 2.428 4.12-.731-1.38-13.674-9.156-18.219-10.937-.01-.006-2.601-3.462-2.601-3.462zm3.633 4.972c.561-.338 15.622 8.588 17.83 10.893 1 .768 3.345 4.499 3.353 5.25.01.668-.725.093-2.074-1.158-6.936-6.504-16.958-11.406-17.039-11.297zm2.795 5.188c7.072 3.004 15.957 10.23 20.441 14.529 1.122 1.114 1.92 2.727 2.072 3.478.094.466-.14.435-.232.684-5.811-6.696-18.582-14.34-20.276-14.937.013.423-1.404-2.597-2.005-3.754zm2.722 5.257c4.166 1.365 16.081 10.916 20.76 15.608.814.833 2.105 3.755 1.816 4.111-.141.176-.127.084-.468-.154-1.86-1.857-11.412-10.366-19.381-15.139-.749-.376-3.259-4.35-2.727-4.426zm3.526 6.112c.137.01.386.189.814.426 7.329 4.058 17.953 14.279 19.967 16.736.458.757 1.18 2.145 1.127 2.996-.091.67-.36.1-3.322-2.828-4.762-4.681-10.239-9.21-16.043-13.016-1.116-.77-.904-.868-1.713-2.283-.813-1.42-1.134-2.054-.83-2.031zm45.379.096c.541-.019 1.045 0 1.494.06 5.233.15 7.279 4.128 10.502 11.46 2.638 7.223 3.73 13.842 3.851 19.11.01.354-.63.052-.922-.027-1.4-.377-3.146-.73-5.168-.217-.942.24-2.345.276-2.345.276 1.049-1.488 2.25-2.007 3.506-2.948.485-.303 1-.683 1-.683-1.677.193-2.896 1.047-4.42 2.021 0 0 .21-1.045.474-1.695 1.522-3.758 1.983-5.983-.283-6.68-1.452-.41-2.059-1.252-2.506-2.707-.68 1.483.374 2.975 1.531 3.78 1.577 1.134 1.888 1.448 1.032 4.136-1.2 3.766-1.456 4.687-1.676 5.56-.127.503-.37 1.36-.494 1.913-.476 2.134-.418 4-.33 5.773.518 3.964 4.772 5.918 10.484 3.717.54-.211.766-.021.766-.021-4.55 4.646-9.657 7.615-12.633 17.002-3.828-7.744-9.248-13.813-18.26-16.245l-.133-1.617c3.143 1.513 9.237 3.572 13.106 1.258 2.071-1.42 1.441-2.335-1.073-1.355-2.993 1.166-8.398 1.029-11.097-.498-.55-.311-1.11-.041-1.268.011-.14-.91-1.44-4.34-1.25-5.63-.111-.181.823-.19 1.002.05.747 1 4.539 3.98 8.479 3.748 1.958-.115 3.567-.71 5.27-2.513.141-.127.835-.218.929-.325.152-.17.041-.428.035-.52-.042-.136-.296-.51-.463-.935a1.683 1.683 0 0 1-.228-1.054c0-.248.168-.378.296-.551.147-.332.109-.754.025-.979-.349-.237-.303-.678-.119-.886.44-.5-2.981-3.791-4.748-4.913-.37-.235-1.4-.402-1.4-.402s.408.703 1.144 1.194c2.603 1.735 4.501 4.002 4.07 4.298-.33.228-1.496-.271-2.683-.552-2.382-.561-5.242-.92-8.344 1.328-1.16.956-4.226 1.101-4.226 1.101-.038-1.625-6.666-19.255-7.092-19.615 2.586-3.017 10.635-10.11 18.705-13.172 1.866-.614 3.835-1.002 5.46-1.056zm-29.166 4.251 14.68.229c-3.692 1.865-10.397 8.555-10.397 8.555-1.919-3.876-2.505-5.81-4.283-8.784zm-12.69 1.944c1.094.006 12.745 9.54 14.402 11.79.2.272 1.38 1.523 2.625 2.776 3.014 3.033 4.258 4.786 4.272 6.037.01.591-.532.207-1.336-.683-6.035-6.733-9.963-10.387-17.422-15.55-.847-.454-3.476-3.967-2.584-4.358.012-.005.026-.012.043-.012zm39.856 1.756c-.328-.012-.274.304-.096.595 1.849 1.641 6.73 1.569 8.414.243 1.527-1.203-.475-.568-1.098-.3-1.459.629-3.024.558-5.055.016-1.184-.315-1.838-.543-2.166-.554zm4.501 2.672c-1.707.015-3.49.53-3.093 1.16.145.23.612.659 1.728.05 1.611-.8 4.92.25 5.018.276.338.09-1.1-.952-1.584-1.166-.532-.235-1.293-.328-2.069-.32zm-41.134 1.78c6.261 3.847 13.888 11.543 18.467 17.04.762.946 1.312 2.112 1.32 2.797.01.987-.2.439-4.358-3.791-3.26-3.35-8.183-7.91-11.443-10.365-1.958-1.433-2.307-1.619-3.228-3.319-.865-1.595-1.177-2.386-.758-2.361zm47.763.147a.16.16 0 0 0-.094.02c-.987.498-1.789 1.027-2.73 1.01-1.727-.032-3.242-1.073-5.93.107-1.177.562-2.739.443-4.26-.082-1.377-.475-1.052-.069-.529 1.44.238.685.385 1.659.387 1.802 0 .335 0 .358.975-.187.846-.476 1.024-.639 2.83-.217 1.835.429 1.866.27 2.728-.182.752-.393.908-.63 1.422-.422 1.007.407 2.146.582 3.436-.1.989-.522 1.311-.17 1.77.061.62.314.862.114.618-.508-.097-.247-.278-1.31-.283-1.646-.01-.558-.13-1.067-.34-1.096zm-85.326 2.45c15.607 19.52 13.115 47.661 12.596 47.433l-12.596.055zm40.875 3.945c6.234 4.388 13.652 12.038 17.764 17.328.7.914.131 1.203.48 2.305.129.409-.562-.195-2.543-2.33-2.467-2.661-6.524-6.663-9.195-8.985-2.926-2.544-3.771-3.183-4.394-4.043-.492-.719-2.495-4.174-2.112-4.275zm35.084 1.795c-.066-.002-.13.003-.195.006-2.219.104-3.347 2.601-1.445 4.365.715.663 2.117.744 2.117.744l-.88-.684c-1.583-1.222-1.422-3.126.382-3.146.625-.007.664.216 2.11 1.258 1.699 1.225 3.706 1.225 3.683-.006-.018-.905-.355-1.831-1.873-1.682-.4.04-.932.081-1.399-.037-.447-.113-.827-.388-1.004-.467a3.827 3.827 0 0 0-1.496-.351zm-31.033 5.748c4.77 3.214 11.324 10.484 14.674 14.771.768 1.005.82 2.115.51 2.713-.074.118-.66-.248-.66-.248-3.874-4.58-8.267-8.743-12.579-12.97 0 0-2.562-4.136-1.945-4.266zm43.035 4.62c.912.035 2 .65 3.2 2.333l-1.03.514c-1.561-2.35-2.99-2.382-4.185.363l-.768-.193c-.38-.357.776-3.091 2.783-3.016zm2.969.329c.43.015 1.18.25 1.355.69.196.405-.024.864-.613.843-.09-.003-.66-.706-.943-1.136-.21-.263-.12-.405.201-.397zm-20.97.182c1.417.069 2.837.878 3.454 2.693l-1.152.053c-2.196-2.898-3.838-.953-4.822.256l-1.237-.168c.111-1.79 1.933-2.923 3.756-2.834zm14.673.218c.174.004.345.036.506.098-.454.692-.532 1.27-.635 1.897-.448.186-1.087.575-1.562.078-.884-.806.476-2.096 1.691-2.073zm-18.123.303c.544.002.381-.033.145.272-.239.31-.63.86-.805 1.351-.074.342-.11.489-.43.5-.61.02-1.688-.2-1.68-.191-.469-.445 1.362-1.884 2.77-1.932zm7.086.428c.363-.045.279.477.162.682-.23.272-.32.36-.45.021a1.438 1.438 0 0 0-.236-.39c-.179-.232-.158-.242.062-.282.1-.017.334-.03.461-.031zm-24.543 1.816c4.49 3.819 7.87 8.145 11.459 12.131.716.888 1.05 1.744.912 2.324-.172.722-1.644-1-1.644-1 .037.016-8.764-9.414-8.764-9.414s-2.234-4.02-1.963-4.04zm43.389.496c1.343-.035.444 2.253-1.424 2.807-2.064 1.05-4.43.798-6.838-.58-1.374-.786-1.79-1.614-.594-1.283 4.51 1.247 5.606 1.015 8.326-.752.162-.139.335-.172.53-.192zm-29.973.825c.312.01.93.155 1.928.414 4.318 1.314 5.625 1.265 8.107.12 1.582-.728 2.238-.623 1.56.473-1.245 2.018-5.647 2.24-8.95 1.114-.875-.299-1.643-.82-2.485-1.453-.452-.472-.56-.682-.16-.668zm19.916 1.336c.259-.017.74.281 1.326.615 3.618 2.06 6.289 1.682 8.518.3.403-.369.621-.191.676.167.19 1.254.246 2.155-.325 2.76-.332.35-.896.509-1.748.796-3.503 1.183-7.766.337-8.582-2.3-.265-1.357-.434-2.302.135-2.338zm-28.707 5.658a.14.14 0 0 1 .041 0c.253.038.839.55 1.76 1.6 4.815 5.483 7.478 8.634 6.992 10.22-.045 0-.074.342-.277.166-2.649-2.296-4.812-4.805-6.422-7.43-1.765-2.875-2.49-4.522-2.094-4.556zm38.791 2.095c.734.304.02 1.796.029 1.762-4.063 3.12-8.993 10.546-9.436 14.203-.084.7.053 1.476-.205 1.729-.257-.003-.694.003-1.279 0-.377-.07-.474-.259-.437-.694.355-3.912 2.555-10.493 11.328-17zm-30.06.069c.286-.008.73.143 1.351.41 3.648 1.57 5.008 2.142 7.37 4.074 4.399 3.602 9.31 12.34 7.874 13.14-.376.005-.81-.009-.986 0-.536-.98-.93-2.282-1.426-3.208-2.95-5.442-6.785-9.185-12.191-11.832-1.997-.978-2.2-.87-2.352-1.688-.114-.614-.01-.886.36-.896zm30.03 3.142c.366-.03.453.64.329 1.987-.051.557-.092.825-.281 1.123-2.306 2.357-5.571 6.895-6.659 11.373-.538-.044-1.558.063-1.545 0-.31-.166-.34-1.103-.246-1.48.855-3.452 3.088-7.669 6.53-11.382.968-1.044 1.55-1.593 1.873-1.62zm-29.27.1c4.668 1.945 10.771 6.384 13.52 14.41-.608-.037-1.483.045-1.706 0-.465-.183-.705-1.048-1.575-2.687-2.267-4.277-5.533-7.379-9.07-9.016-.658-.305-1.01-.498-1.223-.734-.236-.49-.54-1.87.053-1.973zm1.04 3.826c.6.114 2.26 1.193 3.647 2.215 2.453 1.808 6.292 7.55 5.521 8.342-.828-.017-.774-.004-1.59 0-2.626-4.694-6.098-7.055-7.482-8.36-.42-.708-1.4-2.379-.096-2.197zm-5.457.828c.114-.029.574.425 1.408 1.305 2.465 2.598 4.03 5.479 3.668 6.934-.306 1.23-.665.555-3.486-4.848-1.187-2.274-1.756-3.348-1.59-3.39zm33.723.073c.056 1.494-.063 1.863-.22 2.656-.108.54-.465.79-.802 1.21a18.05 18.05 0 0 0-2.754 5.79h-1.658c.197-2.453 2.448-6.48 5.434-9.656zm-27.936 2.756c.745.099 6.54 6.198 5.692 6.9-1.014-.026-.53.013-1.74 0-.704-1.583-3.886-4.914-3.885-4.914l-.147-1.926c0-.048.031-.067.08-.06zm27.57 2.158a.088.088 0 0 1 .042 0c.294.06.194 4.404-.051 4.742-.469.045-1.358-.04-1.832 0-.29-.158-.44-.703-.33-1.02.272-.792 1.7-3.625 2.171-3.722zm-26.835 1.97c.598 0 2.205 2.362 2.052 2.772-.68.007-1.872-.025-1.949 0-.155-.118-.391-2.375-.21-2.742a.195.195 0 0 1 .107-.03z" style="fill:#004c97;fill-opacity:1;stroke-width:.165357" transform="matrix(.9375 0 0 .9375 1829.582 -804.174)"/><path d="m1791.076-277.227.826 1.088-4.822.026c.789.668 18.655 36.765 41.5 78.468 3.782 7.32 10.994 9.958 19.37 10.278l-22.186-35.871c2.363-1.293 7.054-4.752 9.892-4.11.176.875 1.017.528 1.03-.25l1.027.022.361.564h4.31l.354-.511 3.715.537c-9.932-12.292-15.17-31.234-13.469-49.723l-32.94.072-.437-.58zm-38.77 1.123c.397 7.633-.608 17.038-3.095 24.051-3.745 12.142-13.006 22.133-18.504 32.192-5.895 10.975-7.28 20.526-5.621 30.972l1.078.094c12.567-17.21 22.3-37.773 27.746-57.994.119-.44-.082-1.218.017-1.664-.232-.535-.03-1.114.117-1.27.317-.334.2-1.647-.035-3.816-.593-6.444-.476-11.501.061-17.342.413-4.484.387-5.19.387-5.19zm80.053.518c-1.07 12.117 1.351 28.758 7.02 38.59 0 0-.18.66-.299.84-.54.817-.807.11-1.135-.55-1.207-2.238-3.487-2.587-4.486-1.34-2.206 3.018.184 4.209 2.041 5.913-7.588-.465-10.117-8.848-8.363-12.996-.04.791.383 1.985.94 2.832 2.131 3.247 5.245.507 4.353-2.062-.37-1.063-1.729-2.834-1.729-2.834s1.848-.275 2.604-.733c.705-.44 1.15-1.218.968-2.283-.145-.855-.184-1.228-.64-1.998-.56-.702-1.563-1.186-2.365-1.133-1.567.105-1.756 1.186-2.782 1.928-.254-1.95-1.497-3.433-3.527-3.065-1.544.28-2.657 1.93-1.711 3.995.478 1.053 1.149 1.373 1.824 2.287-10.903-1.226-9.714-14.223-8.508-13.99 0 0 .328-.063.23.435-.62 3.18 3.315 5.08 5.04 2.77 1.1-1.875-1.262-4.834-1.262-4.834s1.571-.339 2.285-.752c2.848-1.649-.186-6.386-2.836-5.223-.93.425-1.165 1.291-2.072 1.752-.606-.678-.643-1.418-1.732-2.027-2.99-1.672-4.86 2.282-3.205 4.021.679.705 1.877 1.348 1.642 1.434-9.27-1.175-9.179-11.018-8.967-10.95zm-39.117.027h6.4l31.088 48.536-5.673 2.79zm7.701 0h3.534c.544 10.846 9.643 12.303 11.05 12.145-2.323 7.335 1.523 15.385 10.783 16.527-2.123 6.8 1.637 15.764 9.046 15.52l.785.498c-.478.98-.581 2.992-.553 3.023-1.647.122-2.54.362-3.61.575-9.575-14.496-31.035-48.288-31.035-48.288zm-48.258.055h1.276c-.378 5.778-1.195 13.401-.66 19.035.624 5.382.653 6.146.27 6.68-.528.594-.25.872-.145 1.355.138.885.152.895.025 1.399-1.124 4.518-2.561 9.2-4.385 13.934-5.965 16.512-15.696 34.516-23.328 43.958-.01-.034-.348.03-.354 0-2.088-13.175 2.376-24.158 4.705-28.666 4.723-9.138 12.142-16.938 16.547-26.511 3.75-8.147 6.515-17.938 6.05-31.18zm65.178 9.426c.805 0 1.453.657 1.453 1.465s-.648 1.465-1.453 1.465a1.463 1.463 0 0 1-1.459-1.465c0-.808.654-1.465 1.46-1.465zm10.309 16.185c.814 0 1.474.663 1.474 1.481 0 .818-.66 1.48-1.474 1.48a1.478 1.478 0 0 1-1.475-1.48c0-.818.66-1.48 1.475-1.48zm-74.07 2.89v.001c.53 2.115-9.868 33.859-24.643 54.059l6.453.135.2.714c9.038 13.398 3.385 25.25-3.913 30.756l2.526 3.381-2.274 1.848-2.275-2.717c-18.496 13.93-54.588 44.762-54.588 44.762l.201 4.943 2.816-2.227c18.309 17.793 57.13 16.82 67.311-19.908l2.728.063c-6.157 26.92-31.214 37.456-50.126 32.992l-4.43 6.39 1.185.637c-.218-.34-.417-.459-.098-.771l3.764-4.863c28.295 3.638 45.379-12.44 50.922-34.22l3.61.061c-3.098 18.295-11.64 34.404-23.821 47.01-8.791-.036-24.248-.238-24.248-.238 5.628 5.475 16.378 22.184 16.807 23.879 0 0 11.056.355 22.918.062 4.347-1.964 10.165-2.753 12.882-1.379 4.774 2.416 9.262 11.38 11.28 25.76.52 3.705.989 5.274 1.132 6.022.026.134.352.232.399.207.182-.097-.29.656-.31 1.212-.02.557-.002 1.396.263 1.688.335.37.294.613.248.771-.03.105-.676.704-.676.704-.096 8.377-.05 15.984-.506 26.289l1.641.01c-.012-16.581 4.97-31.924 12.65-42.485 4.67-6.931 9.608-14.401 12.34-21.514 3.076-8.006 3.5-16.417 1.852-23.515l-1.123.062c-6.754-4.648-9.507-14.57-1.188-21.658l-2.943-3.846c-8.308 6.45-10.217 18.345-1.61 28.192l-3.367-.01c-8.398-10.523-6.538-22.608 3.166-31.233l-2.172-2.769 2.362-2.088 2.129 2.34 54.177-45.45-.039-4.972-4.15 3.38c-24.303-22.557-60.343-6.729-65.627 20.442l-3.303.033c6.927-29.24 32.447-37.501 50.909-33.613l4.554-6.92c-3.351-.945-6.62-3.179-9.705-5.818-1.3-1.112-2.12-1.793-3.064-2.906-8.744-9.278-14.68-22.16-14.96-22.182l-23.775-.059c-3.488 1.732-9.46 3.7-12.738 1.043-7.038-5.706-9.4-17.217-10.367-24.625-.294-2.305-.542-6.318-.758-7.648-.134-.244-.394-.257-.629-.215zm84.29 12.804c.796 0 1.44.65 1.44 1.45 0 .798-.644 1.444-1.44 1.444a1.44 1.44 0 0 1-1.437-1.445c0-.799.642-1.45 1.438-1.45zm3.096 1.703c1.172 1.525 2.213 3.096 2.795 4.758-.546-.017-1.06.154-1.668-.322-.14-1.679-.83-2.685-1.695-3.803zm-4.347 2.139c.48.236.861 2.058.525 2.37-.579.125-.973.083-1.168-.12-.29-.481.26-2.157.643-2.25zm-94.557 15.834 22.072.025c3.84 2.956 7.594 2.565 13.043.195h24.543l1.387 2.528h-62.24c.346-.94 1.195-2.748 1.195-2.748zm-1.82 3.949h63.521l1.604 2.596h-66.698zm6.132 3.77h7.127l-2.64 4.5h-7.354zm15.823 0h6.8l-3.027 4.495h-6.74zm22 0-2.864 4.495h-6.916l2.971-4.453zm8.529 0h6.812l-2.546 4.495h-7.055zm-91.506.699c-4.417-.051-3.598 5.83-3.182 5.646-2.772-.637-4.822.687-5.164 3.059-.27 1.882 1.563 4.564 4.766 4.19-.426.492.01 3.34.434 3.599 0 0 .054.411-1.637 3.953-2.007 4.203-2.417 4.404-3.326 1.642-.979-2.97-2.49-4.474-6.43-6.394-1.05-.512-2.535-1.405-3.3-1.984-1.76-1.331-1.78-1.31-1.698 1.392.108 3.51 1.169 5.048 4.9 7.12 1.827 1.013 5.322 2.446 5.955 2.439.446 0 2.083.731 4.508 2.029.474.254 2.095 1.15 4.172 1.352 2.204.156 7.17-.367 10.047-2.036 1.615-.936 2.239-1.774 3.43-4.168 0 0-4.079.213-5.942-.279-3.87-.228-5.795 0-8.73 1.527-2.456 1.28-2.594 1.51-1.568-.605.468-.971.904-2.114 1.298-3.252.428-1.132.542-1.226 1.616-1.336 2.355-.24 3.696-1.605 3.914-3.97.058-.635-.035-1.305-.035-1.305 1.603.238 4.885-.56 4.783-3.895-.092-2.998-2.221-3.686-4.842-3.892.337-1.536-.78-4.796-3.967-4.832zm.055.931c3.87.027 3.78 3.593 2.094 5.617l-2.059-1.7-1.66 1.538c-1.807-1.159-1.8-5.479 1.625-5.455zm105.893.043 1.904 2.823h-3.93zm-72.256 4.053h7.287l-2.924 4.127h-6.89s1.542-2.635 2.527-4.127zm22.97 0-2.753 4.287h-6.37l2.553-4.197zm8.536 0h6.584l-2.604 4.572h-6.508zm15.496 0h6.668l-2.713 4.572h-6.574zm15.105 0h6.87l-2.836 4.572h-6.623zm-90.314.822c1.662.068 3.242 1.439 2.969 3.256-.58 3.85-4.275 3.64-5.325 1.758l1.506-1.725-1.845-1.818c.672-1.082 1.698-1.511 2.695-1.47zm-5.334.028 3.273 3.314-3.191 3.209-3.291-3.158zm-4.797.263c.743.048 1.5.42 2.103 1.123l-1.769 2.002 1.943 1.875c-1.252 1.746-6.062 1.606-5.097-2.595.382-1.668 1.581-2.484 2.82-2.405zm114.348.633 2.027 2.795-3.8.031zm-109.457.719-1.55 1.549 1.55 1.548 1.548-1.548zm30.42 2.713 81.488.265 2.182 2.676c-28.452.492-56.312-.458-85.377-.48zm-28.649 1.74c3.23 1.988.843 6.18-2.623 5.467-2.583-1.139-3.111-3.83-.787-5.39l1.82 1.507zm27.941 1.605-2.222.01-2.166 2.543c8.187 8.66 7.887 16.172.258 22.721l3.068 3.447c8.557-7.35 10.454-18.898 1.063-28.72zm8.413.332c4.59 7.2 8.56 20.836-5.116 33.329l-1.65-2.008c11.906-11.675 9.109-21.492 3.775-31.233zm1.273.176 18.504.072c-3.961 15.157-6.74 24.082-7.158 47.791l-5.348.032c.582-.547-2.768-14.318-6.678-19.092 8.199-13.976 3.78-21.858.68-28.803zm-58.203.02c.32 0 .926.502 2.26 1.185 3.956 2.026 7.093 3.94 7.853 6.795.542 1.543.204 1.573-1.351.12-1.157-1.082-2.389-2.014-5.471-4.134-1.086-.746-1.429-.623-.799.286.454.654 1.43 1.398 3.408 2.609 1.435.878 3.41 2.636 3.254 2.895-.141.235-.387.215-1.078-.088-.32-.14-1.35-.566-2.289-.948-4.03-1.642-5.75-3.659-5.992-7.011-.084-1.168-.157-1.706.205-1.71zm84.443.074s.558.737.63 1.045c.154.665-.496 1.275-2.544 2.19-.702.313-1.286.484-1.267.896.094.966 1.936 2.442 1.71 3.76-.423 1.007-2.984 1.995-3.624 3.183 0 .817 1.664 2.069 1.427 3.18-.129.331-.665.67-1.459 1.361-1.624 1.416-1.725 1.633-1.129 2.734 1.385 2.56 1.435 2.37-.455 4.188-1.904 1.832-1.869 1.81-.959 3.402.981 1.717.937 1.639-.38 2.739-1.291 1.078-1.24 1.298-.547 2.636.669 1.295.82 1.313-.305 2.315-1.315 1.17-1.56 1.292-.633 2.763.96 1.523 1.028 1.459-.055 2.704-1.025 1.179-1.144 1.233-.588 2.035.698 1.007.83 1.275.1 2.383-.79 1.196-.787 1.111-.062 2.226.61.939.504 1.983.504 1.983l-2.289-.01s-.016-1.322-.283-1.807c-.649-1.178-.633-1.545.139-2.59.79-1.073.66-1.164-.077-2.236-.745-1.086-.64-1.074.329-2.309.888-1.133.934-1.667.43-2.314-1.198-1.534-1.193-2.181.013-3.196.92-.773 1.005-1.118.211-2.443-.776-1.297-.873-1.416.553-2.709 1.457-1.32 1.44-1.291.463-2.79-.948-1.452-.897-1.548.625-2.966 1.54-1.434 1.559-1.439.55-3.248-.943-1.693-.95-1.663.893-3.312 1.836-1.536 2.46-1.732.63-3.936-1.021-1.748-.294-1.92 1.382-2.791 2.94-1.802 1.6-1.69.365-4.365-1.032-1.793-.441-1.807 1.358-2.703.446-.193.941-.413 1.449-.698 1.203-.673.55-1.29.55-1.29zm3.842.04 8.834.114c-10.24 13.128-15.167 29.919-16.935 47.631l-3.338-.053c-.21-13.832 4.126-31.113 11.44-47.691zm10.098.089 4.353.078s.817.984 1.186 1.34c1.879 2.139 2.042 1.714-2.098 4.06-2.614 1.482-3.773 2.168-3.926 2.79-.116.625 1.142 1.866 1.29 2.702 0 .094-3.553 2.484-4.198 2.823-.897.436-.942.813-.053 2.367 1.024 1.786.94 1.723-1.27 3.271-2.155 1.51-2.578 1.361-1.66 2.864 1.276 2.086.675 2.557-2.326 4.183-.758.41-.777.824-.248 2.248.736 1.98.928 1.78-.623 2.852-1.83 1.266-2.154 1.3-1.748 2.076 1.18 2.253 1.648 2.802.072 3.537-1.201.561-1.226.878-.562 2.365.667 1.496.84 1.437-.346 2.28-1.099.78-1.746.607-.676 1.884.846 1.01.77 1.808.082 2.428-.593.252-.868 1.384-.695 1.408l-1.527.041c-1.196-1.617.214-2.542.427-2.7.195-.373-.043-.637-.525-1.512-.664-1.207-.641-1.352.314-2.057.965-.713.995-.528.352-2.102-.748-1.83-.715-2.04.463-2.888 1.159-.836 1.174-1.024.386-2.627-.83-1.692-.83-1.692 1.229-3.065 1.448-.965 1.468-.907.701-2.697-.53-1.236-.156-1.665 1.815-3.02 1.125-.773 1.211-.926.681-1.847-1.46-2.541-1.446-2.618 1.073-4.256 2.06-1.34 2.042-1.456 1.248-3.242-.86-1.934-.939-1.785 1.886-3.485 2.326-1.4 2.453-1.317 1.496-3.002-1.19-2.095-1.113-1.752 3.54-4.421 1.677-1.154 3.188-.755 1.519-2.72-.735-.941-1.635-1.956-1.635-1.956zm14.12.142 21.143.077c5.053 4.27 8.796 6.716 11.46 7.68 0 0-3.563 5.935-3.836 5.718-20.495-3.964-44.868 8.033-50.381 33.898l-3.229.022c1.193-10.15 3.853-18.627 8.752-27.469 4.861-8.585 9.338-13.603 16.092-19.926zm-96.278 3.305c.322-.012.573.388.556 1.125-.057 1.039-.546 2.07-1.015 3.102-.984 2.103-1.964 3.658-2.48 3.664-1.217.014-1.184-.26.433-3.432.826-1.458 1.702-4.333 2.506-4.459zm8.656 4.47c2.128.043 4.33.24 6.299.294.022 4.454-13.891 6.7-14.614 4.45 2.426-1.906 9.597-1.06 11.116-2.765-1.832-.106-4.314.196-6.014.227-2.12.038-5.545.948-5.58 1.324-.222-1.172 3.64-3.372 6.701-3.51a31.61 31.61 0 0 1 2.092-.02zm7.49 7.093s-27.129 22.538-40.539 33.443l.082 4.861 42.918-35.275zm-.088 1.113 1.734 2.113-40.289 32.955-.144-3.453zm100.606 1.375c8.556.036 17.766 3.09 26.738 10.19l-1.45 1.55c-39.348-29.395-75.583 15.237-55.603 47.164-.18.412-1.57 1.432-1.57 1.432-17.05-28.378 3.933-60.454 31.885-60.336zm5.084 3.752c2.233.017 6.345 1.555 8.082 3.654 2.021 2.443 1.433 3.532-1.135 1.227-2.76-2.014-5.04-2.481-1.207-.104.845.525 1.607 1.549 1.646 1.662.14.409-.568-.019-3.781-1.195-1.91-.7-4.332-2.591-4.961-3.879-.47-.964.185-1.374 1.356-1.365zm-8.282.066c.697-.01 1.317.05 1.758.176 2.815.811 3.701 1.237 4.75 2.057.718.56.488.964-.346.605-.97-.418-4.043-1.336-4.593-1.28-.8.083 0 .61 1.148.897 2.544.639 3.808 1.297 1.992 1.324-.947.142-5.092.155-6.22.022-1.886-.223-4.71-1.95-4.06-2.568.702-.668 3.481-1.216 5.571-1.233zm-8.07 2.656c3.337.04 5.142 1.291 1.494 1.543-6.27.997-7.474 2.366-.525.735 1.617-.38 1.586.206.468.756-.914.446-2.054.665-3.005 1.129-1.715.716-5.642.875-7.174.29-2.261-.863 4.837-4.499 8.742-4.453zm26.852.57c1.686.045 5.283 2.498 6.884 4.8 1.047 1.504.526 2.584-1.056 1.377-.317-.242-2.59-2.182-2.713-2.227-.213-.078 1.884 1.923 2.191 2.486.263.478.87 1.571-.262 1.594-1.768-.219-5.921-4.876-5.947-7.176-.01-.615.34-.868.902-.853zm-20.922 1.31c.702-.024.343.351-.99 1.294-2.407 1.702-1.153 1.36 1.66-.093.854-.442 1.887-.787 2.25-.854.362-.067.793-.166.959-.217.756-.233.171.702-1.06 1.692-2.587 2.083-5.51 3.719-7.528 4.22-2.572.64-3.117.721-2.166-.89 1.51-2.561 3.71-4.61 5.812-5.008.473-.09.828-.137 1.063-.145zm8.654.04c1.071-.022 2.394.203 4.48.655 1.467.459 1.082.557-.675.75-3.307.362-1.93.75 1.285.693 4.385-.033-2.197 1.587-4.332 1.91-1.666.074-2.155.015-5.787-.668-1.385-.26-.554-1.278 2.068-2.537 1.072-.515 1.89-.781 2.96-.803zm27.1.596.119 2.838-53.092 44.57-1.805-2.004zm-18.065 2.44c2.117-.029 5.176 1.446 4.848 2.335-.123.332-.359.317-1.975-.115-1.06-.283-2.961-.581-2.709-.346.087.081 1.57.651 2.135.788 1.87.45 4.11 1.51 3.615 1.826-.867.53-1.659.115-2.685.01-2.568-.358-6.785-1.659-7.479-2.309-.787-.737 1.972-2.155 4.25-2.185zm-24.766.165c.382.02.525.378.16.866-.553.732-.807 1.346-1.304 2.246-1.775 2.752-2.893 3.841-4.6 4.908-1.706 1.067-1.95.883-1.8-1.336.191-2.304 1.836-4.727 4.158-5.865 1.072-.153 1.685-.436.56.916-1.995 2.4-.628 2.153 1.235-.57.592-.866 1.21-1.185 1.591-1.165zm-6.898.32c1.15-.01 1.536.404.061 1.098-1.404.662-4.197 2.623-4.266 2.838-.116.365.93-.208 2.666-1.16 2.322-1.272 2.527-1.242 1.405.213-1.27 1.645-4.324 3.706-6.721 4.469-3.353.922-3.272.276-1.398-2.223 1.786-2.716 3.304-4.01 5.591-4.752 1.003-.325 1.97-.479 2.66-.482zm-56.87.415c12.167 21.066 5.413 42.471-8.702 53.387-14.757 11.411-37.716 10.733-51.264-2.963l1.88-1.782c-.01.01 21.357 21.855 48.267 2.463 13.656-9.841 19.297-33.082 8.03-49.283zm-54.501.047a.214.214 0 0 0-.092.021c-.41.267-1.953 4.817-2.264 6.705-.09.553.042 1.094.494 1.537.318.312.832.11.99.047 1.03-.467 1.597-1.183 2.497-3.453.603-1.242.686-2.727.566-3.246-.048-.21-.38-.7-.799-.978-.462-.308-1.113-.634-1.39-.633zm.24.947c.487 0 1.448.791 1.567 1.357.01.988-.555 2.631-.975 2.387-.703-.876-1.51-.324-1.645-.642-.09-.972.531-2.244.96-3.09a.285.285 0 0 1 .093-.012zm131.402.78v.003c5.41 0 10.79 1.593 14.739 5.106l-2.108 1.941c-9.264-6.63-20.05-4.689-26.441-.217-6.328 4.428-11.928 14.228-6.442 28.032l-1.98 1.802c-6.147-11.103-2.849-25.777 8.03-32.718 3.835-2.448 8.75-3.848 13.677-3.94.175 0 .35-.01.525-.01zm-80.002 1.628c.165 0 .414.54.387 1.201-.032.795-.367 1.832-.902 2.051-.604.248-.984-1.558-.984-1.558.37-.59.875-1.19 1.5-1.694zm96.862.621c.22-.01.434 0 .619.022.604.075.61.617.041 1.139-.614.562-.934.591-1.553.138-.552-.404-.581-.7-.103-1.045.25-.16.629-.235.996-.254zm-103.906.125 1.794 2.221-6.218 5.022-.744.058-47.61 39.584-.012-3.516zm86.203 1.13c4.924-.15 9.767 1.247 13.275 4.23l-6.484 5.37c-12.96-6.76-23.354 5.287-19.688 16.23l-5.607 4.886c-7.21-19.863 5.918-30.335 18.504-30.717zm-20.676.01h.057c.043.01.087.04.129.081.227.223-.225 3.888-.563 4.569-.122.247-.218.566-.216.709 0 .3-1.195 2.814-2.131 4.472-.353.625-.729 1.446-.834 1.828-.752 3.628-2.373-2.205-1.801-5.591.269-1.592 2.52-4.878 3.172-4.635.333.124.309.375-.274 1.646-1.624 3.549-2.031 5.379-.324 1.948 1.968-3.955 2.48-4.972 2.785-5.028zm-110.152.072c.24.014.432.147.537.43.072.24.149.74.016.984-.333.751-1.02 1.246-1.717 1.2-.306-.02-.64-.289-.682-.62-.037-.3.035-.81.412-1.198.496-.509 1.033-.82 1.434-.796zm49.365.228c.768.038 1.578 2.11 1.062 3.059-.421.775-.5.631-1.238-.87a17.105 17.105 0 0 1-.686-1.636l.63-.496a.468.468 0 0 1 .16-.053c.025 0 .046-.01.07 0zm-1.295.875s.808 1.47 1.006 2.64c.12.716.1.582-.682.286-.616-.386-.751-.611-1.135-1.094-.252-.447-.504-.775-.504-.775zm4.857.315c.409-.014.847.4 1.248 1.414 1.507 3.805 1.37 8.075-.324 10.091-.28.334-.349.35-.685.141-.276-.17-.304-1.98-.037-2.492.083-.16.332-1.252.351-1.87.044-1.46-.355-1.643-.547-.288-.22 1.566-.461 2.66-.886 1.718-.214-.478-.323-.955-.485-1.464-.847-3.29.14-7.208 1.365-7.25zm-6.564.974s1.45 1.88 2.047 2.553c.21.363.203.455-.133.584-.574.22-2.495-1.062-3.256-1.46-.41-.328-.23-.58-.23-.58.524-.396 1.047-.785 1.572-1.097zm57.2.067c.773-.01.771.262-.056 1.455-4.613 6.662-3.682 5.672-.748 2.029 1.631-2.026 1.915-2.22 2.094-1.766.134.34-1.807 4.283-2.81 5.711-.52.738-2.29 1.974-3.186 2.43-2.194 1.115-1.952.666-1.14-2.098 1.033-4.288 3.631-7.737 5.843-7.761zm-59.907 2.304c12.646 31.572-21.982 45.43-37.606 30.828l1.82-1.455c21.734 14.8 43.184-8.91 33.366-27.463 0 0 .891-.742 2.42-1.91zm2.93.766c2.081.214 5.155 4.038 5.31 6.168.329 1.513-.097 1.772-.836.709-1.247-2.313-1.097-.847-.035 1.449.564 1.16.693 2.55.108 2.625-.801-.163-2.533-2.937-3.063-4.08-1.263-2.506-1.354-2.08-2.047-5.793-.13-.696.052-1.072.563-1.078zm-6.293 1.037c9.632 18.546-11.089 40.83-32.165 26.426l6.317-5.033c11 5.297 23.273-1.272 19.758-16.5zm90.427 2.127c1.989-.054 3.955.369 5.666 1.33l-17.377 14.537c-2.793-9.413 4.609-15.675 11.711-15.867zm-26.611 1.299c.568-.119 1.049 3.53 1.154 8.652.103 5.01.23 5.506-1.32 3.662-.65-.751-1.45-1.47-1.805-2.144-1.03-1.956-.702-4.004-.418-6.866.266-2.67 1.217-2.253 1.063.543-.1 1.8-.08 4.037.201 4.034.102 0 .13-.173.064-.418-.134-.512.48-6.313.732-6.996.11-.296.221-.445.327-.467zm-47.887 2.207c1.255.493 1.614 4.698.254 8.765-.584 1.748-1.482 2.89-2.82 3.594-.955.503-1.179.344-.748-.533.793-1.429 1.216-2.91 1.537-4.754.128-1.8-.818-.355-.738.414-.741 3.356-1.714 3.862-1.588.326.093-2.605.432-3.723 1.654-5.513.615-.897 1.272-2.131 2.45-2.3zm43.584.424c.517 0 .642.7.18 2.056-.32.94-1.411 3.982-1.283 3.97.08-.01 1.251-2.742 1.49-3.189.392-.733.536-.872.88-.84.337 1.352-.01 3.04-.173 4.438-.71 3.646-3.183 7.412-4.13 6.291-1.545-1.826-.822-9.22 1.226-11.469.771-.846 1.409-1.261 1.81-1.257zm-66.181.558c1.866 12.897-8.734 18.404-17.891 14.514.194-.05 17.89-14.514 17.89-14.514zm43.33.238 1.845 2.434 3.383.178-1.732 2.562 1.722 3.283-3.775.073-2.17 2.506-1.889-2.264-3.3-.176 1.923-3.08-1.55-2.947 3.562-.17zm-28.39 1.11c.423.015 2.51 2.768 2.718 3.785.63 2.462.398 7.119-.485 6.959-.957-3.355-.586-5.088-.93-4.703-.594.617.37 5.76.054 7.027-.152.323-.664-.067-1.239-.896-1.534-2.216-1.327-10.884-.154-12.162.01-.01.022-.01.035-.01zm112.976 5.224-41.75 34.727 2.408 3.111 39.418-32.673zm-60.301.6c.182-.037.6.257 1.383 1.12 1.366 1.851 2.814 4.396 3.341 6.353.2.76.522 1.768.717 2.24.293.708.316.905.143 1.12-.723.894-3.747-1.36-4.723-3.517-1.37-3.03-1.406-5.76-.03-3.101.5.967 1.119 2.378 1.112 1.818 0-.16-.608-2.191-1.072-3.097-.288-.57-1.337-2.84-.87-2.936zm59.857.844.088 2.875-38.885 32.65-1.525-1.865s36.624-30.583 40.322-33.66zm-60.709 1.777c.183.02.278.28.223.863-.178 1.898-.644 6.03-.547 6.395.058.22.615-2.736.742-3.262.664-2.738 1.68 3.81 1.069 6.742-.096.462-.292 1.206-.393 1.663-.1.456-.426 1.236-.557 1.443-1.101 1.74-3.69-5.185-3.254-8.713.272-2.197 2.064-5.197 2.717-5.13zm-44.984 1.516c.508-.027.605.474.52 1.527-.295 3.612-2.687 7.405-5.307 8.414-2.61 1.005-2.853.803-1.305-1.072 1.173-1.421 1.885-2.912 1.688-3.106-.11-.106-.37.49-1.32 1.713-1.192 1.535-1.389.235-.305-2.02.935-1.946 1.81-2.964 3.568-4.155 1.24-.84 2.012-1.277 2.46-1.301zm23.644 1.097c-.526 15.555-4.388 32.454-11.845 47.145l-6.967.016c8.53-12.617 13.976-28.238 15.492-47.092zm3.063.016s1.046 1.088 1.47 1.822c.47.81.6 1.517-.251 2.123-.99.84-1.402.527.21 2.61.85 1.097.574 1.277-.48 2.2-1.087.955-1.149 1.007-.138 2.296 1.08 1.379 1.275 1.589-.135 2.654-1.27.96-1.285 1.187-.293 2.746.914 1.436 1.19 1.42-.563 2.908-1.497 1.271-1.534.92-.09 3.258.532.86.498.916-.476 1.781-2.394 2.127-2.272 1.994-1.932 2.553 2.624 3.774 1.44 3.665-1.127 5.467-.517.445-.384.946.774 2.832.984 1.603.84 1.95-1.465 3.543-2.401 1.658-2.48 1.881-1.28 3.572 1.183 1.666 1.21 1.552-.71 3.272a41.818 41.818 0 0 0-1.579 1.492h-4.255s.899-.824 1.511-1.28c3.494-2.596 3.48-2.32 2.006-4.193-1.304-1.656-1.177-1.767.145-2.715.95-.681 2.232-1.382 3.193-2.08.518-.37.132-.678-.73-2.314-.966-1.834-1.018-1.623.779-3.108 1.967-1.625 2-1.565.933-3.625-1.07-2.065-1.084-1.885.266-2.992 2.008-1.645 2.104-1.556 1.047-3.463-.843-1.52-.851-1.479.572-2.906 1.436-1.44 1.256-1.348.406-2.666-.863-1.34-.817-1.52.32-2.537 1.227-1.096 1.051-1.028.034-2.428-1.002-1.379-.986-1.276.232-2.345.64-.563 1.285-1.135 1.248-1.399-.094-.681-.74-1.648-1.365-2.578-.238-.355.238-.463 1-1.258.775-.808.74-.605.154-1.678-.316-.58-.918-1.558-.918-1.558zm-11.406.037 1.212.031s.21.276.49.565c.78.797.813 1.265.03 1.693-.75.41-.464.985.164 1.91.665.982.66.868-.293 1.832-.985.804-1.494 1.031-.408 2.553.617.706.54 1.434-.418 2.066-.737.486-1.96.89-.67 2.739.629 1.318.678 1.234-.635 2.17-1.748 1.245-2.076 1.03-1.273 2.843.892 2.018.98 2.048-.852 3.4-2.129 1.574-2.2 1.702-1.314 3.585.894 1.9.916 1.416-1.336 3.178-1.65 1.29-2.026 1.362-1.538 2.43.916 1.998 1.306 2.534-1.365 3.907-3.083 1.587-3.24 1.705-1.76 4.065 1.205 1.92.938 1.648-1.05 2.797-2.875 1.66-4.145 2.383-4.235 2.898-.059.584 2.242 2.32 2.242 2.32l-4.011.11s-1.688-1.376-2.342-2.016c-1.815-1.773-1.833-1.191 4.2-4.13 3.328-1.623 3.049-1.256 2.505-2.202-1.605-2.795-1.66-3.085 1.352-4.607 2.617-1.323 2.167-1.418 1.53-3.418-.554-1.743-.466-1.582.913-2.61 3.334-2.483 3.243-2.226 2.723-3.443-.512-1.198-.904-1.756-.52-2.346 1.202-1.73 3.758-2.096 2.713-4.156-.488-1.329-.663-1.626.809-2.775 1.326-1.109 1.333-.976.484-2.44-1.034-1.343-.886-1.564.629-2.619 1.08-.99 1.065-.965.459-1.931-.835-1.333-.794-1.375.398-2.424.971-.855 1.139-.902.52-1.844-.821-1.25-.684-1.525.398-2.139.664-.376.66-.528.604-1.164-.011-.122-.358-.828-.358-.828zm15.052.072 5.586.016c1.784 10.398 4.899 14.665 6.7 17.957-7.062 11.383-5.456 20.835-1.145 29.201l-17.69-.064c4.536-15.577 6.873-31.249 6.55-47.108zm-38.338.041c.206-.015.351.32.698.913 1.119 1.915.327 4.63-1.31 7.476-1.226 2.129-1.448.503-.888-2.562.354-1.933-.617.962-1.078 3.296-.25 1.266-.855 2.288-1.511 2.227-.619-.1-.426-1.874-.407-2.268.14-2.794 1.177-4.774 3.192-7.548.763-1.051 1.072-1.517 1.304-1.534zm57.018 5.47c.265-.013.637.097 1.094.36.356.205.994.595 1.437.84 1.55.857 1.676 1.116.94 1.977-.91 1.065-1.494.659-3.069-1.113-1.062-1.196-1.08-2.034-.402-2.065zm-.516 2.339c.25.01.765.276 1.268.854 1.02 1.172.899 2.163-.23 1.88-.462-.676-.7-1.708-1.141-2.47-.1-.173-.047-.268.103-.264zm49.887.15c-.989.002-2.642 1.312-2.957 2.645-.96 4.068-.96 3.892-.1 4.484.253.174.442.302.567.38.505.4 1.194 1.017 1.285.894.82 0 2.066-5.206 2.025-6.28.052-1.134.093-1.271-.19-1.787-.127-.233-.352-.336-.628-.336zm-50.644.088c.066-.013.147.023.246.104.648.647.91 1.805 1.238 2.635 0 .18-.072.475-.164.652-.56 1.08-1.432.032-1.522-1.828-.05-1.046 0-1.525.202-1.563zm50.492.803h.125c.664.03.56.719-.362 1.719-.484.526-1.486.773-1.816.449-.48-.472.512-1.767 1.594-2.08.176-.051.328-.08.459-.088zm-112.182.568h.108c.347.022.639.18.867.446.442.549.256 1.398.047 2.107-.525 1.86-3.996 5.459-5.24 5.473-.741-.13 2.357-4.083 2.455-4.748-.231-.227-2.151 2-3.053 3.547-.409.7-.873 1.565-1.12 1.714-.646.075-1.393.488-1.398.051.107-1.975 3.96-6.278 5.272-7.476.805-.762 1.502-1.103 2.062-1.114zm9.287.188c2.976-.033-2.881 6.503-6.672 7.445-1.18.294-3.358.371-3.513.125-.155-.246.02-.448.506-.576.782-.206 4.655-2.68 4.652-2.97 0-.367-1.604.24-2.97 1.128-.886.575-1.302.456-.821-.238 2.225-3.212 5.202-4.874 8.818-4.914zm51.504.01c.17.014.338.351.444 1.103.54 1.401.565 1.784.057 2.196-.873.705-1.086.507-1.077-1.114.01-1.335.295-2.208.577-2.185zm-98.02 1.86s1.085.407.633.925c-.313.36-1.649.054-1.65-.05zm149.48.04c.353-.023.36.306.173 1.135-.098.435-.526 2.724-1.283 3.36-.092.06-1.192-.598-1.49-.901-.137-.14-.568-.462-.625-.674-.188-.692.014-1.59.537-2.039.204-.175.615-.273.836-.275.173 0 .684-.171 1.138-.373.318-.142.552-.222.713-.233zm-149.098 1.58c.714-.01 1.591.072 2.335.327 2.195.64 6.22 2.449 6.838 3.043.902.865-1.45 1.786-4.279 1.818-1.5.017-1.783-.296-3.857-1.543-.267-.176-1.476-.973-1.125-1.264.384-.395 1.543.114 2.986.85.47.24 1.615.171 1.613-.041 0-.25-2.883-1.327-5.043-2.016-1.418-.452-1.384-.907-.515-1.101a7.7 7.7 0 0 1 1.047-.07zm-2.836.989s.596.53 1.37 1.113c.841.632 1.817 1.412 2.497 2.45.982 1.202 2.534 4.194 2.361 4.735-.397 1.243-4.544-.937-7.935-4.343-1.103-1.108-1.748-1.932-1.748-1.932l1.292-1.174s1.139.954 2.452 2.117c2.462 2.182 2.445 1.432-.031-.865-.701-.65-1.346-1.232-1.346-1.232.033-.417.425-.784 1.088-.87zm101.32.103s1.325 1.379 1.816 2.014c-8.07 7.922-11.153 18.99-3.363 30.777l-3.738-.015c-7.003-13.837-3.683-24.254 5.285-32.776zm-68.264.326c.502-.023.045.57-.845 2.092-1.663 2.841-1.994 3.558-4.694 4.266-.695.18-1.686.037-2.094.088-1.16.146-.644 0 1.135-1.159 2.466-1.605.372-.78-1.908.399-1.32.682-2.705.648-2.826.295-.067-.195.535-.708.924-1.057 3.471-3.116 4.535-2.985 7.765-4.111 1.41-.492 2.2-.797 2.543-.813zm-14.511 2.834v.004c1.256.01 2.428.136 3.47.37.69.156 1.813.294.865 1.154-1.073 1.013-3.97 2.397-6.115 2.49-.3.011-4.718-.303-3.775-1.254.188-.105.788-.078 1.305-.176 2.446-.465 1.785-.86-1.227-.699-3.772.202-3.946-.189-1.09-.973 2.09-.573 4.142-.868 6.024-.906.183 0 .363-.01.543-.01zm20.154.3c1.679-.018 2.983.282 2.99.925.012 1.042-3.169 3.329-5.256 3.781-.491.107-1.188.26-1.55.342-.728.165-4.76.024-5.153-.12-1.888-.687-.576-.96 2.887-1.362 1.507-.176 2.226-.572 2.222-.86 0-.14-1.111-.178-2.763.031-1.846.235-1.484-.31.814-1.505 1.519-.79 3.906-1.214 5.809-1.233zm-31.072 1.443c.234.01.8.201 1.742.595 2.01.588 4.773 1.252 6.664 3.324 1.527 1.485 1.899 1.965 1.578 2.487-.389.632-5.129.15-7.123-.705-1.318-.566-2.886-1.778-3.604-2.826-1.737-2.541-1.007-3.212 1.202-1.436 2.66 2.14 3.055 2.361 3.527 2.264.19-.04-.278-.48-1.17-1.145-2.241-1.671-3.333-2.571-2.816-2.558zm16.394 2.73c2.229 0 2.71.17 4.873 1.164 2.708.958 2.051 1.811-2.754 3.014-2.406.567-4.828.17-6.586-.916-3.873-2.393-3.617-2.872.707-1.803 1.421.351 2.837.417 2.924.15.067-.204-1.65-.643-3.047-1.107-1.512-.503-.212-.46 2.81-.492.4 0 .755-.01 1.073-.01zm111.441 10.336s-.494.235-.712.355c-.173.095-1.512.264-2.977.373-4.931.284-8.743 1.478-10.994 5.747 1.977-.135 13.166 1.897 16.271-2.15.65-.848-1.67 6.396-2.859 6.718-2.95-.356-4.19 4.29-3.895 4.094-2.974 1.157-5.281 1.836-4.525 5.302.33 1.512 1.857 3.307 5.09 2.856-.88 6.01 6.445 7.566 7.252.32 0 0 1.428-.272 1.978-.338 3.34-.794 4.151-5.695-.752-7.25-1.36-.404-1.437-.66-1.437-.66.254-1.106.193-2.265-.604-3.555 1.082-2.587 3.774-7.578 3.774-7.578zm-.408 1.324c.473 0 .82.042.926.17.674.904-2.84 2.402-6.584 2.725-.84.072-2.687.242-2.734.326-.404.708 7.238.194 9.619-1.145.815-.458.89-.056.535.65-2.764 3.568-9.435 2.69-14.65 2.063-.298-.3-.043-.67 1.125-1.62 2.143-1.746 3.686-2.33 7.07-2.679.708-.023 3.274-.479 4.693-.49zm3.77 2.805c.765-.06 1.327.506 1.289 1.056-.48 1.535-2.992 6.22-2.992 6.22-.309.309-1.407.526-1.325-.659.013-1.272 2.387-6.516 3.028-6.617zm4.63.172c-.82.06-1.738.59-1.75 1.242.736 5.374 4.798 6.654 8.696 8.348 1.026.472 1.897 1.31 2.926 1.853 1.926-2.638-.245-7.76-3.637-9.43-2.52-1.18-4.815-2.12-6.234-2.013zm.335.922c4.159-.141 9.468 3.296 9.83 7.543.026.135.201 2.733-.39 2.64-.896-.258-1.378-1.163-2.813-1.765-2.983-1.425-7.022-2.687-7.926-6.555-.154-1.088.208-1.198 1.119-.32 2.039 1.628 4.049 2.184 6.064 3.757.56.437 2.57 1.557 1.198.164-.93-.943-3.668-2.589-5.121-3.29-2.022-.976-3.121-2.161-1.961-2.174zm-152.801 5.3c-.636.001-1.29.023-1.963.063l23.037 36.156c-5.67 3.003-8.466 4.318-17.88 3.578l.034.477-4-.235c6.91 10.83 15.437 24.956 13.018 49.602l28.226-.03c.54.772.645.565 1.32-.04l12.682-.069.342.412 5.9-.04s-26.986-50.707-40.54-75.883c-5.221-9.469-10.643-14.001-20.176-13.989zm143.303 1.26c1.512-.037 3.017 1.006 3.027 3.033.01 1.057-.883 2.53-.883 2.53l-2.057-1.967-1.964 1.974c-.968-.803-1.54-2.33-1.223-3.2.605-1.487 1.923-2.34 3.1-2.37zm-23.827.725c1.95 7.628 4.052 18.147-12.851 42.45-10 14.38-13.273 27.944-13.672 44.499l-1.01.012c.478-9.086.541-25.559.541-25.559l.944-.844s-.43-.7-.62-1.521c-.318-1.386-.05-.924.774-4.645 3.456-17.97 25.894-54.392 25.894-54.392zm-90.28 3.494 85.685.394-1.139 2.258-82.916-.595zm114.214.652 3.182 3.112-3.11 3.505-3.275-3.437zm-5.39.098c.926-.018 1.927.359 2.78 1.226l-1.736 1.854 1.506 1.59c-1.549 3.264-5.673.716-5.535-1.727.101-1.786 1.44-2.913 2.984-2.943zm10.396.297c1.562-.022 2.755 1.488 2.916 2.943.25 2.256-3.256 4.803-5.033 1.67l1.383-1.764-1.563-1.72c.8-.793 1.587-1.12 2.297-1.13zm-4.984 1.304-1.55 1.551 1.55 1.549 1.548-1.549zm-98.616 1.15 7.02.067-2.61 4.903-7.117-.03zm15.637.038h6.447l-2.724 4.969h-6.524zm15.225 0h6.837l-2.775 4.969h-7.023zm15.304 0h7l-2.549 4.969h-7.261zm15.59 0h6.746l-2.732 4.969h-6.942zm-74.488.023h4.533l-1.852 3.274zm109.48 3.028 1.948 1.787 1.603-1.678c2.594 2.091.793 5.527-1.91 5.588-1.862.042-4.565-3.12-1.64-5.697zm-91.802 2.752h6.591l-2.48 4.472h-6.457zm14.652.035h7.23l-2.548 4.474h-6.88zm15.48 0h7.196l-2.346 4.474h-7.268zm15.426 0h7.137l-2.223 4.474h-7.545zm-58.863.172h4.549l-1.94 3.582zm3.43 5.187 66.789.596-1.135 2.174-63.957.011zm2.345 3.895 62.588.154-1.44 3.008-21.622-.098c-4.22-3.162-9.042-1.701-14.543.098 0 0-16.554.173-23.063 0zm-20.812 12.746 33.01 52.31-7.297-.082-31.346-49.209zm-6.617 3.408 31.164 48.89c-1.43-.032-2.758.056-4.188.034.58-9.131-6.739-13.413-11.039-13.631 2.58-10.678-5.175-15.171-10.348-16.02 2.098-13.877-9.345-15.844-9.511-15.705.056-1.139-.158-1.96-.31-2.91 1.378-.059 2.77-.187 4.232-.658zm-5.05.773c-.066.294.588 3.06-.644 2.551l-.088-2.545zm-8.009.016 1.45.059c.444 1.838 1.385 2.202 2.663 3.435 0 0-1.634.28-2.013.018-.68-.472-2.1-3.512-2.1-3.512zm6.322 3.166c.79 0 1.43.646 1.43 1.44a1.429 1.429 0 1 1-2.857 0c0-.794.637-1.44 1.427-1.44zm2.832 1.106c4.1-.27 10.044 4.143 8.477 12.404-.273-.577-.595-1.846-1.26-2.746-2.826-3.826-6.155 1.417-3.912 3.556 1.1 1.05 1.615 1.464 1.496 1.559-2.526-.481-4.44 1.765-3.389 4.258 1.753 3.226 4.189 1.517 5.598-.397 0 0 .868 2.887 1.73 3.254 1.321.562 3.144-.15 3.764-1.752.924-2.383-1.322-2.993-1.816-4.32 4.742.155 10.784 7.112 8.035 13.146.36-1.375-1.108-4.456-3.963-3.662-1.427.5-1.924 2.587-.773 4.733.368.686.566.943.566.943s-1.234.163-1.559.363c-3.704 2.29 1.072 8.539 3.829 4.633.28-.464.742-.994.742-.994.455.87.595 2.094 1.426 2.514 3.413 1.725 4.934-1.916 3.5-3.701-.808-1.006-1.72-2.166-1.72-2.166-.141-.643 10.23 2.088 8.968 12.218l-27.498-.037c2.548-15.562-3.622-33.365-6.772-38.79l1.363-1.81c.342.673.911 2.368 1.914 2.692 3.19 1.03 4.162-1.21 3.735-3.512-.228-1.225-1.938-2.208-2.48-2.384zm7.282 14.644c.75 0 1.357.614 1.357 1.367a1.36 1.36 0 0 1-1.357 1.364c-.75 0-1.362-.61-1.362-1.364 0-.753.612-1.367 1.362-1.367zm10.32 16.213c.757 0 1.371.616 1.371 1.377 0 .76-.614 1.377-1.371 1.377a1.374 1.374 0 0 1-1.371-1.377c0-.76.613-1.377 1.37-1.377z" style="fill:#000;stroke-width:.165357" transform="matrix(.9375 0 0 .9375 1829.582 -804.174)"/></g><path d="M3532.665-810.146c9.774-.213 14.157-11.218 6.918-19.763-1.05-1.247-1.158-1.962.765-.765 4.874 3.26 14.22 1.117 14.698-8.847.59-12.277-16.563-15.815-19.784-2.76-.17 1.377-1.29 1.346-1.02-.61.294-5.306 1.951-10.265 4.229-15.102h-11.62c2.278 4.837 3.935 9.796 4.229 15.103.27 1.955-.85 1.986-1.02.609-3.22-13.055-20.375-9.517-19.784 2.76.479 9.964 9.824 12.106 14.698 8.847 1.923-1.197 1.815-.482.765.765-7.24 8.545-2.856 19.55 6.918 19.763h.01z" style="opacity:1;fill:#000"/><path d="M3429.594-1055.78c9.774.213 14.157 11.218 6.918 19.764-1.05 1.247-1.158 1.962.765.765 4.874-3.26 14.22-1.117 14.698 8.847.591 12.277-16.563 15.814-19.784 2.76-.17-1.378-1.29-1.346-1.02.609.294 5.306 1.951 10.266 4.23 15.102h-11.621c2.278-4.836 3.935-9.796 4.229-15.102.27-1.955-.85-1.987-1.02-.61-3.22 13.055-20.375 9.518-19.784-2.76.479-9.963 9.824-12.106 14.698-8.846 1.923 1.197 1.815.482.765-.765-7.24-8.546-2.856-19.551 6.918-19.763h.01z" style="opacity:1;fill:#000;stroke-width:1;stroke-miterlimit:4;stroke-dasharray:none"/></g><g transform="translate(-313.572 132.758)"><rect width="1659.913" height="794.398" x="-356.473" y="-1029.682" rx="144.482" ry="124.682" style="opacity:1;vector-effect:none;fill:#006614;fill-opacity:1;stroke:none;stroke-width:1.74801;stroke-linecap:butt;stroke-linejoin:miter;stroke-miterlimit:4;stroke-dasharray:none;stroke-dashoffset:0;stroke-opacity:1"/><text xml:space="preserve" x="472.194" y="-935.813" style="font-style:normal;font-variant:normal;font-weight:400;font-stretch:normal;font-size:42.6667px;line-height:125%;font-family:Carlito;-inkscape-font-specification:&quot;Carlito, Normal&quot;;text-align:center;letter-spacing:0;word-spacing:0;writing-mode:lr-tb;text-anchor:middle;fill:#fff;fill-opacity:1;stroke:none;stroke-width:1.06667px;stroke-linecap:butt;stroke-linejoin:miter;stroke-opacity:1"><tspan x="472.194" y="-935.813" style="font-style:normal;font-variant:normal;font-weight:400;font-stretch:normal;font-size:48px;line-height:125%;font-family:Carlito;-inkscape-font-specification:&quot;Carlito, Normal&quot;;text-align:center;writing-mode:lr-tb;text-anchor:middle;fill:#fff;fill-opacity:1;stroke-width:1.06667px">Single Playing Card from:</tspan><tspan x="472.194" y="-875.813" style="font-style:normal;font-variant:normal;font-weight:400;font-stretch:normal;font-size:48px;line-height:125%;font-family:Carlito;-inkscape-font-specification:&quot;Carlito, Normal&quot;;text-align:center;writing-mode:lr-tb;text-anchor:middle;fill:#fff;fill-opacity:1;stroke-width:1.06667px">Standard Edition - Color Set - Bordered </tspan><tspan x="472.194" y="-762.48" style="font-style:normal;font-variant:normal;font-weight:400;font-stretch:normal;font-size:48px;line-height:125%;font-family:Carlito;-inkscape-font-specification:&quot;Carlito, Normal&quot;;text-align:center;writing-mode:lr-tb;text-anchor:middle;fill:#faa;fill-opacity:1;stroke-width:1.06667px">Copyright 2011, 2020 - Chris Aguilar - conjurenation@gmail.com</tspan><tspan x="472.194" y="-649.147" style="font-style:normal;font-variant:normal;font-weight:400;font-stretch:normal;font-size:48px;line-height:125%;font-family:Carlito;-inkscape-font-specification:&quot;Carlito, Normal&quot;;text-align:center;writing-mode:lr-tb;text-anchor:middle;fill:#fff;fill-opacity:1;stroke-width:1.06667px">https://totalnonsense.com/open-source-vector-playing-cards/</tspan><tspan x="472.194" y="-535.813" style="font-style:normal;font-variant:normal;font-weight:400;font-stretch:normal;font-size:48px;line-height:125%;font-family:Carlito;-inkscape-font-specification:&quot;Carlito, Normal&quot;;text-align:center;writing-mode:lr-tb;text-anchor:middle;fill:#faa;fill-opacity:1;stroke-width:1.06667px">Licensed under:</tspan><tspan x="472.194" y="-475.813" style="font-style:normal;font-variant:normal;font-weight:400;font-stretch:normal;font-size:48px;line-height:125%;font-family:Carlito;-inkscape-font-specification:&quot;Carlito, Normal&quot;;text-align:center;writing-mode:lr-tb;text-anchor:middle;fill:#faa;fill-opacity:1;stroke-width:1.06667px">LGPL 3.0</tspan><tspan x="472.194" y="-415.813" style="font-style:normal;font-variant:normal;font-weight:400;font-stretch:normal;font-size:48px;line-height:125%;font-family:Carlito;-inkscape-font-specification:&quot;Carlito, Normal&quot;;text-align:center;writing-mode:lr-tb;text-anchor:middle;fill:#faa;fill-opacity:1;stroke-width:1.06667px">https://www.gnu.org/licenses/lgpl-3.0.html</tspan><tspan x="472.194" y="-302.48" style="font-style:normal;font-variant:normal;font-weight:400;font-stretch:normal;font-size:48px;line-height:125%;font-family:Carlito;-inkscape-font-specification:&quot;Carlito, Normal&quot;;text-align:center;writing-mode:lr-tb;text-anchor:middle;fill:#fff;fill-opacity:1;stroke-width:1.06667px">Each Card Measures (63mm x 88mm)</tspan></text></g></svg>