<svg xmlns="http://www.w3.org/2000/svg" id="svg8" width="238.111" height="332.599" version="1.1"><g id="layer1" transform="translate(-312.057 -2.847)"><g id="CLUB-7" transform="matrix(1.07145 0 0 1.07009 -1883.22 1167.5)"><rect id="rect6355-6-85-3-1-8-1" width="222.232" height="310.814" x="2048.884" y="-1088.37" rx="10.63" ry="10.63" style="display:inline;opacity:1;fill:#fff;fill-opacity:1;stroke:none;stroke-width:.996734;stroke-miterlimit:4;stroke-dasharray:none;stroke-opacity:1"/><path id="path147-0-8-1-6-13-2-0-1-5" d="M2211.531-1055.365c-9.774.212-14.157 11.217-6.918 19.764 1.05 1.246 1.158 1.961-.765.764-4.874-3.26-14.219-1.117-14.698 8.847-.59 12.277 16.563 15.815 19.784 2.76.17-1.377 1.29-1.346 1.02.61-.294 5.306-1.951 10.265-4.229 15.102h11.62c-2.277-4.837-3.935-9.796-4.228-15.103-.27-1.955.85-1.986 1.02-.609 3.22 13.055 20.374 9.517 19.783-2.76-.479-9.964-9.824-12.106-14.698-8.847-1.923 1.197-1.814.482-.765-.764 7.24-8.546 2.857-19.551-6.918-19.764h-.01z" style="display:inline;opacity:1"/><path id="path147-0-8-1-6-75-2-83-2-0-7" d="M2108.46-1055.365c-9.774.212-14.157 11.217-6.918 19.764 1.05 1.246 1.158 1.961-.765.764-4.873-3.26-14.219-1.117-14.697 8.847-.591 12.277 16.563 15.815 19.783 2.76.17-1.377 1.29-1.346 1.02.61-.294 5.306-1.951 10.265-4.229 15.102h11.62c-2.277-4.837-3.934-9.796-4.228-15.103-.27-1.955.85-1.986 1.02-.609 3.22 13.055 20.374 9.517 19.783-2.76-.478-9.964-9.824-12.106-14.698-8.847-1.923 1.197-1.814.482-.764-.764 7.239-8.546 2.856-19.551-6.919-19.764h-.01z" style="display:inline;opacity:1"/><path id="path147-0-8-1-6-7-5-5-7-7-7-6" d="M2211.531-809.732c-9.774-.212-14.157-11.217-6.918-19.763 1.05-1.246 1.158-1.962-.765-.764-4.874 3.259-14.219 1.116-14.698-8.848-.59-12.277 16.563-15.814 19.784-2.76.17 1.378 1.29 1.346 1.02-.609-.294-5.306-1.951-10.266-4.229-15.102h11.62c-2.277 4.836-3.935 9.796-4.228 15.102-.27 1.956.85 1.987 1.02.61 3.22-13.055 20.374-9.518 19.783 2.76-.479 9.963-9.824 12.106-14.698 8.847-1.923-1.198-1.814-.482-.765.764 7.24 8.546 2.857 19.551-6.918 19.763h-.01z" style="display:inline;opacity:1"/><path id="path147-0-8-1-6-75-6-1-2-9-1-9" d="M2108.46-809.732c-9.774-.212-14.157-11.217-6.918-19.763 1.05-1.246 1.158-1.962-.765-.764-4.873 3.259-14.219 1.116-14.697-8.848-.591-12.277 16.563-15.814 19.783-2.76.17 1.378 1.29 1.346 1.02-.609-.294-5.306-1.951-10.266-4.229-15.102h11.62c-2.277 4.836-3.934 9.796-4.228 15.102-.27 1.956.85 1.987 1.02.61 3.22-13.055 20.374-9.518 19.783 2.76-.478 9.963-9.824 12.106-14.698 8.847-1.923-1.198-1.814-.482-.764.764 7.239 8.546 2.856 19.551-6.919 19.763h-.01z" style="display:inline;opacity:1"/><path id="path147-0-8-1-6-2-00-7-2-3-4" d="M2159.996-1005.918c-9.774.212-14.157 11.217-6.918 19.763 1.05 1.247 1.158 1.962-.765.765-4.874-3.26-14.22-1.117-14.698 8.847-.59 12.277 16.563 15.814 19.784 2.76.17-1.378 1.29-1.346 1.02.609-.294 5.306-1.951 10.266-4.23 15.103h11.621c-2.278-4.837-3.935-9.797-4.229-15.103-.27-1.955.85-1.987 1.02-.61 3.22 13.055 20.375 9.518 19.784-2.759-.479-9.964-9.824-12.106-14.698-8.847-1.923 1.197-1.815.482-.765-.765 7.24-8.546 2.856-19.55-6.918-19.763h-.01z" style="display:inline;opacity:1"/><path id="path147-0-8-1-6-7-5-7-3-0-1-7-4" d="M2211.531-956.471c-9.774.212-14.157 11.217-6.918 19.763 1.05 1.246 1.158 1.962-.765.764-4.874-3.259-14.219-1.116-14.698 8.848-.59 12.277 16.563 15.814 19.784 2.76.17-1.378 1.29-1.347 1.02.608-.294 5.307-1.951 10.267-4.229 15.103h11.62c-2.277-4.836-3.935-9.796-4.228-15.103-.27-1.955.85-1.986 1.02-.609 3.22 13.055 20.374 9.518 19.783-2.76-.479-9.963-9.824-12.106-14.698-8.847-1.923 1.198-1.814.482-.765-.764 7.24-8.546 2.857-19.551-6.918-19.763h-.01z" style="display:inline;opacity:1"/><path id="path147-0-8-1-6-75-6-6-5-3-9-6-0" d="M2108.46-956.471c-9.774.212-14.157 11.217-6.918 19.763 1.05 1.246 1.158 1.962-.765.764-4.873-3.259-14.219-1.116-14.697 8.848-.591 12.277 16.562 15.814 19.783 2.76.17-1.378 1.29-1.347 1.02.608-.294 5.307-1.951 10.267-4.229 15.103h11.62c-2.277-4.836-3.935-9.796-4.228-15.103-.27-1.955.85-1.986 1.02-.609 3.22 13.055 20.374 9.518 19.783-2.76-.478-9.963-9.824-12.106-14.698-8.847-1.923 1.198-1.814.482-.764-.764 7.239-8.546 2.856-19.551-6.919-19.763h-.01z" style="display:inline;opacity:1"/><path id="path147-6-9-8-7-0-5-6-8-4-3" d="M2253.978-827.37c3.91-.088 5.663-4.673 2.767-8.234-.42-.52-.463-.817.306-.318 1.95 1.358 5.688.465 5.88-3.687.236-5.115-6.626-6.59-7.914-1.15-.068.574-.516.561-.408-.253.117-2.211.78-4.278 1.691-6.293h-4.648c.912 2.015 1.574 4.082 1.692 6.293.108.814-.34.827-.408.253-1.288-5.44-8.15-3.965-7.913 1.15.191 4.152 3.93 5.045 5.879 3.687.769-.5.726-.201.306.318-2.896 3.561-1.143 8.146 2.767 8.235z" style="display:inline;opacity:1"/><path id="path147-6-9-8-7-4-5-62-5-2-9" d="M2066.023-1038.556c-3.91.088-5.663 4.674-2.768 8.235.42.519.464.817-.305.318-1.95-1.358-5.688-.465-5.88 3.686-.236 5.116 6.626 6.59 7.914 1.15.068-.574.516-.56.408.254-.118 2.211-.78 4.278-1.692 6.293h4.648c-.91-2.015-1.574-4.082-1.691-6.293-.108-.814.34-.828.408-.254 1.288 5.44 8.15 3.966 7.913-1.15-.191-4.151-3.93-5.044-5.879-3.686-.77.5-.726.201-.306-.318 2.896-3.561 1.142-8.147-2.767-8.235z" style="display:inline;opacity:1"/><path id="path25-6-8-8" d="M2060.973-1041.685c2.16-11.437 4.46-20.023 10.5-29.34h-12.275v4.01h-3.26v-7.561h17.955l2.214 3.55c-6.414 7.01-12.284 29.672-11.244 29.34zm0 0" style="opacity:1"/><path id="path25-7-7-3-9" d="M2259.025-824.24c-2.16 11.436-4.46 20.022-10.5 29.34h12.275v-4.01h3.26v7.56h-17.955l-2.214-3.55c6.414-7.01 12.284-29.672 11.244-29.34zm0 0" style="opacity:1"/></g></g><g id="g862" transform="translate(-273.594 92.78)"><rect id="rect22845-2" width="1659.913" height="794.398" x="-356.473" y="-1029.682" rx="144.482" ry="124.682" style="opacity:1;vector-effect:none;fill:#006614;fill-opacity:1;stroke:none;stroke-width:1.74801;stroke-linecap:butt;stroke-linejoin:miter;stroke-miterlimit:4;stroke-dasharray:none;stroke-dashoffset:0;stroke-opacity:1"/><text xml:space="preserve" id="text5630-0" x="472.194" y="-935.813" style="font-style:normal;font-variant:normal;font-weight:400;font-stretch:normal;font-size:42.6667px;line-height:125%;font-family:Carlito;-inkscape-font-specification:&quot;Carlito, Normal&quot;;text-align:center;letter-spacing:0;word-spacing:0;writing-mode:lr-tb;text-anchor:middle;fill:#fff;fill-opacity:1;stroke:none;stroke-width:1.06667px;stroke-linecap:butt;stroke-linejoin:miter;stroke-opacity:1"><tspan id="tspan4923" x="472.194" y="-935.813" style="font-style:normal;font-variant:normal;font-weight:400;font-stretch:normal;font-size:48px;line-height:125%;font-family:Carlito;-inkscape-font-specification:&quot;Carlito, Normal&quot;;text-align:center;writing-mode:lr-tb;text-anchor:middle;fill:#fff;fill-opacity:1;stroke-width:1.06667px">Single Playing Card from:</tspan><tspan id="tspan5035" x="472.194" y="-875.813" style="font-style:normal;font-variant:normal;font-weight:400;font-stretch:normal;font-size:48px;line-height:125%;font-family:Carlito;-inkscape-font-specification:&quot;Carlito, Normal&quot;;text-align:center;writing-mode:lr-tb;text-anchor:middle;fill:#fff;fill-opacity:1;stroke-width:1.06667px">Standard Edition - Color Set - Bordered </tspan><tspan id="tspan4927" x="472.194" y="-762.48" style="font-style:normal;font-variant:normal;font-weight:400;font-stretch:normal;font-size:48px;line-height:125%;font-family:Carlito;-inkscape-font-specification:&quot;Carlito, Normal&quot;;text-align:center;writing-mode:lr-tb;text-anchor:middle;fill:#faa;fill-opacity:1;stroke-width:1.06667px">Copyright 2011, 2020 - Chris Aguilar - conjurenation@gmail.com</tspan><tspan id="tspan4931" x="472.194" y="-649.147" style="font-style:normal;font-variant:normal;font-weight:400;font-stretch:normal;font-size:48px;line-height:125%;font-family:Carlito;-inkscape-font-specification:&quot;Carlito, Normal&quot;;text-align:center;writing-mode:lr-tb;text-anchor:middle;fill:#fff;fill-opacity:1;stroke-width:1.06667px">https://totalnonsense.com/open-source-vector-playing-cards/</tspan><tspan id="tspan4919" x="472.194" y="-535.813" style="font-style:normal;font-variant:normal;font-weight:400;font-stretch:normal;font-size:48px;line-height:125%;font-family:Carlito;-inkscape-font-specification:&quot;Carlito, Normal&quot;;text-align:center;writing-mode:lr-tb;text-anchor:middle;fill:#faa;fill-opacity:1;stroke-width:1.06667px">Licensed under:</tspan><tspan id="tspan1594-5" x="472.194" y="-475.813" style="font-style:normal;font-variant:normal;font-weight:400;font-stretch:normal;font-size:48px;line-height:125%;font-family:Carlito;-inkscape-font-specification:&quot;Carlito, Normal&quot;;text-align:center;writing-mode:lr-tb;text-anchor:middle;fill:#faa;fill-opacity:1;stroke-width:1.06667px">LGPL 3.0</tspan><tspan id="tspan12253-3" x="472.194" y="-415.813" style="font-style:normal;font-variant:normal;font-weight:400;font-stretch:normal;font-size:48px;line-height:125%;font-family:Carlito;-inkscape-font-specification:&quot;Carlito, Normal&quot;;text-align:center;writing-mode:lr-tb;text-anchor:middle;fill:#faa;fill-opacity:1;stroke-width:1.06667px">https://www.gnu.org/licenses/lgpl-3.0.html</tspan><tspan id="tspan5033" x="472.194" y="-302.48" style="font-style:normal;font-variant:normal;font-weight:400;font-stretch:normal;font-size:48px;line-height:125%;font-family:Carlito;-inkscape-font-specification:&quot;Carlito, Normal&quot;;text-align:center;writing-mode:lr-tb;text-anchor:middle;fill:#fff;fill-opacity:1;stroke-width:1.06667px">Each Card Measures (63mm x 88mm)</tspan></text></g></svg>