<svg xmlns="http://www.w3.org/2000/svg" id="svg8" width="238.111" height="332.599" version="1.1"><g id="layer1" transform="translate(-2040.72 -2.847)"><g id="CLUB-13-KING" transform="matrix(1.07145 0 0 1.07009 -1853.18 1167.5)"><rect id="rect6355-6-85-3-64-3-5" width="222.232" height="310.814" x="3634.234" y="-1088.37" rx="10.63" ry="10.63" style="display:inline;opacity:1;fill:#fff;fill-opacity:1;stroke:none;stroke-width:.996734;stroke-miterlimit:4;stroke-dasharray:none;stroke-opacity:1"/><path id="path147-6-9-8-7-0-5-6-9-6-3" d="M3839.328-827.37c3.91-.088 5.663-4.673 2.768-8.234-.42-.52-.463-.817.306-.318 1.95 1.358 5.687.465 5.879-3.687.236-5.115-6.625-6.59-7.914-1.15-.068.574-.516.561-.408-.253.118-2.211.78-4.278 1.692-6.293h-4.648c.911 2.015 1.574 4.082 1.691 6.293.109.814-.34.827-.407.253-1.289-5.44-8.15-3.965-7.914 1.15.192 4.152 3.93 5.045 5.88 3.687.768-.5.725-.201.305.318-2.896 3.561-1.142 8.146 2.767 8.235z" style="display:inline;opacity:1"/><path id="path147-6-9-8-7-4-5-62-08-0-2" d="M3651.374-1038.556c-3.91.088-5.663 4.674-2.768 8.235.42.519.463.817-.306.318-1.95-1.358-5.687-.465-5.879 3.686-.236 5.116 6.625 6.59 7.914 1.15.068-.574.515-.56.407.254-.117 2.211-.78 4.278-1.691 6.293h4.648c-.911-2.015-1.574-4.082-1.692-6.293-.108-.815.34-.828.408-.254 1.289 5.44 8.15 3.966 7.914-1.15-.192-4.151-3.93-5.044-5.88-3.686-.769.499-.725.201-.305-.318 2.895-3.561 1.142-8.147-2.767-8.235z" style="display:inline;opacity:1"/><path id="path39-7-2-1" d="M3652.167-1045.305h3.305l-4.855-12.146-3.709 5.13.026 7.016h2.605v3.618h-9.18v-3.618h3.024v-26.12l-3.024.012v-3.163h9.314v3.27h-2.57l-.055 12.73 8.13-12.837h-2.87v-3.163h9.91v3.163h-2.615l-6.694 10.49 6.555 15.624h2.91l.014 3.618h-10.19zm0 0" style="opacity:1"/><path id="path39-3-8-1-1" d="M3838.532-820.62h-3.305l4.855 12.146 3.709-5.131-.026-7.015h-2.605v-3.618h9.18v3.618h-3.024v26.12l3.024-.012v3.163h-9.314v-3.27h2.57l.055-12.73-8.13 12.837h2.87v3.163h-9.91v-3.163h2.615l6.694-10.49-6.555-15.624h-2.91l-.014-3.618h10.19zm0 0" style="opacity:1"/><g id="g5429-3-1-8" transform="matrix(1.01465 0 0 1.02416 3367.12 -1472.46)"><g id="layer1-6-4-4-1"><g id="KC-7-1-9" style="display:inline" transform="translate(-735.7 -760.445)"><g id="g3440-6-4-8" style="display:inline" transform="matrix(.15087 -.00312 .00312 .15083 965.017 1197.84)"><g id="g3454-7-1-1" transform="translate(346.104 401.331)"><path id="path3450-5-0-3" d="m4797.469-237.312-533.75 2.593 67.781 128.407c138.724-12.477 260.293-1.382 386.938 2.75zm-364.532 451.468c-.556.748-22.205 6.338-20 11.25 56.525 121 81.77 219.456 105.376 343.813 11.931-9.683 31.233-9.294 31.233-9.294-9.522-46.18 48.702-51.939 49.082-3.625 11.177 2.592 22.673 2.63 32.762 13.92 4.534-135.897 56.178-280.106 119.163-377.533-71.78 28.403-179.96 102.798-179.96 102.798s-87.638-36.19-137.655-81.329m436.282 14.469c-95.528 90.664-130.171 334.189-126.063 345.813-123.135-4.108-160.455 131.603-53.719 204.78-4.218 14.194-14.642 25.742-22.718 38.282 11.008 6.302 23.027 7.648 35.031 8.969 9.114 10.796 18.073 23.255 27.969 24.281 10.738-6.763 18.369-16.66 27.312-25.219 11.158-2.838 22.225-5.979 32.813-10.812-9.379-13.081-20.496-26.308-20.782-38.563 92.803-65.404 80.067-154.345-3.593-199.875 12.378-156.264 58.576-246.855 103.468-313.5zm-657.907 115.719c-12.135 5.92-18.756 18.414-27.562 28.219-12.09.55-23.733 4.679-35.25 9.812 0 0 27.682 38.225 25.969 40.281-89.76 58.768-89.027 144.668-2.844 201.25 14.6 122.251-89.315 315.716-94.562 310.094l-.188 40c73.956-80.8 116.194-226.745 120.406-344.594 147.692-9.829 152.924-152.471 51.25-206.125-7.816-7.165 25.563-40.312 25.563-40.312-8.474-8.341-22.65-9.288-35.063-10.313-7.831-9.355-14.66-18.682-27.718-28.312M4941.4 450.609c9.387 16.579 35.148 29.978 37.851-1.14-4.396-23.378-19.792-28.56-80.875-18.375-35.996 15.99-31.799-26.08-49.506-9.597-57.418 53.447 91.344 47.593 92.53 29.112m-34.579 60.213c-17.125-.016-20.038 66.924-19.789 87.022-49.584 78.276 101.715 69.378 36.284-15.895 2.849-8.793-7.4-25.422-8.048-37.343-5.362-.683-7.717-30.907-8.447-33.784m-885.57 100.96c-1.569 20.246 13.275 81.69 18.785 79.607 19.388-31.213 17.082-57.91 15.078-88.393 46.181-88.826-111.54-52.369-33.863 8.785m287.875 14.28c-6.89 130.744-38.935 259.023-111.542 370.266 62.5-29.122 123.157-66.695 181.855-98.86l137.165 84.877c7.944-3.447 13.444-5.143 18.71-10.345-63.21-92.42-82.774-225.444-110.313-345.781-10.48 7.426-30.187 11.156-30.187 11.156-1.41 41.739-45.203 55.266-54.147.83zm-331.062 102c-14.632.927-25.634 37.137 15.812 42.5 29.249 4.136 66.703-10.26 85.281-3.593 21.601 34.445 40.993-16.26 12.125-24.532-31.01-8.886-94.17 14.296-101.156-5.406-3.591-6.727-7.966-9.228-12.062-8.968m248.78 566.313-82.75 146.125 529.063-3.187L4604 1297.937c1.182-1.546-231.07 27.607-377.156-3.562" style="fill:#ffcd00;fill-opacity:1" transform="matrix(.99957 .02064 -.02065 .99979 -3870.09 -482.784)"/><path id="path3446-6-3-4" d="M2045.158-254.775c-8.86.07-18.036.99-27.718 3.11l1.712 3.136c20.234-3.365 36.168-3.89 57.102.191l1.91-3.264c-10.748-1.954-21.615-3.265-33.006-3.173m-6.619 45.677s-1.337 3.027-2.014 4.639l17.659 11.53s8.456-6.031 12.06-8.583l-2.187-3.244c-7.468 16.615-20.596 3.476-25.518-4.342m52.242 1.178-5.248 3.195c-12.087 18.143-20.344 40.992-19.685 70.873 4.466-5.156 10.012-8.466 17.72-8.003.98-21.607 8.404-40.82 20.293-58.13zm-1.326 6.55c.782-.053 1.663.169 2.527.75 1.998 1.346 1.91 4.603-.273 5.206-1.763.487-1.809.953-.26.877 2.78-.137 3.519 3.606 1.541 5.435-2.273 2.104-5.173.614-5.437-2.025-.122-.746-.277-.735-.522-.312-.701 1.217-.765 2.8-.629 4.232l-4.107-2.57c1.462-.73 2.353-1.172 3.41-2.28.138-.144.242-.251.24-.314 0-.113-.456.039-1.293.127-2.48.26-4.39-1.362-3.88-3.719.432-2.005 1.462-2.88 3.181-2.918 1.224-.026 1.9.45 2.516 1.707.694 1.42.96 1.069.513-.701-.484-1.919.754-3.376 2.473-3.494m-121.646 17.03s-8.855 6.693-12.97 9.926l.2 59.578c1.236-.452 3.062-2.058 4.121-2.64-2.462-2.196-1.827-3.883-2.314-5.504-1.106-1.714-.094-2.99-.278-4.065-.27-7.6 1.1-8.6 7.204-9.287-1.287.469-4.54-9.513 4.255-9.463zm111.709 3.322c3.313-.048 6.037 2.621 6.086 5.965.048 3.345-2.6 6.094-5.913 6.143s-6.04-2.623-6.087-5.967c-.048-3.344 2.6-6.092 5.914-6.14m.055 1.082c-2.653.04-4.77 2.239-4.73 4.916.037 2.678 2.217 4.82 4.87 4.782 2.653-.04 4.775-2.244 4.736-4.922s-2.224-4.814-4.876-4.776m.125 1.538c1.799-.027 3.28 1.422 3.306 3.238s-1.414 3.313-3.213 3.34-3.274-1.429-3.3-3.244c-.027-1.816 1.408-3.308 3.207-3.334m-119.096 2.488c.244-.004.502.033.765.117 1.496.48 2.02 1.809 1.21 3.068-.637.99-.565 1.074.548.657.876-.329 1.323-.225 2.014.464 2.07 2.069-1.013 5.547-3.04 3.44-1.003-1.043-1.097-.736-.401 1.057.225.58.597 1.482.597 1.482l-2.97-.045s.46-1.194.673-1.758c.514-1.358.531-1.557-.54-.703-2.418 1.927-5.158-1.37-2.934-3.527.452-.439 1.178-.457 2.187-.057q1.103.44.274-.611c-1.202-1.524-.091-3.554 1.617-3.584m119.17.058a.85.85 89.753 0 0-.848.848.85.85 89.753 0 0 .848.848.85.85 89.753 0 0 .847-.848.85.85 89.753 0 0-.847-.848m-57.783 4.532c-1.209 7.984.034 19.938.01 25.925 3.22.62 3.257 2.834 3.751 5.586 1.566-.55 4.99 1.784 5.46 1.579.37-7.724-3.87-28.591-9.22-33.09zm53.636 8.752c4.573.37 3.696 3.934 2.334 5.398-.645.751-.525 1.088.184.656 1.931-1.177 3.463-.325 4.086 1.703 1.063 3.466-3.45 6.451-5.463 3.34-.682-1.054-1.099-.815-.932.287.103 1.063 1.131 3.266 1.131 3.266l-4.486-.406s1.37-2.302 1.611-2.922c.5-1.286.236-1.629-.723-.592-2.806 2.592-6.694-.726-4.882-4.162.893-1.694 2.54-2.242 4.32-.893 1.199.79 1.457.447.385-.511-2.004-1.79-.257-5.382 2.435-5.164m46.524 1.44c-5.03 5.245-3.452 2.145-1.12 6.144 1.254 6.873-.299 6.98-.105 10.26.387 4.407-3.711 5.136-7.344 5.87.588-.039 5.62 9.346-3.77 10.08l.108 38.149 14.721-10.955-.062-59.549zm-161.178 1.386c.384.007.788.116 1.19.344 1.114.632 1.42 1.88.72 2.966-.402.625-.284 1.018.184.61.625-.547 2.006-.182 2.545.67 1.383 2.187-1.319 5.047-3.045 3.226-.762-.804-1.055-.836-.967-.308.248.99.895 2.681.895 2.681l-3.108.055s.671-1.778.82-2.68c.115-.713-.168-.609-.908.235-.72.82-1.373.905-2.29.29-2.266-1.514-.452-5.404 1.91-4.097.813.45.926.19.29-.658-1.135-1.515.024-3.253 1.612-3.33q.074-.004.152-.004m50.705 18.756c-3.715 2.97-9.754 9.656-17.41 8.025-.892 23.802-8.631 42.229-19.67 58.065 3.811 2.274 8.006 5.004 11.904 6.753 3.296-1.715 5.145-2.43 8.38-5.117 13.27-20.692 17.479-43.312 16.796-67.726m34.654 4.353c.745 12.224 2.716 23.8 9.016 33.086l.428-25.978c-2.245-.543-4.085-2.007-4.74-6.16zm-45.529 7.211 4.21.1s-.955 1.92-1.368 2.994c-.502 1.312-.265 1.58.695.668 1.25-1.187 3.241-1.298 4.29-.238 2.781 2.813-.128 7.397-3.419 5.386-1.409-.86-1.645-.572-.527.647 2.175 2.036-.095 4.97-2.637 4.982-1.837-.008-3.03-1.49-3.174-3.123-.07-1.028.441-2.06 1.325-2.56.92-.523.262-.862-.739-.319-3.267 1.775-5.454-2.783-2.988-5.377 1.422-1.495 2.926-1.357 4.371.07q1.513 1.498 1.086-.269c-.287-1.327-1.125-2.96-1.125-2.96m113.635 3.576 3.015.004c-.296.754-.679 1.521-.92 2.266-.259.811-.07.915.73.13 2.078-1.408 4.296.002 3.845 2.233-.311 1.54-1.59 2.296-3.065 1.627-1.3-.59-.882-.338-.142.56.88 1.07.655 2.316-.508 3.141-2.059 1.46-4.776-.966-3.414-3.084.803-1.259.434-1.122-.297-.513-1.097.81-2.757-.336-2.79-1.926-.126-2.287 2.163-3.576 3.776-1.957.768.653.959.574.612-.375-.318-.69-.42-1.43-.842-2.106zm3.322 16.6s-.044.245-.531 1.168c-.572 1.085-.484 2.207.113 1.445 1.008-1.286 3.15-.927 3.852.645.817 1.83-.777 3.853-2.432 3.084-1.075-.5-1.148-.392-.434.65.696 1.014.388 2.26-.742 2.988-2.22 1.43-4.882-1.424-3.033-3.252.495-.489.34-.727-.26-.398-2.45 1.344-4.26-1.998-2.14-3.955.902-.834 1.592-.775 3.076.26.462.322.551-.01.219-.828-.567-1.393-.85-1.77-.85-1.77zm-120.508 2.037c3.518-.052 6.408 2.783 6.46 6.334.05 3.551-2.756 6.474-6.274 6.525s-6.414-2.786-6.465-6.337c-.051-3.552 2.761-6.47 6.28-6.522m.072 1.148c-2.89.043-5.2 2.439-5.158 5.356s2.42 5.25 5.31 5.207c2.89-.042 5.2-2.444 5.159-5.361-.042-2.918-2.42-5.244-5.31-5.202m.061 2.03c1.78-.026 3.24 1.405 3.266 3.2.026 1.797-1.393 3.278-3.172 3.304s-3.246-1.411-3.271-3.207c-.026-1.796 1.398-3.271 3.177-3.297m.041 2.527a.85.85 0 0 0-.847.848.85.85 0 0 0 .847.847.85.85 0 0 0 .848-.847.85.85 0 0 0-.848-.848m-8.049 13.05 3.678 1.815s-1.74 1.429-2.431 2.164c-.885.948-.824 1.393.37.94 2.278-.865 4.56.43 4.602 2.816.057 3.185-3.675 4.716-5.467 2.305-.532-.717-1.169-1.013-.92-.428.607 1.425.237 3.22-.82 3.957-.846.59-2.393.764-3.174.356-2.684-1.405-2.825-4.527-.257-5.76 1.29-.62 1.334-1.202.064-.883-2.644.665-4.184-2.563-2.278-4.781 2.024-2.355 5.323-1.869 5.688 1.615.065.62.483.172.67-.777.224-.706.275-3.338.275-3.338zm34.28 5.24-13.057 8.06 2.984 4.174c6.682-15.28 22.683-2.626 25.247 5.175.556.346.65.248 1.253.522.057-.55 1.168-5.97 1.168-5.97zm34.527 56.18c-22.047 5.677-56.943.641-56.601.241l-2.17 3.12c-.75.32 33.572 6.187 60.644.228z" style="fill:#c8102e;fill-opacity:1;stroke-width:.164046" transform="matrix(6.12174 .12643 -.12526 6.0662 -11912 786.077)"/><path id="path3444-9-5-7" d="M1952.695-277.727v280.7h174.153v-280.7Zm139.653 1.83-16.162 27.926c.154-1.472-31.42-5.984-57.227-.478l-14.049-27.108zm31.15.458.512 113.996 1.07 59.752-15.107 11.105-.221-38.277s-2.164-1.043-2.73-1.114c-.213-.016-.489.464-.104.711.555.357 1.922.858 1.922.858l.32 37.937c-12.288 8.901-27.64 15.102-39.318 20.006-.957-3.185-10.403-10.627-21.024-5.367-.972.364-2.174.68-2.986 1.248-4.047.746-5.38 5.113-5.992 9.36-.021.167.32.13.332.146.044.061.963-4.075 1.328-4.858.78-1.67 1.763-2.672 2.283-2.83.238-.04.445.334.123.922-.64 1.17-1.16 3.656-1.316 4.778-.139 1.035-.166 1.866.025 1.902.034.033.94-3.134 1.348-4.252 1.063-2.914 1.733-4.12 2.757-4.742 1.05-.638 1.3-.547 1.092.13-1.563 3.077-2.207 5.402-2.514 8.678-.047.654.283.672.541-.41.857-3.44 2.03-8.091 4.807-9.48 1.185-.54 1.711-.515 1.584-.13-3.306 4.215-4.133 8.895-4.094 10.405.013.504.215.406.639-.685 1.12-4.154 2.78-7.687 4.75-9.42.762-.67 1.684-.855 2.457-.951 2.335-.293 2.415.579.383 1.773-2.314 1.36-4.992 6.31-5.29 10.025-.102 1.286.348 1.426.667-.289 1.372-7.386 7.647-12.267 12.676-10.006 2.262 1.018 2.672 2.432.703 1.803-3.987-1.273-8.413 1.578-10.239 5.557-1.65 3.597-1.615 5.485-.455 10.303.791 4.449 2.333 10.134 1.825 14.492-.549.847-2.28-.348-4.325-.602-1.233-.233-2.74-.292-4.027.205-1.123.434-1.759.543-1.967-.066-.067-.197.866-1.157 1.281-1.688.29-.37.436-.795.436-.795s-.56.213-1.088.733c-.458.45-1.443 1.505-1.713 1.56-.591.121-.614-.551-.137-2.263 1.675-6.647 1.225-6.76-1.646-8.106-2.845-1.094-1.945-1.646-3.205-2.734-.888.7 1.16 3.913 3.476 4.615 1.896.574 1.664 1.553.834 4.184-.841 3.682-2.278 8.557-1.447 11.828 1.746 6.871 8.659 6.73 13.953 3.953l.645 1.752c-4.476 1.83-28.067 3.393-36.018 2.47-.614-2.168-.677-2.726-.926-5.279 0 0 4.912 2.239 7.364 2.627 3.06.485 7.775.507 8.982-2.338.37-.834-.01-1.538-1.066-1.054-1.942.888-5.26 1.544-7.942 1.377-2.25-.14-5.457-1.052-6.843-1.895-.66-.4-1.216-1.184-.7-2.168.458-.102 1.059.407 1.415.592 4.06 2.068 6.34 2.628 8.937 1.678 1.724-.631 3.658-1.499 4.047-3.41-1.502.762-2.887 2.124-4.483 2.562-3.19.875-6.6-.456-9.92-2.625-1.024-.897-.557-1.55.698-.834 4.971 2.526 7.046 4.2 11.803.656 1.062-.795 1.655-.692 2.279-.21 2.47 2.232 2.461.977.652-1.342-.41-.527-.783-1.264-1.03-2.05-.181-.58-.222-1.162-.552-1.544-.561-.651-1.572-.966-2.726-1.479-1.066-.473-1.83-.332-1.83-.332s.395.334.84.553c2.154 1.06 3.203 2.197.527 1.584-2.43-1.097-6.485-.482-8.78 1.125-1.801.886-2.594 1.836-3.02-.17-.89-4.186-.022-9.865-1.216-17.17-.228-1.393-.507-2.276-.219-2.467.37-.244 1.297.659 2.444 2.284.522.74 1.56 2.165 1.554 1.869.04-1.547-2.345-4.45-4.312-5.594-1.08-.628-1.815-3.534-.578-2.895.954.47 5.921 4.877 6.867 6.448.44.73.81.264.346-.594-.28-.515-1.446-2.027-2.58-3.145-2.012-1.983-2.246-1.89-1.86-2.297.765-.804 2.4.233 5.317 2.897.748.953 1.738 1.813 1.617 1.34.298-.742-2.622-3.911-4.354-4.76-.324-.205-.368-.42-.338-.814.164-1.497 3.517.701 6.3 3.267 1.041.961.177-.847-1.03-2.076-.949-.966-2.479-2.166-3.516-2.578-1.03-.429-1.093-1.334-.285-1.715 2.789-.119 5.667 2.756 7.383 5.018.474.62.909 1.1.416-.077-1.59-3.54-4.896-5.535-7.186-5.939-1.86-.328-1.818-2.022-.07-1.83 1.924.21 5.071 1.962 7.74 4.674.777.789 2.084 2.578 1.815 1.527-.01-.286-.825-1.406-1.771-2.486-2.184-2.19-4.723-4.125-7.414-4.701-1.259-.36-4.994.368-5.016-.286-.01-.482.39-.772 1.58-1.171 4.617-1.55 11.372 2.453 15.068 8.607.265.44.767.628.797.53-1.784-5.03-7.328-9.59-11.738-10.372-3-.485-6.023.288-7.461 2.328-1.618 2.296-.986 5.366 1.443 5.12 1.275-.12 1.174-.848 1.15-.872-.086-.086-.826.265-1.284.174-1.662-.329-1.49-3.362.943-3.062 2.797.344 3.192 4.794.066 5.73-2.885.864-3.941-.466-4.73-2.043-1.156-2.31.084-6.035 2.122-7.463 5.704-3.997 12.917-.647 16.993 3.317a18.3 18.3 0 0 1 4.414 6.806c.237.585.747.525.513-.076-5.737-14.788-22.872-16.512-25.379-5.031-4.147-6.563-7.779-7.02-13.335-4.156-5.669 2.366-8.457 4.295-13.7 6.777l-11.888-6.443c-.701-11.921-.302-23.877-.254-35.813.034-.278-2.576.19-6.922.877-11.558 2.329-10.566-3.924-12.076-4.238-.808-.163-.75.186-.969-21.817-.064-6.39-.188-17.624-.281-24.966s-.118-13.459-.053-13.588c.065-.13.713-.692 1.46-1.227 2.817-2.014 4.4-3.234 10.563-7.98 1.396-1.075 1.746-1.256 1.746-1.256.708 13.22.074 27.102.422 38.467l.52.002-.202-38.16c-1.063-.282 24.302-15.263 38.202-20.124.26-.09.91.202.91.202 7.978 9.868 28.97 6.881 30.662-5.133 3.478 7.324 18.756 21.554 25.738 4.4 0 0 2.53 4.929 4.701 5.254 4.88.654 5.421-.124 16.16-5.38-12.279 18.802-19.049 38.71-19.915 62.821-1.68-2.444-5.209-2.338-5.504-2.158.023-2.297-.387-5.414-3.823-5.748-3.49-.266-5.283 4.382-3.959 6.35-2.154-.903-5.386 1.36-5.386 1.572-.275.01-2.744 6.596 4.728 6.936.68 3.109 1.844 4.613 4.233 5.892l.059 25.377.843 1.153.074-26.596c3.824-.171 4.298-4.587 4.014-5.606 1.699.075 3.24-.27 4.54-1.27l.446 4.335s.897-1.529.7-2.34c-1.664-24.924 7.269-51.886 18.996-69.363.627-.734.818-1.61 1.129-1.616 2.86-1.555 4.666-2.601 4.666-2.601 4.716 2.287 13.136 7.807 13.136 7.807l.137 35.515c-.13-.35 15.69-1.781 15.453-1.35 0 0-1.385-.548-1.406-1.482l-.412-83.107-6.922-4.565s-5.692 3.755-7.283 5.037l.174 48.928-12.26-7.248s.195-1.731.213-2.293c.52-5.654-3.421-8.883-9.627-6.935-.829.265-1.406.498-1.81.156-2.604-7.682-3.774-27.868-3.77-27.867l17.449-29.836zm-168.342.535h47.55l16.032 28.974s.942 1.811.38 3.705c-.615 2.067-1.142 2.984-1.694 4.04.055-.602-4.62-1.199-4.229 2.841.265 2.735 3.693 4.28 6.246 2.153.409-.035.406.348.317 1.015-.236 1.567-1.883 6.54-3.014 6.87-5.756-4.764-7.81 3.935-3.93 5.67 2.247 1.003 5.702.175 7.317-2.552 1.235-2.085 1.099-1.741 1.488.79.145.94.35 2.033.455 2.523.33 1.534 0 1.831-2.558 2.527-2.059.81-4.145 1.256-6.268 1.72-3.88.641-5.862 3.596-5.959 7.19-.02.778.01 1.137-.158 1.368-16.413 6.287-33.68 15.085-51.975 30.11zm156.397 21.502s3.369 2.246 4.994 3.369l.023 3.61-4.87-3.21zm-1.77.54c1.045 3.322 1.037 10.443.645 13.614-.655 2.065-.946 11.257-.203 15.934.592 3.728.482 9.894-.076 12.845-.219 1.153-.05 6.557.361 11.557.314 3.82.223 7.295-.234 9.283-.36 1.567-.235 7.18.175 9.334.605 3.169.709 13.347.438 13.9-.719.822-6.34.937-5.963.657l-.16-83.768s3.345-2.244 5.017-3.355zm-61.092 4.466c4.724-.03 7.928.114 7.897.166.452 1.824.626 3.648.803 5.472 0 0-4.294-2.126-6.534-2.834-3.45-1.067-8.904.105-9.87 2.104-.549 1.133-.262 1.889 2.056.629 3.794-2.063 11.542-.492 14.273 1.695.63.504.598.614.61 1.205.018.9.07.952-1.172.281-6.512-3.36-12.076-2.97-13.996 1.442-.442-.135-2.131-.428-2.131-.428l1.814 2.707.344 2.832c1.803.936 2.346 1.235 5.393 2.666 0 0-1.01-.977-2.088-1.734-1.449-1.018-.295-1.345.66-.955 1.966.455 4.838 1.033 8.164-1.098 1.033-.662 3.399-.089 3.436.21 0 0 .314 2.479.627 7.647.147 2.445.445 5.638.615 6.95.512 3.96.659 4.186-1.406 2.287-.693-.638-1.846-1.694-1.86-1.631-.262 1.228 2.783 3.384 3.492 4.125 1.077 1.123 1.941 4.001 1.51 4.172-.273.108-3.167-2.37-5.445-4.598-.854-.835-2.124-1.954-2.16-1.916-.471.317 1.443 2.496 3.234 4.125 2.09 1.901 2.332 2.073 1.629 2.36-1.298.528-2.465-.13-5.615-2.758-.307-.256-1.5-1.11-1.557-1.05-.287.388 2.62 3.164 3.28 3.403 1.225.444 1.578 1.638.61 2.107-.645.314-3.05-1.017-4.978-2.703-.345-.302-1.303-.815-1.367-.746-.382.248 1.773 2.13 3.83 3.38 2.014 1.223 2.336 1.525 1.822 2.542-.478 1.048-4.896-1.378-7.107-3.877-.47-.532-.844-.761-.75-.582.963 2.694 4.131 4.624 6.488 5.393.42.139 1.032.31 1.307.531.671.538.522 1.099-.205 1.414-2.514.712-6.477-2.361-9.313-5.58-.328-.137-.133.285-.047.424 2.365 3.81 6.894 6.707 9.621 6.166 1.595-.316 2.876.169 2.889.709.01.442-.87 1.146-2.584 1.27-3.88.278-9.94-4.004-13.486-9.46-.11-.17-.242-.234-.25-.13-.096 1.156 2.108 3.992 3.799 5.615 5.023 4.82 9.773 6.45 13.478 3.734 2.089-1.634 4.108-5.207.996-6.4-1.648-.632-2.69 1.657-1.281 1.004 1.852-.225 2.272.767 2.031 1.699-.471 1.6-2.043 1.854-3.32 1.181-2.223-1.215-1.75-5.38 1.127-6.107 2.593-.632 4.855 1.587 5.152 3.691.462 3.27-3.19 6.806-6.121 7.686-9.995 3.002-17.803-11.015-17.848-11.332-.501-.974-1.104-1.49-1.484-.355-.41 1.644-2.664 6.466-3.871 6.437.375-1.7 1.956-4.56 1.572-7.064-.667 2.056-2.073 6.444-4.764 8.78-.697.642-2.744 1.399-1.335-.251 1.7-2.414 3.927-5.714 3.466-8.813-.451.697-.698 2.46-1.215 3.623-1.291 2.915-4.114 6.374-5.978 6.934-1.376.414-1.247-.055.162-1.553 1.51-1.605 4.184-6.319 4.008-8.351-.076-.898-2.774 7.762-7.846 10.133-1.37.505-2.146-.131-2.146-.131 1.993-1.159 7.5-6.639 6.98-12.864 0 0-.295.923-.728 2.305-1.867 5.941-5.878 9.848-9.004 10.172-2.496.258-4.238-.758-3.62-1.207 3.237.024 5.896-1.106 7.973-4.29 2.112-3.235 2.899-8.434 1.62-13.937-1.155-4.962-1.408-9.423-1.811-14.193 3.545 1.222 7.112 2.035 10.564.674-.346 1.421-.924 1.596-1.834 2.67a1.5 1.5 0 0 0-.302.545c1.278-.424 3.795-2.301 3.795-2.301s-.313 1.765-1.063 4.682c-1.122 4.361-.831 4.674 3.32 6.318.775.307 1.065.607 1.336.933.127.153.809 1.39.873 1.434.152.102.112-1.262.027-1.607-.222-.917-.713-1.604-1.142-1.875-.815-.758-1.99-.826-2.744-1.174-1.124-.527-1.551-.515-1.336-1.752.141-.814 1.29-6.296 1.838-8.414 1.637-6.344.099-9.86-4.54-11.278-3.143-.96-5.85-.473-9.052 1.247l-.576-1.795c8.391-2.216 20.488-2.74 28.36-2.787zm63.266.062 4.533 3.096.047 3.925-4.566-3.058zm-54.021.164 2.005.229s.754 2.904 1.565 10.752c.402 3.89.821 11.979 1.156 15.697.507 5.524 2.98 14.358 4.512 16.588 2.498 3.637 7.521 1.285 5.842-3.034-.872-2.24-4.246-1.877-3.778.448.01.414.319-.298.813-.735 1.458-.557 3.1.976 2.244 2.82-1.063 2.356-4.21 1.28-5.254-1.689-1.247-3.546 2.955-6.203 6.098-4.04 3.5 2.408 3.506 8.515.687 10.443-4.744 1.746-7.97-1.743-9.52-5.307-.621-1.015-2.608-6.344-3.154-8.566-1.424-10.779-1.694-23.573-3.217-33.606m3.318.6 2.084.13c.83 4.363 1.19 9.32 1.521 14.292.106 7.665 1.043 15.75 2.827 21.048l-1.532 1.621c-2.608-6.072-2.814-15.65-3.396-22.132-.255-7.292-1.444-14.913-1.504-14.96m3.008.289 1.83.199c.557 5.179 1.411 8.693 1.736 14.398.42 7.38 1.687 13.44 2.475 19.204l-1.371.459c-.918.426-2.438-6.385-3.116-20.192-.204-4.179-.906-8.878-1.554-14.068m2.77.193 2.185.397c.966 13.11 2.492 25.421 4.092 32.476l-1.9.39c-2.358-10.082-2.51-22.014-4.378-33.263m3.156.465 2.01.352c2.416 29.98 3.906 29.592 4.372 30.771l-2.173.89c-2.35-8.615-2.826-20.76-4.21-32.013m2.877.557 2.396.246c-.078.053 1.7 24.583 3.846 28.644-.344 1.01-1.158.916-2.047 1.02-.995-2.756-1.575-6.039-1.992-9.254-.917-7.063-1.249-13.686-2.203-20.656m-45.311 2.539c3.158.154 5.779 1.585 6.031 3.68.057.47-.312.24-.74-.09-2.716-2.102-5.809-2.756-9.541-1.4-.813.295-1.478.76-1.842.696-.326-.21-.427-.72-.178-1.142.87-1.469 4.707-1.82 6.27-1.744m84.26.53 4.562 3.145-.029 3.403-4.857-3.276zm-91.86.974s.27 1.874.278 2.7c.068 3.303-.73 5.123-2.446 5.886-2.071.92-4.728-1.05-3.437-3.256.976-1.668 2.653-1.167 2.973.586zm6.526 1.066a9.395 9.395 0 0 1 3.728.662c2.393.957 3.273 2.125 3.362 2.645-.139.387-.378.123-2.125-.828-2.691-1.666-6.2-1.94-9.282.175-.768.154-.846-.285-.076-1.12 1.285-1.016 2.836-1.484 4.393-1.534zm21.902.025c2.106-.067 4.622.473 6.748 1.55.94.475 1.784.772 2.397 1.32.49.257.528 1.38.17 1.464-.32.046-.845-.207-1.63-.76-5.05-3.31-8.686-2.903-11.607-.865-.162.113-.663.23-.861.215-.557-.042-.586-.273-.354-.578 1.352-1.542 3.373-2.285 5.137-2.346m63.123 2.383 4.867 3.434v3.375l-5.175-3.631zm-87.867 1.371.71.022c1.658 4.052 3.735 1.962 4.599.34l.865.142c-1.355 5.428-6.869 2.588-6.174-.504m27.389.295.57.184c-.15 2.313-4.01 4.78-5.842-.04l.766-.056c2.098 3.223 3.31 1.316 4.506-.088m-28.598.246c.804.098.776 1.015 1.027 1.684.563 1.494-1.572.231-1.937-.133-.62-.658.261-1.483.91-1.55m30.545.205c.225.004.675.167 1.09.336 1.147.469 1.087.813-.184 1.383-2.033.913-2.74 1.031-2.13-.258.35-.59.581-1.372 1.224-1.46m-8.203.422c.07-.01.15.01.23.07.512.38.847.8.906 1.483.042.481-1.545-.073-1.542-.84.038-.365.193-.68.406-.713m-13.834.254c1.043.39.918.891.191 1.346-1.304.734-1.863.59-1.02-.565.39-.532.474-.77.829-.78m80.242 1.7 5.271 3.74-.047 3.433-5.267-3.625c-.245-1.471-.013-2.459.043-3.549zm-.143 4.681 5.268 3.879.023 3.412-5.225-3.627c-.206-1.52-.116-2.605-.066-3.664m-69.492.428c-.804.045-.678.597.473 1.031 1.616.61 1.779 2.342.355 3.123-1.67 1.14-4.408-1.754-6.416-1.51-.959.29-1.574 1.196-1.025 2.303.428.776 1.872 1.246 2.457.736.538-.532.7-.548 1.734-.154 3.24 1.234 5.825-1.11 5.06-3.576-.276-.893-1.489-1.861-2.235-1.94a2.5 2.5 0 0 0-.403-.013m-21.467.205c.25.006.348.84.407 2.058.097 2.028-1.947 4.852-4.014 5.825-2.49 1.17-5.155-.473-4.71-2.907.412-2.243 3.57-2.336 3.69-.263-.307.545.123 1.003.3.955.811-.22 2.726-1.959 3.505-3.905.304-.758.488-1.537.705-1.714a.18.18 0 0 1 .117-.05m29.74 3.451c-1.103.013-2.43.605-2.699 1.318-.398.676-.072 1.886.745.856 2.098-2.466 5.138.62 3.511 2.58-1.476 1.78-3.291 1.206-7.127-.272-2.794-1.076-3.235-.709-3.924.069-.567.64-.277 1.93.458 1.914 2.264.519 4.224 1.023 6.568 1.516 4.954 1.025 7.977-5.415 3.451-7.782-.27-.141-.614-.203-.982-.199m61.567 1.07 4.953 3.532-.029 3.285-4.8-3.494zm-84.154.326c-.705-.02-1.449.222-1.977.665-1.931 1.748-.348 6.343 2.496 6.753.596.086 1.485.06 2.494-.234 1.99-.58 4.184-1.767 4.274-2.459.408-3.145-4.232-.324-4.846.049-1.463.896-3.011.78-3.79-.285-1.758-2.4 1.393-5.152 3.306-2.217.124.19.316.459.316.459s-.14-1.193-.531-1.826c-.372-.602-1.037-.884-1.742-.905m84.525 4.483 4.69 3.404.08 3.414-4.92-3.27c.096-1.228.118-2.384.15-3.548m-26.289 1.96c4.122.07 6.45 6.218 4.275 8.776-.646.761-1.164.965-1.457.682-.063-.061.042-.75.084-1.527.134-2.479-.389-4.175-2.185-6.057-1.348-1.412-1.857-1.85-.717-1.873m-49.27.59c-.508-.01-.969.202-1.496.391-.778.28-1.602.847-2.24.707-.63-.138-.93.177-1.178.676-.943 1.908-.651 2.525 1.22 1.442.887-.514 1.198-.33 3.573.123 1.698.323 2.852.291 4.346-.1 1.857-.486 2.965-.524 3.904-.006s1.582 1.232 1.606.65c-.105-.68-.693-2.423-.828-3.002-.065-.278-.528-.032-.965 0-1.54.113-3.375-1.285-4.565-.546-.951.59-1.078.745-2.384-.028-.365-.216-.687-.3-.992-.306m46.264.14c.7-.02 1.359.225 1.899.679 2.791 2.353 3.507 4.44 3.236 6.152-.139 1.246-.232 2.623-1.441 3.373-.223.108-.555.175-.864.221.939-3.54-.168-6.71-4.115-10.092.43-.215.866-.322 1.285-.334m-61.068.673c.78-.024.738 1.24.578 1.908-.13.538-.689.07-1.13-.947-.33-.554.015-.96.552-.96m58.053.764c.722-.05 1.685.33 2.12.623 2.603 1.764 4.1 6.374 2.503 8.994-.174.322-.388.506-.668.68-.537.34-.854.613-.963.375-.083-.181.215-.962.246-1.219 1.137-5.373-4.012-8.955-4.115-8.787.096-.452.443-.636.877-.666m-60.631.232c1.019-.02 1.407.922 1.582 1.672.149.64-.041 2.549-.582 1.883-.13-.404-.682-1.71-1.125-2.049-.987-.755-.89-1.485.125-1.506m92.808.207 4.842 3.504.01 3.75-5.07-3.44a79 79 0 0 0 .219-3.814zm-95.677.74q.224-.004.572.055c1.591.27 2.81 2.825 2.44 4.276-.842 1.56-1.154.508-1.432-.907-.218-.586-.868-1.506-1.268-1.98-.829-.985-.958-1.425-.312-1.443m60.828.034c3.862-.066 6.325 6.237 4.543 9.342-.46.491-1.86 1.498-1.905 1.03 0-.385.256-1.601.315-2.196.229-2.3-.837-4.636-2.723-6.461-1.582-1.533-1.728-1.69-.23-1.715m-63.977.746c2.373-.041 4.4 2.788 3.652 5.472-.927 2.8-5.548 2.202-4.78-.59.22-.802 1.07-1.389 1.88-.886 1.171.726 1.043-.456.299-.875-1.148-.647-2.725-.255-3.076 1.055-1.226 4.567 4.59 6.124 7.756 1.406 1.157-1.725 2.416-3.57 3.11-4.358.626-.707.758-.632.657.28-.403 4.243-3.334 9.546-8.832 9.256-5.343-.513-7.014-6.234-2.978-9.805.754-.575 1.49-.941 2.312-.955m28.315.23c-1.956.956-3.728 1.317-5.653.471-1.422-.625-1.4.054-.781.611 1.787 1.536 5.037.841 6.43-.023.45-.28.6-1.089 0-1.059zm32.732.024c1.439.086 3.737 1.933 4.432 3.754.783 2.043.98 4.155-.123 6.464-.767.496-1.96 1.491-2.315 1.35-.191-.114.01-.486.24-1.367.878-3.296.326-5.869-1.787-8.293-1.177-1.35-1.62-1.587-1.004-1.832q.247-.096.557-.076m37.426 3.175 5.21 3.584.017 3.413-5.408-3.659c-.085-.816 0-2.056.181-3.337zm0 4.723 5.15 3.424.135 3.38-5.004-3.13zm.36 4.744 4.919 3.434.07 3.691-4.875-3.236zm-119.88 3.86c-.052-.258-3.552 10.04-3.552 10.04l3.347 2.368 3.553-2.317-3.656-4.892s.36-4.942.308-5.2m120.084 1.246 4.74 3.289.072 3.408-4.925-3.437zm-.193 4.174 4.861 3.543.096 3.623-5.508-3.705zm-108.668 2.171c-.052-.257-3.555 10.041-3.555 10.041l3.348 2.37 3.553-2.317-3.657-4.892s.363-4.944.31-5.202m-22.473.805c-.052-.257-3.552 10.041-3.552 10.041l3.345 2.367 3.555-2.316-3.656-4.89s.36-4.944.308-5.202m130.508 1.604 5.705 4.039.047 3.845-5.53-3.738zm.383 5.312 5.256 3.82.064 3.37-4.801-3.45zm-96.54 4.367c-.051-.257-3.552 10.041-3.552 10.041l3.348 2.37 3.552-2.317-3.656-4.892s.36-4.944.309-5.202m97.376 1.024 4.453 3.08-.033 3.459-4.385-2.965zm-91.344 2.892c.069 2.443.226 27.479.188 27.641-3.07.358-3.928 2.455-4.205 5.271-2.396-.18-3.954 1.275-4.002 1.516-.885-1.226-.226-3.031-.924-4.31-2.123 7.491 2.006 11.972 5.609 11.554.578 7.193 8.427 8.495 8.16-.23 9.496-.563 6.278-9.375-.146-8.21.045-3.801-1.938-4.776-3.578-5.546 0 0-.276-24.095-.24-24.815 0 .106-.42-2.609-.467-2.77 0 .003-.393-.105-.393-.1zm91.336 1.723 4.36 3.121-.054 1.496-4.347-.088zm-131.31 1.42c-.052-.258-3.553 10.041-3.553 10.041l3.345 2.37 3.553-2.317-3.656-4.893s.362-4.944.31-5.201m135.716 8.834c-9.574.45-18.17 1.125-17.845 14.226-1.378 5.561.954 10.513 7.636 8.983 1.463-1.319.5-3.23.32-4.149-.57-2.527.089-4.169.272-5.353.569-3.662 3.228-7.063 3.518-1.322.466-.72.246-.826 1.015-1.125 1.835-.668 1.833 1.204 1.457 1.959-.241.388-.607.356-.98.312-.534-.064-1.23-.265-1.242-.463-.144.596.972 1.705.855 2.264-.147.53-.243.488.244.137 2.303-1.663 3.747 2.051.414 1.627 1.642.884-.788 3.474.909 4.8 5.17.398 9.016-3.147 7.369-5.691 1.925-5.18.74-10.538-2.034-12.812-.421-.507.984-1.002 1.524-1.872-1.652.442-2.536-.4-3.432-1.521m-5.72 1.86c.884 0 1.114.17 1.05.892.344 1.774.785 2.598 3.077 2.412 2.31-.303 3.043-.45.718.959-1.174.522-1.555.624-2.947.498-1.403-.127-1.297-.27-2.098.213-.447.27-.936.6-1.3.666-.54.099-1.489.309-1.489.309-.54 2.755-1.361 4.141-2.492 5.45-1.6 1.836-2.413 2.158-.451 2.02.725.046.35-.322.668 2.649.11 1.04.302 2.245.455 2.65.51 1.353.578 2.027-1.361 2.123-4.841.37-5.971-4.385-5.327-6.814.287-1.456.345-2.892.254-4.225.11-4.53 1.176-5.726 5.16-8.672 1.203-.888 3.362-1.07 4.967-1.09.454-.023.82-.041 1.116-.04m3.136.284c2.235-.046 4.394 1.038 3.317 1.74-.696.455-3.21.267-3.909-.234-.9-.646-.562-1.481.592-1.506m4.834 3.114c1.447.292 1.505 1.624 1.137 2.445-.809 1.805-6.223 2.679-6.223 2.68-.044-.775.063-1.523-.5-2.395 0 0 3.607-.952 4.37-1.654.509-.469.816-1.061 1.216-1.076m-104.527.83c-.026-.129-1.794 4.917-1.794 4.917l-.28 6.17 1.867 1.321 3.553-2.316-3.655-4.893s.36-4.942.309-5.2m97.287 2.232c.444-.033 1.028.37 1.145.92.084 1.643-2.105 1.274-2.174.236-.05-.736.613-1.125 1.029-1.156m8.313 1.043c.524.007.803.392.945 1.172.067.418-.088.774-.426 1.23-1.375 1.508-5.24 2.554-6.635 2.17-.099-.13.14-1.72.24-2.425 1.859.056 4.988-1.607 5.876-2.147m-64.413 2.66a3.15 3.15 0 0 1 2.81 1.934c.27.83.35 1.785.052 2.611-.249.69-.703.793-.703.793l-2.377-2.05-2.326 2.177s-1.425-1.448-.643-3.455c.758-1.43 2.004-2.048 3.188-2.01zm64.256 1.604c1.523-.097.735 1.671-1.517 2.869-1.414.752-2.585.963-3.092.691a2.57 2.57 0 0 1 .13-1.923c.962-.498 3.602-1.372 4.48-1.637m-98.283 3.33c1.69-.042 3.155 1.173 3.209 3.326.022.877-.424 1.748-.424 1.748l-2.824-2.101-2.158 2.322c-.368.13-1.69-1.534-.781-3.344.66-1.316 1.821-1.923 2.978-1.951m97.865.107c.41 0 .514.157.631.543.334 1.095-.514 2.199-1.976 2.547-1.352.322-1.224.48-1.864-.738-.501-.955-.634-.915.15-1.217.95-.31 1.964-.673 3.06-1.135m-58.203.68c.405-.017.812.035 1.174.201 2.376 1.087 2.79 4.441.479 5.733-1.099.614-2.827.955-3.635-.287l2.334-2.569-2.68-2.277c-.079-.08 1.114-.75 2.328-.8m-10.953.422c.978.022 1.758.379 1.582.543 0 0-1.684 1.728-2.422 2.451l2.537 2.672c.123.325-2.927 1.718-4.531-.383-1.041-1.364-.455-3.96 1.023-4.85.567-.34 1.224-.447 1.811-.433m5.217.24c1.497-.022 2.726 1.184 2.748 2.695.022 1.512-1.173 2.758-2.67 2.78-1.498.022-2.732-1.188-2.754-2.7a2.727 2.727 0 0 1 2.676-2.775m58.82.207c.672.042 1.264.491 1.28 1.227.02 1.043-1.165 1.387-2.092.8-.72-.441-.764-1.267-.377-1.638a1.7 1.7 0 0 1 1.19-.389m-58.83 2.137a.522.522 0 1 0 0 1.043.522.522 0 0 0 0-1.043m-27.848 1.314c.38-.008.756.051 1.08.215 1.713.865 2.592 3.976.674 5.614-1.525 1.303-3.854.22-3.9.066l2.393-2.643-2.54-2.463c-.024-.15 1.155-.766 2.293-.789m-11.082.342c.632-.003 1.216.203 1.87.608l-2.432 2.57 2.63 2.889s-2.082.342-2.822.203c-3.58-.677-3.23-4.914-.46-6.035a3.7 3.7 0 0 1 1.214-.235m5.381.604c1.446-.022 2.635 1.144 2.656 2.603s-1.134 2.659-2.58 2.68-2.635-1.144-2.656-2.604c-.02-1.46 1.134-2.658 2.58-2.68m-48.953.527c-.69.028-1.457.142-2.305.35 0 0 .479 5.445.916 7.304-.288 2.123-1.647 3.566-2.26 5.744-.325.97-1.552 2.274-1.788.909-.885-1.688-.038-3.773-.77-4.975-.56-1.133-.26-1.77-.508-2.945-.688-.972-1.014-1.41-.9-2.274-.145-3.849-1.096-3.086-2.79-2.771-6.566.57-6.564 4.387-6.16 9.232-.932 4.543.787 3.468.731 4.285-.088 1.296.121 3.111.508 3.311 2.342 2.71 2.457 4.588 5.504 4.123 5.156.407 13.348-.366 15.119-6.71 1-8.109 1.375-15.85-5.297-15.583m-.047.861c.975-.012 2.122.194 3.066 1.108 2.024 1.958 1.576 3.688 1.215 11.267-.213 4.48-4.052 6.794-8.343 7.825-1.049.26-1.96.265-2.67.26-.766-.007-1.213-.364-1.27-1.012.169-1.755-1.607-1.926-2.635-1.827-1.832.074-2.02.27-.877-.625 1.305-1.02 4.312-1.034 4.883-.437 1.173-1.185 2.396-1.324 3.893-1.5-.222-.329-.76-1.642-.405-2.486.776-1.376 2.08-3.803 3.45-4.713 1.354-1.787.203-.978-.637-.948-.48.018-.438-.142-.516-.466-.334-1.393-.816-3.997-.82-5.547 0-.747.691-.887 1.666-.899m85.11.248c1.976 2.408.281 5.274-2.372 5.454-2.197.11-4.006-2.263-3.177-4.627.453-.64.648-.55.648-.55l2.502 2.257zm-36.137.498a.522.522 0 1 0 0 1.044.522.522 0 0 0 0-1.044m-58.48.918c.315-.028.64.057.88.264.53.475.523 1.137-.033 1.631-.636.564-1.898.253-1.93-.809.054-.67.556-1.038 1.083-1.086zm-2.374.17c.229.012.444.067.576.194-.18.692.058 1.382.088 1.718-.435.313-2.29.86-3.285 1.354-.69.24-1.191-.415-1.095-1.014.261-1.114 1.886-1.842 3.066-2.187.182-.045.422-.077.65-.065m101.783 1.77-3.554 2.318.053.07-.053.034 3.65 4.883c-.013.181-.303 5.105-.303 5.105l.01-.012-.01.116 2.517-10.9s-1.335-.924-2.31-1.614m-38.457 1.111c1.653 3.72-.25 5.422-2.277 5.377-2.236-.05-4.62-2.187-2.535-5.217l2.592 2.133zm-62.341.502c.668-.081.471 1.389.22 2.14-.249.538-.986.516-1.648.555-1.17.07-2.644 1.43-3.277 1.211-.21-.098-.361-.657-.383-1.013.137-1.963 3.368-2.684 5.088-2.893m2.261.076c1.187-.052 1.821 1.155 1.274 1.97-.224.328-.942.486-1.543.32-.983-.273-1.132-1.695-.27-2.184q.285-.095.54-.106m-1.468 3.426c.637.117.322 2.088.214 2.149-.524.195-2.785.493-3.736 1.302-2.027 1.603-2.89.625-1.951-1.295.889-1.116 4.155-2.133 5.332-2.154a.4.4 0 0 1 .14-.002m2.437.108c.904-.086 1.536.924.984 1.884-.748.703-2.06.188-2.054-.806 0-.625.506-1.046 1.07-1.078m-2.092 3.23c.923.003-.063 1.434.76 2.451.124.523-.057.36-1.006.643-.523.155-1.345.507-2.201.943-1.256.64-1.607.985-2.053.912-.354-.078-.763-.233-.873-.595-.437-1.447.732-2.921 3.451-3.934.566-.21 1.576-.381 1.922-.42m2.367.273c1.315-.019 1.56 1.744.577 2.053-2.303.601-2.107-2.054-.577-2.053m-3.439 6.223c.905-.018 1.52-.02 1.816.266.37.358.422.946.01 1.252-.76.378-3.675.056-3.695-.77-.01-.545.962-.73 1.867-.748zm134.486.197-3.554 2.319 3.656 4.89s-.36 4.944-.309 5.202c.052.257 3.553-10.041 3.553-10.041zm-141.572 5.62c1.44 1.711 2.207 2.834 4.613 3.724.557 25.093.461 82.594.461 82.594l7.076 4.855 7.45-5.402c-.076-18.1-.148-30.585-.219-47.342l10.916 6.051s.334.488.283 2.752c-.754 6.253 5.238 10.313 9.213 7.844 1.534-.65 1.658-.766 1.982-.278.894 1.346 1.902 7.106 2.07 10.782.255 5.537 1.698 16.826 2.046 16.902L1983.28.486h-28.123zm107.783 1.449-3.552 2.318 3.654 4.89s-.36 4.944-.309 5.202c.052.257 3.553-10.041 3.553-10.041zm-89.664 1.336.625 82.27s-3.456 2.504-4.56 3.224c-.58.22-.863.26-1-.3-.17-.69.103-1.991.343-4.145.223-1.992.221-2.105-.107-4.944-.343-2.965-.383-3.09-.105-7.004.31-4.365.37-8.606.027-11.23-.326-2.495-.322-8.185-.072-11.362.305-3.888.205-7.301-.3-10.123-.899-5.03-1.046-6.762-.109-10.546.351-1.417.524-2.17.452-4.541-.081-2.637-.13-3.5-1.065-9.338-.538-3.362-.58-3.822-.076-9.141.102-1.073.136-1.792.541-2.133.473-.397 5.406-.687 5.406-.687m-6.97.974c-.415 1.698-.507 2.99-.55 4.217l-4.77-3.164-.052-.994zm-5.293 2.229 4.724 3.111c.01 1.313-.093 2.567.096 3.88l-4.787-3.208zm.01 4.937 5.054 3.489c.197 1.358.61 2.732.768 3.953l-5.73-3.914zm163.455 1.375.263 100.416h-50.314l-15.947-30.918s.162-2.845.556-4.297c.477-1.754.605-2.137 1.274-2.22 1.79.935 3.783-.308 4.394-1.678.752-1.686-.77-4.238-3.107-4.791-1.031-.248-2.157.22-3.295 1.096-.662.557-.808.619-.94.135-.297-1.092.662-4.059 2.38-6.606.954-1.417 1.214-1.824 1.523-1.285 1.25 2.18 3.928 1.73 4.945.498 1.23-1.49.975-4.887-1.813-5.787-5.453-1.762-7.956 3.762-7.888 3.748l-1.168-6.623c6.565-1.624 10.355-2.196 12.44-4.205 1.64-1.581 2.423-4.315 2.22-6.746 0 0 18.235-7.479 26.77-12.121 14.694-7.995 27.706-18.616 27.706-18.616zm-26.957.766-3.553 2.318 3.656 4.89s-.36 4.945-.308 5.202c.052.258 3.552-10.04 3.552-10.04zm-22.952.982-3.552 2.319 3.654 4.89s-.36 4.944-.309 5.202c.053.257 3.553-10.041 3.553-10.041zM1961.26-96.3l5.793 4.03c.126 1.308.293 2.474.12 3.957l-6.099-4.07zm-.102 5.147 5.993 4.006c.023 1.237.08 2.403-.346 3.277l-5.654-3.662zm124.662.334-3.552 2.316 3.656 4.893s-.36 4.943-.309 5.2c.052.258 3.553-10.04 3.553-10.04zm-124.65 4.332 5.195 3.851c.075.056-.29 1.757-.207 2.721l-4.943-3.074zm.14 4.763 4.844 3.36c.011 1.273.098 2.47.297 3.554l-5.26-3.445zm-.083 4.854 5.601 4.023.295 3.235-5.933-3.766zm44.43 1.137a4.1 4.1 0 0 1 1.681.21c5.376 2.023 10.415 12.34 10.26 25.698-.108 9.273 2.669 22.51 2.617 22.357 0 0-1.559.21-2-.138-2.025-6.81-2.7-14.004-3.02-19.938-.262-4.948-.542-9.805-.853-10.94-.884-3.99-1.842-8.646-4.37-11.68-1.968-2.286-4.212-2.685-5.554-.116-1.099 2.104 1.214 5.585 3.135 4.427.464-.263.741-.71.133-.697-1.994.299-3.332-2.486-2.07-3.812 2.221-2.337 6.11 2.869 4.306 5.734-.794 1.24-2.872 1.459-4.535 1.002-3.698-1.804-4.624-6.222-3.387-9.133.708-1.665 2.05-2.828 3.656-2.974m-4.823 1.537c.425-.104.14.833-.264 2.101-.95 3.04.833 7.76 3.303 8.701.741.51.702.704.207.985-1.613.915-4.54-1.829-5.312-4.885-.56-2.21-.423-4.82.63-5.928.377-.516.92-.849 1.436-.974m-3.572 1.742c.443-.014.277.736.154 2.105-.286 3.171.69 5.477 2.908 7.391.936.808 1.192 1.06.79 1.484-.573.602-2.213-.203-3.499-1.556-2.354-2.477-3.133-7.153-1.299-8.848.403-.372.713-.569.946-.576m-36.094.05 5.982 3.946c.279 1.231.156 2.544-.03 3.87l-5.989-4.212zm102.623.5c2.556-.1 4.712.901 4.95 4.053.347 4.616-3.913 7.139-6.885 4.489-2.664-2.66.037-6.824 3.125-4.873 1.552.988-.301 3.24-1.557 2.076-.567-.526-.817-.199-.414.408 1.215 1.832 3.61.308 3.44-1.305-.338-3.171-4.199-3.13-5.653-1.888-1.99 1.7-3.743 4.201-5.05 6.025-1.071 1.582-1.302 1.54-1.143-.414.417-5.166 5.2-8.414 9.187-8.57m-69.603 1.009c.407-.015.244.575.275 2.093.164 3.9 1.794 6.327 3.86 7.686.691.771-.196 1.318-1.499.945-2.967-.922-5.995-7.358-3.48-10.125.352-.388.63-.592.844-.6m-2.887 1.279c.411-.027.18.836.219 2.463.082 3.423 1.13 5.066 3.652 7.156.822.68.924.605.6.982-.864 1.005-3.79-.418-5.038-2.468-1.484-2.44-1.703-6.121-.322-7.512.386-.389.674-.607.889-.621m-2.87 1.648c.341.002.151.622.204 2.1.127 3.585.938 5.36 3.191 7.017 1.416 1.042 1.761.729 1.328 1.141-.758.722-2.834.103-4.39-1.223-2.333-1.987-2.986-6.891-1.09-8.57.338-.3.58-.466.758-.465m-27.161.508 5.748 4.02-.162 3.396-5.72-3.906zm97.998 1.59c.13.025.275.17.425.486.345 1.339 1.23 3.195 2.44 3.555.487.145.08.827-.367.734-2.34-.483-3.226-2.188-2.942-4.119.06-.403.228-.697.444-.656m-47.823.767c2.64 6.705 2.592 14.032 3.03 20.954.581 9.2 2.193 15.397 2.72 16.441 0 0-2.576.03-2.707-.346 0 0-2.43-12.202-2.064-18.236.026-6.752-1.276-12.688-2.072-15.355-.841-2.364-.878-.802 1.093-3.458m27.774 1.19c-1.188.021-3.636.675-3.627 1.117 0 .203.8.373 2.047.068 1.384-.337 2.763-.277 3.826.018 1.13.314 1.257-.053.234-.504-.498-.22-1.292-.72-2.48-.7m18.172.414c.17-.013.379.152.597.563.135.25.556.811.932 1.251.711.834.911.84.588 1.18-.746.784-2.31-.351-2.479-1.8-.09-.662.08-1.173.362-1.194m-48.912.848c2.582 3.714 2.962 12.426 3.015 18.619.048 5.577 1.918 15.794 2.069 15.75-.532.316-1.249.205-1.92-.057-.664-.873-1.071-3.32-1.842-9.947-.2-1.71-.59-7.15-.678-11.53-.078-3.863-2.215-12.226-2.215-12.226s.83-.594 1.57-.61m23.562.164c-.26.016-.174.907.024 1.982.065 2.467.38 1.464 1.242 1.07.65-.055 1.18.303 2.389.75 1.538.57 1.4.76 2.482.225.667-.33 1.199-.443 1.518-.182 1.264 1.037 2.894.453 3.812-.386.717-.378 1.5-.172 2.106-.116.875.082.648-.482.756-1.597.096-.99-.28-1.078-1.295-.744-1.04.341-2.07.39-2.971.113-2.306-.71-3.994-.25-5.137-.068-2.7.428-2.843.154-3.455-.237-.456-.29-1.21-.826-1.47-.81zm-70.805.004 5.53 3.646a50 50 0 0 0-.074 3.746l-5.42-3.87zm44.368.76c2.353 5.3 2.735 10.564 2.841 16.95.1 6.042 1.431 13.12 1.934 16.243-.795.083-1.634.15-1.967-.211-1.342-4.416-1.744-11.767-2.117-17.055-.46-7.447-.579-9.291-1.625-13.004-.593-2.106-.803-2.061-.355-2.467.34-.308.992-.463 1.289-.457m50.582.072c.158.065.292.35.56.703.598.786.772 1.157.272 1.23-1.326.194-1.656.053-1.61-.779.037-.663.182-.922.606-1.14q.095-.049.171-.014m-53.358 1.183c1.946 1.98 2.44 13.081 2.662 15.471.702 12.95 1.919 14.811 1.293 15.783-.736-.012-.994.261-1.474-.389-1.666-4.743-1.569-9.617-1.838-14.566-.381-6.554-1.026-10.105-1.94-13.353-.607-2.16-.6-2.196.496-2.79.195-.105.626-.162.801-.156m-3.385 1.389c.231-.006.487.043.764.172.685 1.573 2.063 8.724 2.25 14.896.148 4.901 1.307 14.483 1.521 14.535-.708.065-1.556-.081-1.9-.623-2.123-9.446-1.446-18.603-3.9-28.103.11-.345.573-.86 1.265-.877m49.983.281c-.865-.061-1.83.137-2.877.61-3.238 1.268-4.076 2.31-3.567 3.224.43.77 1.718.5 5.166-.953 2.578-1.086 3.387-.611 3.91 1.027-.025 2.42-2.342 2.662-3.664 2.368-.21-.047-.453-.153-.453-.153s.12.555.575.942c2.594 2.204 5.942-2.018 4.31-4.639-.798-1.496-1.96-2.323-3.4-2.426m-20.72.78c-.859-.03-1.67.171-2.48.812-2.67 2.116-1.717 5.928.506 6.5.62.317 1.541.168 1.903-.074.333-.223.33-.587-.352-.701-2.064-.347-3.236-1.875-2.238-3.424.968-1.504 2.76-1.215 6.209.285 2.981 1.297 4.287.896 4.639-.66.155-.688-.033-1.332-1.463-1.385-2.735-.102-4.838-1.288-6.725-1.354m-67.39.277 5.735 4.15.12 3.541-5.85-4.191zm101.455 3.162c1.821.09 2.979 1.24 3.03 2.543.115 2.93-3.35 2.96-3.822.666-.178-1.097-1.945.028-3.116 1.973-1.152 1.912-1.271 2.185-1.506.199-.35-2.961 2.696-5.278 4.596-5.352q.428-.049.818-.03m-101.582 1.459 6.073 4.209s.205 2.256.074 3.469l-6.098-3.938zm79.678 1.017c-.184.013-.38.066-.584.168-.44.221-.771.43-1.709.196-1.423-.3-3.13-.622-4.467.033-2.64 1.808-1.09 5.107.758 5.478 1.948.392 2.085-.98.149-1.384-1.035-.41-1.3-1.406-.897-2.174.924-1.525 2.632-.538 3.625-.063 2.204 1.059 3.345 1.447 4.041.715 1.082-1.138.373-3.055-.916-2.969m-79.627 3.989 5.975 4.127-.184 3.65-5.607-4.154zm.123 5.015 5.62 4.041c-.084 1.543-.046 2.158.015 3.141l-5.681-3.703zm99.36.778c4.506.444 3.013 5.67-.133 4.26-.84-.637-1.091-.587-2.024 1.705-1.192 2.93-1.484 2.693-1.32-.694.12-3.315 1.63-5.246 3.477-5.271m-10.285.572c1.234.05 2.491 1.164 3.484 3.54l-1.363.081c-1.223-2.967-2.953-3.411-4.42-.48l-1.057-.307c.908-1.873 2.12-2.885 3.355-2.834m-3.329.154c.698-.042.607.282-.119 1.283-.63.871-.784 1.009-1.418.534-1.04-.78.689-1.759 1.537-1.817m-18.675.014c1.137-.035 2.227.733 2.802 2.746l-.804.117c-1.217-2.734-3.744-2.109-4.524.43l-1.111-.127c.63-1.751 2.174-3.121 3.637-3.166m-3.21.057c.107.002.193.02.247.062.304.345-.61 1.708-1.385 2.508-.571.378-1.958-.643-1.621-1.14.393-.485 2.033-1.356 2.76-1.43m28.342.017c.134.008.29.02.465.065 1.405.35 2.049 1.023 1.36 1.884-.43.538-.846.749-1.13.39-.947-1.578-1.472-2.386-.695-2.339m-22.105.53c.356-.043.808.16.885.404.147.587-.313 1.004-.826.515-.21-.198-.392-.537-.366-.787a.53.53 0 0 1 .307-.133m-70.154 2.421 5.777 4.188c.19 1.475.228 2.594.219 3.601l-5.947-3.976zm82.466.41c.34-.002 1.138.437 1.74.858 3.328 2.301 7.23 2.271 9.67.25.546-.452 1.021-.471 1.03-.037-.348 1.613-4.59 3.682-7.904 2.51-1.821-.645-3.317-1.284-4.512-3-.266-.42-.227-.579-.024-.58zm.149 1.963a.5.5 0 0 1 .184.018c4.863 4.235 8.73 3.057 11.66.922.432-.11.438.284.535 1.015.123.937-.647 1.399-2.754 2.036-4.074 1.23-8.852-.116-9.713-2.873-.088-.475-.259-1.074.088-1.118m-82.637 2.553 5.858 4.055-.188 3.1-5.705-3.893zm.094 4.748 5.53 3.783-.018 2.565-5.38-3.867zm96.87 1.115 14.533 28.77-87.586.12c5.72-9.351 10.478-19.576 16.341-28.802 23.588 5.386 40.306 2.83 56.711-.088" style="fill:#004c97;fill-opacity:1;stroke-width:.164046" transform="matrix(6.12174 .12643 -.12526 6.0662 -11912 786.077)"/><path id="path3442-2-7-0" d="M4255.875-243.094c15.46 26.561 27.65 54 41.563 81.171l2.229 1.43 3.332 6.286.371 3.057 8.25 13.194-.053 2.833 34.996 65.092c28.864-10.775 265.96-30.175 353.75 1.562l12.786-21.67 3.06-.021 22.547-39.554-.36-3.327 7.589-8.652 1.102-3.94 24.88-38.935.088-6.276 31.12-51.875zm536.844 7.469s-16.23 31.201-24.594 43.813c-6.768-5.339-26.39-1.714-25.219 18.968-31.986-12.116-39.7 26.037-14.968 34.625-12.692 11.08-24.82-1.451-34.443-9.95-9.412 2.332-28.952 9.247-40.017-11.103 0 0 4.625 2.497 9.24 5.21 26.164 7.953 28.274-27.346 8.813-33.125-2.45-.645-7.062-.907-7.062-.907 6.541-27.145-35.456-36.622-36.25-4 0 0-4.993-.815-8.782-.125-22.262 4.058-17.161 36.884 5.594 35.313a25.2 25.2 0 0 1 5.938.344c-.371 5.257-27.911 15.302-47.75-2.782-9.409 7.166-24.302 16.148-43.719-1.719 12.77-.519 25.015-4.152 24.875-18.625-.091-9.422-8.565-17.833-20.781-18.28-.693-10.529-8.533-20.574-18.719-21.345-12.431.726-18.788 10.754-18.875 21.344-10.57 1.092-20.46 10.408-18.187 21.094 3.1 14.578 14.334 16.372 27.156 13.594-15.596 25.068-40.988 11.992-48.813 4-9.322 8.696-25.575 20.471-45.593 4.375 10.668-1.826 22.533-8.083 20.53-22.969-1.577-11.731-14.746-15.214-20.468-14.594-.013-7.75-5.868-20.54-19.687-19.219-15.08 1.442-14.178 20.506-14 20.657-12.453-1.027-21.49 13.619-17.938 22.969 4.322 11.377 13.372 14.915 30 11.843-19.4 18.205-31.723 11.139-42.312 7.313-9.374 9.822-21.889 12.99-34.72 4.281 28.7 1.368 24.135-49.365-9.906-30.969-24.21-28.48-23.77-15.825-45.468-57.719zm-267.469 50c1.388-.058 2.864.23 4.313.969 4.488 2.284 5.33 6.269 2.593 12.156-.962 2.068-2.35 4.44-2.125 6.625 31.604 58.28 101.286 32.233 107.844 5.156.416-1.717-.382-3.597-1.281-5.437-2.679-4.455-2.325-8.103 1.156-11.156 7.416-6.505 18.054 1.172 13.75 9.937-1.136 2.312-2.332 4.845-1.469 7.938 17.891 40.616 53.513 43.668 83.407 27.593-13.772 24.653-67.149 39.769-89.563-19.594-35.774 48.361-92.545 47.448-118.312-7.156-23.175 55.852-93.085 57.174-118.532 10.781-23.162 53.073-76.879 41.032-92.093 7.813 49.899 36.109 82.778-1.586 88.687-17.656 0 0-1.16-1.877-2.75-3.438-6.385-6.266-6.21-13.637.406-16.562 8.475-3.748 16.413 4.388 12.063 12.375-1.219 2.237-2.3 2.727-1.5 4.656 15.53 36.19 92.008 46.705 107.5-4.062.525-2.901.225-5.582-1.094-7.782-3.635-6.063.986-12.906 7-13.156m-223.25 20.5c12.063.685 8.698 11.056 6.281 11.844zm447.938 6.469c.081.195-7.438 13.437-7.438 13.437-3.982-6.358-2.948-14.273 7.438-13.437m-40.782 66.906s-7.703 17.037-10.25 18.469c-142.886-36.6-342.253-4.776-347.156-1.25l-8.781-16.531c125.284-25.03 250.198-19.683 366.187-.688m-241.375 253.188c-13.794 53.207-47.192 58.621-87.531 65.093-49.963 8.016-82.523-10.186-97.75-38 0 0-71.456 27-97.531 42.688 54.215 24.837 125.844 79.834 166.562 142.281 14.506 19.041 13.774 14.733 13.75 56.5-.057 90.575.156 124.25.156 124.25 22.37 3.351 23.595 18.733 22.375 36.01 17.955-7.929 35.23 1.773 35.153 18.715-.14 31.14-30.738 22.68-37.092 19.248 9.951 27.448-1.73 38.812-13.654 40.16-14.7 1.662-31.564-5.405-26.648-36.82-36.42 8.676-38.233-25.77-39.915-56.032 39.639-74.577-10.121-135.215-56.843-155.156 0 0 13.218-27.328 30.312-35 1.739-.524-10.365-18.275-30.719-14.406-9.367.193-7.187.129-16-11.313-17.42-22.618-25.62-24.168-42.593.031-7.472 10.653-9.258 10.943-18.094 11.125-9.736.201-24.675 7.192-27.875 13.438-.733 1.429 3.084 2.888 8.156 8.812 7.297 8.525 18.557 20.235 16.781 32.157-38.476 15.652-102.3 84.338-35.187 172.281l-48.531.625-2.313-313.063-33.75 18.782 1.5 245.218-9.625-3.187c.74-78.218-.44-156.383-2.906-234.563l-89 64.844 3.969 367.688 9.468 2c7.024 50.098 106.268 15.06 112.063 19.406l1.187 204.312-4.343 10.125 78.968 43.157 72.438-37.563s9.777-1.759 13.437-3.687c30.037-15.826 52.421-12.276 68.75 10.937 10.074 14.321 11.782 16.438 11.782 16.438 6.105-41.319 42.745-56.547 78.28-45.75 26.138 7.94 61.853 33.985 72.782 65.781 0 0 1.965 4.785 3.906 6.938l1.5.656c-.093-.829-1.725-4.792-2.343-6.719-36.654-84.174-139.942-97.084-155.876-28.313l-14.624-20.5 76.906-47.156 105.093 69.156s-4.94 24.311-5.5 34.813l1.813.844c.726-12.719 4.534-27.256 10.563-38.032 2.487-4.442 5.369-8.057 8.593-10.75 6.277-3.645 12.098-3.271 18.469-9.25l-15.344-11.468-.343-36.813 30.843 43.188c9.698-2.243 47.471-13.514 69.875-1.032 2.53.783 35.387-8.583 55.844 37.25 36.136-15.203 76.444-31.157 104.844-45.375-98.218-36.241-197.388-164.56-187.844-166.625 0 0-.29-13.166.469-45.468.795-36.007.362-72.763.968-108.89-33.425-10.672-25.116-37.61-25.116-37.61-20.092 4.407-23.296.505-28.383-3.032l-3.47-34.093c12.05-10.252 19.28-11.206 34.188-7.938 0 0-7.229-14.812-.656-27 5.534-9.64 20.268-15.724 32.031-8.937 14.796 9.69 12.332 28.962 8.494 34.574a1.7 1.7 0 0 0-.26.506c15.768-6.93 35.098.886 39.829 16.451 2.366-46.21 6.383-97.944 15.656-138.25 17.099-72.747 45.092-148.932 80.156-208.844 9.273-15.665 18.591-27.527 27.063-43.156 0 0-7.5 4.13-15.438 6.344-11.415 3.095-20.01 6.041-21.312 7.343-8.35 7.028-19.304 12.236-28.25 16.125-31.547 12.277-52.754-6.032-65.852-33.993-7.29 35.512-39.835 65.56-87.832 46.887-27.119-14.392-35.644-23.594-61.004-61.144-2.13-3.838-7.625-8.25-7.625-8.25m1.046 5.803c17.946 35.48 44.811 60.617 70.926 70.666 46.627 15.284 77.384-14.567 86.056-41.991l8.998 15.236-70.597 50.12-106.528-67.72c1.782-1.632 11.308-25.492 11.145-26.31m320.58 2.446-31.626 18.625s-21.006 33.894-28.062 46.657c-36.895 65.159-64.59 136.048-79.031 206.375-12.916 58.242-17.665 130.316-16.282 179.375l2.469 2.687s-3.876 6.8-6.656 12.532c-7.553 15.573-9.398 24.38-8.938 42.437 1.053 41.55 26.314 81.323 62 97.531 2.011.914 4.688 2.094 4.688 2.094s-6.117 16.54-17.219 28.188c-7.406 7.768-8.993 8.148-6.375 11.968 3.641 5.317 15.397 9.933 30 9.719 5.168-.076 5.136-.09 14.688 10.313 18.646 20.306 24.251 19.89 41.218-3.125 5.044-6.842 7.914-8.48 15.282-8.657 10.837-.258 30.617-9.005 30.53-13.093-13.343-5.91-28.801-36.367-26.343-36.688 72.965-38.606 88.426-118.627 35.135-177.469l50.896-.812 1.875 319.218c9.966-6.614 32.5-20.843 32.5-20.843l-.745-248.403c3.5.664 7.066 3.17 13.87 4.278l2 236.532s65.396-46.095 96.5-70.157L4999.875 457h-7.437l1.187 361.781-86.406 63.094-.563-224.844s6.826-1.018 9.375-1.375c25.29-3.538 37.004-35.786 20.219-56.843-5.958-7.475-1.73-6.946 10.937-9.375 22.468-1.98 34.909-18.961 28.375-31.063-2.802-5.191.846-4.63 3.22-9.562 1.556-3.88 1.263-8.69.593-12.5-.88-5.001 1.17-7.215 2.437-10.407 1.985-5 .06-10.648-3.25-15.343-3.492-4.956-2.529-10.275-2.562-13.563-.152-7.351-2.811-8.401-10.594-15.5-5.888-5.37-1.162-6.542 7.5-11 13.629-7.014 14.567-31.835-3.562-42.406-22.71-9.262-58.176.817-97.032 4.656 0 0-.127-141.52-1.124-214.469zm0 5s77.58 45.386 76.968 46.657c-26.055 35.684-123.236 177.875-123.937 349.812-71.264-8.943-100.443 46.774-103.907 46.563-9.365-210.457 76.05-361.031 119.813-424.938zm-51.043 23.137.132 11.603-15.566 24.708-.598-26.035zm-21.645 12.551.562 37-31.5 24.063-.887-38.594zm-291.969 8.469 16.188 11.187-.563 36.719L4416 222.406Zm443.125 12.375.125 26.562c-62.106 87.602-94.694 187.66-104.656 314.375l-15.125-.5c4.002-126.004 46.423-240.972 119.656-340.437m-420.625 2.719 38.313 25.03-1.657 41.876-34.781-22.313-3.25-8.562zm231.938 1.78-.157 38.938-29.593 21.969-1.375-38.656zM4320.5 245.907c4.39.053 7.897 3.25 8.719 9.313 3.25 25.88 22.94 18.41 27.625 26.187 1.771 2.654-2.428 4.96-15.907 3.875-24.712-1.848-42.725-21.835-30.093-35 3.246-2.983 6.652-4.411 9.656-4.375m170.781 16.688L4524 283.438l-.094 43-32.062-19.563zm149.282.125 2.53 38.031-35.812 23.813L4606 286.78Zm68.156.156-20.563 43.781-119.969 86.313-99.562-64.469-18.469-42.25 116.156 75.781zm-323.532 17.375c31.88-.39 56.346 33.446 64.72 63.094 6.087 19.603 7.013 26.659 7.656 57.781.657 31.703 1.651 37.177 7.593 41.656 3.661 2.759 4.725 2.014 5.188-3.594 1.033-12.457 15.925-4.78 16.187 8.344.289 14.578-15.76 19.262-27.625 8.063-6.318-5.963-6.4-5.906-8.375 5.812-1.316 7.85-10.463 56.99 12.907 69.219 4.4.416 5.454-3.112 2.187-7.219-6.558-8.237 6.54-17.744 17.219-12.5 12.905 6.34 11.598 27.138-2.188 34.531-15.769 8.46-36.16-1.154-45.687-21.53-6.991-14.959-6.96-35.698.125-66.5 3.265-14.197 4.702-23.238 5.437-34.126.242-3.574.665-7.466.938-8.656.76-3.318-.877-3.475-6.532-.625-15.43 7.779-32.26 2.25-36.406-11.969-4.957-17 13.99-34.564 25.688-23.812 4.44 4.08 3.901 8.134-1.406 10.75-9.199 4.531-6.057 16.453 3.718 14.094 32.23-9.645 2.763-100.083-33.531-106.344-23.996-4.14-42.834 23.192-25.469 37.812 6.803 5.728 13.707 2.654 12.219-5.437-2.072-11.287 12.922-10.068 18.469 1.5 9.023 18.823-14.273 34.144-36.031 23.719-39.05-23.189-12.356-73.352 23-74.063m144.532 7.188 32.156 21.593.281 41.969-31.937-18.937zm70.843 3.625.157 38.53-31.032 22.563v-41zm83.594 25.25-15.875 44.218-100.156 68.5-82.625-51.812-14.219-40.906 97.344 63.062zm-650.031 3.218-.031 223.844c-32.454 1.381-51.085 33.481-26.781 63.813 0 0-4.236.57-9.188 1.25-21.954 3.01-36.66 14.647-33.75 28.75.892 4.32-.01 8.685-1.25 10.843-1.954 5.796-1.437 10.223 1.188 15.219 2.06 3.924 1.718 5.5.562 8.406-2.49 6.256-1.895 11.076 1.031 15.844 3.616 3.537 2.612 6.393 2.125 12.063-.579 8.006.86 11.227 5.907 14.343 6.505 4.017 8.93 10.604 1.531 10.063-3.672-.269-16.594 12.187-16.594 12.187l-1.219-359.218zm175.969 28.719c5.807-.015 11.788 7.28 20.375 19.594 5.19 8.818 5.28 7.622 17.156 7.156 12.13.884 19.516 4.087 22.688 7.75 1.198 1.387-1.984 1.749-9.657 9.531-7.955 8.071-9.059 11.28-14.343 20.313-1.904 3.257-6.056 3.564-8 .594-1.572-2.404 2.452-10.221 10-19.438 10.647-10.276 8.41-11.312-7.063-9.687-10.87 1.14-12.03.598-16.156-6-12.306-24.464-18.843-23.638-30.625.75-3.214 6.824-1.937 6.386-15.875 5.312-10.977-.846-13.692 1.923-7.5 7.688 9.67 7.937 13.437 26.665 12.906 26.437l-7.469.688s-2.282-4.218-3.281-6.875c-2.025-5.38-7.467-13.464-13.375-19.844-8.368-9.04-3.771-13.984 14.906-16 10.41-1.124 10.647-1.267 15.438-8.281 8.437-12.357 14.067-19.673 19.875-19.688m454.312 22.281-10.781 38.188-85.438 59.906-69.5-46.375-9.218-35.906 79.843 50.562zm-294.562 30.25s24.696 48.109 33.656 79.282c7.795 27.118 18.632 105.636 15.781 110.468-6.07-8.33-26.133-6.451-26.406-6.375 1.699-9.198-5.735-27.737-22.844-31.406zm281.093 17.594-8.53 37.594-72.75 52.594-60.032-41-7.875-36.344 66.438 44.375zM4228 420.469l9.438 3.281 1.78 67.906L4312 503.75l1.656 11.625-84.281-13.594c-.884-28.959-1.375-81.312-1.375-81.312m-36.937 2.031 2.03 78.969c-.786-.263-60.672 8.273-83.593 14.281l1.344-10.812s41.628-9.054 71.781-12.532c0-22.082-.173-45.307-.219-67.812zm677.124 14.531s9.905.921 31.094-2.812c54.628-9.558 69.424-5.685 76.407 11.156 7.63 26.113-21 26.745-26.102 10.168-3.245-10.743-14.977-8.39-54.149.894-33.5 7.941-54.727 1.584-54.319-17.394.42-19.512 22.648-21.238 27.07-2.012M4419.25 422.75c6.755-.098 12.34 5.308 12.438 12.063.097 6.754-5.308 12.308-12.063 12.406s-12.308-5.277-12.406-12.031c-.1-6.755 5.276-12.34 12.031-12.438m-177.469 2.156 8.625 2.594s1.272 51.511 1.532 51.594c18.56 4.09 57.53 11.406 57.53 11.406l2.063 10.188c-16.312-3.83-68.312-12.344-68.312-12.344-1.623-22.34-1.438-63.438-1.438-63.438m-62.968.969s.032 41.105-.657 63.188c.29-.194-44.127 7.071-66.687 11.75l1.75-8.25c17.84-4.028 37.258-8.069 56.906-12.188-.39-16.168-.375-51.625-.375-51.625zm31.718 8.844c5.424-.079 9.922 4.295 10 9.719.08 5.423-4.295 9.858-9.718 9.937a9.78 9.78 0 0 1-9.938-9.656c-.079-5.424 4.233-9.921 9.656-10m739.125 25.656c6.044 8.953 11.109 8.686 17.063 7.813-1.5.44-8.527 4.596-8.125 5.968.2.686-2.965 12.005 1.844 12.469 18.128 1.75 8.954 20.575 11.125 23.469 4.9 5.585 8.486 9.128 5.125 16.094-2.982 6.182-7.264 5.987-3.938 11.28 7.223 10.859-2.756 13.11-1.875 20.5.607 4.463 2.177 10.56.531 14.032-4.962 10.466-22.488 16.434-41.968 17.25-2.776.124-.67-4.412-1.97-7.281-4.815-3.045-2.179-8.175-.562-11.532 1.598-4.456 1.612-4.46-1.375-6.718-8.313-5.166-7.886-7.548-7.218-11.282 1.821-11.036.107-12.116-3.22-13.75-4.262-2.093-3.679-6.748-1.78-12.718 1.31-4.127.382-5.16-1.626-8.907-1.181-2.201-1.533-3.398-1.562-4.812.599-5.7-4.508-5.68-11.656-.094-6.062 10.445-8.143 24.153-11.938 32.813-2.936 6.652-3.402 13.601.094 28.937 6.71 23.441 1.727 27.35-24.656 22.344-19.84-4.88-25.702-26.052-20.188-51.969.893-4.192.648-8.245.25-11.53-2.159-17.842 2.453-34.978 14.907-46.688 20.785-19.545 31.062-22.523 74.031-19.782 16.816 1.19 18.094 2.25 18.094 2.25s.073-8.091.593-8.156zm-309.468 5.375-5 36.344-41.02 28.2c-18.062-16.682-37.212-11.148-46.355 6.331-10.59-5.369-31.75-20-31.75-20l-5.407-41.219 58.657 40.688zm-428.782 8.625c5.423-.079 9.859 4.264 9.938 9.688.079 5.423-4.234 9.89-9.656 9.968-5.424.079-9.922-4.232-10-9.656-.08-5.424 4.295-9.921 9.718-10m422.032 37.219-2.22 35-14.343 10.781-18.497-.932c1.71-8.904-1.015-21.168-.835-21.286zm-422.282.281c5.424-.079 9.922 4.295 10 9.719.08 5.423-4.295 9.858-9.718 9.937a9.78 9.78 0 0 1-9.938-9.656c-.079-5.424 4.233-9.921 9.656-10m39.563 1.094a9.78 9.78 0 0 1 9.937 9.656c.08 5.424-4.234 9.89-9.656 9.969-5.424.079-9.889-4.264-9.969-9.688-.079-5.423 4.264-9.858 9.688-9.937m-78.656 1.875c5.423-.08 9.89 4.264 9.968 9.687.08 5.424-4.232 9.89-9.656 9.969s-9.921-4.264-10-9.687c-.08-5.424 4.264-9.89 9.688-9.97m730.593 1.593c2.768-.223 6.866 3.882 4.875 10.032-2.667 7.019-.793 9.405 3.657 15.093 3.765 4.813 3.1 5.481 2.53 8.563-.865 20.206 12.152 11.473 6.5 26.156-1.23 3.195.4 7.758.97 11.532-1.272-3.456-25.217-3.14-27.25.375-3.408-.509-7.724-23.003-4.282-25.97.443-.008 2.937 3.858 4.219 6.032 3.216 5.455 3.908 5.255 2.906-1.062-3.977-25.076-1.595-50.596 5.875-50.75m-612.281 1.75c5.424-.078 9.89 4.264 9.969 9.688s-4.264 9.859-9.688 9.938a9.78 9.78 0 0 1-9.937-9.657c-.08-5.423 4.232-9.89 9.656-9.968M4131.25 520c5.424-.079 9.858 4.264 9.938 9.688a9.78 9.78 0 0 1-9.657 9.937c-5.422.079-9.921-4.233-10-9.656s4.296-9.89 9.719-9.969m385.25 2.844 29.438 19.093c.404 5.31-1.17 7.087 1.687 17.563-19.212-1.79-28.937 9.156-28.937 9.156zm-209.687 30.531-2.282 10.375c-58.002-14.928-122.832-15.715-184.781.688l-4.812-10.907c62.568-18.974 129.05-19.671 191.874-.156m-274.626-.656c8.447-.147 17.079 3 23.157 9.812 11.42 12.795 5.924 36.521-10.219 44.063-24.156 11.286-49.32-12.847-39.062-37.719 4.259-10.327 15.265-15.968 26.124-16.156m597.844 3.031-.375 10.406-7.343-6.125zm-153.718.469c10.65-.155 19.407 8.38 19.562 19.031s-8.35 19.408-19 19.563-19.408-8.35-19.562-19c-.155-10.65 8.35-19.44 19-19.594m-443.594.625c-2.595.037-6.914 1.097-8.875 2.906-5.14 4.743.023 4.878 6.812 6.125 12.057 2.215 15.378 12.597 14.281 23.813-.996 10.192 2.428 10.034 5.188 6.25 11.236-15.403 1.644-37.85-17.406-39.094m178.531 11.187c14.429-.298 15.942 23.43 3.188 49.938-3.835 7.97-5.792 6.977-10-5.063-10.374-29.678-8.12-44.566 6.812-44.875m33.375.688c2.783-.14 5.48.921 7.688 3.437 7.757 8.843 1.79 23.156-18.876 45.188-5.023 5.356-7.624 7.4-9.468 7.437-5.174.107-5.152-.752.718-19.875 3.821-11.256 5.708-35.525 19.938-36.187m-46.75 41.531c1.584 4.607 2.636 8.99 2.375 9.719-1.274 3.537-10.485-1.272-17.062-8.907-13.245-15.375-18.525-28.75-15.787-35.93 4.016-5.75 15.279-9.065 19.025-3.275 7.093 10.964 7.065 25.421 11.449 38.393m85.813-35.625c13.96 8.233-2.123 27.03-33.407 42.625-13.385 6.673-12.429 3.667-2.281-9.5 3.884-5.04 9.085-13.24 11.625-18.25 5.615-11.075 11.237-22.155 24.063-14.875m-139.376.063c4.433-.037 8.968 4.704 17.376 16.875 6.061 9.087 16.866 18.34 20 26.03-1.443 8.534-44.993-18.498-48.126-29.874-1.076-6.938 4.383-13.142 10.75-13.032m623.313 24.75c7.854 16.15 8.53 26.192 2.031 29.843-9.231 5.189-21.104-2.724-21.343-14.218-.08-3.862-4.052-17.339-7.688-26.094-2.994-7.205-3.402-11.652-.94-12.009 9.626 1.541 23.875 14.89 27.94 22.477m-52.125-12.25c-4.46 11.443-5.024 26.214-8.406 35.343-6.337 17.106-26.845 3.029-19.907-14.125 6.26-15.465 22.186-31.564 28.462-32.097 4.293-.364.282 9.525-.149 10.879m12.712-8.864c3.146-.31 5.785 6.566 9.85 18.145 5.493 15.64 5.264 27.839-.656 33.031-12.687 11.13-26-5.03-20.875-25.344 4.099-16.235 8.115-25.48 11.68-25.832m-425.712 2.864c15.794 232.456-103.372 411.3-111.862 416.179l-40.547 22.171-71.13-38.745c73.706-101.064 117.765-216.9 121.101-351.418 68.186 6.62 103.263-47.945 102.438-48.187m390.757.738c4.973-1.364 1.502 2.98-3.431 10.094-5.265 7.592-12.1 28.232-17.52 31.538-12.16 5.845-25.919-5.294-18.542-14.973 6.793-8.913 26.754-23.167 39.493-26.66m72.337 1.574c1.909-.008 5.474 1.25 10.656 3.781 25.318 12.364 37.804 28.672 26.97 36.472-7.607 5.477-15.741 1.229-23.345-13.19-2.58-4.898-7.296-12.168-10.437-16.188-5.698-7.286-7.024-10.862-3.844-10.875m142.344 8.281c16.27-.236 29.638 12.73 29.875 29 .236 16.271-12.761 29.67-29.032 29.907-16.27.236-29.638-12.792-29.875-29.063-.236-16.27 12.76-29.607 29.032-29.844m-8.965 7.648c-19.146 8.481-13.379 38.54 3.12 42.884 6.97 1.95 15.447-.95 11.953-4.302-21.798-6.84-21.938-22.91-13.157-34.67 1.41-1.889-.481-4.548-1.916-3.912m-797.51 41.346c-.745 16.988 2.876 36.664-5.182 55.131-12.356 28.32-51.802 41.297-72.906 38.782-4.396-1.806-9.517-3.517-13.851-1.678-2.622 1.113-5.856.97-8.653-.33-2.698-1.256-5.288.388-7.902-.555-3.059-2.066-8.056-6.758-7.469-10.25.955-4.923.574-8.572-5.187-10.187-7.985-2.239-9.6-6.551-7.25-19.188.507-2.73 1.12-3.966-.657-5.156-5.88-3.942-8.112-11.23-4.25-18.907 2.518-4.422 4.147-6.136.48-10.526-2.843-3.402-2.017-6.12 1.833-11.286 4.103-4.904 4.819-5.465 2.188-9.656-5.913-9.42.787-16.37 8.75-20.25 10.668-4.376 19.99-6.635 31.25-7.938 4.188.236 4.01 3.92 6.53 7.469 3.709 5.766-1.519 14.106 1.5 17.063 4.363 2.012 6.346 6.032 6 9.468-.151 8.005.333 10.743 2.5 14.094 2.402 3.711 3.306 10.527 1.063 15.16-1.996 4.125-1.778 3.845.844 6.278 2.596 2.407 3.874 14.474 2.952 14.244l10.95-1.003c-1.142 1.218 4.118-22.565 16.599-40.952-.688-14.405-6.176-27.65-5.688-46.674 27.05-9.685 46.586 13.312 45.555 36.847m420.162-32.369c3.906 3.067 23.29 8.462 24 7.844-.607 9.283 5.044 27.318 25.25 33.344.243 25.874.031 145.343.031 145.343-28.146-47.161-45.59-108.044-49.281-186.53zm-470.812 4.219s1.072 3.442 2.062 10.094c1.728 13.59-.136 15.445-3.75 6.156-4.232-10.878-4.451-2.403.313 22.5 1.153 6.031 1.109 7.431-.375 11.5-.928 2.55-2.584 8.478-3.875 13.125-3.807 13.671-6.031 17.6-9.938 6.719-1.992-5.548-3.659-6.413-2.237-10.757 1.778-5.438 1.35-9.514-2.232-14.806-.585-.864-1.871-2.846-2.093-8.468 1.1-12.625-4.52-12.744-5.624-16.007.188-4.939-2.119-16.91 1.28-16.587 2.798.265 12.925.545 17.719-1.219 2.124-.782 8.75-2.25 8.75-2.25m419.562 1.563c10.453-.152 19.036 8.203 19.188 18.656s-8.204 19.035-18.657 19.187-19.067-8.172-19.218-18.625c-.152-10.453 8.234-19.067 18.687-19.218m-292.25 11.53 14.344 2.72c3.196 1.065.866 198.83-113.938 341.562l-1-33.062c54.628-79.062 93.966-176.023 100.594-311.22m243.219 4.157 2.625 47.25c-8.076-6.868-28.59-19.725-28.438-20l.094-17.469c.02.037 17.63 1.351 25.719-9.781zm-110.563.656c3.46 1.456 6.475 4.803 9.438 7.219l-9.375 6.313zm328.625 2.375c61.932 18.37 122.919 17.838 183.219 4.407l4.125 11.562c-65.428 17.736-130.45 16.712-195.062-3.906zm-299.937 8.844 3.312 20.375-34.95 22.622 1.7-30.934L4327.75 642Zm309.406 16.969c5.646-.082 10.293 4.445 10.375 10.093.082 5.649-4.448 10.293-10.094 10.375-5.648.082-10.261-4.445-10.343-10.093s4.414-10.293 10.062-10.375m159.125.843c5.648-.082 10.293 4.446 10.375 10.094s-4.446 10.293-10.094 10.375-10.261-4.445-10.343-10.093c-.084-5.649 4.414-10.293 10.062-10.375m-298.031 31.79c4.58 16.143 3.582 52.622-2.313 77.367-1.77 7.43-2.844 33.805-2.844 33.805-1.093 1.38 35.08-29.935 46.71 11.131 4 14.12-12.252 27.506-23.13 23.589-2.12-.764-1.48-7.756.545-11.869 6.034-12.28-11.167-18.664-20.968-7.781-22.644 25.147.655 88.815 36.156 95 29.472 5.134 53.103-24.204 33.438-41.688-8.602-7.645-22.36 2.893-16.063 12.625 6.728 10.398-5.66 14.545-15.031 4.907-16.34-16.807 2.005-42.104 26.687-36.25 39.456 8.97 31.338 70.652-10.031 74.125-31.635 2.655-52.934-11.126-66.313-35.563-12.567-23.482-13.5-42.197-7.75-83.375 3.416-24.447.606-45.047-6.187-44.906-3.726.077-6.63 1.872-7.219 6.25-1.204 8.955-2.233 10.628-7.844 7.375-7.124-4.13-11.084-17.435.563-26.438 11.94-9.229 27.413 5.174 26.781 7.657.288-.457 1.49-2.798 3.094-13.282 5.217-34.11-6.372-70.15-20.688-64.375-3.141 1.267-2.764 2.689 1.344 5 9.538 5.364 1.133 19.109-10.844 17.719-16.96-1.969-20.815-25.63-5.875-36.094 23.533-12.687 42.705 7.178 47.782 25.07m-115.782-28.414s30.087 18.35 31.688 23.062c1.025 3.022 2.25 29.344 2.25 29.344l-52.219-32.688-74.863 46.282c1.225-10.16 6.613-36.313 6.613-36.313l39.813-25.187c.197 1.516 27.54 19.563 46.719-4.5m373.844 1.75c5.648-.082 10.293 4.445 10.375 10.093s-4.414 10.293-10.062 10.375c-5.646.082-10.293-4.414-10.375-10.062s4.416-10.325 10.062-10.407m-79.687.156c5.646-.082 10.322 4.414 10.406 10.062.082 5.648-4.48 10.325-10.125 10.407-5.648.082-10.262-4.446-10.344-10.094s4.415-10.293 10.063-10.375m40.062 2.312c5.648-.082 10.325 4.446 10.407 10.094.081 5.648-4.446 10.293-10.094 10.375s-10.291-4.446-10.375-10.094c-.082-5.648 4.414-10.293 10.062-10.375m-100.312 14.5c27.111 5.642 54.29 11.44 80.281 14.282l1.063 79.78-7.594-.437L4700.75 704c-25.108-1.797-48.79-7.186-71.031-12.937zm201.594 2.594-1.407 9.375s-46.906 8.119-71.406 11.281c-.39 16.06-.344 69.719-.344 69.719l-9.375 1.719-.03-81.219c27.815-3.024 55.596-6.15 82.562-10.875zm-453.875 4.5 55.218 36.5 6.5 38.688-64.375-42.782s-58.354 39.279-80.187 53.844l6.656-36.469zm254.906 7.219c22.23 4.703 44.458 9.592 66.687 11.5l.938 64.187-10.219-2.718-.812-52.094c-17.362-1.504-35.193-4.867-53.125-8.657zm196.656 1.906-1.875 8.719s-35.58 5.363-53.937 8.656c-1.626.373-1.032 56.5-1.032 56.5l-8.781 1.344-1.031-65.532zm-99.656 7.188c5.648-.082 10.26 4.445 10.344 10.093.082 5.648-4.415 10.293-10.063 10.375s-10.291-4.414-10.375-10.062c-.082-5.648 4.446-10.324 10.094-10.407m-352.75 23.156 65.281 44.062s7.568 22.948 9.188 35.657l-75.125-48.5-94 62.312 10.875-38.5zm-395.688 1.343c3.873.053 7.737 2.643 9.75 8.594 2.834 8.377 8.12 10.851 22.032 10.594 27.311-1.457 55.94-14.29 81.718-4.656 12.529 4.615 16.992 23.094 6.5 27.906-11.387 5.222-16.24 1.941-20.187-7-3.648-3.8-8.18-3.206-32.656 1-10.797 1.751-23.485 3.324-34.157 4.188-27.285 2.205-42.353-6.392-45.75-22.625-2.17-10.38 6.297-18.087 12.75-18m747.875 14.907c5.648-.082 10.292 4.414 10.375 10.062.082 5.648-4.445 10.324-10.093 10.407-5.649.082-10.294-4.446-10.376-10.094s4.446-10.293 10.094-10.375m-200 12.468c7.346-.106 13.394 5.779 13.5 13.125.107 7.347-5.779 13.394-13.125 13.5-7.346.107-13.362-5.778-13.468-13.125-.107-7.346 5.747-13.393 13.093-13.5m-152.093 9.313s53.723 35.89 78.593 52.469l13.75 39.5-91.5-59.5-111.961 72.841 13.43-40.622zm387.874 12.344c4.875 13.125 13.713 23.125 23.063 33.281 0 0-5.207 9.865-23.781 9.281-10.147-.319-10.69 1.274-14.157 8.157-5.69 8.72-10.321 14.417-14 17.25-6.504 5.008-18.698-2.475-28.75-17.688-3.662-5.543-5.179-6.853-16.218-6.625-16.951.35-23.086-4.35-14.282-11.969 7.678-9.353 13.195-19.637 20.063-29.468l7.625.875c.323 1.131-5.927 20.014-14.719 27.687-4.461 5.037 1.785 6.864 12.688 4.563 6.915-2.083 8.688-1.266 13.812 9.312 10.673 20.178 16.22 19.204 28.875-1.25 4.42-9.13 4.252-10.036 16.407-7.406 13.048 1.313 16.984-.325 11.624-4.875-10.835-9.195-16.812-30.875-16.812-30.875zm-387.406 27.031s97.159 63.635 96.907 62.25l19.468 45.875-114.031-75.844-139.312 90.594 20.843-45.406zm3.75 41.781 33.875 22.282-.094 40.093-34.593-23.25zm-8.687 1.157.625 39.562-30.375 18.094-1.688-37.125zm-38.193 25.231 1.443 37.862-34.938 24.219.125-40.281zm89.13.706 31.844 21.25 1.313 42.438-34.563-22.625zm39.313 25.906 31.937 22.188 1.125 42.375L4461.281 943Zm-169.031.157-.157 39.156-31.781 21.808-1.5-39.62zm336.125 50.53c-6.307 6.575-8.635 5.76-14.032-5.093-5.602-11.261-14.006-16.525-26.187-16.312-15.366.267-5.32-9.808 10.969-11 28.162-1.24 42.456 17.655 29.25 32.406m-377.531-24.443 1.656 38.902-32.008 18.06-.586-18.393 16.281-28.469Zm-37.003 45.917.424 13.792-8.14 5.379zm377.627 291.183c-133.088 28.474-260.684 18.414-352.25 1.469l-41.843 71.5-2.876-.125-10.78 18.5 1.156 2.125s-34.767 66.713-49.407 87.75c171.043-1.648 546.469-2.469 546.469-2.469l-22.875-46 1.25-1.25-22.594-48.031-7.343-8.313s-4.486-8.68-7.844-18c-3.09-8.577-16.344-32.062-16.344-32.062l-1.875.156zm-347.437 10.063c1.764 1.399 170.473 33.191 345.344.53l9.562 16c-153.046 35.222-374.489 1.578-365.75-1.687zm2.906 31.468c15.427-.55 31.058 7.738 41.594 21.563 3.353 4.4 8.844 17.375 8.844 17.375s7.382-12.225 14.625-18.344c10.952-9.255 25.16-16.982 45.718-16.25 18.926.674 39.762 10.92 58.563 40.531 4.745-17.086 66.933-75.141 118.156-2.75 5.858-19.236 33.271-57.658 77.656-30.812a719 719 0 0 1 6.157 13.625c-26.197-18.345-69.384-6.04-79.594 22.593-.916 3.488.243 5.301 1.594 8.688 13.499 19.294-21.625 18.831-11.22 3.219 1.947-3.55 2.107-6.47-1-11.125-8.236-12.343-33.026-27.707-51.218-27.313-21.008.457-44.286 14.397-52.062 27.063-2.87 4.673-3.522 9.352-1 13.437 1.83 4.12 1.204 7.567-1.875 10.094-7.236 5.936-16.324-.91-12.844-9.688 2.29-3.867 1.937-8.607-2.75-15.187-9.414-13.217-31.382-27.145-50.5-26.75-27.362.632-55 20.337-53.25 36.562.77 7.132-1.181 9.79-7 8.97-7.077-1-7.88-7.682-2.875-13.126.742-1.744 1.94-5.972-.344-9.062-28.892-39.074-72.152-27.685-82.062-18.938 9.629-16.509 23.075-23.889 36.687-24.375m-25.719 27.125c10.843.09 22.52 8.286 26.219 14.688 2.68-2.774 27.205-14.472 39.125 2.25-31.22-2.352-31.603 30.778-8.531 33.968-10.521 31.962 36.645 33.894 33.656 3.875 35.24 5.209 30.893-39.465-2.281-34.75 17.379-12.656 29.207-8.57 50.094 5.938 7.02-9.142 35.654-17.686 42.687-1.719-32.82-2.024-27.23 35.982-2.719 36.313-7.282 26.339 40.935 36.027 33.5-3.313 30.605 2.146 26.174-39.2-3.156-35.781 2.173-7.523 31.94-10.775 45.094 3.594 12.086-11.033 25.43-18.589 49.531-2.813-32.862-5.477-33.27 37.184-2.75 34.625-2.848 28.252 40.303 28.728 33.094-3.906 32.853-8.867 14.788-44.028-9.344-34.344 10.742-12.77 28.983-6.747 36.219-4.156 22.36-25.593 41.844-4.187 41.844-4.187-38.916-4.065-30.452 51.4 7.468 31.28-.038 11.412 4.862 21.292 20.344 22.907l18.406 38.094-521.586 3.437 28.778-50.615c2.91.915 19.542 2.428 23.12-17.072 34.276 10.873 36.576-29.036 10.97-35.344 3.102-2.142 6.604-2.998 10.218-2.969m-20.343 14.438c3.408 5.475.554 9.042-5.313 9.187 0 0 3.816-5.543 5.313-9.187m429.093 7.062 3.375 7.094c-3.652-1.48-4.1-3.045-3.375-7.094z" style="fill:#000" transform="matrix(.99957 .02064 -.02065 .99979 -3870.09 -482.784)"/></g></g></g></g></g><path id="path147-0-8-1-3-6-2-4-7" d="M3796.89-810.146c9.774-.212 14.157-11.217 6.918-19.763-1.05-1.247-1.158-1.962.765-.765 4.874 3.26 14.22 1.117 14.698-8.847.59-12.277-16.563-15.815-19.784-2.76-.17 1.377-1.29 1.346-1.02-.61.294-5.305 1.951-10.265 4.23-15.102h-11.621c2.278 4.837 3.935 9.797 4.229 15.103.27 1.955-.85 1.986-1.02.61-3.22-13.056-20.375-9.518-19.784 2.759.479 9.964 9.824 12.106 14.698 8.847 1.923-1.197 1.815-.482.765.765-7.24 8.546-2.856 19.55 6.918 19.763h.01z" style="opacity:1;fill:#000"/><path id="path147-0-8-1-0-3-83-7-5-7" d="M3693.82-1055.78c9.774.213 14.157 11.218 6.917 19.764-1.05 1.247-1.158 1.962.765.765 4.874-3.26 14.22-1.117 14.698 8.847.591 12.277-16.563 15.814-19.784 2.76-.17-1.378-1.29-1.346-1.02.609.294 5.306 1.952 10.266 4.23 15.102h-11.621c2.278-4.836 3.935-9.796 4.229-15.102.27-1.955-.85-1.987-1.02-.61-3.22 13.055-20.375 9.518-19.784-2.76.479-9.963 9.824-12.106 14.698-8.846 1.923 1.197 1.815.482.765-.765-7.24-8.546-2.856-19.55 6.918-19.763h.01z" style="opacity:1;fill:#000;stroke-width:1;stroke-miterlimit:4;stroke-dasharray:none"/></g></g><g id="g862" transform="translate(-346.275 116.58)"><rect id="rect22845-2" width="1659.913" height="794.398" x="-356.473" y="-1029.682" rx="144.482" ry="124.682" style="opacity:1;vector-effect:none;fill:#006614;fill-opacity:1;stroke:none;stroke-width:1.74801;stroke-linecap:butt;stroke-linejoin:miter;stroke-miterlimit:4;stroke-dasharray:none;stroke-dashoffset:0;stroke-opacity:1"/><text xml:space="preserve" id="text5630-0" x="472.194" y="-935.813" style="font-style:normal;font-variant:normal;font-weight:400;font-stretch:normal;font-size:42.6667px;line-height:125%;font-family:Carlito;-inkscape-font-specification:&quot;Carlito, Normal&quot;;text-align:center;letter-spacing:0;word-spacing:0;writing-mode:lr-tb;text-anchor:middle;fill:#fff;fill-opacity:1;stroke:none;stroke-width:1.06667px;stroke-linecap:butt;stroke-linejoin:miter;stroke-opacity:1"><tspan id="tspan4923" x="472.194" y="-935.813" style="font-style:normal;font-variant:normal;font-weight:400;font-stretch:normal;font-size:48px;line-height:125%;font-family:Carlito;-inkscape-font-specification:&quot;Carlito, Normal&quot;;text-align:center;writing-mode:lr-tb;text-anchor:middle;fill:#fff;fill-opacity:1;stroke-width:1.06667px">Single Playing Card from:</tspan><tspan id="tspan5035" x="472.194" y="-875.813" style="font-style:normal;font-variant:normal;font-weight:400;font-stretch:normal;font-size:48px;line-height:125%;font-family:Carlito;-inkscape-font-specification:&quot;Carlito, Normal&quot;;text-align:center;writing-mode:lr-tb;text-anchor:middle;fill:#fff;fill-opacity:1;stroke-width:1.06667px">Standard Edition - Color Set - Bordered </tspan><tspan id="tspan4927" x="472.194" y="-762.48" style="font-style:normal;font-variant:normal;font-weight:400;font-stretch:normal;font-size:48px;line-height:125%;font-family:Carlito;-inkscape-font-specification:&quot;Carlito, Normal&quot;;text-align:center;writing-mode:lr-tb;text-anchor:middle;fill:#faa;fill-opacity:1;stroke-width:1.06667px">Copyright 2011, 2020 - Chris Aguilar - conjurenation@gmail.com</tspan><tspan id="tspan4931" x="472.194" y="-649.147" style="font-style:normal;font-variant:normal;font-weight:400;font-stretch:normal;font-size:48px;line-height:125%;font-family:Carlito;-inkscape-font-specification:&quot;Carlito, Normal&quot;;text-align:center;writing-mode:lr-tb;text-anchor:middle;fill:#fff;fill-opacity:1;stroke-width:1.06667px">https://totalnonsense.com/open-source-vector-playing-cards/</tspan><tspan id="tspan4919" x="472.194" y="-535.813" style="font-style:normal;font-variant:normal;font-weight:400;font-stretch:normal;font-size:48px;line-height:125%;font-family:Carlito;-inkscape-font-specification:&quot;Carlito, Normal&quot;;text-align:center;writing-mode:lr-tb;text-anchor:middle;fill:#faa;fill-opacity:1;stroke-width:1.06667px">Licensed under:</tspan><tspan id="tspan1594-5" x="472.194" y="-475.813" style="font-style:normal;font-variant:normal;font-weight:400;font-stretch:normal;font-size:48px;line-height:125%;font-family:Carlito;-inkscape-font-specification:&quot;Carlito, Normal&quot;;text-align:center;writing-mode:lr-tb;text-anchor:middle;fill:#faa;fill-opacity:1;stroke-width:1.06667px">LGPL 3.0</tspan><tspan id="tspan12253-3" x="472.194" y="-415.813" style="font-style:normal;font-variant:normal;font-weight:400;font-stretch:normal;font-size:48px;line-height:125%;font-family:Carlito;-inkscape-font-specification:&quot;Carlito, Normal&quot;;text-align:center;writing-mode:lr-tb;text-anchor:middle;fill:#faa;fill-opacity:1;stroke-width:1.06667px">https://www.gnu.org/licenses/lgpl-3.0.html</tspan><tspan id="tspan5033" x="472.194" y="-302.48" style="font-style:normal;font-variant:normal;font-weight:400;font-stretch:normal;font-size:48px;line-height:125%;font-family:Carlito;-inkscape-font-specification:&quot;Carlito, Normal&quot;;text-align:center;writing-mode:lr-tb;text-anchor:middle;fill:#fff;fill-opacity:1;stroke-width:1.06667px">Each Card Measures (63mm x 88mm)</tspan></text></g></svg>